G04*
G04 #@! TF.GenerationSoftware,Altium Limited,Altium Designer,24.9.1 (31)*
G04*
G04 Layer_Color=16711935*
%FSLAX44Y44*%
%MOMM*%
G71*
G04*
G04 #@! TF.SameCoordinates,95152EAB-924E-4990-96F7-4EF775BF21D2*
G04*
G04*
G04 #@! TF.FilePolarity,Negative*
G04*
G01*
G75*
%ADD52C,1.3000*%
%ADD53R,5.5478X2.9001*%
%ADD55R,6.8000X6.4000*%
%ADD56R,6.5000X6.7000*%
G04:AMPARAMS|DCode=62|XSize=1.1532mm|YSize=1.0532mm|CornerRadius=0.3141mm|HoleSize=0mm|Usage=FLASHONLY|Rotation=180.000|XOffset=0mm|YOffset=0mm|HoleType=Round|Shape=RoundedRectangle|*
%AMROUNDEDRECTD62*
21,1,1.1532,0.4250,0,0,180.0*
21,1,0.5250,1.0532,0,0,180.0*
1,1,0.6282,-0.2625,0.2125*
1,1,0.6282,0.2625,0.2125*
1,1,0.6282,0.2625,-0.2125*
1,1,0.6282,-0.2625,-0.2125*
%
%ADD62ROUNDEDRECTD62*%
G04:AMPARAMS|DCode=75|XSize=1.1532mm|YSize=1.0532mm|CornerRadius=0.3141mm|HoleSize=0mm|Usage=FLASHONLY|Rotation=90.000|XOffset=0mm|YOffset=0mm|HoleType=Round|Shape=RoundedRectangle|*
%AMROUNDEDRECTD75*
21,1,1.1532,0.4250,0,0,90.0*
21,1,0.5250,1.0532,0,0,90.0*
1,1,0.6282,0.2125,0.2625*
1,1,0.6282,0.2125,-0.2625*
1,1,0.6282,-0.2125,-0.2625*
1,1,0.6282,-0.2125,0.2625*
%
%ADD75ROUNDEDRECTD75*%
G04:AMPARAMS|DCode=76|XSize=1.8432mm|YSize=0.7932mm|CornerRadius=0.2491mm|HoleSize=0mm|Usage=FLASHONLY|Rotation=0.000|XOffset=0mm|YOffset=0mm|HoleType=Round|Shape=RoundedRectangle|*
%AMROUNDEDRECTD76*
21,1,1.8432,0.2950,0,0,0.0*
21,1,1.3450,0.7932,0,0,0.0*
1,1,0.4982,0.6725,-0.1475*
1,1,0.4982,-0.6725,-0.1475*
1,1,0.4982,-0.6725,0.1475*
1,1,0.4982,0.6725,0.1475*
%
%ADD76ROUNDEDRECTD76*%
%ADD79R,1.1532X1.4032*%
G04:AMPARAMS|DCode=84|XSize=1.3032mm|YSize=1.2032mm|CornerRadius=0.3516mm|HoleSize=0mm|Usage=FLASHONLY|Rotation=270.000|XOffset=0mm|YOffset=0mm|HoleType=Round|Shape=RoundedRectangle|*
%AMROUNDEDRECTD84*
21,1,1.3032,0.5000,0,0,270.0*
21,1,0.6000,1.2032,0,0,270.0*
1,1,0.7032,-0.2500,-0.3000*
1,1,0.7032,-0.2500,0.3000*
1,1,0.7032,0.2500,0.3000*
1,1,0.7032,0.2500,-0.3000*
%
%ADD84ROUNDEDRECTD84*%
G04:AMPARAMS|DCode=85|XSize=0.75mm|YSize=0.7mm|CornerRadius=0.2mm|HoleSize=0mm|Usage=FLASHONLY|Rotation=0.000|XOffset=0mm|YOffset=0mm|HoleType=Round|Shape=RoundedRectangle|*
%AMROUNDEDRECTD85*
21,1,0.7500,0.3000,0,0,0.0*
21,1,0.3500,0.7000,0,0,0.0*
1,1,0.4000,0.1750,-0.1500*
1,1,0.4000,-0.1750,-0.1500*
1,1,0.4000,-0.1750,0.1500*
1,1,0.4000,0.1750,0.1500*
%
%ADD85ROUNDEDRECTD85*%
G04:AMPARAMS|DCode=86|XSize=0.75mm|YSize=0.7mm|CornerRadius=0.2mm|HoleSize=0mm|Usage=FLASHONLY|Rotation=90.000|XOffset=0mm|YOffset=0mm|HoleType=Round|Shape=RoundedRectangle|*
%AMROUNDEDRECTD86*
21,1,0.7500,0.3000,0,0,90.0*
21,1,0.3500,0.7000,0,0,90.0*
1,1,0.4000,0.1500,0.1750*
1,1,0.4000,0.1500,-0.1750*
1,1,0.4000,-0.1500,-0.1750*
1,1,0.4000,-0.1500,0.1750*
%
%ADD86ROUNDEDRECTD86*%
G04:AMPARAMS|DCode=87|XSize=1.3032mm|YSize=1.5032mm|CornerRadius=0.3516mm|HoleSize=0mm|Usage=FLASHONLY|Rotation=180.000|XOffset=0mm|YOffset=0mm|HoleType=Round|Shape=RoundedRectangle|*
%AMROUNDEDRECTD87*
21,1,1.3032,0.8000,0,0,180.0*
21,1,0.6000,1.5032,0,0,180.0*
1,1,0.7032,-0.3000,0.4000*
1,1,0.7032,0.3000,0.4000*
1,1,0.7032,0.3000,-0.4000*
1,1,0.7032,-0.3000,-0.4000*
%
%ADD87ROUNDEDRECTD87*%
%ADD89C,2.0000*%
%ADD91C,1.8532*%
%ADD92C,1.3532*%
%ADD93R,1.8532X1.8532*%
%ADD94R,1.8032X1.8032*%
%ADD95C,1.8032*%
%ADD96C,1.4612*%
%ADD97R,1.4612X1.4612*%
%ADD98C,2.5032*%
%ADD99C,2.6532*%
%ADD101R,1.8032X1.8032*%
%ADD102C,6.5532*%
%ADD103C,1.5240*%
%ADD104C,0.5000*%
%ADD137C,0.4000*%
%ADD165R,4.5138X2.7001*%
G04:AMPARAMS|DCode=166|XSize=1.5232mm|YSize=0.8032mm|CornerRadius=0.1766mm|HoleSize=0mm|Usage=FLASHONLY|Rotation=270.000|XOffset=0mm|YOffset=0mm|HoleType=Round|Shape=RoundedRectangle|*
%AMROUNDEDRECTD166*
21,1,1.5232,0.4500,0,0,270.0*
21,1,1.1700,0.8032,0,0,270.0*
1,1,0.3532,-0.2250,-0.5850*
1,1,0.3532,-0.2250,0.5850*
1,1,0.3532,0.2250,0.5850*
1,1,0.3532,0.2250,-0.5850*
%
%ADD166ROUNDEDRECTD166*%
G04:AMPARAMS|DCode=167|XSize=2.1571mm|YSize=0.7853mm|CornerRadius=0.2471mm|HoleSize=0mm|Usage=FLASHONLY|Rotation=270.000|XOffset=0mm|YOffset=0mm|HoleType=Round|Shape=RoundedRectangle|*
%AMROUNDEDRECTD167*
21,1,2.1571,0.2911,0,0,270.0*
21,1,1.6629,0.7853,0,0,270.0*
1,1,0.4943,-0.1455,-0.8314*
1,1,0.4943,-0.1455,0.8314*
1,1,0.4943,0.1455,0.8314*
1,1,0.4943,0.1455,-0.8314*
%
%ADD167ROUNDEDRECTD167*%
%ADD168R,0.9000X0.6000*%
%ADD169R,1.3032X1.5032*%
G04:AMPARAMS|DCode=170|XSize=1.7402mm|YSize=0.4956mm|CornerRadius=0.1589mm|HoleSize=0mm|Usage=FLASHONLY|Rotation=90.000|XOffset=0mm|YOffset=0mm|HoleType=Round|Shape=RoundedRectangle|*
%AMROUNDEDRECTD170*
21,1,1.7402,0.1778,0,0,90.0*
21,1,1.4224,0.4956,0,0,90.0*
1,1,0.3178,0.0889,0.7112*
1,1,0.3178,0.0889,-0.7112*
1,1,0.3178,-0.0889,-0.7112*
1,1,0.3178,-0.0889,0.7112*
%
%ADD170ROUNDEDRECTD170*%
G04:AMPARAMS|DCode=171|XSize=2.1532mm|YSize=0.8532mm|CornerRadius=0.2641mm|HoleSize=0mm|Usage=FLASHONLY|Rotation=270.000|XOffset=0mm|YOffset=0mm|HoleType=Round|Shape=RoundedRectangle|*
%AMROUNDEDRECTD171*
21,1,2.1532,0.3250,0,0,270.0*
21,1,1.6250,0.8532,0,0,270.0*
1,1,0.5282,-0.1625,-0.8125*
1,1,0.5282,-0.1625,0.8125*
1,1,0.5282,0.1625,0.8125*
1,1,0.5282,0.1625,-0.8125*
%
%ADD171ROUNDEDRECTD171*%
G04:AMPARAMS|DCode=172|XSize=1.8432mm|YSize=0.7932mm|CornerRadius=0.2491mm|HoleSize=0mm|Usage=FLASHONLY|Rotation=270.000|XOffset=0mm|YOffset=0mm|HoleType=Round|Shape=RoundedRectangle|*
%AMROUNDEDRECTD172*
21,1,1.8432,0.2950,0,0,270.0*
21,1,1.3450,0.7932,0,0,270.0*
1,1,0.4982,-0.1475,-0.6725*
1,1,0.4982,-0.1475,0.6725*
1,1,0.4982,0.1475,0.6725*
1,1,0.4982,0.1475,-0.6725*
%
%ADD172ROUNDEDRECTD172*%
%ADD173R,1.8032X1.0032*%
%ADD174R,3.2032X2.3032*%
%ADD175R,2.6532X2.6532*%
G04:AMPARAMS|DCode=176|XSize=0.36mm|YSize=0.9mm|CornerRadius=0.115mm|HoleSize=0mm|Usage=FLASHONLY|Rotation=180.000|XOffset=0mm|YOffset=0mm|HoleType=Round|Shape=RoundedRectangle|*
%AMROUNDEDRECTD176*
21,1,0.3600,0.6700,0,0,180.0*
21,1,0.1300,0.9000,0,0,180.0*
1,1,0.2300,-0.0650,0.3350*
1,1,0.2300,0.0650,0.3350*
1,1,0.2300,0.0650,-0.3350*
1,1,0.2300,-0.0650,-0.3350*
%
%ADD176ROUNDEDRECTD176*%
G04:AMPARAMS|DCode=177|XSize=0.9mm|YSize=0.36mm|CornerRadius=0.115mm|HoleSize=0mm|Usage=FLASHONLY|Rotation=180.000|XOffset=0mm|YOffset=0mm|HoleType=Round|Shape=RoundedRectangle|*
%AMROUNDEDRECTD177*
21,1,0.9000,0.1300,0,0,180.0*
21,1,0.6700,0.3600,0,0,180.0*
1,1,0.2300,-0.3350,0.0650*
1,1,0.2300,0.3350,0.0650*
1,1,0.2300,0.3350,-0.0650*
1,1,0.2300,-0.3350,-0.0650*
%
%ADD177ROUNDEDRECTD177*%
G04:AMPARAMS|DCode=178|XSize=1.5532mm|YSize=0.5532mm|CornerRadius=0.1891mm|HoleSize=0mm|Usage=FLASHONLY|Rotation=0.000|XOffset=0mm|YOffset=0mm|HoleType=Round|Shape=RoundedRectangle|*
%AMROUNDEDRECTD178*
21,1,1.5532,0.1750,0,0,0.0*
21,1,1.1750,0.5532,0,0,0.0*
1,1,0.3782,0.5875,-0.0875*
1,1,0.3782,-0.5875,-0.0875*
1,1,0.3782,-0.5875,0.0875*
1,1,0.3782,0.5875,0.0875*
%
%ADD178ROUNDEDRECTD178*%
G04:AMPARAMS|DCode=179|XSize=0.5532mm|YSize=1.5532mm|CornerRadius=0.1891mm|HoleSize=0mm|Usage=FLASHONLY|Rotation=0.000|XOffset=0mm|YOffset=0mm|HoleType=Round|Shape=RoundedRectangle|*
%AMROUNDEDRECTD179*
21,1,0.5532,1.1750,0,0,0.0*
21,1,0.1750,1.5532,0,0,0.0*
1,1,0.3782,0.0875,-0.5875*
1,1,0.3782,-0.0875,-0.5875*
1,1,0.3782,-0.0875,0.5875*
1,1,0.3782,0.0875,0.5875*
%
%ADD179ROUNDEDRECTD179*%
G04:AMPARAMS|DCode=180|XSize=2.1571mm|YSize=0.7853mm|CornerRadius=0.2471mm|HoleSize=0mm|Usage=FLASHONLY|Rotation=180.000|XOffset=0mm|YOffset=0mm|HoleType=Round|Shape=RoundedRectangle|*
%AMROUNDEDRECTD180*
21,1,2.1571,0.2911,0,0,180.0*
21,1,1.6629,0.7853,0,0,180.0*
1,1,0.4943,-0.8314,0.1455*
1,1,0.4943,0.8314,0.1455*
1,1,0.4943,0.8314,-0.1455*
1,1,0.4943,-0.8314,-0.1455*
%
%ADD180ROUNDEDRECTD180*%
G04:AMPARAMS|DCode=181|XSize=1.6532mm|YSize=0.7932mm|CornerRadius=0.1754mm|HoleSize=0mm|Usage=FLASHONLY|Rotation=90.000|XOffset=0mm|YOffset=0mm|HoleType=Round|Shape=RoundedRectangle|*
%AMROUNDEDRECTD181*
21,1,1.6532,0.4425,0,0,90.0*
21,1,1.3025,0.7932,0,0,90.0*
1,1,0.3507,0.2213,0.6513*
1,1,0.3507,0.2213,-0.6513*
1,1,0.3507,-0.2213,-0.6513*
1,1,0.3507,-0.2213,0.6513*
%
%ADD181ROUNDEDRECTD181*%
%ADD182R,1.2032X3.2032*%
%ADD183R,10.6532X8.3032*%
G04:AMPARAMS|DCode=184|XSize=1.3032mm|YSize=1.2032mm|CornerRadius=0.3516mm|HoleSize=0mm|Usage=FLASHONLY|Rotation=0.000|XOffset=0mm|YOffset=0mm|HoleType=Round|Shape=RoundedRectangle|*
%AMROUNDEDRECTD184*
21,1,1.3032,0.5000,0,0,0.0*
21,1,0.6000,1.2032,0,0,0.0*
1,1,0.7032,0.3000,-0.2500*
1,1,0.7032,-0.3000,-0.2500*
1,1,0.7032,-0.3000,0.2500*
1,1,0.7032,0.3000,0.2500*
%
%ADD184ROUNDEDRECTD184*%
%ADD185C,0.6932*%
G04:AMPARAMS|DCode=186|XSize=1.3032mm|YSize=1.5032mm|CornerRadius=0.3516mm|HoleSize=0mm|Usage=FLASHONLY|Rotation=90.000|XOffset=0mm|YOffset=0mm|HoleType=Round|Shape=RoundedRectangle|*
%AMROUNDEDRECTD186*
21,1,1.3032,0.8000,0,0,90.0*
21,1,0.6000,1.5032,0,0,90.0*
1,1,0.7032,0.4000,0.3000*
1,1,0.7032,0.4000,-0.3000*
1,1,0.7032,-0.4000,-0.3000*
1,1,0.7032,-0.4000,0.3000*
%
%ADD186ROUNDEDRECTD186*%
%ADD187C,0.2032*%
D52*
X888000Y9000D02*
G03*
X891000Y12000I0J3000D01*
G01*
X10010Y891000D02*
G03*
X9000Y889990I0J-1010D01*
G01*
Y12000D02*
G03*
X12000Y9000I3000J0D01*
G01*
X891000Y888000D02*
G03*
X888000Y891000I-3000J0D01*
G01*
X891000Y12000D02*
Y888000D01*
X10010Y891000D02*
X888000D01*
X12000Y9000D02*
X888000D01*
X9000Y12000D02*
Y889990D01*
D53*
X89261Y876500D02*
D03*
D55*
X860700Y39000D02*
D03*
D56*
X39500Y40500D02*
D03*
D62*
X222000Y348750D02*
D03*
Y333250D02*
D03*
X311000Y439250D02*
D03*
Y454750D02*
D03*
X262750Y452750D02*
D03*
Y437250D02*
D03*
X76000Y124750D02*
D03*
Y109250D02*
D03*
X76000Y391250D02*
D03*
Y406750D02*
D03*
X167000Y275250D02*
D03*
Y290750D02*
D03*
X76000Y165250D02*
D03*
Y180750D02*
D03*
Y198250D02*
D03*
Y213750D02*
D03*
X236000Y333250D02*
D03*
Y348750D02*
D03*
X76000Y297250D02*
D03*
Y312750D02*
D03*
Y329250D02*
D03*
Y344750D02*
D03*
X167000Y307250D02*
D03*
Y322750D02*
D03*
X76000Y246750D02*
D03*
Y231250D02*
D03*
Y279750D02*
D03*
Y264250D02*
D03*
X297000Y542250D02*
D03*
Y557750D02*
D03*
X662000Y509250D02*
D03*
Y524750D02*
D03*
X787000Y512250D02*
D03*
Y527750D02*
D03*
X484000Y225750D02*
D03*
Y210250D02*
D03*
Y253750D02*
D03*
Y238250D02*
D03*
X738990Y738244D02*
D03*
Y722745D02*
D03*
X691000Y756250D02*
D03*
Y771750D02*
D03*
X698990Y635745D02*
D03*
Y651245D02*
D03*
X683990Y635745D02*
D03*
Y651245D02*
D03*
X842000Y107250D02*
D03*
Y122750D02*
D03*
X696000Y105250D02*
D03*
Y120750D02*
D03*
X682000D02*
D03*
Y105250D02*
D03*
X575000Y133000D02*
D03*
Y117500D02*
D03*
X589000D02*
D03*
Y133000D02*
D03*
X304000Y265250D02*
D03*
Y280750D02*
D03*
X265000Y266250D02*
D03*
Y281750D02*
D03*
X290000Y280750D02*
D03*
Y265250D02*
D03*
X46000Y556250D02*
D03*
Y571750D02*
D03*
X278000Y763250D02*
D03*
Y778750D02*
D03*
X262000Y763250D02*
D03*
Y778750D02*
D03*
X357000Y339250D02*
D03*
Y354750D02*
D03*
X388796Y334250D02*
D03*
Y349750D02*
D03*
D75*
X618750Y519000D02*
D03*
X603250D02*
D03*
X672250Y462000D02*
D03*
X687750D02*
D03*
X799250Y460000D02*
D03*
X814750D02*
D03*
X458750Y670000D02*
D03*
X443250D02*
D03*
X95750Y736000D02*
D03*
X80250D02*
D03*
X126250Y779000D02*
D03*
X141750D02*
D03*
X126250Y751000D02*
D03*
X141750D02*
D03*
X126250Y765000D02*
D03*
X141750D02*
D03*
X108750Y801500D02*
D03*
X93250D02*
D03*
X466750Y205000D02*
D03*
X451250D02*
D03*
X466750Y191000D02*
D03*
X451250D02*
D03*
X176500Y584000D02*
D03*
X161000D02*
D03*
X111500D02*
D03*
X127000D02*
D03*
X177750Y454000D02*
D03*
X162250D02*
D03*
X127750D02*
D03*
X112250D02*
D03*
X681750Y704000D02*
D03*
X666250D02*
D03*
X681750Y690000D02*
D03*
X666250D02*
D03*
X213250Y230000D02*
D03*
X228750D02*
D03*
X210250Y139000D02*
D03*
X225750D02*
D03*
X213250Y246000D02*
D03*
X228750D02*
D03*
X210250Y124000D02*
D03*
X225750D02*
D03*
X388250Y222000D02*
D03*
X403750D02*
D03*
X388250Y131000D02*
D03*
X403750D02*
D03*
X388250Y236000D02*
D03*
X403750D02*
D03*
X388250Y117000D02*
D03*
X403750D02*
D03*
X566750Y280000D02*
D03*
X551250D02*
D03*
X289750Y127000D02*
D03*
X274250D02*
D03*
X302250D02*
D03*
X317750D02*
D03*
D76*
X351350Y670950D02*
D03*
Y683650D02*
D03*
Y696350D02*
D03*
Y709050D02*
D03*
X298650D02*
D03*
Y696350D02*
D03*
Y683650D02*
D03*
Y670950D02*
D03*
X237350Y677950D02*
D03*
Y690650D02*
D03*
Y703350D02*
D03*
Y716050D02*
D03*
X184650D02*
D03*
Y703350D02*
D03*
Y690650D02*
D03*
Y677950D02*
D03*
X351350Y727950D02*
D03*
Y740650D02*
D03*
Y753350D02*
D03*
Y766050D02*
D03*
X298650D02*
D03*
Y753350D02*
D03*
Y740650D02*
D03*
Y727950D02*
D03*
X119350Y680950D02*
D03*
Y693650D02*
D03*
Y706350D02*
D03*
Y719050D02*
D03*
X66650D02*
D03*
Y706350D02*
D03*
Y693650D02*
D03*
Y680950D02*
D03*
X171350Y469950D02*
D03*
Y482650D02*
D03*
Y495350D02*
D03*
Y508050D02*
D03*
X118650D02*
D03*
Y495350D02*
D03*
Y482650D02*
D03*
Y469950D02*
D03*
X118650Y566050D02*
D03*
Y553350D02*
D03*
Y540650D02*
D03*
Y527950D02*
D03*
X171350D02*
D03*
Y540650D02*
D03*
Y553350D02*
D03*
Y566050D02*
D03*
D79*
X295500Y438000D02*
D03*
Y460000D02*
D03*
X278000D02*
D03*
Y438000D02*
D03*
D84*
X551796Y629814D02*
D03*
Y612814D02*
D03*
X704990Y670994D02*
D03*
Y687995D02*
D03*
X715480Y763494D02*
D03*
Y780495D02*
D03*
X511000Y852500D02*
D03*
Y869500D02*
D03*
X455000D02*
D03*
Y852500D02*
D03*
D85*
X710750Y144000D02*
D03*
X721250D02*
D03*
X107750Y312000D02*
D03*
X118250D02*
D03*
X107750Y303000D02*
D03*
X118250D02*
D03*
X127750Y312000D02*
D03*
X138250D02*
D03*
X127750Y321000D02*
D03*
X138250D02*
D03*
X127750Y303000D02*
D03*
X138250D02*
D03*
X749250Y487000D02*
D03*
X738750D02*
D03*
Y478000D02*
D03*
X749250D02*
D03*
X875250Y491000D02*
D03*
X864750D02*
D03*
Y482000D02*
D03*
X875250D02*
D03*
X532250Y669797D02*
D03*
X521750D02*
D03*
X512250D02*
D03*
X501750D02*
D03*
X736990Y688494D02*
D03*
X726490D02*
D03*
X816750Y144000D02*
D03*
X827250D02*
D03*
X542250Y146000D02*
D03*
X531750D02*
D03*
Y155000D02*
D03*
X542250D02*
D03*
X50500Y663000D02*
D03*
X40000D02*
D03*
Y672000D02*
D03*
X50500D02*
D03*
X95250Y569000D02*
D03*
X84750D02*
D03*
X145250Y679000D02*
D03*
X134750D02*
D03*
X134750Y688000D02*
D03*
X145250D02*
D03*
X51250Y681000D02*
D03*
X40750D02*
D03*
Y690000D02*
D03*
X51250D02*
D03*
X368750Y671000D02*
D03*
X379250D02*
D03*
X282250Y671000D02*
D03*
X271750D02*
D03*
X379250Y680000D02*
D03*
X368750D02*
D03*
X271750D02*
D03*
X282250D02*
D03*
X281250Y727000D02*
D03*
X270750D02*
D03*
X368750Y727000D02*
D03*
X379250D02*
D03*
X270750Y736000D02*
D03*
X281250D02*
D03*
X379250Y736000D02*
D03*
X368750D02*
D03*
X593750Y416000D02*
D03*
X604250D02*
D03*
X127750Y255000D02*
D03*
X138250D02*
D03*
X127750Y264000D02*
D03*
X138250D02*
D03*
X127750Y273000D02*
D03*
X138250D02*
D03*
X107750Y321000D02*
D03*
X118250D02*
D03*
X107750Y255000D02*
D03*
X118250D02*
D03*
X107750Y264000D02*
D03*
X118250D02*
D03*
X107750Y273000D02*
D03*
X118250D02*
D03*
X135250Y791000D02*
D03*
X124750D02*
D03*
Y800500D02*
D03*
X135250D02*
D03*
X139750Y448000D02*
D03*
X150250D02*
D03*
Y457000D02*
D03*
X139750D02*
D03*
X138750Y581000D02*
D03*
X149250D02*
D03*
X677750Y716000D02*
D03*
X688250D02*
D03*
X747250Y712000D02*
D03*
X736750D02*
D03*
X756990Y679494D02*
D03*
X746490D02*
D03*
X756990Y688494D02*
D03*
X746490D02*
D03*
X697750Y725000D02*
D03*
X708250D02*
D03*
X697750Y716000D02*
D03*
X708250D02*
D03*
X737240Y699494D02*
D03*
X726740D02*
D03*
X736990Y679494D02*
D03*
X726490D02*
D03*
X601546Y484000D02*
D03*
X612046D02*
D03*
X339250Y428000D02*
D03*
X328750D02*
D03*
X613750Y416000D02*
D03*
X624250D02*
D03*
X621546Y484000D02*
D03*
X632046D02*
D03*
X319250Y428000D02*
D03*
X308750D02*
D03*
X339250Y540000D02*
D03*
X328750D02*
D03*
X339250Y549000D02*
D03*
X328750D02*
D03*
X504750Y610000D02*
D03*
X515250D02*
D03*
X601546Y537000D02*
D03*
X612046D02*
D03*
X593796Y403000D02*
D03*
X604296D02*
D03*
X339250Y419000D02*
D03*
X328750D02*
D03*
X339250Y455000D02*
D03*
X328750D02*
D03*
X339250Y479000D02*
D03*
X328750D02*
D03*
X601796Y474000D02*
D03*
X612296D02*
D03*
X319250Y540000D02*
D03*
X308750D02*
D03*
X319250Y549000D02*
D03*
X308750D02*
D03*
X515250Y619000D02*
D03*
X504750D02*
D03*
X621546Y537000D02*
D03*
X632046D02*
D03*
X613796Y403000D02*
D03*
X624296D02*
D03*
X138750Y591000D02*
D03*
X149250D02*
D03*
X739250Y760000D02*
D03*
X728750D02*
D03*
X677750Y725000D02*
D03*
X688250D02*
D03*
X319250Y419000D02*
D03*
X308750D02*
D03*
X328750Y446000D02*
D03*
X339250D02*
D03*
X328750Y470000D02*
D03*
X339250D02*
D03*
X621796Y474000D02*
D03*
X632296D02*
D03*
X298000Y423000D02*
D03*
X287500D02*
D03*
X277000D02*
D03*
X266500D02*
D03*
X251000Y573000D02*
D03*
X261500D02*
D03*
X750000Y786000D02*
D03*
X760500D02*
D03*
Y777000D02*
D03*
X750000D02*
D03*
D86*
X879000Y804500D02*
D03*
Y794000D02*
D03*
Y784500D02*
D03*
Y774000D02*
D03*
X467796Y847750D02*
D03*
Y858250D02*
D03*
X476796Y847750D02*
D03*
Y858250D02*
D03*
X485796Y847750D02*
D03*
Y858250D02*
D03*
X494796Y847750D02*
D03*
Y858250D02*
D03*
X522796Y847750D02*
D03*
Y858250D02*
D03*
X531796Y847750D02*
D03*
Y858250D02*
D03*
X540796Y847750D02*
D03*
Y858250D02*
D03*
X549796Y847750D02*
D03*
Y858250D02*
D03*
X467796Y867750D02*
D03*
Y878250D02*
D03*
X476796Y867750D02*
D03*
Y878250D02*
D03*
X182000Y229750D02*
D03*
Y240250D02*
D03*
X188000Y140250D02*
D03*
Y129750D02*
D03*
X191000Y240250D02*
D03*
Y229750D02*
D03*
X179000Y129750D02*
D03*
Y140250D02*
D03*
X359000Y220500D02*
D03*
Y231000D02*
D03*
X361000Y133250D02*
D03*
Y122750D02*
D03*
X368000Y231000D02*
D03*
Y220500D02*
D03*
X370000Y122750D02*
D03*
Y133250D02*
D03*
X699000Y143250D02*
D03*
Y132750D02*
D03*
X839000Y144250D02*
D03*
Y133750D02*
D03*
X543000Y255750D02*
D03*
Y266250D02*
D03*
X534000Y266250D02*
D03*
Y255750D02*
D03*
X253000Y120750D02*
D03*
Y131250D02*
D03*
X244000Y264750D02*
D03*
Y275250D02*
D03*
X262000Y131250D02*
D03*
Y120750D02*
D03*
X253000Y275250D02*
D03*
Y264750D02*
D03*
X95000Y589250D02*
D03*
Y578750D02*
D03*
X180000Y664250D02*
D03*
Y653750D02*
D03*
X235000Y664250D02*
D03*
Y653750D02*
D03*
X189000Y653750D02*
D03*
Y664250D02*
D03*
X244000Y653750D02*
D03*
Y664250D02*
D03*
X485796Y867750D02*
D03*
Y878250D02*
D03*
X494796Y867750D02*
D03*
Y878250D02*
D03*
X522796Y867750D02*
D03*
Y878250D02*
D03*
X531796Y867750D02*
D03*
Y878250D02*
D03*
X540796Y867750D02*
D03*
Y878250D02*
D03*
X549796Y867750D02*
D03*
Y878250D02*
D03*
X487000Y188750D02*
D03*
Y199250D02*
D03*
X478000D02*
D03*
Y188750D02*
D03*
X717990Y739494D02*
D03*
Y728995D02*
D03*
X716990Y668494D02*
D03*
Y678995D02*
D03*
X692990Y668494D02*
D03*
Y678995D02*
D03*
X717990Y719494D02*
D03*
Y708995D02*
D03*
X716990Y688494D02*
D03*
Y698995D02*
D03*
X692990Y688494D02*
D03*
Y698995D02*
D03*
X400796Y351000D02*
D03*
Y340500D02*
D03*
X532796Y609750D02*
D03*
Y620250D02*
D03*
X563796Y610064D02*
D03*
Y620564D02*
D03*
X400796Y331250D02*
D03*
Y320750D02*
D03*
X532796Y629750D02*
D03*
Y640250D02*
D03*
X563796Y630064D02*
D03*
Y640564D02*
D03*
X407796Y610064D02*
D03*
Y620564D02*
D03*
X510000Y352250D02*
D03*
Y341750D02*
D03*
X458796Y352250D02*
D03*
Y341750D02*
D03*
X376796Y351250D02*
D03*
Y340750D02*
D03*
X407796Y630064D02*
D03*
Y640564D02*
D03*
X703480Y761495D02*
D03*
Y750994D02*
D03*
Y781495D02*
D03*
Y770994D02*
D03*
X726990Y739494D02*
D03*
Y728995D02*
D03*
Y719494D02*
D03*
Y708995D02*
D03*
X510000Y332250D02*
D03*
Y321750D02*
D03*
X467000Y341750D02*
D03*
Y352250D02*
D03*
X377000Y331250D02*
D03*
Y320750D02*
D03*
X233000Y552250D02*
D03*
Y541750D02*
D03*
X285000Y540750D02*
D03*
Y551250D02*
D03*
Y560750D02*
D03*
Y571250D02*
D03*
D87*
X875000Y843250D02*
D03*
Y826750D02*
D03*
D89*
X135000Y825000D02*
D03*
X142000Y33000D02*
D03*
X873000Y872000D02*
D03*
D91*
X750000Y550000D02*
D03*
X599800Y858700D02*
D03*
Y833300D02*
D03*
X625200Y858700D02*
D03*
Y833300D02*
D03*
X650600Y858700D02*
D03*
Y833300D02*
D03*
X676000Y858700D02*
D03*
Y833300D02*
D03*
X701400Y858700D02*
D03*
Y833300D02*
D03*
X726800Y858700D02*
D03*
Y833300D02*
D03*
X752200Y858700D02*
D03*
D92*
X550000Y550000D02*
D03*
D93*
X752200Y833300D02*
D03*
D94*
X249000Y874000D02*
D03*
X52800Y139700D02*
D03*
X27400Y292100D02*
D03*
X872000Y333600D02*
D03*
Y224600D02*
D03*
Y115200D02*
D03*
X27400Y393700D02*
D03*
X30000Y866400D02*
D03*
X52800Y444500D02*
D03*
Y495300D02*
D03*
Y342900D02*
D03*
Y393700D02*
D03*
X27400Y444500D02*
D03*
Y495300D02*
D03*
X872000Y440000D02*
D03*
D95*
X52800Y292100D02*
D03*
Y266700D02*
D03*
Y241300D02*
D03*
Y165100D02*
D03*
Y190500D02*
D03*
Y215900D02*
D03*
X27400Y114300D02*
D03*
Y215900D02*
D03*
Y241300D02*
D03*
Y266700D02*
D03*
Y190500D02*
D03*
Y165100D02*
D03*
Y139700D02*
D03*
X872000Y359000D02*
D03*
Y384400D02*
D03*
Y409800D02*
D03*
Y250000D02*
D03*
Y275400D02*
D03*
Y300800D02*
D03*
Y140600D02*
D03*
Y166000D02*
D03*
Y191400D02*
D03*
X27400Y368300D02*
D03*
Y342900D02*
D03*
Y317500D02*
D03*
X653000Y99000D02*
D03*
X30000Y841000D02*
D03*
X52800Y419100D02*
D03*
Y469900D02*
D03*
Y317500D02*
D03*
Y368300D02*
D03*
X27400Y419100D02*
D03*
Y469900D02*
D03*
D96*
X250000Y40000D02*
D03*
Y60000D02*
D03*
X270000Y40000D02*
D03*
Y60000D02*
D03*
X290000Y40000D02*
D03*
Y60000D02*
D03*
X310000Y40000D02*
D03*
Y60000D02*
D03*
X330000Y40000D02*
D03*
Y60000D02*
D03*
X350000Y40000D02*
D03*
Y60000D02*
D03*
X370000Y40000D02*
D03*
Y60000D02*
D03*
X390000Y40000D02*
D03*
Y60000D02*
D03*
X410000Y40000D02*
D03*
Y60000D02*
D03*
X430000Y40000D02*
D03*
Y60000D02*
D03*
X450000Y40000D02*
D03*
Y60000D02*
D03*
X470000Y40000D02*
D03*
Y60000D02*
D03*
X490000Y40000D02*
D03*
Y60000D02*
D03*
X510000Y40000D02*
D03*
Y60000D02*
D03*
X530000Y40000D02*
D03*
Y60000D02*
D03*
X550000Y40000D02*
D03*
Y60000D02*
D03*
X570000Y40000D02*
D03*
Y60000D02*
D03*
X590000Y40000D02*
D03*
Y60000D02*
D03*
X610000Y40000D02*
D03*
Y60000D02*
D03*
X630000Y40000D02*
D03*
Y60000D02*
D03*
X650000Y40000D02*
D03*
D97*
Y60000D02*
D03*
D98*
X215000Y50000D02*
D03*
X685000D02*
D03*
D99*
X110000D02*
D03*
D101*
X627600Y99000D02*
D03*
X871000Y642000D02*
D03*
D102*
X50800Y50800D02*
D03*
X850900D02*
D03*
X88900Y849200D02*
D03*
X823800D02*
D03*
D103*
X50800Y73660D02*
D03*
X27940Y50800D02*
D03*
X50800Y27940D02*
D03*
X73660Y50800D02*
D03*
X66965Y66965D02*
D03*
X34636D02*
D03*
Y34636D02*
D03*
X66965D02*
D03*
X850900Y73660D02*
D03*
X828040Y50800D02*
D03*
X850900Y27940D02*
D03*
X873760Y50800D02*
D03*
X867065Y66965D02*
D03*
X834735D02*
D03*
Y34636D02*
D03*
X867065D02*
D03*
X88900Y872060D02*
D03*
X66040Y849200D02*
D03*
X88900Y826340D02*
D03*
X111760Y849200D02*
D03*
X105064Y865365D02*
D03*
X72736D02*
D03*
Y833036D02*
D03*
X105064D02*
D03*
X823800Y872060D02*
D03*
X800940Y849200D02*
D03*
X823800Y826340D02*
D03*
X846660Y849200D02*
D03*
X839965Y865365D02*
D03*
X807635D02*
D03*
Y833036D02*
D03*
X839965D02*
D03*
D104*
X888022Y891004D02*
D03*
X877002Y891001D02*
D03*
X865982D02*
D03*
X854962D02*
D03*
X843942D02*
D03*
X832922D02*
D03*
X821902D02*
D03*
X810882D02*
D03*
X799862D02*
D03*
X788842D02*
D03*
X777822D02*
D03*
X766802D02*
D03*
X755782D02*
D03*
X744762D02*
D03*
X733742D02*
D03*
X722722D02*
D03*
X711702D02*
D03*
X700682D02*
D03*
X689662D02*
D03*
X678642D02*
D03*
X667622D02*
D03*
X656602D02*
D03*
X645582D02*
D03*
X634562D02*
D03*
X623542D02*
D03*
X612522D02*
D03*
X601502D02*
D03*
X590482D02*
D03*
X579462D02*
D03*
X568442D02*
D03*
X557422D02*
D03*
X546402D02*
D03*
X535382D02*
D03*
X524362D02*
D03*
X513342D02*
D03*
X502322D02*
D03*
X491302D02*
D03*
X480282D02*
D03*
X469262D02*
D03*
X458242D02*
D03*
X447222D02*
D03*
X436202D02*
D03*
X425182D02*
D03*
X414162D02*
D03*
X403142D02*
D03*
X392122D02*
D03*
X381102D02*
D03*
X370082D02*
D03*
X359062D02*
D03*
X348042D02*
D03*
X337022D02*
D03*
X326002D02*
D03*
X314982D02*
D03*
X303962D02*
D03*
X292942D02*
D03*
X281922D02*
D03*
X270902D02*
D03*
X259882D02*
D03*
X248862D02*
D03*
X237842D02*
D03*
X226822D02*
D03*
X215802D02*
D03*
X127642D02*
D03*
X116622D02*
D03*
X105602D02*
D03*
X94582D02*
D03*
X83562D02*
D03*
X72542D02*
D03*
X61522D02*
D03*
X50502D02*
D03*
X39482D02*
D03*
X28462D02*
D03*
X17442D02*
D03*
X8999Y883919D02*
D03*
Y872899D02*
D03*
Y861879D02*
D03*
Y850859D02*
D03*
Y839839D02*
D03*
Y828819D02*
D03*
Y817799D02*
D03*
Y806779D02*
D03*
Y795759D02*
D03*
Y784739D02*
D03*
Y773719D02*
D03*
Y762699D02*
D03*
Y751679D02*
D03*
Y740659D02*
D03*
Y729639D02*
D03*
Y718619D02*
D03*
Y707599D02*
D03*
Y696579D02*
D03*
Y685559D02*
D03*
Y674539D02*
D03*
Y663519D02*
D03*
Y652499D02*
D03*
Y641479D02*
D03*
Y630459D02*
D03*
Y619439D02*
D03*
Y608419D02*
D03*
Y597399D02*
D03*
Y586379D02*
D03*
Y575359D02*
D03*
Y564339D02*
D03*
Y553319D02*
D03*
Y542299D02*
D03*
Y531279D02*
D03*
Y520259D02*
D03*
Y509239D02*
D03*
Y498219D02*
D03*
Y487199D02*
D03*
Y476179D02*
D03*
Y465159D02*
D03*
Y454139D02*
D03*
Y443119D02*
D03*
Y432099D02*
D03*
Y421079D02*
D03*
Y410059D02*
D03*
Y399039D02*
D03*
Y388019D02*
D03*
Y376999D02*
D03*
Y365979D02*
D03*
Y354959D02*
D03*
Y343939D02*
D03*
Y332919D02*
D03*
Y321899D02*
D03*
Y310879D02*
D03*
Y299859D02*
D03*
Y288839D02*
D03*
Y277819D02*
D03*
Y266800D02*
D03*
Y255779D02*
D03*
Y244760D02*
D03*
Y233739D02*
D03*
Y222719D02*
D03*
Y211700D02*
D03*
Y200679D02*
D03*
Y189660D02*
D03*
Y178640D02*
D03*
Y167619D02*
D03*
Y156600D02*
D03*
Y145580D02*
D03*
Y134559D02*
D03*
Y123540D02*
D03*
Y112520D02*
D03*
Y101500D02*
D03*
Y90480D02*
D03*
Y79460D02*
D03*
Y68440D02*
D03*
Y57420D02*
D03*
Y46400D02*
D03*
Y35380D02*
D03*
Y24360D02*
D03*
Y13340D02*
D03*
X19128Y8999D02*
D03*
X30148D02*
D03*
X41168D02*
D03*
X52188D02*
D03*
X63208D02*
D03*
X74228D02*
D03*
X85248D02*
D03*
X96268D02*
D03*
X107288D02*
D03*
X118308D02*
D03*
X129328D02*
D03*
X140348D02*
D03*
X151368D02*
D03*
X162388D02*
D03*
X173408D02*
D03*
X184428D02*
D03*
X195448D02*
D03*
X206468D02*
D03*
X217488D02*
D03*
X228508D02*
D03*
X239528D02*
D03*
X250548D02*
D03*
X261568D02*
D03*
X272588D02*
D03*
X283608D02*
D03*
X294628D02*
D03*
X305648D02*
D03*
X316668D02*
D03*
X327688D02*
D03*
X338708D02*
D03*
X349728D02*
D03*
X360748D02*
D03*
X371768D02*
D03*
X382788D02*
D03*
X393808D02*
D03*
X404828D02*
D03*
X415848D02*
D03*
X426868D02*
D03*
X437888D02*
D03*
X448908D02*
D03*
X459928D02*
D03*
X470948D02*
D03*
X481968D02*
D03*
X492988D02*
D03*
X504008D02*
D03*
X515028D02*
D03*
X526048D02*
D03*
X537068D02*
D03*
X548088D02*
D03*
X559108D02*
D03*
X570128D02*
D03*
X581148D02*
D03*
X592168D02*
D03*
X603188D02*
D03*
X614208D02*
D03*
X625228D02*
D03*
X636248D02*
D03*
X647268D02*
D03*
X658288D02*
D03*
X669308D02*
D03*
X680328D02*
D03*
X691348D02*
D03*
X702368D02*
D03*
X713388D02*
D03*
X724408D02*
D03*
X735428D02*
D03*
X746448D02*
D03*
X757468D02*
D03*
X768488D02*
D03*
X779508D02*
D03*
X790528D02*
D03*
X801548D02*
D03*
X812568D02*
D03*
X823588D02*
D03*
X834608D02*
D03*
X845628D02*
D03*
X856648D02*
D03*
X867668D02*
D03*
X878688D02*
D03*
X889695Y9522D02*
D03*
X891001Y20464D02*
D03*
Y31484D02*
D03*
Y42504D02*
D03*
Y53524D02*
D03*
Y64544D02*
D03*
Y75564D02*
D03*
Y86584D02*
D03*
Y97604D02*
D03*
Y108624D02*
D03*
Y119644D02*
D03*
Y130664D02*
D03*
Y141684D02*
D03*
Y152704D02*
D03*
Y163724D02*
D03*
Y174744D02*
D03*
Y185764D02*
D03*
Y196784D02*
D03*
Y207804D02*
D03*
Y218824D02*
D03*
Y229844D02*
D03*
Y240864D02*
D03*
Y251884D02*
D03*
Y262904D02*
D03*
Y273924D02*
D03*
Y284944D02*
D03*
Y295964D02*
D03*
Y306984D02*
D03*
Y318004D02*
D03*
Y329024D02*
D03*
Y340044D02*
D03*
Y351064D02*
D03*
Y362084D02*
D03*
Y373104D02*
D03*
Y384124D02*
D03*
Y395144D02*
D03*
Y406164D02*
D03*
Y417184D02*
D03*
Y428204D02*
D03*
Y439224D02*
D03*
Y450244D02*
D03*
Y461264D02*
D03*
Y472284D02*
D03*
Y483304D02*
D03*
Y494324D02*
D03*
Y505344D02*
D03*
Y516364D02*
D03*
Y527384D02*
D03*
Y538404D02*
D03*
Y549424D02*
D03*
Y560444D02*
D03*
Y571464D02*
D03*
Y582484D02*
D03*
Y593504D02*
D03*
Y604524D02*
D03*
Y615544D02*
D03*
Y626564D02*
D03*
Y637584D02*
D03*
Y648604D02*
D03*
Y659624D02*
D03*
Y670644D02*
D03*
Y681664D02*
D03*
Y692684D02*
D03*
Y703704D02*
D03*
Y714724D02*
D03*
Y725743D02*
D03*
Y736764D02*
D03*
Y824923D02*
D03*
Y835944D02*
D03*
Y846964D02*
D03*
Y857983D02*
D03*
Y869003D02*
D03*
Y880023D02*
D03*
D137*
X650000Y147500D02*
D03*
Y267500D02*
D03*
D165*
X822431Y877500D02*
D03*
D166*
X187500Y313000D02*
D03*
X206500D02*
D03*
X197000Y293000D02*
D03*
D167*
X553950Y153495D02*
D03*
X566650D02*
D03*
X579350D02*
D03*
X592050D02*
D03*
Y258505D02*
D03*
X579350D02*
D03*
X566650D02*
D03*
X553950D02*
D03*
D168*
X112000Y789500D02*
D03*
Y781500D02*
D03*
Y773500D02*
D03*
Y765500D02*
D03*
Y757500D02*
D03*
X90000D02*
D03*
Y765500D02*
D03*
Y773500D02*
D03*
Y781500D02*
D03*
Y789500D02*
D03*
D169*
X265204Y535500D02*
D03*
Y558500D02*
D03*
X247204D02*
D03*
Y535500D02*
D03*
D170*
X84225Y643543D02*
D03*
X77875D02*
D03*
X71525D02*
D03*
X65175D02*
D03*
X58825D02*
D03*
X52475D02*
D03*
X46125D02*
D03*
X39775D02*
D03*
Y590457D02*
D03*
X46125D02*
D03*
X52475D02*
D03*
X58825D02*
D03*
X65175D02*
D03*
X71525D02*
D03*
X77875D02*
D03*
X84225D02*
D03*
D171*
X251550Y150750D02*
D03*
X264250D02*
D03*
X276950D02*
D03*
X289650D02*
D03*
X302350D02*
D03*
X315050D02*
D03*
X327750D02*
D03*
X340450D02*
D03*
Y245250D02*
D03*
X327750D02*
D03*
X315050D02*
D03*
X302350D02*
D03*
X289650D02*
D03*
X276950D02*
D03*
X264250D02*
D03*
X251550D02*
D03*
D172*
X362950Y150650D02*
D03*
X375650D02*
D03*
X388350D02*
D03*
X401050D02*
D03*
Y203350D02*
D03*
X388350D02*
D03*
X375650D02*
D03*
X362950D02*
D03*
X184950Y158650D02*
D03*
X197650D02*
D03*
X210350D02*
D03*
X223050D02*
D03*
Y211350D02*
D03*
X210350D02*
D03*
X197650D02*
D03*
X184950D02*
D03*
D173*
X64500Y764750D02*
D03*
Y777250D02*
D03*
D174*
X35500Y739250D02*
D03*
Y802750D02*
D03*
D175*
X825000Y500000D02*
D03*
X700000D02*
D03*
D176*
X817500Y519512D02*
D03*
Y480488D02*
D03*
X812500Y519512D02*
D03*
Y480488D02*
D03*
X822500Y519512D02*
D03*
Y480488D02*
D03*
X827500Y519512D02*
D03*
Y480488D02*
D03*
X832500Y519512D02*
D03*
Y480488D02*
D03*
X837500Y519512D02*
D03*
Y480488D02*
D03*
X692500Y519512D02*
D03*
Y480488D02*
D03*
X687500Y519512D02*
D03*
Y480488D02*
D03*
X697500Y519512D02*
D03*
Y480488D02*
D03*
X702500Y519512D02*
D03*
Y480488D02*
D03*
X707500Y519512D02*
D03*
Y480488D02*
D03*
X712500Y519512D02*
D03*
Y480488D02*
D03*
D177*
X805488Y512500D02*
D03*
Y507500D02*
D03*
Y502500D02*
D03*
Y497500D02*
D03*
Y492500D02*
D03*
Y487500D02*
D03*
X844512D02*
D03*
Y492500D02*
D03*
Y497500D02*
D03*
Y502500D02*
D03*
Y507500D02*
D03*
Y512500D02*
D03*
X680488D02*
D03*
Y507500D02*
D03*
Y502500D02*
D03*
Y497500D02*
D03*
Y492500D02*
D03*
Y487500D02*
D03*
X719512D02*
D03*
Y492500D02*
D03*
Y497500D02*
D03*
Y502500D02*
D03*
Y507500D02*
D03*
Y512500D02*
D03*
D178*
X363750Y392500D02*
D03*
Y397500D02*
D03*
Y402500D02*
D03*
Y407500D02*
D03*
Y412500D02*
D03*
Y417500D02*
D03*
Y422500D02*
D03*
Y427500D02*
D03*
Y432500D02*
D03*
Y437500D02*
D03*
Y442500D02*
D03*
Y447500D02*
D03*
Y452500D02*
D03*
Y457500D02*
D03*
Y462500D02*
D03*
Y467500D02*
D03*
Y472500D02*
D03*
Y477500D02*
D03*
Y482500D02*
D03*
Y487500D02*
D03*
Y492500D02*
D03*
Y497500D02*
D03*
Y502500D02*
D03*
Y507500D02*
D03*
Y512500D02*
D03*
Y517500D02*
D03*
Y522500D02*
D03*
Y527500D02*
D03*
Y532500D02*
D03*
Y537500D02*
D03*
Y542500D02*
D03*
Y547500D02*
D03*
Y552500D02*
D03*
Y557500D02*
D03*
Y562500D02*
D03*
Y567500D02*
D03*
X576250D02*
D03*
Y562500D02*
D03*
Y557500D02*
D03*
Y552500D02*
D03*
Y547500D02*
D03*
Y542500D02*
D03*
Y537500D02*
D03*
Y532500D02*
D03*
Y527500D02*
D03*
Y522500D02*
D03*
Y517500D02*
D03*
Y512500D02*
D03*
Y507500D02*
D03*
Y502500D02*
D03*
Y497500D02*
D03*
Y492500D02*
D03*
Y487500D02*
D03*
Y482500D02*
D03*
Y477500D02*
D03*
Y472500D02*
D03*
Y467500D02*
D03*
Y462500D02*
D03*
Y457500D02*
D03*
Y452500D02*
D03*
Y447500D02*
D03*
Y442500D02*
D03*
Y437500D02*
D03*
Y432500D02*
D03*
Y427500D02*
D03*
Y422500D02*
D03*
Y417500D02*
D03*
Y412500D02*
D03*
Y407500D02*
D03*
Y402500D02*
D03*
Y397500D02*
D03*
Y392500D02*
D03*
D179*
X382500Y586250D02*
D03*
X387500D02*
D03*
X392500D02*
D03*
X397500D02*
D03*
X402500D02*
D03*
X407500D02*
D03*
X412500D02*
D03*
X417500D02*
D03*
X422500D02*
D03*
X427500D02*
D03*
X432500D02*
D03*
X437500D02*
D03*
X442500D02*
D03*
X447500D02*
D03*
X452500D02*
D03*
X457500D02*
D03*
X462500D02*
D03*
X467500D02*
D03*
X472500D02*
D03*
X477500D02*
D03*
X482500D02*
D03*
X487500D02*
D03*
X492500D02*
D03*
X497500D02*
D03*
X502500D02*
D03*
X507500D02*
D03*
X512500D02*
D03*
X517500D02*
D03*
X522500D02*
D03*
X527500D02*
D03*
X532500D02*
D03*
X537500D02*
D03*
X542500D02*
D03*
X547500D02*
D03*
X552500D02*
D03*
X557500D02*
D03*
Y373750D02*
D03*
X552500D02*
D03*
X547500D02*
D03*
X542500D02*
D03*
X537500D02*
D03*
X532500D02*
D03*
X527500D02*
D03*
X522500D02*
D03*
X517500D02*
D03*
X512500D02*
D03*
X507500D02*
D03*
X502500D02*
D03*
X497500D02*
D03*
X492500D02*
D03*
X487500D02*
D03*
X482500D02*
D03*
X477500D02*
D03*
X472500D02*
D03*
X467500D02*
D03*
X462500D02*
D03*
X457500D02*
D03*
X452500D02*
D03*
X447500D02*
D03*
X442500D02*
D03*
X437500D02*
D03*
X432500D02*
D03*
X427500D02*
D03*
X422500D02*
D03*
X417500D02*
D03*
X412500D02*
D03*
X407500D02*
D03*
X402500D02*
D03*
X397500D02*
D03*
X392500D02*
D03*
X387500D02*
D03*
X382500D02*
D03*
D180*
X821505Y134050D02*
D03*
Y121350D02*
D03*
Y108650D02*
D03*
Y95950D02*
D03*
X716495D02*
D03*
Y108650D02*
D03*
Y121350D02*
D03*
Y134050D02*
D03*
D181*
X468500Y245550D02*
D03*
X459000D02*
D03*
X449500D02*
D03*
Y222450D02*
D03*
X459000D02*
D03*
X468500D02*
D03*
D182*
X803600Y793000D02*
D03*
X829000D02*
D03*
X854400D02*
D03*
D183*
X829000Y698500D02*
D03*
D184*
X604296Y496000D02*
D03*
X621296D02*
D03*
X697500Y737000D02*
D03*
X680500D02*
D03*
X528500Y657796D02*
D03*
X511500D02*
D03*
D185*
X410000Y805000D02*
D03*
Y795000D02*
D03*
Y725000D02*
D03*
Y715000D02*
D03*
X420000Y805000D02*
D03*
Y715000D02*
D03*
X440000Y795000D02*
D03*
Y785000D02*
D03*
Y775000D02*
D03*
Y765000D02*
D03*
Y755000D02*
D03*
Y745000D02*
D03*
Y735000D02*
D03*
Y725000D02*
D03*
X450000Y795000D02*
D03*
Y785000D02*
D03*
Y775000D02*
D03*
Y765000D02*
D03*
Y755000D02*
D03*
Y745000D02*
D03*
Y735000D02*
D03*
Y725000D02*
D03*
X460000Y795000D02*
D03*
Y785000D02*
D03*
Y775000D02*
D03*
Y765000D02*
D03*
Y755000D02*
D03*
Y745000D02*
D03*
Y735000D02*
D03*
Y725000D02*
D03*
X470000Y795000D02*
D03*
Y785000D02*
D03*
Y775000D02*
D03*
Y765000D02*
D03*
Y755000D02*
D03*
Y745000D02*
D03*
Y735000D02*
D03*
Y725000D02*
D03*
X480000Y795000D02*
D03*
Y785000D02*
D03*
Y775000D02*
D03*
Y765000D02*
D03*
Y755000D02*
D03*
Y745000D02*
D03*
Y735000D02*
D03*
Y725000D02*
D03*
X490000Y795000D02*
D03*
Y785000D02*
D03*
Y775000D02*
D03*
Y765000D02*
D03*
Y755000D02*
D03*
Y745000D02*
D03*
Y735000D02*
D03*
Y725000D02*
D03*
X500000Y795000D02*
D03*
Y785000D02*
D03*
Y775000D02*
D03*
Y765000D02*
D03*
Y755000D02*
D03*
Y745000D02*
D03*
Y735000D02*
D03*
Y725000D02*
D03*
X510000Y795000D02*
D03*
Y785000D02*
D03*
Y775000D02*
D03*
Y765000D02*
D03*
Y755000D02*
D03*
Y745000D02*
D03*
Y735000D02*
D03*
Y725000D02*
D03*
X520000Y795000D02*
D03*
Y785000D02*
D03*
Y775000D02*
D03*
Y765000D02*
D03*
Y755000D02*
D03*
Y745000D02*
D03*
Y735000D02*
D03*
Y725000D02*
D03*
X530000Y795000D02*
D03*
Y785000D02*
D03*
Y775000D02*
D03*
Y765000D02*
D03*
Y755000D02*
D03*
Y745000D02*
D03*
Y735000D02*
D03*
Y725000D02*
D03*
X540000Y795000D02*
D03*
Y785000D02*
D03*
Y775000D02*
D03*
Y765000D02*
D03*
Y755000D02*
D03*
Y745000D02*
D03*
Y735000D02*
D03*
Y725000D02*
D03*
X560000Y805000D02*
D03*
Y715000D02*
D03*
X570000Y805000D02*
D03*
Y795000D02*
D03*
Y725000D02*
D03*
Y715000D02*
D03*
X835000Y410000D02*
D03*
X825000D02*
D03*
X755000D02*
D03*
X745000D02*
D03*
X835000Y400000D02*
D03*
X745000D02*
D03*
X825000Y380000D02*
D03*
X815000D02*
D03*
X805000D02*
D03*
X795000D02*
D03*
X785000D02*
D03*
X775000D02*
D03*
X765000D02*
D03*
X755000D02*
D03*
X825000Y370000D02*
D03*
X815000D02*
D03*
X805000D02*
D03*
X795000D02*
D03*
X785000D02*
D03*
X775000D02*
D03*
X765000D02*
D03*
X755000D02*
D03*
X825000Y360000D02*
D03*
X815000D02*
D03*
X805000D02*
D03*
X795000D02*
D03*
X785000D02*
D03*
X775000D02*
D03*
X765000D02*
D03*
X755000D02*
D03*
X825000Y350000D02*
D03*
X815000D02*
D03*
X805000D02*
D03*
X795000D02*
D03*
X785000D02*
D03*
X775000D02*
D03*
X765000D02*
D03*
X755000D02*
D03*
X825000Y340000D02*
D03*
X815000D02*
D03*
X805000D02*
D03*
X795000D02*
D03*
X785000D02*
D03*
X775000D02*
D03*
X765000D02*
D03*
X755000D02*
D03*
X825000Y330000D02*
D03*
X815000D02*
D03*
X805000D02*
D03*
X795000D02*
D03*
X785000D02*
D03*
X775000D02*
D03*
X765000D02*
D03*
X755000D02*
D03*
X825000Y320000D02*
D03*
X815000D02*
D03*
X805000D02*
D03*
X795000D02*
D03*
X785000D02*
D03*
X775000D02*
D03*
X765000D02*
D03*
X755000D02*
D03*
X825000Y310000D02*
D03*
X815000D02*
D03*
X805000D02*
D03*
X795000D02*
D03*
X785000D02*
D03*
X775000D02*
D03*
X765000D02*
D03*
X755000D02*
D03*
X825000Y300000D02*
D03*
X815000D02*
D03*
X805000D02*
D03*
X795000D02*
D03*
X785000D02*
D03*
X775000D02*
D03*
X765000D02*
D03*
X755000D02*
D03*
X825000Y290000D02*
D03*
X815000D02*
D03*
X805000D02*
D03*
X795000D02*
D03*
X785000D02*
D03*
X775000D02*
D03*
X765000D02*
D03*
X755000D02*
D03*
X825000Y280000D02*
D03*
X815000D02*
D03*
X805000D02*
D03*
X795000D02*
D03*
X785000D02*
D03*
X775000D02*
D03*
X765000D02*
D03*
X755000D02*
D03*
X835000Y260000D02*
D03*
X745000D02*
D03*
X835000Y250000D02*
D03*
X825000D02*
D03*
X755000D02*
D03*
X745000D02*
D03*
D186*
X788750Y641000D02*
D03*
X805250D02*
D03*
X129250Y335000D02*
D03*
X112750D02*
D03*
X129500Y288000D02*
D03*
X113000D02*
D03*
X317546Y565000D02*
D03*
X334046D02*
D03*
D187*
X465000Y150000D02*
D03*
X135000Y630000D02*
D03*
X465000D02*
D03*
X135000Y150000D02*
D03*
M02*
