G04*
G04 #@! TF.GenerationSoftware,Altium Limited,Altium Designer,24.9.1 (31)*
G04*
G04 Layer_Color=8388736*
%FSLAX44Y44*%
%MOMM*%
G71*
G04*
G04 #@! TF.SameCoordinates,95152EAB-924E-4990-96F7-4EF775BF21D2*
G04*
G04*
G04 #@! TF.FilePolarity,Negative*
G04*
G01*
G75*
%ADD52C,1.3000*%
%ADD53R,5.5478X2.9001*%
%ADD54R,4.5138X2.6001*%
%ADD55R,6.8000X6.4000*%
%ADD56R,6.5000X6.7000*%
G04:AMPARAMS|DCode=57|XSize=0.6604mm|YSize=1.5748mm|CornerRadius=0.2159mm|HoleSize=0mm|Usage=FLASHONLY|Rotation=180.000|XOffset=0mm|YOffset=0mm|HoleType=Round|Shape=RoundedRectangle|*
%AMROUNDEDRECTD57*
21,1,0.6604,1.1430,0,0,180.0*
21,1,0.2286,1.5748,0,0,180.0*
1,1,0.4318,-0.1143,0.5715*
1,1,0.4318,0.1143,0.5715*
1,1,0.4318,0.1143,-0.5715*
1,1,0.4318,-0.1143,-0.5715*
%
%ADD57ROUNDEDRECTD57*%
%ADD58R,1.5032X1.8032*%
%ADD59R,1.7526X1.6256*%
%ADD60R,2.0032X1.8032*%
%ADD61R,1.2032X1.8032*%
G04:AMPARAMS|DCode=62|XSize=1.1532mm|YSize=1.0532mm|CornerRadius=0.3141mm|HoleSize=0mm|Usage=FLASHONLY|Rotation=180.000|XOffset=0mm|YOffset=0mm|HoleType=Round|Shape=RoundedRectangle|*
%AMROUNDEDRECTD62*
21,1,1.1532,0.4250,0,0,180.0*
21,1,0.5250,1.0532,0,0,180.0*
1,1,0.6282,-0.2625,0.2125*
1,1,0.6282,0.2625,0.2125*
1,1,0.6282,0.2625,-0.2125*
1,1,0.6282,-0.2625,-0.2125*
%
%ADD62ROUNDEDRECTD62*%
%ADD63O,0.2393X1.0571*%
%ADD64O,1.0571X0.2393*%
%ADD65R,5.4200X5.4200*%
%ADD66R,0.5040X1.7540*%
%ADD67R,1.4040X2.9540*%
%ADD68R,1.8032X1.2032*%
%ADD69R,1.8032X2.0032*%
%ADD70R,1.8032X1.5032*%
%ADD71R,1.6256X1.7526*%
G04:AMPARAMS|DCode=72|XSize=0.6604mm|YSize=1.5748mm|CornerRadius=0.2159mm|HoleSize=0mm|Usage=FLASHONLY|Rotation=90.000|XOffset=0mm|YOffset=0mm|HoleType=Round|Shape=RoundedRectangle|*
%AMROUNDEDRECTD72*
21,1,0.6604,1.1430,0,0,90.0*
21,1,0.2286,1.5748,0,0,90.0*
1,1,0.4318,0.5715,0.1143*
1,1,0.4318,0.5715,-0.1143*
1,1,0.4318,-0.5715,-0.1143*
1,1,0.4318,-0.5715,0.1143*
%
%ADD72ROUNDEDRECTD72*%
%ADD73R,0.9032X0.4032*%
%ADD74R,0.9500X0.8500*%
G04:AMPARAMS|DCode=75|XSize=1.1532mm|YSize=1.0532mm|CornerRadius=0.3141mm|HoleSize=0mm|Usage=FLASHONLY|Rotation=90.000|XOffset=0mm|YOffset=0mm|HoleType=Round|Shape=RoundedRectangle|*
%AMROUNDEDRECTD75*
21,1,1.1532,0.4250,0,0,90.0*
21,1,0.5250,1.0532,0,0,90.0*
1,1,0.6282,0.2125,0.2625*
1,1,0.6282,0.2125,-0.2625*
1,1,0.6282,-0.2125,-0.2625*
1,1,0.6282,-0.2125,0.2625*
%
%ADD75ROUNDEDRECTD75*%
G04:AMPARAMS|DCode=76|XSize=1.8432mm|YSize=0.7932mm|CornerRadius=0.2491mm|HoleSize=0mm|Usage=FLASHONLY|Rotation=0.000|XOffset=0mm|YOffset=0mm|HoleType=Round|Shape=RoundedRectangle|*
%AMROUNDEDRECTD76*
21,1,1.8432,0.2950,0,0,0.0*
21,1,1.3450,0.7932,0,0,0.0*
1,1,0.4982,0.6725,-0.1475*
1,1,0.4982,-0.6725,-0.1475*
1,1,0.4982,-0.6725,0.1475*
1,1,0.4982,0.6725,0.1475*
%
%ADD76ROUNDEDRECTD76*%
%ADD77C,1.7032*%
G04:AMPARAMS|DCode=78|XSize=1.4132mm|YSize=0.7932mm|CornerRadius=0.1754mm|HoleSize=0mm|Usage=FLASHONLY|Rotation=270.000|XOffset=0mm|YOffset=0mm|HoleType=Round|Shape=RoundedRectangle|*
%AMROUNDEDRECTD78*
21,1,1.4132,0.4425,0,0,270.0*
21,1,1.0625,0.7932,0,0,270.0*
1,1,0.3507,-0.2213,-0.5313*
1,1,0.3507,-0.2213,0.5313*
1,1,0.3507,0.2213,0.5313*
1,1,0.3507,0.2213,-0.5313*
%
%ADD78ROUNDEDRECTD78*%
%ADD79R,1.1532X1.4032*%
G04:AMPARAMS|DCode=80|XSize=1.6032mm|YSize=0.5032mm|CornerRadius=0.1766mm|HoleSize=0mm|Usage=FLASHONLY|Rotation=90.000|XOffset=0mm|YOffset=0mm|HoleType=Round|Shape=RoundedRectangle|*
%AMROUNDEDRECTD80*
21,1,1.6032,0.1500,0,0,90.0*
21,1,1.2500,0.5032,0,0,90.0*
1,1,0.3532,0.0750,0.6250*
1,1,0.3532,0.0750,-0.6250*
1,1,0.3532,-0.0750,-0.6250*
1,1,0.3532,-0.0750,0.6250*
%
%ADD80ROUNDEDRECTD80*%
%ADD81O,2.1032X0.8032*%
G04:AMPARAMS|DCode=82|XSize=3.4032mm|YSize=2.6032mm|CornerRadius=0.7016mm|HoleSize=0mm|Usage=FLASHONLY|Rotation=90.000|XOffset=0mm|YOffset=0mm|HoleType=Round|Shape=RoundedRectangle|*
%AMROUNDEDRECTD82*
21,1,3.4032,1.2000,0,0,90.0*
21,1,2.0000,2.6032,0,0,90.0*
1,1,1.4032,0.6000,1.0000*
1,1,1.4032,0.6000,-1.0000*
1,1,1.4032,-0.6000,-1.0000*
1,1,1.4032,-0.6000,1.0000*
%
%ADD82ROUNDEDRECTD82*%
G04:AMPARAMS|DCode=83|XSize=0.9032mm|YSize=2.6032mm|CornerRadius=0.2766mm|HoleSize=0mm|Usage=FLASHONLY|Rotation=90.000|XOffset=0mm|YOffset=0mm|HoleType=Round|Shape=RoundedRectangle|*
%AMROUNDEDRECTD83*
21,1,0.9032,2.0500,0,0,90.0*
21,1,0.3500,2.6032,0,0,90.0*
1,1,0.5532,1.0250,0.1750*
1,1,0.5532,1.0250,-0.1750*
1,1,0.5532,-1.0250,-0.1750*
1,1,0.5532,-1.0250,0.1750*
%
%ADD83ROUNDEDRECTD83*%
G04:AMPARAMS|DCode=84|XSize=1.3032mm|YSize=1.2032mm|CornerRadius=0.3516mm|HoleSize=0mm|Usage=FLASHONLY|Rotation=270.000|XOffset=0mm|YOffset=0mm|HoleType=Round|Shape=RoundedRectangle|*
%AMROUNDEDRECTD84*
21,1,1.3032,0.5000,0,0,270.0*
21,1,0.6000,1.2032,0,0,270.0*
1,1,0.7032,-0.2500,-0.3000*
1,1,0.7032,-0.2500,0.3000*
1,1,0.7032,0.2500,0.3000*
1,1,0.7032,0.2500,-0.3000*
%
%ADD84ROUNDEDRECTD84*%
G04:AMPARAMS|DCode=85|XSize=0.75mm|YSize=0.7mm|CornerRadius=0.2mm|HoleSize=0mm|Usage=FLASHONLY|Rotation=0.000|XOffset=0mm|YOffset=0mm|HoleType=Round|Shape=RoundedRectangle|*
%AMROUNDEDRECTD85*
21,1,0.7500,0.3000,0,0,0.0*
21,1,0.3500,0.7000,0,0,0.0*
1,1,0.4000,0.1750,-0.1500*
1,1,0.4000,-0.1750,-0.1500*
1,1,0.4000,-0.1750,0.1500*
1,1,0.4000,0.1750,0.1500*
%
%ADD85ROUNDEDRECTD85*%
G04:AMPARAMS|DCode=86|XSize=0.75mm|YSize=0.7mm|CornerRadius=0.2mm|HoleSize=0mm|Usage=FLASHONLY|Rotation=90.000|XOffset=0mm|YOffset=0mm|HoleType=Round|Shape=RoundedRectangle|*
%AMROUNDEDRECTD86*
21,1,0.7500,0.3000,0,0,90.0*
21,1,0.3500,0.7000,0,0,90.0*
1,1,0.4000,0.1500,0.1750*
1,1,0.4000,0.1500,-0.1750*
1,1,0.4000,-0.1500,-0.1750*
1,1,0.4000,-0.1500,0.1750*
%
%ADD86ROUNDEDRECTD86*%
G04:AMPARAMS|DCode=87|XSize=1.3032mm|YSize=1.5032mm|CornerRadius=0.3516mm|HoleSize=0mm|Usage=FLASHONLY|Rotation=180.000|XOffset=0mm|YOffset=0mm|HoleType=Round|Shape=RoundedRectangle|*
%AMROUNDEDRECTD87*
21,1,1.3032,0.8000,0,0,180.0*
21,1,0.6000,1.5032,0,0,180.0*
1,1,0.7032,-0.3000,0.4000*
1,1,0.7032,0.3000,0.4000*
1,1,0.7032,0.3000,-0.4000*
1,1,0.7032,-0.3000,-0.4000*
%
%ADD87ROUNDEDRECTD87*%
G04:AMPARAMS|DCode=88|XSize=2.5228mm|YSize=0.6627mm|CornerRadius=0.2207mm|HoleSize=0mm|Usage=FLASHONLY|Rotation=180.000|XOffset=0mm|YOffset=0mm|HoleType=Round|Shape=RoundedRectangle|*
%AMROUNDEDRECTD88*
21,1,2.5228,0.2214,0,0,180.0*
21,1,2.0814,0.6627,0,0,180.0*
1,1,0.4414,-1.0407,0.1107*
1,1,0.4414,1.0407,0.1107*
1,1,0.4414,1.0407,-0.1107*
1,1,0.4414,-1.0407,-0.1107*
%
%ADD88ROUNDEDRECTD88*%
%ADD89C,2.0000*%
%ADD90C,6.2000*%
%ADD91C,1.8532*%
%ADD92C,1.3532*%
%ADD93R,1.8532X1.8532*%
%ADD94R,1.8032X1.8032*%
%ADD95C,1.8032*%
%ADD96C,1.4612*%
%ADD97R,1.4612X1.4612*%
%ADD98C,2.5032*%
%ADD99C,2.6532*%
%ADD100C,6.2032*%
%ADD101R,1.8032X1.8032*%
%ADD102C,6.5532*%
%ADD103C,1.5240*%
%ADD104C,0.5000*%
D52*
X888000Y9000D02*
G03*
X891000Y12000I0J3000D01*
G01*
X12000Y891000D02*
G03*
X9000Y888000I0J-3000D01*
G01*
Y12000D02*
G03*
X12000Y9000I3000J0D01*
G01*
X891000Y888000D02*
G03*
X888000Y891000I-3000J0D01*
G01*
X220000Y891004D02*
X891001Y891004D01*
X17442Y891001D02*
X130000D01*
X891001Y824923D02*
Y891004D01*
X891001Y732000D02*
X891001Y20464D01*
X12000Y9000D02*
X888000D01*
X9000Y12000D02*
Y888000D01*
D53*
X89261Y876500D02*
D03*
D54*
X822431Y878000D02*
D03*
D55*
X860700Y39000D02*
D03*
D56*
X39500Y40500D02*
D03*
D57*
X162000Y848198D02*
D03*
X168500D02*
D03*
X175000D02*
D03*
X181500D02*
D03*
X188000D02*
D03*
D58*
X141250Y874798D02*
D03*
X208750D02*
D03*
D59*
X199875Y849048D02*
D03*
X150125D02*
D03*
D60*
X186500Y874798D02*
D03*
D61*
X159506D02*
D03*
D62*
X231000Y849750D02*
D03*
Y834250D02*
D03*
X245000D02*
D03*
Y849750D02*
D03*
X771000Y864750D02*
D03*
Y849250D02*
D03*
Y832750D02*
D03*
Y817250D02*
D03*
X41000Y699250D02*
D03*
Y714750D02*
D03*
X76000Y279750D02*
D03*
Y264250D02*
D03*
X76000Y246750D02*
D03*
Y231250D02*
D03*
X821000Y544250D02*
D03*
Y559750D02*
D03*
X849000Y544250D02*
D03*
Y559750D02*
D03*
X877000Y544250D02*
D03*
Y559750D02*
D03*
X76000Y344750D02*
D03*
Y329250D02*
D03*
Y312750D02*
D03*
Y297250D02*
D03*
Y213750D02*
D03*
Y198250D02*
D03*
Y180750D02*
D03*
Y165250D02*
D03*
X76000Y124750D02*
D03*
Y109250D02*
D03*
X793000Y559750D02*
D03*
Y544250D02*
D03*
X543000Y505750D02*
D03*
Y490250D02*
D03*
X727000Y368750D02*
D03*
Y353250D02*
D03*
X721000Y336750D02*
D03*
Y321250D02*
D03*
X655000Y324750D02*
D03*
Y309250D02*
D03*
X641000Y324750D02*
D03*
Y309250D02*
D03*
X627000Y324750D02*
D03*
Y309250D02*
D03*
X589000Y299000D02*
D03*
Y283500D02*
D03*
X603000Y299000D02*
D03*
Y283500D02*
D03*
X863000Y544250D02*
D03*
Y559750D02*
D03*
X835000Y544250D02*
D03*
Y559750D02*
D03*
X807000Y544250D02*
D03*
Y559750D02*
D03*
X779000Y544250D02*
D03*
Y559750D02*
D03*
X376000Y756250D02*
D03*
Y771750D02*
D03*
X362000Y756250D02*
D03*
Y771750D02*
D03*
X377000Y702250D02*
D03*
Y717750D02*
D03*
X363000Y702250D02*
D03*
Y717750D02*
D03*
X76000Y391250D02*
D03*
Y406750D02*
D03*
Y452750D02*
D03*
Y437250D02*
D03*
X27000Y699250D02*
D03*
Y714750D02*
D03*
X155000Y797750D02*
D03*
Y782250D02*
D03*
Y769750D02*
D03*
Y754250D02*
D03*
X295000Y705250D02*
D03*
Y720750D02*
D03*
X281000Y705250D02*
D03*
Y720750D02*
D03*
X255000Y705250D02*
D03*
Y720750D02*
D03*
X241000Y705250D02*
D03*
Y720750D02*
D03*
D63*
X702000Y670989D02*
D03*
X697000D02*
D03*
X692000D02*
D03*
X707000D02*
D03*
X712000D02*
D03*
X717000D02*
D03*
X722000D02*
D03*
X727000D02*
D03*
X692000Y740000D02*
D03*
X697000D02*
D03*
X702000D02*
D03*
X707000D02*
D03*
X712000D02*
D03*
X717000D02*
D03*
X722000D02*
D03*
X727000D02*
D03*
X732000Y670989D02*
D03*
X737000D02*
D03*
X742000D02*
D03*
X747000D02*
D03*
X732000Y740000D02*
D03*
X737000D02*
D03*
X742000D02*
D03*
X747000D02*
D03*
D64*
X684995Y677995D02*
D03*
Y682995D02*
D03*
Y687995D02*
D03*
Y692995D02*
D03*
Y697995D02*
D03*
Y702995D02*
D03*
Y707995D02*
D03*
Y712995D02*
D03*
Y717995D02*
D03*
Y722995D02*
D03*
Y727995D02*
D03*
Y732995D02*
D03*
X754006Y677995D02*
D03*
Y682995D02*
D03*
Y687995D02*
D03*
Y692995D02*
D03*
Y697995D02*
D03*
Y702995D02*
D03*
Y707995D02*
D03*
Y712995D02*
D03*
Y717995D02*
D03*
Y722995D02*
D03*
Y727995D02*
D03*
Y732995D02*
D03*
D65*
X719500Y705495D02*
D03*
D66*
X740000Y527250D02*
D03*
X735000D02*
D03*
X730000D02*
D03*
X725000D02*
D03*
X700000D02*
D03*
X695000D02*
D03*
X690000D02*
D03*
X685000D02*
D03*
X680000D02*
D03*
X675000D02*
D03*
X670000D02*
D03*
X665000D02*
D03*
X660000D02*
D03*
X655000D02*
D03*
X650000D02*
D03*
X645000D02*
D03*
X640000D02*
D03*
X635000D02*
D03*
X630000D02*
D03*
X625000D02*
D03*
X620000D02*
D03*
X615000D02*
D03*
X610000D02*
D03*
X605000D02*
D03*
X600000D02*
D03*
X595000D02*
D03*
X590000D02*
D03*
X585000D02*
D03*
X580000D02*
D03*
X575000D02*
D03*
X570000D02*
D03*
X565000D02*
D03*
X560000D02*
D03*
X742500Y601750D02*
D03*
X737500D02*
D03*
X732500D02*
D03*
X727500D02*
D03*
X722500D02*
D03*
X697500D02*
D03*
X692500D02*
D03*
X687500D02*
D03*
X682500D02*
D03*
X677500D02*
D03*
X672500D02*
D03*
X667500D02*
D03*
X662500D02*
D03*
X657500D02*
D03*
X652500D02*
D03*
X647500D02*
D03*
X642500D02*
D03*
X637500D02*
D03*
X632500D02*
D03*
X627500D02*
D03*
X622500D02*
D03*
X617500D02*
D03*
X612500D02*
D03*
X607500D02*
D03*
X602500D02*
D03*
X597500D02*
D03*
X592500D02*
D03*
X587500D02*
D03*
X582500D02*
D03*
X577500D02*
D03*
X572500D02*
D03*
X567500D02*
D03*
X562500D02*
D03*
X557500D02*
D03*
D67*
X753500Y594000D02*
D03*
X546500D02*
D03*
D68*
X874798Y792494D02*
D03*
D69*
Y765500D02*
D03*
D70*
Y743250D02*
D03*
Y810750D02*
D03*
D71*
X849048Y801875D02*
D03*
Y752125D02*
D03*
D72*
X848198Y764000D02*
D03*
Y770500D02*
D03*
Y777000D02*
D03*
Y783500D02*
D03*
Y790000D02*
D03*
D73*
X115000Y463000D02*
D03*
X145800D02*
D03*
X115000Y459000D02*
D03*
X145800D02*
D03*
X115000Y455000D02*
D03*
X145800D02*
D03*
X115000Y451000D02*
D03*
X145800D02*
D03*
X115000Y447000D02*
D03*
X145800D02*
D03*
X115000Y443000D02*
D03*
X145800D02*
D03*
X115000Y439000D02*
D03*
X145800D02*
D03*
X115000Y435000D02*
D03*
X145800D02*
D03*
X115000Y431000D02*
D03*
X145800D02*
D03*
X115000Y427000D02*
D03*
X145800D02*
D03*
X115000Y423000D02*
D03*
X145800D02*
D03*
X115000Y419000D02*
D03*
X145800D02*
D03*
X115000Y415000D02*
D03*
X145800D02*
D03*
X115000Y411000D02*
D03*
X145800D02*
D03*
X115000Y407000D02*
D03*
X145800D02*
D03*
X115000Y403000D02*
D03*
X145800D02*
D03*
X115000Y399000D02*
D03*
X145800D02*
D03*
X115000Y395000D02*
D03*
X145800D02*
D03*
X115000Y391000D02*
D03*
X145800D02*
D03*
X115000Y387000D02*
D03*
X145800D02*
D03*
X115000Y383000D02*
D03*
X145800D02*
D03*
X115000Y379000D02*
D03*
X145800D02*
D03*
X115000Y375000D02*
D03*
X145800D02*
D03*
X115000Y371000D02*
D03*
X145800D02*
D03*
X115000Y367000D02*
D03*
X145800D02*
D03*
X115000Y363000D02*
D03*
X145800D02*
D03*
X115000Y359000D02*
D03*
X145800D02*
D03*
X115000Y355000D02*
D03*
X145800D02*
D03*
X115000Y351000D02*
D03*
X145800D02*
D03*
X115000Y347000D02*
D03*
X145800D02*
D03*
X115000Y343000D02*
D03*
X145800D02*
D03*
X115000Y339000D02*
D03*
X145800D02*
D03*
X115000Y335000D02*
D03*
X145800D02*
D03*
X115000Y331000D02*
D03*
X145800D02*
D03*
X115000Y327000D02*
D03*
X145800D02*
D03*
X115000Y323000D02*
D03*
X145800D02*
D03*
X115000Y319000D02*
D03*
X145800D02*
D03*
X115000Y315000D02*
D03*
X145800D02*
D03*
X115000Y311000D02*
D03*
X145800D02*
D03*
X115000Y307000D02*
D03*
X145800D02*
D03*
X115000Y303000D02*
D03*
X145800D02*
D03*
X115000Y299000D02*
D03*
X145800D02*
D03*
X115000Y295000D02*
D03*
X145800D02*
D03*
X115000Y291000D02*
D03*
X145800D02*
D03*
X115000Y287000D02*
D03*
X145800D02*
D03*
X115000Y283000D02*
D03*
X145800D02*
D03*
X115000Y279000D02*
D03*
X145800D02*
D03*
X115000Y275000D02*
D03*
X145800D02*
D03*
X115000Y271000D02*
D03*
X145800D02*
D03*
X115000Y267000D02*
D03*
X145800D02*
D03*
X454200Y463000D02*
D03*
X485000D02*
D03*
X454200Y459000D02*
D03*
X485000D02*
D03*
X454200Y455000D02*
D03*
X485000D02*
D03*
X454200Y451000D02*
D03*
X485000D02*
D03*
X454200Y447000D02*
D03*
X485000D02*
D03*
X454200Y443000D02*
D03*
X485000D02*
D03*
X454200Y439000D02*
D03*
X485000D02*
D03*
X454200Y435000D02*
D03*
X485000D02*
D03*
X454200Y431000D02*
D03*
X485000D02*
D03*
X454200Y427000D02*
D03*
X485000D02*
D03*
X454200Y423000D02*
D03*
X485000D02*
D03*
X454200Y419000D02*
D03*
X485000D02*
D03*
X454200Y415000D02*
D03*
X485000D02*
D03*
X454200Y411000D02*
D03*
X485000D02*
D03*
X454200Y407000D02*
D03*
X485000D02*
D03*
X454200Y403000D02*
D03*
X485000D02*
D03*
X454200Y399000D02*
D03*
X485000D02*
D03*
X454200Y395000D02*
D03*
X485000D02*
D03*
X454200Y391000D02*
D03*
X485000D02*
D03*
X454200Y387000D02*
D03*
X485000D02*
D03*
X454200Y383000D02*
D03*
X485000D02*
D03*
X454200Y379000D02*
D03*
X485000D02*
D03*
X454200Y375000D02*
D03*
X485000D02*
D03*
X454200Y371000D02*
D03*
X485000D02*
D03*
X454200Y367000D02*
D03*
X485000D02*
D03*
X454200Y363000D02*
D03*
X485000D02*
D03*
X454200Y359000D02*
D03*
X485000D02*
D03*
X454200Y355000D02*
D03*
X485000D02*
D03*
X454200Y351000D02*
D03*
X485000D02*
D03*
X454200Y347000D02*
D03*
X485000D02*
D03*
X454200Y343000D02*
D03*
X485000D02*
D03*
X454200Y339000D02*
D03*
X485000D02*
D03*
X454200Y335000D02*
D03*
X485000D02*
D03*
X454200Y331000D02*
D03*
X485000D02*
D03*
X454200Y327000D02*
D03*
X485000D02*
D03*
X454200Y323000D02*
D03*
X485000D02*
D03*
X454200Y319000D02*
D03*
X485000D02*
D03*
X454200Y315000D02*
D03*
X485000D02*
D03*
X454200Y311000D02*
D03*
X485000D02*
D03*
X454200Y307000D02*
D03*
X485000D02*
D03*
X454200Y303000D02*
D03*
X485000D02*
D03*
X454200Y299000D02*
D03*
X485000D02*
D03*
X454200Y295000D02*
D03*
X485000D02*
D03*
X454200Y291000D02*
D03*
X485000D02*
D03*
X454200Y287000D02*
D03*
X485000D02*
D03*
X454200Y283000D02*
D03*
X485000D02*
D03*
X454200Y279000D02*
D03*
X485000D02*
D03*
X454200Y275000D02*
D03*
X485000D02*
D03*
X454200Y271000D02*
D03*
X485000D02*
D03*
X454200Y267000D02*
D03*
X485000D02*
D03*
D74*
X713750Y799250D02*
D03*
X700250D02*
D03*
Y788750D02*
D03*
X713750D02*
D03*
D75*
X423750Y877000D02*
D03*
X408250D02*
D03*
X816750Y792000D02*
D03*
X801250D02*
D03*
X543750Y118000D02*
D03*
X528250D02*
D03*
X622760Y735000D02*
D03*
X638260D02*
D03*
X622760Y749000D02*
D03*
X638260D02*
D03*
X621750Y484000D02*
D03*
X606250D02*
D03*
X542250Y427000D02*
D03*
X557750D02*
D03*
X590750Y388000D02*
D03*
X575250D02*
D03*
X590750Y374000D02*
D03*
X575250D02*
D03*
X590750Y360000D02*
D03*
X575250D02*
D03*
X590750Y346000D02*
D03*
X575250D02*
D03*
X543750Y104000D02*
D03*
X528250D02*
D03*
X801250Y778250D02*
D03*
X816750D02*
D03*
X714750Y775000D02*
D03*
X699250D02*
D03*
X513000Y778000D02*
D03*
X497500D02*
D03*
X513000Y764000D02*
D03*
X497500D02*
D03*
X513000Y750000D02*
D03*
X497500D02*
D03*
X462250Y778000D02*
D03*
X477750D02*
D03*
X462250Y764000D02*
D03*
X477750D02*
D03*
X462250Y750000D02*
D03*
X477750D02*
D03*
X563240Y691000D02*
D03*
X547740D02*
D03*
X563240Y705000D02*
D03*
X547740D02*
D03*
X423750Y863000D02*
D03*
X408250D02*
D03*
D76*
X634860Y708050D02*
D03*
Y695350D02*
D03*
Y682650D02*
D03*
Y669950D02*
D03*
X582160D02*
D03*
Y682650D02*
D03*
Y695350D02*
D03*
Y708050D02*
D03*
D77*
X717000Y624000D02*
D03*
X110000Y80000D02*
D03*
X77000Y143000D02*
D03*
X140000Y80000D02*
D03*
X547000Y813000D02*
D03*
X810000Y611000D02*
D03*
X865000Y601000D02*
D03*
D78*
X757500Y780450D02*
D03*
X748000D02*
D03*
X738500D02*
D03*
Y805550D02*
D03*
X748000D02*
D03*
X757500D02*
D03*
D79*
X543250Y453000D02*
D03*
Y475000D02*
D03*
X560750D02*
D03*
Y453000D02*
D03*
D80*
X174000Y755784D02*
D03*
X179000D02*
D03*
X184000D02*
D03*
X189000D02*
D03*
X194000D02*
D03*
Y799784D02*
D03*
X189000D02*
D03*
X184000D02*
D03*
X179000D02*
D03*
X174000D02*
D03*
D81*
X601784Y733300D02*
D03*
Y746000D02*
D03*
Y758700D02*
D03*
Y771400D02*
D03*
X554784Y733300D02*
D03*
Y746000D02*
D03*
Y758700D02*
D03*
Y771400D02*
D03*
D82*
X117250Y769000D02*
D03*
X542226Y840000D02*
D03*
D83*
X56750Y743600D02*
D03*
Y756300D02*
D03*
Y769000D02*
D03*
Y781700D02*
D03*
Y794400D02*
D03*
X481726Y814600D02*
D03*
Y827300D02*
D03*
Y840000D02*
D03*
Y852700D02*
D03*
Y865400D02*
D03*
D84*
X701000Y633500D02*
D03*
Y650500D02*
D03*
X824000Y270500D02*
D03*
Y287500D02*
D03*
X781000Y334500D02*
D03*
Y317500D02*
D03*
X709796Y260500D02*
D03*
Y277500D02*
D03*
D85*
X44750Y807000D02*
D03*
X55250D02*
D03*
X631250Y762000D02*
D03*
X620750D02*
D03*
Y772000D02*
D03*
X631250D02*
D03*
X730250Y475000D02*
D03*
X719750D02*
D03*
X710250D02*
D03*
X699750D02*
D03*
X540500Y439000D02*
D03*
X551000D02*
D03*
X560750D02*
D03*
X571250D02*
D03*
X700750Y811000D02*
D03*
X711250D02*
D03*
X620760Y721000D02*
D03*
X610260D02*
D03*
X640760D02*
D03*
X630260D02*
D03*
X469750Y878000D02*
D03*
X480250D02*
D03*
X449750Y878000D02*
D03*
X460250D02*
D03*
X425250Y851000D02*
D03*
X414750D02*
D03*
Y842000D02*
D03*
X425250D02*
D03*
X416250Y798000D02*
D03*
X405750D02*
D03*
Y807000D02*
D03*
X416250D02*
D03*
X416250Y816000D02*
D03*
X405750D02*
D03*
X405750Y789000D02*
D03*
X416250D02*
D03*
X24750Y807000D02*
D03*
X35250D02*
D03*
X167500Y741000D02*
D03*
X178000D02*
D03*
X178250Y732000D02*
D03*
X167750D02*
D03*
X272250Y789000D02*
D03*
X261750D02*
D03*
Y798000D02*
D03*
X272250D02*
D03*
Y807000D02*
D03*
X261750D02*
D03*
Y816000D02*
D03*
X272250D02*
D03*
D86*
X259000Y843750D02*
D03*
Y854250D02*
D03*
X268000D02*
D03*
Y843750D02*
D03*
X594000Y479000D02*
D03*
Y468500D02*
D03*
X577000Y479000D02*
D03*
Y468500D02*
D03*
X594000Y499000D02*
D03*
Y488500D02*
D03*
X577000Y499000D02*
D03*
Y488500D02*
D03*
X768796Y314250D02*
D03*
Y303750D02*
D03*
Y334250D02*
D03*
Y323750D02*
D03*
X743796Y314250D02*
D03*
Y303750D02*
D03*
X752796Y334250D02*
D03*
Y323750D02*
D03*
Y314250D02*
D03*
Y303750D02*
D03*
X743796Y334250D02*
D03*
Y323750D02*
D03*
X809796Y269250D02*
D03*
Y258750D02*
D03*
Y289250D02*
D03*
Y278750D02*
D03*
X798796Y269250D02*
D03*
Y258750D02*
D03*
Y289250D02*
D03*
Y278750D02*
D03*
X789796Y269250D02*
D03*
Y258750D02*
D03*
Y289250D02*
D03*
Y278750D02*
D03*
X780796Y289250D02*
D03*
Y278750D02*
D03*
Y269250D02*
D03*
Y258750D02*
D03*
X760796Y289250D02*
D03*
Y278750D02*
D03*
Y269250D02*
D03*
Y258750D02*
D03*
X721796Y281250D02*
D03*
Y270750D02*
D03*
Y261250D02*
D03*
Y250750D02*
D03*
X688000Y799250D02*
D03*
Y788750D02*
D03*
X689000Y642750D02*
D03*
Y653250D02*
D03*
X680000Y653250D02*
D03*
Y642750D02*
D03*
D87*
X455000Y827250D02*
D03*
Y810750D02*
D03*
Y846750D02*
D03*
Y863250D02*
D03*
X30000Y775750D02*
D03*
Y792250D02*
D03*
Y756250D02*
D03*
Y739750D02*
D03*
D88*
X384155Y790750D02*
D03*
Y797250D02*
D03*
Y803750D02*
D03*
Y810250D02*
D03*
Y816750D02*
D03*
Y823250D02*
D03*
Y829750D02*
D03*
Y836250D02*
D03*
Y842750D02*
D03*
Y849250D02*
D03*
Y855750D02*
D03*
Y862250D02*
D03*
Y868750D02*
D03*
Y875250D02*
D03*
X293845D02*
D03*
Y868750D02*
D03*
Y862250D02*
D03*
Y855750D02*
D03*
Y849250D02*
D03*
Y842750D02*
D03*
Y836250D02*
D03*
Y829750D02*
D03*
Y823250D02*
D03*
Y816750D02*
D03*
Y810250D02*
D03*
Y803750D02*
D03*
Y797250D02*
D03*
Y790750D02*
D03*
D89*
X135000Y825000D02*
D03*
X142000Y33000D02*
D03*
X873000Y872000D02*
D03*
D90*
X650000Y147500D02*
D03*
Y267500D02*
D03*
D91*
X750000Y550000D02*
D03*
X599800Y858700D02*
D03*
Y833300D02*
D03*
X625200Y858700D02*
D03*
Y833300D02*
D03*
X650600Y858700D02*
D03*
Y833300D02*
D03*
X676000Y858700D02*
D03*
Y833300D02*
D03*
X701400Y858700D02*
D03*
Y833300D02*
D03*
X726800Y858700D02*
D03*
Y833300D02*
D03*
X752200Y858700D02*
D03*
D92*
X550000Y550000D02*
D03*
D93*
X752200Y833300D02*
D03*
D94*
X249000Y874000D02*
D03*
X52800Y139700D02*
D03*
X27400Y292100D02*
D03*
X872000Y333600D02*
D03*
Y224600D02*
D03*
Y115200D02*
D03*
X27400Y393700D02*
D03*
X30000Y866400D02*
D03*
X52800Y444500D02*
D03*
Y495300D02*
D03*
Y342900D02*
D03*
Y393700D02*
D03*
X27400Y444500D02*
D03*
Y495300D02*
D03*
X872000Y440000D02*
D03*
D95*
X52800Y292100D02*
D03*
Y266700D02*
D03*
Y241300D02*
D03*
Y165100D02*
D03*
Y190500D02*
D03*
Y215900D02*
D03*
X27400Y114300D02*
D03*
Y215900D02*
D03*
Y241300D02*
D03*
Y266700D02*
D03*
Y190500D02*
D03*
Y165100D02*
D03*
Y139700D02*
D03*
X872000Y359000D02*
D03*
Y384400D02*
D03*
Y409800D02*
D03*
Y250000D02*
D03*
Y275400D02*
D03*
Y300800D02*
D03*
Y140600D02*
D03*
Y166000D02*
D03*
Y191400D02*
D03*
X27400Y368300D02*
D03*
Y342900D02*
D03*
Y317500D02*
D03*
X653000Y99000D02*
D03*
X30000Y841000D02*
D03*
X52800Y419100D02*
D03*
Y469900D02*
D03*
Y317500D02*
D03*
Y368300D02*
D03*
X27400Y419100D02*
D03*
Y469900D02*
D03*
D96*
X250000Y40000D02*
D03*
Y60000D02*
D03*
X270000Y40000D02*
D03*
Y60000D02*
D03*
X290000Y40000D02*
D03*
Y60000D02*
D03*
X310000Y40000D02*
D03*
Y60000D02*
D03*
X330000Y40000D02*
D03*
Y60000D02*
D03*
X350000Y40000D02*
D03*
Y60000D02*
D03*
X370000Y40000D02*
D03*
Y60000D02*
D03*
X390000Y40000D02*
D03*
Y60000D02*
D03*
X410000Y40000D02*
D03*
Y60000D02*
D03*
X430000Y40000D02*
D03*
Y60000D02*
D03*
X450000Y40000D02*
D03*
Y60000D02*
D03*
X470000Y40000D02*
D03*
Y60000D02*
D03*
X490000Y40000D02*
D03*
Y60000D02*
D03*
X510000Y40000D02*
D03*
Y60000D02*
D03*
X530000Y40000D02*
D03*
Y60000D02*
D03*
X550000Y40000D02*
D03*
Y60000D02*
D03*
X570000Y40000D02*
D03*
Y60000D02*
D03*
X590000Y40000D02*
D03*
Y60000D02*
D03*
X610000Y40000D02*
D03*
Y60000D02*
D03*
X630000Y40000D02*
D03*
Y60000D02*
D03*
X650000Y40000D02*
D03*
D97*
Y60000D02*
D03*
D98*
X215000Y50000D02*
D03*
X685000D02*
D03*
D99*
X110000D02*
D03*
D100*
X465000Y150000D02*
D03*
X135000Y630000D02*
D03*
X465000D02*
D03*
X135000Y150000D02*
D03*
D101*
X627600Y99000D02*
D03*
X871000Y642000D02*
D03*
D102*
X50800Y50800D02*
D03*
X850900D02*
D03*
X88900Y849200D02*
D03*
X823800D02*
D03*
D103*
X50800Y73660D02*
D03*
X27940Y50800D02*
D03*
X50800Y27940D02*
D03*
X73660Y50800D02*
D03*
X66965Y66965D02*
D03*
X34636D02*
D03*
Y34636D02*
D03*
X66965D02*
D03*
X850900Y73660D02*
D03*
X828040Y50800D02*
D03*
X850900Y27940D02*
D03*
X873760Y50800D02*
D03*
X867065Y66965D02*
D03*
X834735D02*
D03*
Y34636D02*
D03*
X867065D02*
D03*
X88900Y872060D02*
D03*
X66040Y849200D02*
D03*
X88900Y826340D02*
D03*
X111760Y849200D02*
D03*
X105064Y865365D02*
D03*
X72736D02*
D03*
Y833036D02*
D03*
X105064D02*
D03*
X823800Y872060D02*
D03*
X800940Y849200D02*
D03*
X823800Y826340D02*
D03*
X846660Y849200D02*
D03*
X839965Y865365D02*
D03*
X807635D02*
D03*
Y833036D02*
D03*
X839965D02*
D03*
D104*
X888022Y891004D02*
D03*
X877002Y891001D02*
D03*
X865982D02*
D03*
X854962D02*
D03*
X843942D02*
D03*
X832922D02*
D03*
X821902D02*
D03*
X810882D02*
D03*
X799862D02*
D03*
X788842D02*
D03*
X777822D02*
D03*
X766802D02*
D03*
X755782D02*
D03*
X744762D02*
D03*
X733742D02*
D03*
X722722D02*
D03*
X711702D02*
D03*
X700682D02*
D03*
X689662D02*
D03*
X678642D02*
D03*
X667622D02*
D03*
X656602D02*
D03*
X645582D02*
D03*
X634562D02*
D03*
X623542D02*
D03*
X612522D02*
D03*
X601502D02*
D03*
X590482D02*
D03*
X579462D02*
D03*
X568442D02*
D03*
X557422D02*
D03*
X546402D02*
D03*
X535382D02*
D03*
X524362D02*
D03*
X513342D02*
D03*
X502322D02*
D03*
X491302D02*
D03*
X480282D02*
D03*
X469262D02*
D03*
X458242D02*
D03*
X447222D02*
D03*
X436202D02*
D03*
X425182D02*
D03*
X414162D02*
D03*
X403142D02*
D03*
X392122D02*
D03*
X381102D02*
D03*
X370082D02*
D03*
X359062D02*
D03*
X348042D02*
D03*
X337022D02*
D03*
X326002D02*
D03*
X314982D02*
D03*
X303962D02*
D03*
X292942D02*
D03*
X281922D02*
D03*
X270902D02*
D03*
X259882D02*
D03*
X248862D02*
D03*
X237842D02*
D03*
X226822D02*
D03*
X215802D02*
D03*
X127642D02*
D03*
X116622D02*
D03*
X105602D02*
D03*
X94582D02*
D03*
X83562D02*
D03*
X72542D02*
D03*
X61522D02*
D03*
X50502D02*
D03*
X39482D02*
D03*
X28462D02*
D03*
X17442D02*
D03*
X8999Y883919D02*
D03*
Y872899D02*
D03*
Y861879D02*
D03*
Y850859D02*
D03*
Y839839D02*
D03*
Y828819D02*
D03*
Y817799D02*
D03*
Y806779D02*
D03*
Y795759D02*
D03*
Y784739D02*
D03*
Y773719D02*
D03*
Y762699D02*
D03*
Y751679D02*
D03*
Y740659D02*
D03*
Y729639D02*
D03*
Y718619D02*
D03*
Y707599D02*
D03*
Y696579D02*
D03*
Y685559D02*
D03*
Y674539D02*
D03*
Y663519D02*
D03*
Y652499D02*
D03*
Y641479D02*
D03*
Y630459D02*
D03*
Y619439D02*
D03*
Y608419D02*
D03*
Y597399D02*
D03*
Y586379D02*
D03*
Y575359D02*
D03*
Y564339D02*
D03*
Y553319D02*
D03*
Y542299D02*
D03*
Y531279D02*
D03*
Y520259D02*
D03*
Y509239D02*
D03*
Y498219D02*
D03*
Y487199D02*
D03*
Y476179D02*
D03*
Y465159D02*
D03*
Y454139D02*
D03*
Y443119D02*
D03*
Y432099D02*
D03*
Y421079D02*
D03*
Y410059D02*
D03*
Y399039D02*
D03*
Y388019D02*
D03*
Y376999D02*
D03*
Y365979D02*
D03*
Y354959D02*
D03*
Y343939D02*
D03*
Y332919D02*
D03*
Y321899D02*
D03*
Y310879D02*
D03*
Y299859D02*
D03*
Y288839D02*
D03*
Y277819D02*
D03*
Y266800D02*
D03*
Y255779D02*
D03*
Y244760D02*
D03*
Y233739D02*
D03*
Y222719D02*
D03*
Y211700D02*
D03*
Y200679D02*
D03*
Y189660D02*
D03*
Y178640D02*
D03*
Y167619D02*
D03*
Y156600D02*
D03*
Y145580D02*
D03*
Y134559D02*
D03*
Y123540D02*
D03*
Y112520D02*
D03*
Y101500D02*
D03*
Y90480D02*
D03*
Y79460D02*
D03*
Y68440D02*
D03*
Y57420D02*
D03*
Y46400D02*
D03*
Y35380D02*
D03*
Y24360D02*
D03*
Y13340D02*
D03*
X19128Y8999D02*
D03*
X30148D02*
D03*
X41168D02*
D03*
X52188D02*
D03*
X63208D02*
D03*
X74228D02*
D03*
X85248D02*
D03*
X96268D02*
D03*
X107288D02*
D03*
X118308D02*
D03*
X129328D02*
D03*
X140348D02*
D03*
X151368D02*
D03*
X162388D02*
D03*
X173408D02*
D03*
X184428D02*
D03*
X195448D02*
D03*
X206468D02*
D03*
X217488D02*
D03*
X228508D02*
D03*
X239528D02*
D03*
X250548D02*
D03*
X261568D02*
D03*
X272588D02*
D03*
X283608D02*
D03*
X294628D02*
D03*
X305648D02*
D03*
X316668D02*
D03*
X327688D02*
D03*
X338708D02*
D03*
X349728D02*
D03*
X360748D02*
D03*
X371768D02*
D03*
X382788D02*
D03*
X393808D02*
D03*
X404828D02*
D03*
X415848D02*
D03*
X426868D02*
D03*
X437888D02*
D03*
X448908D02*
D03*
X459928D02*
D03*
X470948D02*
D03*
X481968D02*
D03*
X492988D02*
D03*
X504008D02*
D03*
X515028D02*
D03*
X526048D02*
D03*
X537068D02*
D03*
X548088D02*
D03*
X559108D02*
D03*
X570128D02*
D03*
X581148D02*
D03*
X592168D02*
D03*
X603188D02*
D03*
X614208D02*
D03*
X625228D02*
D03*
X636248D02*
D03*
X647268D02*
D03*
X658288D02*
D03*
X669308D02*
D03*
X680328D02*
D03*
X691348D02*
D03*
X702368D02*
D03*
X713388D02*
D03*
X724408D02*
D03*
X735428D02*
D03*
X746448D02*
D03*
X757468D02*
D03*
X768488D02*
D03*
X779508D02*
D03*
X790528D02*
D03*
X801548D02*
D03*
X812568D02*
D03*
X823588D02*
D03*
X834608D02*
D03*
X845628D02*
D03*
X856648D02*
D03*
X867668D02*
D03*
X878688D02*
D03*
X889695Y9522D02*
D03*
X891001Y20464D02*
D03*
Y31484D02*
D03*
Y42504D02*
D03*
Y53524D02*
D03*
Y64544D02*
D03*
Y75564D02*
D03*
Y86584D02*
D03*
Y97604D02*
D03*
Y108624D02*
D03*
Y119644D02*
D03*
Y130664D02*
D03*
Y141684D02*
D03*
Y152704D02*
D03*
Y163724D02*
D03*
Y174744D02*
D03*
Y185764D02*
D03*
Y196784D02*
D03*
Y207804D02*
D03*
Y218824D02*
D03*
Y229844D02*
D03*
Y240864D02*
D03*
Y251884D02*
D03*
Y262904D02*
D03*
Y273924D02*
D03*
Y284944D02*
D03*
Y295964D02*
D03*
Y306984D02*
D03*
Y318004D02*
D03*
Y329024D02*
D03*
Y340044D02*
D03*
Y351064D02*
D03*
Y362084D02*
D03*
Y373104D02*
D03*
Y384124D02*
D03*
Y395144D02*
D03*
Y406164D02*
D03*
Y417184D02*
D03*
Y428204D02*
D03*
Y439224D02*
D03*
Y450244D02*
D03*
Y461264D02*
D03*
Y472284D02*
D03*
Y483304D02*
D03*
Y494324D02*
D03*
Y505344D02*
D03*
Y516364D02*
D03*
Y527384D02*
D03*
Y538404D02*
D03*
Y549424D02*
D03*
Y560444D02*
D03*
Y571464D02*
D03*
Y582484D02*
D03*
Y593504D02*
D03*
Y604524D02*
D03*
Y615544D02*
D03*
Y626564D02*
D03*
Y637584D02*
D03*
Y648604D02*
D03*
Y659624D02*
D03*
Y670644D02*
D03*
Y681664D02*
D03*
Y692684D02*
D03*
Y703704D02*
D03*
Y714724D02*
D03*
Y725743D02*
D03*
Y736764D02*
D03*
Y824923D02*
D03*
Y835944D02*
D03*
Y846964D02*
D03*
Y857983D02*
D03*
Y869003D02*
D03*
Y880023D02*
D03*
M02*
