G04*
G04 #@! TF.GenerationSoftware,Altium Limited,Altium Designer,24.9.1 (31)*
G04*
G04 Layer_Color=32896*
%FSLAX44Y44*%
%MOMM*%
G71*
G04*
G04 #@! TF.SameCoordinates,95152EAB-924E-4990-96F7-4EF775BF21D2*
G04*
G04*
G04 #@! TF.FilePolarity,Positive*
G04*
G01*
G75*
%ADD17C,0.1000*%
%ADD191C,0.0500*%
D17*
X820000Y500000D02*
X830000D01*
X825000Y495000D02*
Y505000D01*
X695000Y500000D02*
X705000D01*
X700000Y495000D02*
Y505000D01*
D191*
X225000Y341000D02*
G03*
X225000Y341000I-3000J0D01*
G01*
X200000Y303000D02*
G03*
X200000Y303000I-3000J0D01*
G01*
X719000Y144000D02*
G03*
X719000Y144000I-3000J0D01*
G01*
X576000Y206000D02*
G03*
X576000Y206000I-3000J0D01*
G01*
X679000Y846000D02*
G03*
X679000Y846000I-3000J0D01*
G01*
X104000Y773500D02*
G03*
X104000Y773500I-3000J0D01*
G01*
X259204Y546999D02*
G03*
X259204Y546999I-3000J0D01*
G01*
X65000Y617000D02*
G03*
X65000Y617000I-3000J0D01*
G01*
X299000Y198000D02*
G03*
X299000Y198000I-3000J0D01*
G01*
X328000Y690000D02*
G03*
X328000Y690000I-3000J0D01*
G01*
X214000Y697000D02*
G03*
X214000Y697000I-3000J0D01*
G01*
X328000Y747000D02*
G03*
X328000Y747000I-3000J0D01*
G01*
X96000Y700000D02*
G03*
X96000Y700000I-3000J0D01*
G01*
X385000Y177000D02*
G03*
X385000Y177000I-3000J0D01*
G01*
X207000Y185000D02*
G03*
X207000Y185000I-3000J0D01*
G01*
X148000Y489000D02*
G03*
X148000Y489000I-3000J0D01*
G01*
X148000Y547000D02*
G03*
X148000Y547000I-3000J0D01*
G01*
X45000Y771000D02*
G03*
X45000Y771000I-3000J0D01*
G01*
X828000Y500000D02*
G03*
X828000Y500000I-3000J0D01*
G01*
X703000D02*
G03*
X703000Y500000I-3000J0D01*
G01*
X473000Y480000D02*
G03*
X473000Y480000I-3000J0D01*
G01*
X772000Y115000D02*
G03*
X772000Y115000I-3000J0D01*
G01*
X462000Y234000D02*
G03*
X462000Y234000I-3000J0D01*
G01*
X289750Y449000D02*
G03*
X289750Y449000I-3000J0D01*
G01*
X832000Y733000D02*
G03*
X832000Y733000I-3000J0D01*
G01*
X615796Y496000D02*
G03*
X615796Y496000I-3000J0D01*
G01*
X554796Y621314D02*
G03*
X554796Y621314I-3000J0D01*
G01*
X707990Y679494D02*
G03*
X707990Y679494I-3000J0D01*
G01*
X692000Y737000D02*
G03*
X692000Y737000I-3000J0D01*
G01*
X718480Y771994D02*
G03*
X718480Y771994I-3000J0D01*
G01*
X514000Y861000D02*
G03*
X514000Y861000I-3000J0D01*
G01*
X458000D02*
G03*
X458000Y861000I-3000J0D01*
G01*
X523000Y657796D02*
G03*
X523000Y657796I-3000J0D01*
G01*
X116000Y312000D02*
G03*
X116000Y312000I-3000J0D01*
G01*
Y303000D02*
G03*
X116000Y303000I-3000J0D01*
G01*
X136000Y312000D02*
G03*
X136000Y312000I-3000J0D01*
G01*
Y321000D02*
G03*
X136000Y321000I-3000J0D01*
G01*
Y303000D02*
G03*
X136000Y303000I-3000J0D01*
G01*
X493000Y760000D02*
G03*
X493000Y760000I-3000J0D01*
G01*
X882000Y799250D02*
G03*
X882000Y799250I-3000J0D01*
G01*
Y779250D02*
G03*
X882000Y779250I-3000J0D01*
G01*
X747000Y487000D02*
G03*
X747000Y487000I-3000J0D01*
G01*
X314000Y447000D02*
G03*
X314000Y447000I-3000J0D01*
G01*
X265750Y445000D02*
G03*
X265750Y445000I-3000J0D01*
G01*
X614000Y519000D02*
G03*
X614000Y519000I-3000J0D01*
G01*
X79000Y117000D02*
G03*
X79000Y117000I-3000J0D01*
G01*
X79000Y399000D02*
G03*
X79000Y399000I-3000J0D01*
G01*
X170000Y283000D02*
G03*
X170000Y283000I-3000J0D01*
G01*
X79000Y173000D02*
G03*
X79000Y173000I-3000J0D01*
G01*
Y206000D02*
G03*
X79000Y206000I-3000J0D01*
G01*
X239000Y341000D02*
G03*
X239000Y341000I-3000J0D01*
G01*
X79000Y305000D02*
G03*
X79000Y305000I-3000J0D01*
G01*
Y337000D02*
G03*
X79000Y337000I-3000J0D01*
G01*
X170000Y315000D02*
G03*
X170000Y315000I-3000J0D01*
G01*
X878000Y835000D02*
G03*
X878000Y835000I-3000J0D01*
G01*
X800000Y641000D02*
G03*
X800000Y641000I-3000J0D01*
G01*
X793000Y330000D02*
G03*
X793000Y330000I-3000J0D01*
G01*
X747000Y478000D02*
G03*
X747000Y478000I-3000J0D01*
G01*
X873000Y491000D02*
G03*
X873000Y491000I-3000J0D01*
G01*
Y482000D02*
G03*
X873000Y482000I-3000J0D01*
G01*
X530000Y669797D02*
G03*
X530000Y669797I-3000J0D01*
G01*
X510000D02*
G03*
X510000Y669797I-3000J0D01*
G01*
X470796Y853000D02*
G03*
X470796Y853000I-3000J0D01*
G01*
X479796D02*
G03*
X479796Y853000I-3000J0D01*
G01*
X488796D02*
G03*
X488796Y853000I-3000J0D01*
G01*
X497796D02*
G03*
X497796Y853000I-3000J0D01*
G01*
X525796D02*
G03*
X525796Y853000I-3000J0D01*
G01*
X534796D02*
G03*
X534796Y853000I-3000J0D01*
G01*
X543796D02*
G03*
X543796Y853000I-3000J0D01*
G01*
X552796D02*
G03*
X552796Y853000I-3000J0D01*
G01*
X470796Y873000D02*
G03*
X470796Y873000I-3000J0D01*
G01*
X479796D02*
G03*
X479796Y873000I-3000J0D01*
G01*
X734740Y688494D02*
G03*
X734740Y688494I-3000J0D01*
G01*
X185000Y235000D02*
G03*
X185000Y235000I-3000J0D01*
G01*
X191000Y135000D02*
G03*
X191000Y135000I-3000J0D01*
G01*
X194000Y235000D02*
G03*
X194000Y235000I-3000J0D01*
G01*
X182000Y135000D02*
G03*
X182000Y135000I-3000J0D01*
G01*
X362000Y225750D02*
G03*
X362000Y225750I-3000J0D01*
G01*
X364000Y128000D02*
G03*
X364000Y128000I-3000J0D01*
G01*
X371000Y225750D02*
G03*
X371000Y225750I-3000J0D01*
G01*
X373000Y128000D02*
G03*
X373000Y128000I-3000J0D01*
G01*
X825000Y144000D02*
G03*
X825000Y144000I-3000J0D01*
G01*
X702000Y138000D02*
G03*
X702000Y138000I-3000J0D01*
G01*
X842000Y139000D02*
G03*
X842000Y139000I-3000J0D01*
G01*
X540000Y146000D02*
G03*
X540000Y146000I-3000J0D01*
G01*
X546000Y261000D02*
G03*
X546000Y261000I-3000J0D01*
G01*
X540000Y155000D02*
G03*
X540000Y155000I-3000J0D01*
G01*
X537000Y261000D02*
G03*
X537000Y261000I-3000J0D01*
G01*
X256000Y126000D02*
G03*
X256000Y126000I-3000J0D01*
G01*
X247000Y270000D02*
G03*
X247000Y270000I-3000J0D01*
G01*
X265000Y126000D02*
G03*
X265000Y126000I-3000J0D01*
G01*
X256000Y270000D02*
G03*
X256000Y270000I-3000J0D01*
G01*
X48250Y663000D02*
G03*
X48250Y663000I-3000J0D01*
G01*
Y672000D02*
G03*
X48250Y672000I-3000J0D01*
G01*
X98000Y584000D02*
G03*
X98000Y584000I-3000J0D01*
G01*
X93000Y569000D02*
G03*
X93000Y569000I-3000J0D01*
G01*
X143000Y679000D02*
G03*
X143000Y679000I-3000J0D01*
G01*
X143000Y688000D02*
G03*
X143000Y688000I-3000J0D01*
G01*
X49000Y681000D02*
G03*
X49000Y681000I-3000J0D01*
G01*
Y690000D02*
G03*
X49000Y690000I-3000J0D01*
G01*
X377000Y671000D02*
G03*
X377000Y671000I-3000J0D01*
G01*
X280000Y671000D02*
G03*
X280000Y671000I-3000J0D01*
G01*
X377000Y680000D02*
G03*
X377000Y680000I-3000J0D01*
G01*
X280000D02*
G03*
X280000Y680000I-3000J0D01*
G01*
X279000Y727000D02*
G03*
X279000Y727000I-3000J0D01*
G01*
X377000Y727000D02*
G03*
X377000Y727000I-3000J0D01*
G01*
X279000Y736000D02*
G03*
X279000Y736000I-3000J0D01*
G01*
X377000Y736000D02*
G03*
X377000Y736000I-3000J0D01*
G01*
X183000Y659000D02*
G03*
X183000Y659000I-3000J0D01*
G01*
X238000Y659000D02*
G03*
X238000Y659000I-3000J0D01*
G01*
X192000Y659000D02*
G03*
X192000Y659000I-3000J0D01*
G01*
X247000Y659000D02*
G03*
X247000Y659000I-3000J0D01*
G01*
X602000Y416000D02*
G03*
X602000Y416000I-3000J0D01*
G01*
X136000Y255000D02*
G03*
X136000Y255000I-3000J0D01*
G01*
Y264000D02*
G03*
X136000Y264000I-3000J0D01*
G01*
Y273000D02*
G03*
X136000Y273000I-3000J0D01*
G01*
X116000Y321000D02*
G03*
X116000Y321000I-3000J0D01*
G01*
X116000Y255000D02*
G03*
X116000Y255000I-3000J0D01*
G01*
Y264000D02*
G03*
X116000Y264000I-3000J0D01*
G01*
Y273000D02*
G03*
X116000Y273000I-3000J0D01*
G01*
X79000Y239000D02*
G03*
X79000Y239000I-3000J0D01*
G01*
Y272000D02*
G03*
X79000Y272000I-3000J0D01*
G01*
X300000Y550000D02*
G03*
X300000Y550000I-3000J0D01*
G01*
X124000Y335000D02*
G03*
X124000Y335000I-3000J0D01*
G01*
X124250Y288000D02*
G03*
X124250Y288000I-3000J0D01*
G01*
X488796Y873000D02*
G03*
X488796Y873000I-3000J0D01*
G01*
X497796D02*
G03*
X497796Y873000I-3000J0D01*
G01*
X525796D02*
G03*
X525796Y873000I-3000J0D01*
G01*
X534796D02*
G03*
X534796Y873000I-3000J0D01*
G01*
X543796D02*
G03*
X543796Y873000I-3000J0D01*
G01*
X552796D02*
G03*
X552796Y873000I-3000J0D01*
G01*
X133000Y791000D02*
G03*
X133000Y791000I-3000J0D01*
G01*
Y800500D02*
G03*
X133000Y800500I-3000J0D01*
G01*
X490000Y194000D02*
G03*
X490000Y194000I-3000J0D01*
G01*
X481000D02*
G03*
X481000Y194000I-3000J0D01*
G01*
X148000Y448000D02*
G03*
X148000Y448000I-3000J0D01*
G01*
Y457000D02*
G03*
X148000Y457000I-3000J0D01*
G01*
X147000Y581000D02*
G03*
X147000Y581000I-3000J0D01*
G01*
X686000Y716000D02*
G03*
X686000Y716000I-3000J0D01*
G01*
X720990Y734245D02*
G03*
X720990Y734245I-3000J0D01*
G01*
X719990Y673745D02*
G03*
X719990Y673745I-3000J0D01*
G01*
X745000Y712000D02*
G03*
X745000Y712000I-3000J0D01*
G01*
X695990Y673745D02*
G03*
X695990Y673745I-3000J0D01*
G01*
X754740Y679494D02*
G03*
X754740Y679494I-3000J0D01*
G01*
Y688494D02*
G03*
X754740Y688494I-3000J0D01*
G01*
X706000Y725000D02*
G03*
X706000Y725000I-3000J0D01*
G01*
Y716000D02*
G03*
X706000Y716000I-3000J0D01*
G01*
X720990Y714245D02*
G03*
X720990Y714245I-3000J0D01*
G01*
X719990Y693745D02*
G03*
X719990Y693745I-3000J0D01*
G01*
X734990Y699494D02*
G03*
X734990Y699494I-3000J0D01*
G01*
X695990Y693745D02*
G03*
X695990Y693745I-3000J0D01*
G01*
X734740Y679494D02*
G03*
X734740Y679494I-3000J0D01*
G01*
X403796Y345750D02*
G03*
X403796Y345750I-3000J0D01*
G01*
X535796Y615000D02*
G03*
X535796Y615000I-3000J0D01*
G01*
X609796Y484000D02*
G03*
X609796Y484000I-3000J0D01*
G01*
X337000Y428000D02*
G03*
X337000Y428000I-3000J0D01*
G01*
X566796Y615314D02*
G03*
X566796Y615314I-3000J0D01*
G01*
X622000Y416000D02*
G03*
X622000Y416000I-3000J0D01*
G01*
X403796Y326000D02*
G03*
X403796Y326000I-3000J0D01*
G01*
X535796Y635000D02*
G03*
X535796Y635000I-3000J0D01*
G01*
X629796Y484000D02*
G03*
X629796Y484000I-3000J0D01*
G01*
X317000Y428000D02*
G03*
X317000Y428000I-3000J0D01*
G01*
X566796Y635314D02*
G03*
X566796Y635314I-3000J0D01*
G01*
X337000Y540000D02*
G03*
X337000Y540000I-3000J0D01*
G01*
Y549000D02*
G03*
X337000Y549000I-3000J0D01*
G01*
X513000Y610000D02*
G03*
X513000Y610000I-3000J0D01*
G01*
X410796Y615314D02*
G03*
X410796Y615314I-3000J0D01*
G01*
X609796Y537000D02*
G03*
X609796Y537000I-3000J0D01*
G01*
X602046Y403000D02*
G03*
X602046Y403000I-3000J0D01*
G01*
X513000Y347000D02*
G03*
X513000Y347000I-3000J0D01*
G01*
X461796Y347000D02*
G03*
X461796Y347000I-3000J0D01*
G01*
X379796Y346000D02*
G03*
X379796Y346000I-3000J0D01*
G01*
X337000Y419000D02*
G03*
X337000Y419000I-3000J0D01*
G01*
Y455000D02*
G03*
X337000Y455000I-3000J0D01*
G01*
Y479000D02*
G03*
X337000Y479000I-3000J0D01*
G01*
X610046Y474000D02*
G03*
X610046Y474000I-3000J0D01*
G01*
X317000Y540000D02*
G03*
X317000Y540000I-3000J0D01*
G01*
Y549000D02*
G03*
X317000Y549000I-3000J0D01*
G01*
X513000Y619000D02*
G03*
X513000Y619000I-3000J0D01*
G01*
X410796Y635314D02*
G03*
X410796Y635314I-3000J0D01*
G01*
X629796Y537000D02*
G03*
X629796Y537000I-3000J0D01*
G01*
X622046Y403000D02*
G03*
X622046Y403000I-3000J0D01*
G01*
X147000Y591000D02*
G03*
X147000Y591000I-3000J0D01*
G01*
X737000Y760000D02*
G03*
X737000Y760000I-3000J0D01*
G01*
X706480Y756245D02*
G03*
X706480Y756245I-3000J0D01*
G01*
Y776245D02*
G03*
X706480Y776245I-3000J0D01*
G01*
X729990Y734245D02*
G03*
X729990Y734245I-3000J0D01*
G01*
Y714245D02*
G03*
X729990Y714245I-3000J0D01*
G01*
X686000Y725000D02*
G03*
X686000Y725000I-3000J0D01*
G01*
X513000Y327000D02*
G03*
X513000Y327000I-3000J0D01*
G01*
X470000Y347000D02*
G03*
X470000Y347000I-3000J0D01*
G01*
X380000Y326000D02*
G03*
X380000Y326000I-3000J0D01*
G01*
X317000Y419000D02*
G03*
X317000Y419000I-3000J0D01*
G01*
X337000Y446000D02*
G03*
X337000Y446000I-3000J0D01*
G01*
Y470000D02*
G03*
X337000Y470000I-3000J0D01*
G01*
X630046Y474000D02*
G03*
X630046Y474000I-3000J0D01*
G01*
X295750Y423000D02*
G03*
X295750Y423000I-3000J0D01*
G01*
X274750D02*
G03*
X274750Y423000I-3000J0D01*
G01*
X236000Y547000D02*
G03*
X236000Y547000I-3000J0D01*
G01*
X259250Y573000D02*
G03*
X259250Y573000I-3000J0D01*
G01*
X758250Y786000D02*
G03*
X758250Y786000I-3000J0D01*
G01*
Y777000D02*
G03*
X758250Y777000I-3000J0D01*
G01*
X288000Y546000D02*
G03*
X288000Y546000I-3000J0D01*
G01*
Y566000D02*
G03*
X288000Y566000I-3000J0D01*
G01*
X683000Y462000D02*
G03*
X683000Y462000I-3000J0D01*
G01*
X665000Y517000D02*
G03*
X665000Y517000I-3000J0D01*
G01*
X810000Y460000D02*
G03*
X810000Y460000I-3000J0D01*
G01*
X790000Y520000D02*
G03*
X790000Y520000I-3000J0D01*
G01*
X454000Y670000D02*
G03*
X454000Y670000I-3000J0D01*
G01*
X91000Y736000D02*
G03*
X91000Y736000I-3000J0D01*
G01*
X137000Y779000D02*
G03*
X137000Y779000I-3000J0D01*
G01*
Y751000D02*
G03*
X137000Y751000I-3000J0D01*
G01*
Y765000D02*
G03*
X137000Y765000I-3000J0D01*
G01*
X104000Y801500D02*
G03*
X104000Y801500I-3000J0D01*
G01*
X487000Y218000D02*
G03*
X487000Y218000I-3000J0D01*
G01*
Y246000D02*
G03*
X487000Y246000I-3000J0D01*
G01*
X462000Y205000D02*
G03*
X462000Y205000I-3000J0D01*
G01*
Y191000D02*
G03*
X462000Y191000I-3000J0D01*
G01*
X171750Y584000D02*
G03*
X171750Y584000I-3000J0D01*
G01*
X122250D02*
G03*
X122250Y584000I-3000J0D01*
G01*
X173000Y454000D02*
G03*
X173000Y454000I-3000J0D01*
G01*
X123000D02*
G03*
X123000Y454000I-3000J0D01*
G01*
X741990Y730495D02*
G03*
X741990Y730495I-3000J0D01*
G01*
X694000Y764000D02*
G03*
X694000Y764000I-3000J0D01*
G01*
X701990Y643494D02*
G03*
X701990Y643494I-3000J0D01*
G01*
X686990D02*
G03*
X686990Y643494I-3000J0D01*
G01*
X677000Y704000D02*
G03*
X677000Y704000I-3000J0D01*
G01*
Y690000D02*
G03*
X677000Y690000I-3000J0D01*
G01*
X224000Y230000D02*
G03*
X224000Y230000I-3000J0D01*
G01*
X221000Y139000D02*
G03*
X221000Y139000I-3000J0D01*
G01*
X224000Y246000D02*
G03*
X224000Y246000I-3000J0D01*
G01*
X221000Y124000D02*
G03*
X221000Y124000I-3000J0D01*
G01*
X399000Y222000D02*
G03*
X399000Y222000I-3000J0D01*
G01*
Y131000D02*
G03*
X399000Y131000I-3000J0D01*
G01*
X399000Y236000D02*
G03*
X399000Y236000I-3000J0D01*
G01*
Y117000D02*
G03*
X399000Y117000I-3000J0D01*
G01*
X845000Y115000D02*
G03*
X845000Y115000I-3000J0D01*
G01*
X699000Y113000D02*
G03*
X699000Y113000I-3000J0D01*
G01*
X685000D02*
G03*
X685000Y113000I-3000J0D01*
G01*
X562000Y280000D02*
G03*
X562000Y280000I-3000J0D01*
G01*
X578000Y125250D02*
G03*
X578000Y125250I-3000J0D01*
G01*
X592000D02*
G03*
X592000Y125250I-3000J0D01*
G01*
X307000Y273000D02*
G03*
X307000Y273000I-3000J0D01*
G01*
X285000Y127000D02*
G03*
X285000Y127000I-3000J0D01*
G01*
X268000Y274000D02*
G03*
X268000Y274000I-3000J0D01*
G01*
X293000Y273000D02*
G03*
X293000Y273000I-3000J0D01*
G01*
X313000Y127000D02*
G03*
X313000Y127000I-3000J0D01*
G01*
X49000Y564000D02*
G03*
X49000Y564000I-3000J0D01*
G01*
X281000Y771000D02*
G03*
X281000Y771000I-3000J0D01*
G01*
X265000D02*
G03*
X265000Y771000I-3000J0D01*
G01*
X360000Y347000D02*
G03*
X360000Y347000I-3000J0D01*
G01*
X391796Y342000D02*
G03*
X391796Y342000I-3000J0D01*
G01*
X328796Y565000D02*
G03*
X328796Y565000I-3000J0D01*
G01*
X222000Y336000D02*
Y346000D01*
X217000Y341000D02*
X227000D01*
X192000Y303000D02*
X202000D01*
X197000Y298000D02*
Y308000D01*
X711000Y144000D02*
X721000D01*
X716000Y139000D02*
Y149000D01*
X573000Y201000D02*
Y211000D01*
X568000Y206000D02*
X578000D01*
X676000Y841000D02*
Y851000D01*
X671000Y846000D02*
X681000D01*
X96000Y773500D02*
X106000D01*
X101000Y768500D02*
Y778500D01*
X256204Y541999D02*
Y551999D01*
X251204Y546999D02*
X261204D01*
X57000Y617000D02*
X67000D01*
X62000Y612000D02*
Y622000D01*
X296000Y193000D02*
Y203000D01*
X291000Y198000D02*
X301000D01*
X325000Y685000D02*
Y695000D01*
X320000Y690000D02*
X330000D01*
X211000Y692000D02*
Y702000D01*
X206000Y697000D02*
X216000D01*
X325000Y742000D02*
Y752000D01*
X320000Y747000D02*
X330000D01*
X93000Y695000D02*
Y705000D01*
X88000Y700000D02*
X98000D01*
X377000Y177000D02*
X387000D01*
X382000Y172000D02*
Y182000D01*
X199000Y185000D02*
X209000D01*
X204000Y180000D02*
Y190000D01*
X145000Y484000D02*
Y494000D01*
X140000Y489000D02*
X150000D01*
X145000Y542000D02*
Y552000D01*
X140000Y547000D02*
X150000D01*
X42000Y766000D02*
Y776000D01*
X37000Y771000D02*
X47000D01*
X825000Y495000D02*
Y505000D01*
X820000Y500000D02*
X830000D01*
X700000Y495000D02*
Y505000D01*
X695000Y500000D02*
X705000D01*
X470000Y475000D02*
Y485000D01*
X465000Y480000D02*
X475000D01*
X769000Y110000D02*
Y120000D01*
X764000Y115000D02*
X774000D01*
X459000Y229000D02*
Y239000D01*
X454000Y234000D02*
X464000D01*
X281750Y449000D02*
X291750D01*
X286750Y444000D02*
Y454000D01*
X824000Y733000D02*
X834000D01*
X829000Y728000D02*
Y738000D01*
X612796Y491000D02*
Y501000D01*
X607796Y496000D02*
X617796D01*
X551796Y616314D02*
Y626314D01*
X546796Y621314D02*
X556796D01*
X699990Y679494D02*
X709990D01*
X704990Y674494D02*
Y684494D01*
X684000Y737000D02*
X694000D01*
X689000Y732000D02*
Y742000D01*
X710480Y771994D02*
X720480D01*
X715480Y766994D02*
Y776994D01*
X506000Y861000D02*
X516000D01*
X511000Y856000D02*
Y866000D01*
X455000Y856000D02*
Y866000D01*
X450000Y861000D02*
X460000D01*
X520000Y652796D02*
Y662796D01*
X515000Y657796D02*
X525000D01*
X113000Y307000D02*
Y317000D01*
X108000Y312000D02*
X118000D01*
X113000Y298000D02*
Y308000D01*
X108000Y303000D02*
X118000D01*
X133000Y307000D02*
Y317000D01*
X128000Y312000D02*
X138000D01*
X133000Y316000D02*
Y326000D01*
X128000Y321000D02*
X138000D01*
X133000Y298000D02*
Y308000D01*
X128000Y303000D02*
X138000D01*
X490000Y755000D02*
Y765000D01*
X485000Y760000D02*
X495000D01*
X874000Y799250D02*
X884000D01*
X879000Y794250D02*
Y804250D01*
X874000Y779250D02*
X884000D01*
X879000Y774250D02*
Y784250D01*
X744000Y482000D02*
Y492000D01*
X739000Y487000D02*
X749000D01*
X306000Y447000D02*
X316000D01*
X311000Y442000D02*
Y452000D01*
X257750Y445000D02*
X267750D01*
X262750Y440000D02*
Y450000D01*
X611000Y514000D02*
Y524000D01*
X606000Y519000D02*
X616000D01*
X71000Y117000D02*
X81000D01*
X76000Y112000D02*
Y122000D01*
X71000Y399000D02*
X81000D01*
X76000Y394000D02*
Y404000D01*
X162000Y283000D02*
X172000D01*
X167000Y278000D02*
Y288000D01*
X71000Y173000D02*
X81000D01*
X76000Y168000D02*
Y178000D01*
X71000Y206000D02*
X81000D01*
X76000Y201000D02*
Y211000D01*
X231000Y341000D02*
X241000D01*
X236000Y336000D02*
Y346000D01*
X71000Y305000D02*
X81000D01*
X76000Y300000D02*
Y310000D01*
X71000Y337000D02*
X81000D01*
X76000Y332000D02*
Y342000D01*
X162000Y315000D02*
X172000D01*
X167000Y310000D02*
Y320000D01*
X875000Y830000D02*
Y840000D01*
X870000Y835000D02*
X880000D01*
X792000Y641000D02*
X802000D01*
X797000Y636000D02*
Y646000D01*
X785000Y330000D02*
X795000D01*
X790000Y325000D02*
Y335000D01*
X744000Y473000D02*
Y483000D01*
X739000Y478000D02*
X749000D01*
X870000Y486000D02*
Y496000D01*
X865000Y491000D02*
X875000D01*
X870000Y477000D02*
Y487000D01*
X865000Y482000D02*
X875000D01*
X527000Y664797D02*
Y674797D01*
X522000Y669797D02*
X532000D01*
X507000Y664797D02*
Y674797D01*
X502000Y669797D02*
X512000D01*
X462797Y853000D02*
X472796D01*
X467796Y848000D02*
Y858000D01*
X471796Y853000D02*
X481796D01*
X476796Y848000D02*
Y858000D01*
X480796Y853000D02*
X490796D01*
X485796Y848000D02*
Y858000D01*
X489796Y853000D02*
X499796D01*
X494796Y848000D02*
Y858000D01*
X517796Y853000D02*
X527796D01*
X522796Y848000D02*
Y858000D01*
X526796Y853000D02*
X536796D01*
X531796Y848000D02*
Y858000D01*
X535796Y853000D02*
X545796D01*
X540796Y848000D02*
Y858000D01*
X544796Y853000D02*
X554796D01*
X549796Y848000D02*
Y858000D01*
X462797Y873000D02*
X472796D01*
X467796Y868000D02*
Y878000D01*
X471796Y873000D02*
X481796D01*
X476796Y868000D02*
Y878000D01*
X731740Y683494D02*
Y693494D01*
X726740Y688494D02*
X736740D01*
X177000Y235000D02*
X187000D01*
X182000Y230000D02*
Y240000D01*
X183000Y135000D02*
X193000D01*
X188000Y130000D02*
Y140000D01*
X186000Y235000D02*
X196000D01*
X191000Y230000D02*
Y240000D01*
X174000Y135000D02*
X184000D01*
X179000Y130000D02*
Y140000D01*
X354000Y225750D02*
X364000D01*
X359000Y220750D02*
Y230750D01*
X356000Y128000D02*
X366000D01*
X361000Y123000D02*
Y133000D01*
X363000Y225750D02*
X373000D01*
X368000Y220750D02*
Y230750D01*
X365000Y128000D02*
X375000D01*
X370000Y123000D02*
Y133000D01*
X822000Y139000D02*
Y149000D01*
X817000Y144000D02*
X827000D01*
X694000Y138000D02*
X704000D01*
X699000Y133000D02*
Y143000D01*
X834000Y139000D02*
X844000D01*
X839000Y134000D02*
Y144000D01*
X537000Y141000D02*
Y151000D01*
X532000Y146000D02*
X542000D01*
X538000Y261000D02*
X548000D01*
X543000Y256000D02*
Y266000D01*
X537000Y150000D02*
Y160000D01*
X532000Y155000D02*
X542000D01*
X529000Y261000D02*
X539000D01*
X534000Y256000D02*
Y266000D01*
X248000Y126000D02*
X258000D01*
X253000Y121000D02*
Y131000D01*
X239000Y270000D02*
X249000D01*
X244000Y265000D02*
Y275000D01*
X257000Y126000D02*
X267000D01*
X262000Y121000D02*
Y131000D01*
X248000Y270000D02*
X258000D01*
X253000Y265000D02*
Y275000D01*
X45250Y658000D02*
Y668000D01*
X40250Y663000D02*
X50250D01*
X45250Y667000D02*
Y677000D01*
X40250Y672000D02*
X50250D01*
X90000Y584000D02*
X100000D01*
X95000Y579000D02*
Y589000D01*
X90000Y564000D02*
Y574000D01*
X85000Y569000D02*
X95000D01*
X140000Y674000D02*
Y684000D01*
X135000Y679000D02*
X145000D01*
X140000Y683000D02*
Y693000D01*
X135000Y688000D02*
X145000D01*
X46000Y676000D02*
Y686000D01*
X41000Y681000D02*
X51000D01*
X46000Y685000D02*
Y695000D01*
X41000Y690000D02*
X51000D01*
X374000Y666000D02*
Y676000D01*
X369000Y671000D02*
X379000D01*
X277000Y666000D02*
Y676000D01*
X272000Y671000D02*
X282000D01*
X374000Y675000D02*
Y685000D01*
X369000Y680000D02*
X379000D01*
X277000Y675000D02*
Y685000D01*
X272000Y680000D02*
X282000D01*
X276000Y722000D02*
Y732000D01*
X271000Y727000D02*
X281000D01*
X374000Y722000D02*
Y732000D01*
X369000Y727000D02*
X379000D01*
X276000Y731000D02*
Y741000D01*
X271000Y736000D02*
X281000D01*
X374000Y731000D02*
Y741000D01*
X369000Y736000D02*
X379000D01*
X175000Y659000D02*
X185000D01*
X180000Y654000D02*
Y664000D01*
X230000Y659000D02*
X240000D01*
X235000Y654000D02*
Y664000D01*
X184000Y659000D02*
X194000D01*
X189000Y654000D02*
Y664000D01*
X239000Y659000D02*
X249000D01*
X244000Y654000D02*
Y664000D01*
X599000Y411000D02*
Y421000D01*
X594000Y416000D02*
X604000D01*
X133000Y250000D02*
Y260000D01*
X128000Y255000D02*
X138000D01*
X133000Y259000D02*
Y269000D01*
X128000Y264000D02*
X138000D01*
X133000Y268000D02*
Y278000D01*
X128000Y273000D02*
X138000D01*
X113000Y316000D02*
Y326000D01*
X108000Y321000D02*
X118000D01*
X113000Y250000D02*
Y260000D01*
X108000Y255000D02*
X118000D01*
X113000Y259000D02*
Y269000D01*
X108000Y264000D02*
X118000D01*
X113000Y268000D02*
Y278000D01*
X108000Y273000D02*
X118000D01*
X71000Y239000D02*
X81000D01*
X76000Y234000D02*
Y244000D01*
X71000Y272000D02*
X81000D01*
X76000Y267000D02*
Y277000D01*
X292000Y550000D02*
X302000D01*
X297000Y545000D02*
Y555000D01*
X116000Y335000D02*
X126000D01*
X121000Y330000D02*
Y340000D01*
X116250Y288000D02*
X126250D01*
X121250Y283000D02*
Y293000D01*
X480796Y873000D02*
X490796D01*
X485796Y868000D02*
Y878000D01*
X489796Y873000D02*
X499796D01*
X494796Y868000D02*
Y878000D01*
X517796Y873000D02*
X527796D01*
X522796Y868000D02*
Y878000D01*
X526796Y873000D02*
X536796D01*
X531796Y868000D02*
Y878000D01*
X535796Y873000D02*
X545796D01*
X540796Y868000D02*
Y878000D01*
X544796Y873000D02*
X554796D01*
X549796Y868000D02*
Y878000D01*
X130000Y786000D02*
Y796000D01*
X125000Y791000D02*
X135000D01*
X130000Y795500D02*
Y805500D01*
X125000Y800500D02*
X135000D01*
X482000Y194000D02*
X492000D01*
X487000Y189000D02*
Y199000D01*
X473000Y194000D02*
X483000D01*
X478000Y189000D02*
Y199000D01*
X145000Y443000D02*
Y453000D01*
X140000Y448000D02*
X150000D01*
X145000Y452000D02*
Y462000D01*
X140000Y457000D02*
X150000D01*
X144000Y576000D02*
Y586000D01*
X139000Y581000D02*
X149000D01*
X683000Y711000D02*
Y721000D01*
X678000Y716000D02*
X688000D01*
X712990Y734245D02*
X722990D01*
X717990Y729245D02*
Y739245D01*
X711990Y673745D02*
X721990D01*
X716990Y668745D02*
Y678745D01*
X742000Y707000D02*
Y717000D01*
X737000Y712000D02*
X747000D01*
X687990Y673745D02*
X697990D01*
X692990Y668745D02*
Y678745D01*
X751740Y674494D02*
Y684494D01*
X746740Y679494D02*
X756740D01*
X751740Y683494D02*
Y693494D01*
X746740Y688494D02*
X756740D01*
X703000Y720000D02*
Y730000D01*
X698000Y725000D02*
X708000D01*
X703000Y711000D02*
Y721000D01*
X698000Y716000D02*
X708000D01*
X712990Y714245D02*
X722990D01*
X717990Y709245D02*
Y719245D01*
X711990Y693745D02*
X721990D01*
X716990Y688745D02*
Y698745D01*
X731990Y694494D02*
Y704494D01*
X726990Y699494D02*
X736990D01*
X687990Y693745D02*
X697990D01*
X692990Y688745D02*
Y698745D01*
X731740Y674494D02*
Y684494D01*
X726740Y679494D02*
X736740D01*
X395796Y345750D02*
X405796D01*
X400796Y340750D02*
Y350750D01*
X527796Y615000D02*
X537796D01*
X532796Y610000D02*
Y620000D01*
X606796Y479000D02*
Y489000D01*
X601796Y484000D02*
X611796D01*
X334000Y423000D02*
Y433000D01*
X329000Y428000D02*
X339000D01*
X558796Y615314D02*
X568796D01*
X563796Y610314D02*
Y620314D01*
X619000Y411000D02*
Y421000D01*
X614000Y416000D02*
X624000D01*
X395796Y326000D02*
X405796D01*
X400796Y321000D02*
Y331000D01*
X527796Y635000D02*
X537796D01*
X532796Y630000D02*
Y640000D01*
X626796Y479000D02*
Y489000D01*
X621796Y484000D02*
X631796D01*
X314000Y423000D02*
Y433000D01*
X309000Y428000D02*
X319000D01*
X558796Y635314D02*
X568796D01*
X563796Y630314D02*
Y640314D01*
X334000Y535000D02*
Y545000D01*
X329000Y540000D02*
X339000D01*
X334000Y544000D02*
Y554000D01*
X329000Y549000D02*
X339000D01*
X510000Y605000D02*
Y615000D01*
X505000Y610000D02*
X515000D01*
X402796Y615314D02*
X412796D01*
X407796Y610314D02*
Y620314D01*
X606796Y532000D02*
Y542000D01*
X601796Y537000D02*
X611796D01*
X599046Y398000D02*
Y408000D01*
X594046Y403000D02*
X604046D01*
X505000Y347000D02*
X515000D01*
X510000Y342000D02*
Y352000D01*
X453796Y347000D02*
X463796D01*
X458796Y342000D02*
Y352000D01*
X371796Y346000D02*
X381796D01*
X376796Y341000D02*
Y351000D01*
X334000Y414000D02*
Y424000D01*
X329000Y419000D02*
X339000D01*
X334000Y450000D02*
Y460000D01*
X329000Y455000D02*
X339000D01*
X334000Y474000D02*
Y484000D01*
X329000Y479000D02*
X339000D01*
X607046Y469000D02*
Y479000D01*
X602046Y474000D02*
X612046D01*
X314000Y535000D02*
Y545000D01*
X309000Y540000D02*
X319000D01*
X314000Y544000D02*
Y554000D01*
X309000Y549000D02*
X319000D01*
X510000Y614000D02*
Y624000D01*
X505000Y619000D02*
X515000D01*
X402796Y635314D02*
X412796D01*
X407796Y630314D02*
Y640314D01*
X626796Y532000D02*
Y542000D01*
X621796Y537000D02*
X631796D01*
X619046Y398000D02*
Y408000D01*
X614046Y403000D02*
X624046D01*
X144000Y586000D02*
Y596000D01*
X139000Y591000D02*
X149000D01*
X734000Y755000D02*
Y765000D01*
X729000Y760000D02*
X739000D01*
X698480Y756245D02*
X708480D01*
X703480Y751245D02*
Y761245D01*
X698480Y776245D02*
X708480D01*
X703480Y771245D02*
Y781245D01*
X721990Y734245D02*
X731990D01*
X726990Y729245D02*
Y739245D01*
X721990Y714245D02*
X731990D01*
X726990Y709245D02*
Y719245D01*
X683000Y720000D02*
Y730000D01*
X678000Y725000D02*
X688000D01*
X505000Y327000D02*
X515000D01*
X510000Y322000D02*
Y332000D01*
X462000Y347000D02*
X472000D01*
X467000Y342000D02*
Y352000D01*
X372000Y326000D02*
X382000D01*
X377000Y321000D02*
Y331000D01*
X314000Y414000D02*
Y424000D01*
X309000Y419000D02*
X319000D01*
X334000Y441000D02*
Y451000D01*
X329000Y446000D02*
X339000D01*
X334000Y465000D02*
Y475000D01*
X329000Y470000D02*
X339000D01*
X627046Y469000D02*
Y479000D01*
X622046Y474000D02*
X632046D01*
X292750Y418000D02*
Y428000D01*
X287750Y423000D02*
X297750D01*
X271750Y418000D02*
Y428000D01*
X266750Y423000D02*
X276750D01*
X228000Y547000D02*
X238000D01*
X233000Y542000D02*
Y552000D01*
X256250Y568000D02*
Y578000D01*
X251250Y573000D02*
X261250D01*
X755250Y781000D02*
Y791000D01*
X750250Y786000D02*
X760250D01*
X755250Y772000D02*
Y782000D01*
X750250Y777000D02*
X760250D01*
X280000Y546000D02*
X290000D01*
X285000Y541000D02*
Y551000D01*
X280000Y566000D02*
X290000D01*
X285000Y561000D02*
Y571000D01*
X680000Y457000D02*
Y467000D01*
X675000Y462000D02*
X685000D01*
X657000Y517000D02*
X667000D01*
X662000Y512000D02*
Y522000D01*
X807000Y455000D02*
Y465000D01*
X802000Y460000D02*
X812000D01*
X782000Y520000D02*
X792000D01*
X787000Y515000D02*
Y525000D01*
X451000Y665000D02*
Y675000D01*
X446000Y670000D02*
X456000D01*
X88000Y731000D02*
Y741000D01*
X83000Y736000D02*
X93000D01*
X134000Y774000D02*
Y784000D01*
X129000Y779000D02*
X139000D01*
X134000Y746000D02*
Y756000D01*
X129000Y751000D02*
X139000D01*
X134000Y760000D02*
Y770000D01*
X129000Y765000D02*
X139000D01*
X101000Y796500D02*
Y806500D01*
X96000Y801500D02*
X106000D01*
X479000Y218000D02*
X489000D01*
X484000Y213000D02*
Y223000D01*
X479000Y246000D02*
X489000D01*
X484000Y241000D02*
Y251000D01*
X459000Y200000D02*
Y210000D01*
X454000Y205000D02*
X464000D01*
X459000Y186000D02*
Y196000D01*
X454000Y191000D02*
X464000D01*
X168750Y579000D02*
Y589000D01*
X163750Y584000D02*
X173750D01*
X119250Y579000D02*
Y589000D01*
X114250Y584000D02*
X124250D01*
X170000Y449000D02*
Y459000D01*
X165000Y454000D02*
X175000D01*
X120000Y449000D02*
Y459000D01*
X115000Y454000D02*
X125000D01*
X733990Y730495D02*
X743990D01*
X738990Y725495D02*
Y735495D01*
X686000Y764000D02*
X696000D01*
X691000Y759000D02*
Y769000D01*
X693990Y643494D02*
X703990D01*
X698990Y638494D02*
Y648494D01*
X678990Y643494D02*
X688990D01*
X683990Y638494D02*
Y648494D01*
X674000Y699000D02*
Y709000D01*
X669000Y704000D02*
X679000D01*
X674000Y685000D02*
Y695000D01*
X669000Y690000D02*
X679000D01*
X221000Y225000D02*
Y235000D01*
X216000Y230000D02*
X226000D01*
X218000Y134000D02*
Y144000D01*
X213000Y139000D02*
X223000D01*
X221000Y241000D02*
Y251000D01*
X216000Y246000D02*
X226000D01*
X218000Y119000D02*
Y129000D01*
X213000Y124000D02*
X223000D01*
X396000Y217000D02*
Y227000D01*
X391000Y222000D02*
X401000D01*
X396000Y126000D02*
Y136000D01*
X391000Y131000D02*
X401000D01*
X396000Y231000D02*
Y241000D01*
X391000Y236000D02*
X401000D01*
X396000Y112000D02*
Y122000D01*
X391000Y117000D02*
X401000D01*
X837000Y115000D02*
X847000D01*
X842000Y110000D02*
Y120000D01*
X691000Y113000D02*
X701000D01*
X696000Y108000D02*
Y118000D01*
X677000Y113000D02*
X687000D01*
X682000Y108000D02*
Y118000D01*
X559000Y275000D02*
Y285000D01*
X554000Y280000D02*
X564000D01*
X570000Y125250D02*
X580000D01*
X575000Y120250D02*
Y130250D01*
X584000Y125250D02*
X594000D01*
X589000Y120250D02*
Y130250D01*
X299000Y273000D02*
X309000D01*
X304000Y268000D02*
Y278000D01*
X282000Y122000D02*
Y132000D01*
X277000Y127000D02*
X287000D01*
X260000Y274000D02*
X270000D01*
X265000Y269000D02*
Y279000D01*
X285000Y273000D02*
X295000D01*
X290000Y268000D02*
Y278000D01*
X310000Y122000D02*
Y132000D01*
X305000Y127000D02*
X315000D01*
X41000Y564000D02*
X51000D01*
X46000Y559000D02*
Y569000D01*
X273000Y771000D02*
X283000D01*
X278000Y766000D02*
Y776000D01*
X257000Y771000D02*
X267000D01*
X262000Y766000D02*
Y776000D01*
X352000Y347000D02*
X362000D01*
X357000Y342000D02*
Y352000D01*
X383796Y342000D02*
X393796D01*
X388796Y337000D02*
Y347000D01*
X320796Y565000D02*
X330796D01*
X325796Y560000D02*
Y570000D01*
M02*
