M48
;Layer_Color=9474304
;FILE_FORMAT=4:3
METRIC,TZ
;TYPE=PLATED
T01F00S00C0.200
T02F00S00C0.300
T03F00S00C0.750
T04F00S00C0.762
T05F00S00C1.100
T06F00S00C1.600
T07F00S00C3.180
;TYPE=NON_PLATED
T08F00S00C1.150
T09F00S00C1.650
T10F00S00C2.300
T11F00S00C3.000
T12F00S00C3.700
%
T01
X7600Y9800
X6700Y12500
X8700Y13600
X6700Y16550
X8500Y19800
X8900Y21400
X8500Y23220
X8500Y24650
X8700Y26800
X8500Y28200
X8600Y29500
X9300Y30400
X9330Y31300
X10200Y31500
Y32400
Y30600
Y29900
Y29400
X10700Y29600
X6700Y28900
X7000Y27200
X4000Y28000
Y25800
X4100Y30600
X6906Y33156
X8700Y33900
X9400Y34900
X7800Y35500
Y37600
X8500Y38200
X9310Y37610
X9900Y39200
X12600Y37499
X13500Y35700
X12601Y34446
X15900Y32300
X15600Y30600
X15800Y27500
X21300Y26900
X21305Y25460
X23900Y26500
X26100Y25700
X26500Y29300
X29500Y28700
X30400Y29290
X34000Y28800
X34900Y28493
X35000Y30700
X35890Y30510
X36420Y31400
X36350Y32760
X38700Y32400
X37900Y31400
X37700Y35600
X33200Y34000
X32100Y34200
X31100Y34800
X29800Y36600
X25600Y37900
X25700Y38900
X26700Y39700
X22700Y37400
X21900Y36500
X20400Y37600
X19500Y38200
X21160Y38840
X18000Y39400
X17900Y36760
X18400Y34900
X19300
X20120Y35546
X21310Y34400
X20100Y31800
X18100Y33500
X19000Y22300
X16800Y21700
X17300Y19400
X17900Y14600
X18800
X20320Y13886
Y12400
X20100Y9000
X18700Y9200
X18200Y10700
X21800Y9920
X21800Y9100
X23300Y11280
X23800Y13100
X24600
X26700Y13600
X23900Y15100
X22900Y21500
X11500Y21300
Y22000
X11700Y24300
X10807Y19193
X19794Y7378
X34000Y13800
X35200Y13300
X36900Y13900
X38220Y13100
X38800Y10900
X36900Y21500
X35300Y22100
X37590Y24504
X38900Y24600
X34000Y25900
X40400Y24600
X43400Y25500
X43600Y27680
X44100Y27200
X41100Y30100
Y32100
X43880Y34280
X44500Y34300
X44400Y35900
X46120
X42900Y35300
X43300Y39700
X46900Y39300
X47000Y32800
X49700Y32900
Y34100
X50186Y32053
X50790Y31790
X50750Y36168
X55500Y39100
X56000Y39700
X59000
X60200Y38700
X60900Y38200
X63210Y39290
X63920Y39180
X64900Y35700
X65900Y35800
X65000Y33400
X61700Y31200
X59400Y31400
X57600Y30700
X58800Y27100
X61400Y28700
X54300Y28000
X54500Y24900
X50200Y25200
X49800Y27600
X49500Y21000
X50600Y21500
X46100Y21100
X39700Y21200
X41000Y15100
X41100Y13100
Y11600
X51500Y11082
X52800Y12600
X54300Y13900
X54754Y15500
X59900Y15200
X58900Y10800
X55000Y9100
X53000Y8520
X67562Y9138
X69600Y9800
X70800Y8900
X69200Y13300
X67300Y11900
X71700Y15200
X71000Y18400
X70000Y17600
X71300Y21700
X71900Y22800
X70400Y23800
X69800Y24600
X71400Y29300
X72100Y29400
X71530Y30740
X70800Y32200
X70900Y33300
X72754Y34546
X74000Y34100
X74280Y34900
X74300Y36000
X74900Y35600
X75000Y34400
X76000Y34500
X77000Y35500
X78000
X77000Y37500
X76100Y37540
X74346Y37890
X74394Y38630
X74400Y39200
X72100Y39800
X71400Y38200
X71100Y37600
X70700Y36900
X70100Y36100
X76000Y31500
X76000Y30500
Y29500
X78000
X77000Y28500
X74557Y28164
X75300Y22200
X74100Y21100
X78080Y39500
X78900
X80052Y39394
X81500Y39300
X82500Y39500
X82860Y37450
X82000Y37500
X82000Y35500
X82046Y34560
X83000Y34500
Y35500
X81000Y34500
X78910Y35450
X78950Y32389
Y30500
Y29500
X82000
Y30500
Y31500
X85000Y23300
Y22600
Y21700
X83500Y21500
Y20700
X83505Y19888
X81300Y15200
X84500Y13500
X86400Y9300
X84000Y42400
X79700Y44300
X79100Y45900
X81475Y46700
X82100Y49300
X82500Y50000
X82100Y50800
X82304Y52878
X84800Y52400
X86400Y52300
X87100Y51000
X86810Y49890
X85700Y48800
X85800Y47600
X85300Y56800
X87500Y56700
X82200
X79700Y59600
X80200Y60300
X79300Y62800
X78900Y63300
X82200Y65000
X83500
X84500
X83800Y64100
X84600Y63100
X83700Y76000
X81600Y77200
X80000Y76500
X79000Y77600
X79300Y78300
X78700
Y79000
X79300
X87000Y77800
X75000Y77200
X72900Y77100
X73200Y75000
X74200Y74900
X70200Y74600
X69200Y75000
X68000Y74600
X66398Y74703
X66370Y73808
X66766Y73264
X66600Y71300
X65800Y71200
X67600Y71276
X70100Y70700
Y69800
X71000
Y70700
X71700Y70400
X72900
X72500Y69400
X76300Y69500
X76800Y68800
X76263Y68037
X75800Y65500
X76800Y64800
X74600Y64500
X73300
X74134Y61714
X76200Y60500
Y59500
X77700Y56800
X78600Y57600
X77120Y52099
X76500Y50500
X75896Y50996
X74600Y52900
X72186Y53999
X69590Y55260
X67100Y54900
X65200Y55900
X63625Y54853
X60100Y54900
X59200Y58900
X57713Y58927
X56400Y58900
X56100Y57100
X55300
X54500Y57500
X55200Y53505
X55500Y51500
Y50600
X54200Y51200
X56100Y48400
X60100Y49000
X63300Y49300
X63800Y47900
X64800Y47100
X64600Y46100
X64220Y45300
X63252Y44989
X61700Y43800
X60745Y43145
X60981Y42504
X59100Y42700
Y43300
X59617Y44400
X56600Y43200
X56100Y41700
X51900Y41800
X52100Y42600
X51020Y42400
X50420
Y44100
X51020
X49900Y44500
X47300Y43400
X43600Y44000
Y41400
X43423Y46940
X45370Y47220
X45286Y52538
X44686Y53138
X44913Y53800
X43800Y54400
X44400Y55600
X45480Y54980
X45598Y56185
X45400Y57000
X46130Y57270
X46900Y57200
X47500Y57600
X47200Y59800
X50500Y60400
X50900Y64200
X50000Y64500
X54500Y65600
X55500Y65700
X54600Y67000
X54800Y68200
X56100Y67500
X60300Y68700
X61800Y69500
X62400Y68300
X62500Y67000
X65700Y66100
X67000
X68400Y66200
X68500Y67300
X69700Y66100
X70700Y66300
X70100Y62400
X67300Y58900
X63700
X62300
X61400
X62500Y62300
X63100
X64000Y61800
X57100Y61300
X48814Y56286
X48900Y55610
X48200Y55700
X48800Y54500
X46360Y52000
X40900Y50800
X40500Y50100
X39840Y53920
X40600Y54500
X40200Y55700
X39300
X39800Y61300
X40687Y60424
X43380Y67000
X45000Y66100
X44500Y72000
Y73000
X43500Y74000
Y75000
X45323Y75000
X45500Y75900
X46500Y74000
Y73000
Y71200
X45500Y72000
X48500
X49500Y73000
X48600Y75000
X47500Y74000
Y77000
Y79000
X46500
X43500
Y78000
Y77000
X39850Y79125
X49500Y79000
X50500
X52500
Y77000
Y76000
X53536Y73964
X53500Y71600
X52500Y72000
X51000Y71100
X48700Y69700
X58720Y73300
X58600Y74600
X64100Y75700
X67000Y75800
X70500Y73000
X70800Y72100
X76400Y72276
X72000Y78900
X62100Y77700
X64200Y50500
X69100Y50800
X70100Y49200
X70800
Y49900
X73100Y48900
X73300Y48200
X72502Y48296
X72500Y46720
X70800Y45700
X69200Y47000
X67100Y47400
X68100Y44700
X68300Y43700
X71200Y43100
Y42500
X73100
X72700Y41600
X71900Y40700
X76100
X75200Y45810
X53200Y40200
X39100Y44300
X37800Y44100
X37500Y43200
X38700Y41700
X34500Y42300
Y44300
X34900Y44800
X34600Y47900
X34900Y53200
X33400Y57300
X31700Y57400
X30900Y55500
X29700Y56600
X28500Y57700
X25100Y57800
X24800Y54900
X22800Y55200
X20100Y52300
X19500Y51300
X21360Y50260
X20700Y49000
X20100Y45000
X18900
X21200Y44800
X24670Y45300
X25200Y46600
X25900Y47200
X26000Y46000
X27800Y45100
X29000Y47800
X24700Y47400
X25000Y43600
X26190Y42300
X25700Y41000
X29800Y41600
X30577Y42357
X27300Y52700
X16800Y52000
X14400Y51000
X11900Y51400
X9900Y51600
X9400Y52800
X7900Y53300
X7100Y54000
X5500Y56800
X8475Y57500
X8900Y58925
Y64400
Y65500
X8300Y66030
X7800Y66600
X7305Y65495
X6300Y66900
Y68700
X4966Y69534
X4900Y71400
X4700Y72500
X3900
X5600
Y73100
X6300
X8000Y73410
X9100Y75100
X8200Y79500
X12000Y78900
X14400Y78600
X16500Y77000
X16750Y74850
X17900Y74770
X15500Y74800
X17300Y71900
X16900Y71300
X17100Y69600
X17900Y67100
X20200Y67400
X20800Y66900
X21600Y66300
X22400Y65700
X23100Y67200
X25300Y68500
Y69600
X25000Y71300
X24870Y72337
X24500Y73400
X24400Y74250
X23280
X23300Y72600
X28800Y72747
Y71300
X28200Y69600
Y68500
X28800Y68800
Y67098
X25900Y62900
X24500Y62600
X21900Y61400
X21100Y61900
X20200Y63000
X19300Y63300
X19400Y64500
X20100Y59600
Y58600
X15900Y59200
X14060Y55060
X13100Y52700
X13400Y47580
X15400Y48100
Y44500
X16000Y44700
X17600Y46400
X16100Y41320
X18800Y40000
X10200
X10700Y40500
X10800Y42400
X9000Y43100
X9100Y44000
X9600Y44700
X9900Y47900
Y48900
Y49800
X3100Y51200
Y51900
Y52500
Y53100
X2300
Y52500
Y51900
Y51200
X3400Y58700
X3480Y64900
Y65800
X3400Y67200
X10800Y65800
X13000Y68000
X12620Y69790
X13200Y70600
X19900Y75600
X27400Y74300
X28700Y74500
Y75335
X28800Y76600
X27900Y79076
X36200Y77800
X37600
X38600Y75020
X36800Y74600
X37000Y72200
X36900Y69000
X38700Y69600
X36300Y67100
X34500Y65000
X34300Y64300
X37200Y60200
X13600Y43500
X9000Y40000
X11900Y80000
X6100Y80700
X5500Y81700
X15500Y83100
X16489Y82481
X19400Y83200
X21800Y85000
X25900Y86000
X27500Y86200
X27800Y86900
X27900Y85500
Y81700
X28000Y81000
Y80274
X27200Y82200
X13700Y85200
X39800Y86200
X40167Y86875
X41400Y87700
X40900Y85300
X40000Y84300
X40500Y83600
Y83000
X41100Y83300
X42540Y82968
X43100Y83400
X43900Y83100
X43800Y86200
X44400
Y86900
X43800
X50100Y88000
X51100Y87900
X51000Y82000
Y81400
Y80800
X50100
Y81400
Y82000
X46800Y81800
X46300Y81500
Y80700
X47100
X47800
X40009Y80725
X40049Y80049
X40197Y81307
X39700Y81700
X68100Y79900
X69500Y81100
X79300
Y81700
X78860Y80500
X78700Y79900
X81600
X84900Y81400
X85400
X85900Y82200
X86600
Y82800
X86400Y84500
Y85700
X87600
T02
X900Y1334
Y2436
Y3538
Y4640
Y5742
Y6844
Y7946
Y9048
Y10150
Y11252
Y12354
Y13456
Y14558
Y15660
Y16762
Y17864
Y18966
Y20068
Y21170
Y22272
Y23374
Y24476
Y25578
Y26680
Y27782
Y28884
Y29986
Y31088
Y32190
Y33292
Y34394
Y35496
Y36598
Y37700
Y38802
X1913Y900
X3015
X4117
X5219
X6321
X7423
X8525
X9627
X10729
X11831
X12933
X14035
X15137
X16239
X17341
X18443
X19545
X20647
X21749
X22851
X23953
X25055
X26157
X27259
X28361
X29463
X30565
X31667
X32769
X33871
X34973
X36075
X37177
X38279
X39381
X40483
X41585
X42687
X43789
X44891
X45993
X47095
X48197
X49299
X50401
X51503
X52605
X53707
X54809
X55911
X57013
X58115
X59217
X60319
X61421
X62523
X63625
X64727
X65829
X66931
X68033
X69135
X70237
X71339
X72441
X73543
X74645
X75747
X76849
X77951
X79053
X80155
X81257
X82359
X83461
X84563
X85665
X86767
X87869
X88970Y952
X89100Y2046
Y3148
Y4250
Y5352
Y6454
Y7556
Y8658
Y9760
Y10862
Y11964
Y13066
Y14168
Y15270
Y16372
Y17474
Y18576
Y19678
Y20780
Y21882
Y22984
Y24086
Y25188
Y26290
Y27392
Y28494
Y29596
Y30698
Y31800
Y32902
Y34004
Y35106
Y36208
Y37310
Y38412
Y39514
Y40616
Y41718
Y42820
Y43922
Y45024
Y46126
Y47228
Y48330
Y49432
Y50534
Y51636
Y52738
Y53840
Y54942
Y56044
Y57146
Y58248
Y59350
Y60452
Y61554
Y62656
Y63758
Y64860
Y65962
Y67064
Y68166
Y69268
Y70370
Y71472
Y72574
Y73676
Y74778
Y75880
Y76982
Y78084
Y79186
X900Y78474
Y77372
Y76270
Y75168
Y74066
Y72964
Y71862
Y70760
Y69658
Y68556
Y67454
Y66352
Y65250
Y64148
Y63046
Y61944
Y60842
Y59740
Y58638
Y57536
Y56434
Y55332
Y54230
Y53128
Y52026
Y50924
Y49822
Y48720
Y47618
Y46516
Y45414
Y44312
Y43210
Y42108
Y41006
Y39904
Y79576
Y80678
Y81780
Y82882
Y83984
Y85086
Y86188
Y87290
Y88392
X1744Y89100
X2846
X3948
X5050
X6152
X7254
X8356
X9458
X10560
X11662
X12764
X13866
X14968
X16070
X17172
X18274
X19376
X20478
X21580
X22682
X23784
X24886
X25988
X27090
X28192
X29294
X30396
X31498
X32600
X33702
X34804
X35906
X37008
X38110
X39212
X40314
X41416
X42518
X43620
X44722
X45824
X46926
X48028
X49130
X50232
X51334
X52436
X53538
X54640
X55742
X56844
X57946
X59048
X60150
X61252
X62354
X63456
X64558
X65660
X66762
X67864
X68966
X70068
X71170
X72272
X73374
X74476
X75578
X76680
X77782
X78884
X79986
X81088
X82190
X83292
X84394
X85496
X86598
X87700
X88802Y89100
X89100Y88002
Y86900
Y85798
Y84696
Y83594
Y82492
Y81390
Y80288
T03
X25000Y4000
Y6000
X27000
X29000
Y4000
X27000
X31000
Y6000
X33000
X35000
Y4000
X33000
X37000
Y6000
X39000
Y4000
X41000
X43000
Y6000
X41000
X45000
Y4000
X47000
X49000
Y6000
X47000
X51000
X53000
Y4000
X51000
X55000
X57000
Y6000
X55000
X59000
Y4000
X61000
X63000
Y6000
X61000
X65000
Y4000
T04
X3464Y3464
X2794Y5080
X3464Y6696
X5080Y7366
X6696Y6696
X7366Y5080
X6696Y3464
X5080Y2794
X83474Y3464
X82804Y5080
X83474Y6696
X85090Y7366
X86706Y6696
X87376Y5080
X86706Y3464
X85090Y2794
X10506Y83304
X8890Y82634
X7274Y83304
X6604Y84920
X7274Y86536
X8890Y87206
X10506Y86536
X11176Y84920
X80094
X80764Y86536
X82380Y87206
X83996Y86536
X84666Y84920
X83996Y83304
X82380Y82634
X80764Y83304
T05
X2740Y11430
Y13970
X5280
Y16510
Y19050
Y21590
Y24130
Y26670
Y29210
X2740
Y26670
Y24130
Y21590
Y19050
Y16510
Y31750
Y34290
Y36830
Y39370
X5280
Y36830
Y34290
Y31750
X62760Y9900
X65300
X87200Y11520
Y14060
Y16600
Y19140
Y22460
Y25000
Y27540
Y30080
Y33360
Y35900
Y38440
Y40980
Y44000
X87100Y64200
X5280Y49530
Y46990
Y44450
Y41910
X2740
Y44450
Y46990
Y49530
X3000Y84100
Y86640
X24900Y87400
X59980Y85870
Y83330
X62520
Y85870
X65060
Y83330
X67600
Y85870
X70140
Y83330
X72680
Y85870
X75220
Y83330
T06
X11000Y5000
T07
X5080Y5080
X85090
X8890Y84920
X82380
T08
X55000Y55000
T09
X75000Y55000
T10
X21500Y5000
X68500
T11
X65000Y14750
Y26750
T12
X13500Y15000
X46500
Y63000
X13500
M30
