G04*
G04 #@! TF.GenerationSoftware,Altium Limited,Altium Designer,24.9.1 (31)*
G04*
G04 Layer_Color=128*
%FSLAX44Y44*%
%MOMM*%
G71*
G04*
G04 #@! TF.SameCoordinates,6A9D4D84-9140-4673-ADE8-75025B522ADB*
G04*
G04*
G04 #@! TF.FilePolarity,Positive*
G04*
G01*
G75*
%ADD19C,0.1270*%
D19*
X102000Y50000D02*
X118000D01*
X110000Y42000D02*
Y58000D01*
X21900Y469900D02*
X32900D01*
X27400Y464400D02*
Y475400D01*
X21900Y495300D02*
X32900D01*
X27400Y489800D02*
Y500800D01*
X21900Y419100D02*
X32900D01*
X27400Y413600D02*
Y424600D01*
X21900Y444500D02*
X32900D01*
X27400Y439000D02*
Y450000D01*
X47300Y368300D02*
X58300D01*
X52800Y362800D02*
Y373800D01*
X47300Y393700D02*
X58300D01*
X52800Y388200D02*
Y399200D01*
X47300Y317500D02*
X58300D01*
X52800Y312000D02*
Y323000D01*
X47300Y342900D02*
X58300D01*
X52800Y337400D02*
Y348400D01*
X47300Y469900D02*
X58300D01*
X52800Y464400D02*
Y475400D01*
X47300Y495300D02*
X58300D01*
X52800Y489800D02*
Y500800D01*
X47300Y419100D02*
X58300D01*
X52800Y413600D02*
Y424600D01*
X47300Y444500D02*
X58300D01*
X52800Y439000D02*
Y450000D01*
X24500Y841000D02*
X35500D01*
X30000Y835500D02*
Y846500D01*
X24500Y866400D02*
X35500D01*
X30000Y860900D02*
Y871900D01*
X21900Y317500D02*
X32900D01*
X27400Y312000D02*
Y323000D01*
X21900Y342900D02*
X32900D01*
X27400Y337400D02*
Y348400D01*
X21900Y368300D02*
X32900D01*
X27400Y362800D02*
Y373800D01*
X21900Y393700D02*
X32900D01*
X27400Y388200D02*
Y399200D01*
X866500Y440000D02*
X877500D01*
X872000Y434500D02*
Y445500D01*
X647500Y99000D02*
X658500D01*
X653000Y93500D02*
Y104500D01*
X622100Y99000D02*
X633100D01*
X627600Y93500D02*
Y104500D01*
X866500Y191400D02*
X877500D01*
X872000Y185900D02*
Y196900D01*
X866500Y166000D02*
X877500D01*
X872000Y160500D02*
Y171500D01*
X866500Y140600D02*
X877500D01*
X872000Y135100D02*
Y146100D01*
X866500Y115200D02*
X877500D01*
X872000Y109700D02*
Y120700D01*
X866500Y300800D02*
X877500D01*
X872000Y295300D02*
Y306300D01*
X866500Y275400D02*
X877500D01*
X872000Y269900D02*
Y280900D01*
X866500Y250000D02*
X877500D01*
X872000Y244500D02*
Y255500D01*
X866500Y224600D02*
X877500D01*
X872000Y219100D02*
Y230100D01*
X866500Y409800D02*
X877500D01*
X872000Y404300D02*
Y415300D01*
X866500Y384400D02*
X877500D01*
X872000Y378900D02*
Y389900D01*
X866500Y359000D02*
X877500D01*
X872000Y353500D02*
Y364500D01*
X866500Y333600D02*
X877500D01*
X872000Y328100D02*
Y339100D01*
X47300Y215900D02*
X58300D01*
X52800Y210400D02*
Y221400D01*
X47300Y190500D02*
X58300D01*
X52800Y185000D02*
Y196000D01*
X47300Y165100D02*
X58300D01*
X52800Y159600D02*
Y170600D01*
X47300Y139700D02*
X58300D01*
X52800Y134200D02*
Y145200D01*
X47300Y241300D02*
X58300D01*
X52800Y235800D02*
Y246800D01*
X47300Y266700D02*
X58300D01*
X52800Y261200D02*
Y272200D01*
X47300Y292100D02*
X58300D01*
X52800Y286600D02*
Y297600D01*
X21900Y139700D02*
X32900D01*
X27400Y134200D02*
Y145200D01*
X21900Y165100D02*
X32900D01*
X27400Y159600D02*
Y170600D01*
X21900Y190500D02*
X32900D01*
X27400Y185000D02*
Y196000D01*
X21900Y292100D02*
X32900D01*
X27400Y286600D02*
Y297600D01*
X21900Y266700D02*
X32900D01*
X27400Y261200D02*
Y272200D01*
X21900Y241300D02*
X32900D01*
X27400Y235800D02*
Y246800D01*
X21900Y215900D02*
X32900D01*
X27400Y210400D02*
Y221400D01*
X21900Y114300D02*
X32900D01*
X27400Y108800D02*
Y119800D01*
X865500Y642000D02*
X876500D01*
X871000Y636500D02*
Y647500D01*
X673500Y50000D02*
X696500D01*
X685000Y38500D02*
Y61500D01*
X203500Y50000D02*
X226500D01*
X215000Y38500D02*
Y61500D01*
X646250Y60000D02*
X653750D01*
X650000Y56250D02*
Y63750D01*
X646250Y40000D02*
X653750D01*
X650000Y36250D02*
Y43750D01*
X626250Y60000D02*
X633750D01*
X630000Y56250D02*
Y63750D01*
X626250Y40000D02*
X633750D01*
X630000Y36250D02*
Y43750D01*
X606250Y60000D02*
X613750D01*
X610000Y56250D02*
Y63750D01*
X606250Y40000D02*
X613750D01*
X610000Y36250D02*
Y43750D01*
X586250Y60000D02*
X593750D01*
X590000Y56250D02*
Y63750D01*
X586250Y40000D02*
X593750D01*
X590000Y36250D02*
Y43750D01*
X566250Y60000D02*
X573750D01*
X570000Y56250D02*
Y63750D01*
X566250Y40000D02*
X573750D01*
X570000Y36250D02*
Y43750D01*
X546250Y60000D02*
X553750D01*
X550000Y56250D02*
Y63750D01*
X546250Y40000D02*
X553750D01*
X550000Y36250D02*
Y43750D01*
X526250Y60000D02*
X533750D01*
X530000Y56250D02*
Y63750D01*
X526250Y40000D02*
X533750D01*
X530000Y36250D02*
Y43750D01*
X506250Y60000D02*
X513750D01*
X510000Y56250D02*
Y63750D01*
X506250Y40000D02*
X513750D01*
X510000Y36250D02*
Y43750D01*
X486250Y60000D02*
X493750D01*
X490000Y56250D02*
Y63750D01*
X486250Y40000D02*
X493750D01*
X490000Y36250D02*
Y43750D01*
X466250Y60000D02*
X473750D01*
X470000Y56250D02*
Y63750D01*
X466250Y40000D02*
X473750D01*
X470000Y36250D02*
Y43750D01*
X446250Y60000D02*
X453750D01*
X450000Y56250D02*
Y63750D01*
X446250Y40000D02*
X453750D01*
X450000Y36250D02*
Y43750D01*
X426250Y60000D02*
X433750D01*
X430000Y56250D02*
Y63750D01*
X426250Y40000D02*
X433750D01*
X430000Y36250D02*
Y43750D01*
X406250Y60000D02*
X413750D01*
X410000Y56250D02*
Y63750D01*
X406250Y40000D02*
X413750D01*
X410000Y36250D02*
Y43750D01*
X386250Y60000D02*
X393750D01*
X390000Y56250D02*
Y63750D01*
X386250Y40000D02*
X393750D01*
X390000Y36250D02*
Y43750D01*
X366250Y60000D02*
X373750D01*
X370000Y56250D02*
Y63750D01*
X366250Y40000D02*
X373750D01*
X370000Y36250D02*
Y43750D01*
X346250Y60000D02*
X353750D01*
X350000Y56250D02*
Y63750D01*
X346250Y40000D02*
X353750D01*
X350000Y36250D02*
Y43750D01*
X326250Y60000D02*
X333750D01*
X330000Y56250D02*
Y63750D01*
X326250Y40000D02*
X333750D01*
X330000Y36250D02*
Y43750D01*
X306250Y60000D02*
X313750D01*
X310000Y56250D02*
Y63750D01*
X306250Y40000D02*
X313750D01*
X310000Y36250D02*
Y43750D01*
X286250Y60000D02*
X293750D01*
X290000Y56250D02*
Y63750D01*
X286250Y40000D02*
X293750D01*
X290000Y36250D02*
Y43750D01*
X266250Y60000D02*
X273750D01*
X270000Y56250D02*
Y63750D01*
X266250Y40000D02*
X273750D01*
X270000Y36250D02*
Y43750D01*
X246250Y60000D02*
X253750D01*
X250000Y56250D02*
Y63750D01*
X246250Y40000D02*
X253750D01*
X250000Y36250D02*
Y43750D01*
X243500Y874000D02*
X254500D01*
X249000Y868500D02*
Y879500D01*
X544250Y550000D02*
X555750D01*
X550000Y544250D02*
Y555750D01*
X741750Y550000D02*
X758250D01*
X750000Y541750D02*
Y558250D01*
X635000Y267500D02*
X665000D01*
X650000Y252500D02*
Y282500D01*
X635000Y147500D02*
X665000D01*
X650000Y132500D02*
Y162500D01*
X116500Y150000D02*
X153500D01*
X135000Y131500D02*
Y168500D01*
X446500Y630000D02*
X483500D01*
X465000Y611500D02*
Y648500D01*
X116500Y630000D02*
X153500D01*
X135000Y611500D02*
Y648500D01*
X446500Y150000D02*
X483500D01*
X465000Y131500D02*
Y168500D01*
X746700Y833300D02*
X757700D01*
X752200Y827800D02*
Y838800D01*
X746700Y858700D02*
X757700D01*
X752200Y853200D02*
Y864200D01*
X721300Y833300D02*
X732300D01*
X726800Y827800D02*
Y838800D01*
X721300Y858700D02*
X732300D01*
X726800Y853200D02*
Y864200D01*
X695900Y833300D02*
X706900D01*
X701400Y827800D02*
Y838800D01*
X695900Y858700D02*
X706900D01*
X701400Y853200D02*
Y864200D01*
X670500Y833300D02*
X681500D01*
X676000Y827800D02*
Y838800D01*
X670500Y858700D02*
X681500D01*
X676000Y853200D02*
Y864200D01*
X645100Y833300D02*
X656100D01*
X650600Y827800D02*
Y838800D01*
X645100Y858700D02*
X656100D01*
X650600Y853200D02*
Y864200D01*
X619700Y833300D02*
X630700D01*
X625200Y827800D02*
Y838800D01*
X619700Y858700D02*
X630700D01*
X625200Y853200D02*
Y864200D01*
X594300Y833300D02*
X605300D01*
X599800Y827800D02*
Y838800D01*
X594300Y858700D02*
X605300D01*
X599800Y853200D02*
Y864200D01*
X836154Y833036D02*
X843774D01*
X839965Y829225D02*
Y836845D01*
X803826Y833036D02*
X811445D01*
X807635Y829225D02*
Y836845D01*
X803826Y865365D02*
X811445D01*
X807635Y861554D02*
Y869174D01*
X836154Y865365D02*
X843774D01*
X839965Y861554D02*
Y869174D01*
X842850Y849200D02*
X850470D01*
X846660Y845390D02*
Y853010D01*
X819990Y826340D02*
X827610D01*
X823800Y822530D02*
Y830150D01*
X797130Y849200D02*
X804750D01*
X800940Y845390D02*
Y853010D01*
X819990Y872060D02*
X827610D01*
X823800Y868250D02*
Y875870D01*
X807900Y849200D02*
X839700D01*
X823800Y833300D02*
Y865100D01*
X101255Y833036D02*
X108875D01*
X105064Y829225D02*
Y836845D01*
X68925Y833036D02*
X76546D01*
X72736Y829225D02*
Y836845D01*
X68925Y865365D02*
X76546D01*
X72736Y861554D02*
Y869174D01*
X101255Y865365D02*
X108875D01*
X105064Y861554D02*
Y869174D01*
X107950Y849200D02*
X115570D01*
X111760Y845390D02*
Y853010D01*
X85090Y826340D02*
X92710D01*
X88900Y822530D02*
Y830150D01*
X62230Y849200D02*
X69850D01*
X66040Y845390D02*
Y853010D01*
X85090Y872060D02*
X92710D01*
X88900Y868250D02*
Y875870D01*
X73000Y849200D02*
X104800D01*
X88900Y833300D02*
Y865100D01*
X863254Y34636D02*
X870874D01*
X867065Y30826D02*
Y38445D01*
X830926Y34636D02*
X838546D01*
X834735Y30826D02*
Y38445D01*
X830926Y66965D02*
X838546D01*
X834735Y63155D02*
Y70774D01*
X863254Y66965D02*
X870874D01*
X867065Y63155D02*
Y70774D01*
X869950Y50800D02*
X877570D01*
X873760Y46990D02*
Y54610D01*
X847090Y27940D02*
X854710D01*
X850900Y24130D02*
Y31750D01*
X824230Y50800D02*
X831850D01*
X828040Y46990D02*
Y54610D01*
X847090Y73660D02*
X854710D01*
X850900Y69850D02*
Y77470D01*
X835000Y50800D02*
X866800D01*
X850900Y34900D02*
Y66700D01*
X63155Y34636D02*
X70774D01*
X66965Y30826D02*
Y38445D01*
X30826Y34636D02*
X38445D01*
X34636Y30826D02*
Y38445D01*
X30826Y66965D02*
X38445D01*
X34636Y63155D02*
Y70774D01*
X63155Y66965D02*
X70774D01*
X66965Y63155D02*
Y70774D01*
X69850Y50800D02*
X77470D01*
X73660Y46990D02*
Y54610D01*
X46990Y27940D02*
X54610D01*
X50800Y24130D02*
Y31750D01*
X24130Y50800D02*
X31750D01*
X27940Y46990D02*
Y54610D01*
X46990Y73660D02*
X54610D01*
X50800Y69850D02*
Y77470D01*
X34900Y50800D02*
X66700D01*
X50800Y34900D02*
Y66700D01*
X886522Y891004D02*
X889522D01*
X888022Y889504D02*
Y892504D01*
X875502Y891001D02*
X878502D01*
X877002Y889501D02*
Y892501D01*
X864482Y891001D02*
X867482D01*
X865982Y889501D02*
Y892501D01*
X853462Y891001D02*
X856462D01*
X854962Y889501D02*
Y892501D01*
X842442Y891001D02*
X845442D01*
X843942Y889501D02*
Y892501D01*
X831422Y891001D02*
X834422D01*
X832922Y889501D02*
Y892501D01*
X820402Y891001D02*
X823402D01*
X821902Y889501D02*
Y892501D01*
X809382Y891001D02*
X812382D01*
X810882Y889501D02*
Y892501D01*
X798362Y891001D02*
X801362D01*
X799862Y889501D02*
Y892501D01*
X787342Y891001D02*
X790342D01*
X788842Y889501D02*
Y892501D01*
X776322Y891001D02*
X779322D01*
X777822Y889501D02*
Y892501D01*
X765302Y891001D02*
X768302D01*
X766802Y889501D02*
Y892501D01*
X754282Y891001D02*
X757282D01*
X755782Y889501D02*
Y892501D01*
X743262Y891001D02*
X746262D01*
X744762Y889501D02*
Y892501D01*
X732242Y891001D02*
X735242D01*
X733742Y889501D02*
Y892501D01*
X721222Y891001D02*
X724222D01*
X722722Y889501D02*
Y892501D01*
X710202Y891001D02*
X713202D01*
X711702Y889501D02*
Y892501D01*
X699182Y891001D02*
X702182D01*
X700682Y889501D02*
Y892501D01*
X688162Y891001D02*
X691162D01*
X689662Y889501D02*
Y892501D01*
X677142Y891001D02*
X680142D01*
X678642Y889501D02*
Y892501D01*
X666122Y891001D02*
X669122D01*
X667622Y889501D02*
Y892501D01*
X655102Y891001D02*
X658102D01*
X656602Y889501D02*
Y892501D01*
X644082Y891001D02*
X647082D01*
X645582Y889501D02*
Y892501D01*
X633062Y891001D02*
X636062D01*
X634562Y889501D02*
Y892501D01*
X622042Y891001D02*
X625042D01*
X623542Y889501D02*
Y892501D01*
X611022Y891001D02*
X614022D01*
X612522Y889501D02*
Y892501D01*
X600002Y891001D02*
X603002D01*
X601502Y889501D02*
Y892501D01*
X588982Y891001D02*
X591982D01*
X590482Y889501D02*
Y892501D01*
X577962Y891001D02*
X580962D01*
X579462Y889501D02*
Y892501D01*
X566942Y891001D02*
X569942D01*
X568442Y889501D02*
Y892501D01*
X555922Y891001D02*
X558922D01*
X557422Y889501D02*
Y892501D01*
X544902Y891001D02*
X547902D01*
X546402Y889501D02*
Y892501D01*
X533882Y891001D02*
X536882D01*
X535382Y889501D02*
Y892501D01*
X522862Y891001D02*
X525862D01*
X524362Y889501D02*
Y892501D01*
X511842Y891001D02*
X514842D01*
X513342Y889501D02*
Y892501D01*
X500822Y891001D02*
X503822D01*
X502322Y889501D02*
Y892501D01*
X489802Y891001D02*
X492802D01*
X491302Y889501D02*
Y892501D01*
X478782Y891001D02*
X481782D01*
X480282Y889501D02*
Y892501D01*
X467762Y891001D02*
X470762D01*
X469262Y889501D02*
Y892501D01*
X456742Y891001D02*
X459742D01*
X458242Y889501D02*
Y892501D01*
X445722Y891001D02*
X448722D01*
X447222Y889501D02*
Y892501D01*
X434702Y891001D02*
X437702D01*
X436202Y889501D02*
Y892501D01*
X423682Y891001D02*
X426682D01*
X425182Y889501D02*
Y892501D01*
X412662Y891001D02*
X415662D01*
X414162Y889501D02*
Y892501D01*
X401642Y891001D02*
X404642D01*
X403142Y889501D02*
Y892501D01*
X390622Y891001D02*
X393622D01*
X392122Y889501D02*
Y892501D01*
X379602Y891001D02*
X382602D01*
X381102Y889501D02*
Y892501D01*
X368582Y891001D02*
X371582D01*
X370082Y889501D02*
Y892501D01*
X357562Y891001D02*
X360562D01*
X359062Y889501D02*
Y892501D01*
X346542Y891001D02*
X349542D01*
X348042Y889501D02*
Y892501D01*
X335522Y891001D02*
X338522D01*
X337022Y889501D02*
Y892501D01*
X324502Y891001D02*
X327502D01*
X326002Y889501D02*
Y892501D01*
X313482Y891001D02*
X316482D01*
X314982Y889501D02*
Y892501D01*
X302462Y891001D02*
X305462D01*
X303962Y889501D02*
Y892501D01*
X291442Y891001D02*
X294442D01*
X292942Y889501D02*
Y892501D01*
X280422Y891001D02*
X283422D01*
X281922Y889501D02*
Y892501D01*
X269402Y891001D02*
X272402D01*
X270902Y889501D02*
Y892501D01*
X258382Y891001D02*
X261382D01*
X259882Y889501D02*
Y892501D01*
X247362Y891001D02*
X250362D01*
X248862Y889501D02*
Y892501D01*
X236342Y891001D02*
X239342D01*
X237842Y889501D02*
Y892501D01*
X225322Y891001D02*
X228322D01*
X226822Y889501D02*
Y892501D01*
X214302Y891001D02*
X217302D01*
X215802Y889501D02*
Y892501D01*
X203282Y891001D02*
X206282D01*
X204782Y889501D02*
Y892501D01*
X192262Y891001D02*
X195262D01*
X193762Y889501D02*
Y892501D01*
X181242Y891001D02*
X184242D01*
X182742Y889501D02*
Y892501D01*
X170222Y891001D02*
X173222D01*
X171722Y889501D02*
Y892501D01*
X159202Y891001D02*
X162202D01*
X160702Y889501D02*
Y892501D01*
X148182Y891001D02*
X151182D01*
X149682Y889501D02*
Y892501D01*
X137162Y891001D02*
X140162D01*
X138662Y889501D02*
Y892501D01*
X126142Y891001D02*
X129142D01*
X127642Y889501D02*
Y892501D01*
X115122Y891001D02*
X118122D01*
X116622Y889501D02*
Y892501D01*
X104102Y891001D02*
X107102D01*
X105602Y889501D02*
Y892501D01*
X93082Y891001D02*
X96082D01*
X94582Y889501D02*
Y892501D01*
X82062Y891001D02*
X85062D01*
X83562Y889501D02*
Y892501D01*
X71042Y891001D02*
X74042D01*
X72542Y889501D02*
Y892501D01*
X60022Y891001D02*
X63022D01*
X61522Y889501D02*
Y892501D01*
X49002Y891001D02*
X52002D01*
X50502Y889501D02*
Y892501D01*
X37982Y891001D02*
X40982D01*
X39482Y889501D02*
Y892501D01*
X26962Y891001D02*
X29962D01*
X28462Y889501D02*
Y892501D01*
X15942Y891001D02*
X18942D01*
X17442Y889501D02*
Y892501D01*
X7499Y883919D02*
X10499D01*
X8999Y882419D02*
Y885419D01*
X7499Y872899D02*
X10499D01*
X8999Y871399D02*
Y874399D01*
X7499Y861879D02*
X10499D01*
X8999Y860379D02*
Y863379D01*
X7499Y850859D02*
X10499D01*
X8999Y849359D02*
Y852359D01*
X7499Y839839D02*
X10499D01*
X8999Y838339D02*
Y841339D01*
X7499Y828819D02*
X10499D01*
X8999Y827319D02*
Y830319D01*
X7499Y817799D02*
X10499D01*
X8999Y816299D02*
Y819299D01*
X7499Y806779D02*
X10499D01*
X8999Y805279D02*
Y808279D01*
X7499Y795759D02*
X10499D01*
X8999Y794259D02*
Y797259D01*
X7499Y784739D02*
X10499D01*
X8999Y783239D02*
Y786239D01*
X7499Y773719D02*
X10499D01*
X8999Y772219D02*
Y775219D01*
X7499Y762699D02*
X10499D01*
X8999Y761199D02*
Y764199D01*
X7499Y751679D02*
X10499D01*
X8999Y750179D02*
Y753179D01*
X7499Y740659D02*
X10499D01*
X8999Y739159D02*
Y742159D01*
X7499Y729639D02*
X10499D01*
X8999Y728139D02*
Y731139D01*
X7499Y718619D02*
X10499D01*
X8999Y717119D02*
Y720119D01*
X7499Y707599D02*
X10499D01*
X8999Y706099D02*
Y709099D01*
X7499Y696579D02*
X10499D01*
X8999Y695079D02*
Y698079D01*
X7499Y685559D02*
X10499D01*
X8999Y684059D02*
Y687059D01*
X7499Y674539D02*
X10499D01*
X8999Y673039D02*
Y676039D01*
X7499Y663519D02*
X10499D01*
X8999Y662019D02*
Y665019D01*
X7499Y652499D02*
X10499D01*
X8999Y650999D02*
Y653999D01*
X7499Y641479D02*
X10499D01*
X8999Y639979D02*
Y642979D01*
X7499Y630459D02*
X10499D01*
X8999Y628959D02*
Y631959D01*
X7499Y619439D02*
X10499D01*
X8999Y617939D02*
Y620939D01*
X7499Y608419D02*
X10499D01*
X8999Y606919D02*
Y609919D01*
X7499Y597399D02*
X10499D01*
X8999Y595899D02*
Y598899D01*
X7499Y586379D02*
X10499D01*
X8999Y584879D02*
Y587879D01*
X7499Y575359D02*
X10499D01*
X8999Y573859D02*
Y576859D01*
X7499Y564339D02*
X10499D01*
X8999Y562839D02*
Y565839D01*
X7499Y553319D02*
X10499D01*
X8999Y551819D02*
Y554819D01*
X7499Y542299D02*
X10499D01*
X8999Y540799D02*
Y543799D01*
X7499Y531279D02*
X10499D01*
X8999Y529779D02*
Y532779D01*
X7499Y520259D02*
X10499D01*
X8999Y518759D02*
Y521759D01*
X7499Y509239D02*
X10499D01*
X8999Y507739D02*
Y510739D01*
X7499Y498219D02*
X10499D01*
X8999Y496719D02*
Y499719D01*
X7499Y487199D02*
X10499D01*
X8999Y485699D02*
Y488699D01*
X7499Y476179D02*
X10499D01*
X8999Y474679D02*
Y477679D01*
X7499Y465159D02*
X10499D01*
X8999Y463659D02*
Y466659D01*
X7499Y454139D02*
X10499D01*
X8999Y452639D02*
Y455639D01*
X7499Y443119D02*
X10499D01*
X8999Y441619D02*
Y444619D01*
X7499Y432099D02*
X10499D01*
X8999Y430599D02*
Y433599D01*
X7499Y421079D02*
X10499D01*
X8999Y419579D02*
Y422579D01*
X7499Y410059D02*
X10499D01*
X8999Y408559D02*
Y411559D01*
X7499Y399039D02*
X10499D01*
X8999Y397539D02*
Y400539D01*
X7499Y388019D02*
X10499D01*
X8999Y386519D02*
Y389519D01*
X7499Y376999D02*
X10499D01*
X8999Y375499D02*
Y378499D01*
X7499Y365979D02*
X10499D01*
X8999Y364479D02*
Y367479D01*
X7499Y354959D02*
X10499D01*
X8999Y353459D02*
Y356459D01*
X7499Y343939D02*
X10499D01*
X8999Y342439D02*
Y345439D01*
X7499Y332919D02*
X10499D01*
X8999Y331419D02*
Y334419D01*
X7499Y321899D02*
X10499D01*
X8999Y320399D02*
Y323399D01*
X7499Y310879D02*
X10499D01*
X8999Y309379D02*
Y312379D01*
X7499Y299859D02*
X10499D01*
X8999Y298359D02*
Y301359D01*
X7499Y288839D02*
X10499D01*
X8999Y287339D02*
Y290339D01*
X7499Y277819D02*
X10499D01*
X8999Y276320D02*
Y279319D01*
X7499Y266800D02*
X10499D01*
X8999Y265299D02*
Y268300D01*
X7499Y255779D02*
X10499D01*
X8999Y254279D02*
Y257279D01*
X7499Y244760D02*
X10499D01*
X8999Y243260D02*
Y246259D01*
X7499Y233739D02*
X10499D01*
X8999Y232239D02*
Y235240D01*
X7499Y222719D02*
X10499D01*
X8999Y221220D02*
Y224219D01*
X7499Y211700D02*
X10499D01*
X8999Y210200D02*
Y213200D01*
X7499Y200679D02*
X10499D01*
X8999Y199179D02*
Y202180D01*
X7499Y189660D02*
X10499D01*
X8999Y188160D02*
Y191159D01*
X7499Y178640D02*
X10499D01*
X8999Y177139D02*
Y180140D01*
X7499Y167619D02*
X10499D01*
X8999Y166119D02*
Y169119D01*
X7499Y156600D02*
X10499D01*
X8999Y155099D02*
Y158099D01*
X7499Y145580D02*
X10499D01*
X8999Y144080D02*
Y147079D01*
X7499Y134559D02*
X10499D01*
X8999Y133060D02*
Y136060D01*
X7499Y123540D02*
X10499D01*
X8999Y122040D02*
Y125040D01*
X7499Y112520D02*
X10499D01*
X8999Y111020D02*
Y114020D01*
X7499Y101500D02*
X10499D01*
X8999Y100000D02*
Y103000D01*
X7499Y90480D02*
X10499D01*
X8999Y88980D02*
Y91980D01*
X7499Y79460D02*
X10499D01*
X8999Y77960D02*
Y80960D01*
X7499Y68440D02*
X10499D01*
X8999Y66940D02*
Y69940D01*
X7499Y57420D02*
X10499D01*
X8999Y55920D02*
Y58920D01*
X7499Y46400D02*
X10499D01*
X8999Y44900D02*
Y47900D01*
X7499Y35380D02*
X10499D01*
X8999Y33880D02*
Y36880D01*
X7499Y24360D02*
X10499D01*
X8999Y22860D02*
Y25860D01*
X7499Y13340D02*
X10499D01*
X8999Y11840D02*
Y14840D01*
X17628Y8999D02*
X20628D01*
X19128Y7499D02*
Y10499D01*
X28648Y8999D02*
X31648D01*
X30148Y7499D02*
Y10499D01*
X39668Y8999D02*
X42668D01*
X41168Y7499D02*
Y10499D01*
X50688Y8999D02*
X53688D01*
X52188Y7499D02*
Y10499D01*
X61708Y8999D02*
X64708D01*
X63208Y7499D02*
Y10499D01*
X72728Y8999D02*
X75728D01*
X74228Y7499D02*
Y10499D01*
X83748Y8999D02*
X86748D01*
X85248Y7499D02*
Y10499D01*
X94768Y8999D02*
X97768D01*
X96268Y7499D02*
Y10499D01*
X105788Y8999D02*
X108788D01*
X107288Y7499D02*
Y10499D01*
X116808Y8999D02*
X119808D01*
X118308Y7499D02*
Y10499D01*
X127828Y8999D02*
X130828D01*
X129328Y7499D02*
Y10499D01*
X138848Y8999D02*
X141848D01*
X140348Y7499D02*
Y10499D01*
X149868Y8999D02*
X152868D01*
X151368Y7499D02*
Y10499D01*
X160888Y8999D02*
X163888D01*
X162388Y7499D02*
Y10499D01*
X171908Y8999D02*
X174908D01*
X173408Y7499D02*
Y10499D01*
X182928Y8999D02*
X185928D01*
X184428Y7499D02*
Y10499D01*
X193948Y8999D02*
X196948D01*
X195448Y7499D02*
Y10499D01*
X204968Y8999D02*
X207968D01*
X206468Y7499D02*
Y10499D01*
X215988Y8999D02*
X218988D01*
X217488Y7499D02*
Y10499D01*
X227008Y8999D02*
X230008D01*
X228508Y7499D02*
Y10499D01*
X238028Y8999D02*
X241028D01*
X239528Y7499D02*
Y10499D01*
X249048Y8999D02*
X252048D01*
X250548Y7499D02*
Y10499D01*
X260068Y8999D02*
X263068D01*
X261568Y7499D02*
Y10499D01*
X271088Y8999D02*
X274088D01*
X272588Y7499D02*
Y10499D01*
X282108Y8999D02*
X285108D01*
X283608Y7499D02*
Y10499D01*
X293128Y8999D02*
X296128D01*
X294628Y7499D02*
Y10499D01*
X304148Y8999D02*
X307148D01*
X305648Y7499D02*
Y10499D01*
X315168Y8999D02*
X318168D01*
X316668Y7499D02*
Y10499D01*
X326188Y8999D02*
X329188D01*
X327688Y7499D02*
Y10499D01*
X337208Y8999D02*
X340208D01*
X338708Y7499D02*
Y10499D01*
X348228Y8999D02*
X351228D01*
X349728Y7499D02*
Y10499D01*
X359248Y8999D02*
X362248D01*
X360748Y7499D02*
Y10499D01*
X370268Y8999D02*
X373268D01*
X371768Y7499D02*
Y10499D01*
X381288Y8999D02*
X384288D01*
X382788Y7499D02*
Y10499D01*
X392308Y8999D02*
X395308D01*
X393808Y7499D02*
Y10499D01*
X403328Y8999D02*
X406328D01*
X404828Y7499D02*
Y10499D01*
X414348Y8999D02*
X417348D01*
X415848Y7499D02*
Y10499D01*
X425368Y8999D02*
X428368D01*
X426868Y7499D02*
Y10499D01*
X436388Y8999D02*
X439388D01*
X437888Y7499D02*
Y10499D01*
X447408Y8999D02*
X450408D01*
X448908Y7499D02*
Y10499D01*
X458428Y8999D02*
X461428D01*
X459928Y7499D02*
Y10499D01*
X469448Y8999D02*
X472448D01*
X470948Y7499D02*
Y10499D01*
X480468Y8999D02*
X483468D01*
X481968Y7499D02*
Y10499D01*
X491488Y8999D02*
X494488D01*
X492988Y7499D02*
Y10499D01*
X502508Y8999D02*
X505508D01*
X504008Y7499D02*
Y10499D01*
X513528Y8999D02*
X516528D01*
X515028Y7499D02*
Y10499D01*
X524548Y8999D02*
X527548D01*
X526048Y7499D02*
Y10499D01*
X535568Y8999D02*
X538568D01*
X537068Y7499D02*
Y10499D01*
X546588Y8999D02*
X549588D01*
X548088Y7499D02*
Y10499D01*
X557608Y8999D02*
X560608D01*
X559108Y7499D02*
Y10499D01*
X568628Y8999D02*
X571628D01*
X570128Y7499D02*
Y10499D01*
X579648Y8999D02*
X582648D01*
X581148Y7499D02*
Y10499D01*
X590668Y8999D02*
X593668D01*
X592168Y7499D02*
Y10499D01*
X601688Y8999D02*
X604688D01*
X603188Y7499D02*
Y10499D01*
X612708Y8999D02*
X615708D01*
X614208Y7499D02*
Y10499D01*
X623728Y8999D02*
X626728D01*
X625228Y7499D02*
Y10499D01*
X634748Y8999D02*
X637748D01*
X636248Y7499D02*
Y10499D01*
X645768Y8999D02*
X648768D01*
X647268Y7499D02*
Y10499D01*
X656788Y8999D02*
X659788D01*
X658288Y7499D02*
Y10499D01*
X667808Y8999D02*
X670808D01*
X669308Y7499D02*
Y10499D01*
X678828Y8999D02*
X681828D01*
X680328Y7499D02*
Y10499D01*
X689848Y8999D02*
X692848D01*
X691348Y7499D02*
Y10499D01*
X700868Y8999D02*
X703868D01*
X702368Y7499D02*
Y10499D01*
X711888Y8999D02*
X714888D01*
X713388Y7499D02*
Y10499D01*
X722908Y8999D02*
X725908D01*
X724408Y7499D02*
Y10499D01*
X733928Y8999D02*
X736928D01*
X735428Y7499D02*
Y10499D01*
X744948Y8999D02*
X747948D01*
X746448Y7499D02*
Y10499D01*
X755968Y8999D02*
X758968D01*
X757468Y7499D02*
Y10499D01*
X766988Y8999D02*
X769988D01*
X768488Y7499D02*
Y10499D01*
X778008Y8999D02*
X781008D01*
X779508Y7499D02*
Y10499D01*
X789028Y8999D02*
X792028D01*
X790528Y7499D02*
Y10499D01*
X800048Y8999D02*
X803048D01*
X801548Y7499D02*
Y10499D01*
X811068Y8999D02*
X814068D01*
X812568Y7499D02*
Y10499D01*
X822088Y8999D02*
X825088D01*
X823588Y7499D02*
Y10499D01*
X833108Y8999D02*
X836108D01*
X834608Y7499D02*
Y10499D01*
X844128Y8999D02*
X847128D01*
X845628Y7499D02*
Y10499D01*
X855148Y8999D02*
X858148D01*
X856648Y7499D02*
Y10499D01*
X866168Y8999D02*
X869168D01*
X867668Y7499D02*
Y10499D01*
X877188Y8999D02*
X880188D01*
X878688Y7499D02*
Y10499D01*
X888195Y9522D02*
X891195D01*
X889695Y8022D02*
Y11022D01*
X889501Y20464D02*
X892501D01*
X891001Y18964D02*
Y21964D01*
X889501Y31484D02*
X892501D01*
X891001Y29984D02*
Y32984D01*
X889501Y42504D02*
X892501D01*
X891001Y41004D02*
Y44004D01*
X889501Y53524D02*
X892501D01*
X891001Y52024D02*
Y55024D01*
X889501Y64544D02*
X892501D01*
X891001Y63044D02*
Y66044D01*
X889501Y75564D02*
X892501D01*
X891001Y74064D02*
Y77064D01*
X889501Y86584D02*
X892501D01*
X891001Y85084D02*
Y88084D01*
X889501Y97604D02*
X892501D01*
X891001Y96104D02*
Y99104D01*
X889501Y108624D02*
X892501D01*
X891001Y107124D02*
Y110124D01*
X889501Y119644D02*
X892501D01*
X891001Y118144D02*
Y121144D01*
X889501Y130664D02*
X892501D01*
X891001Y129164D02*
Y132164D01*
X889501Y141684D02*
X892501D01*
X891001Y140184D02*
Y143184D01*
X889501Y152704D02*
X892501D01*
X891001Y151204D02*
Y154204D01*
X889501Y163724D02*
X892501D01*
X891001Y162224D02*
Y165224D01*
X889501Y174744D02*
X892501D01*
X891001Y173244D02*
Y176244D01*
X889501Y185764D02*
X892501D01*
X891001Y184264D02*
Y187264D01*
X889501Y196784D02*
X892501D01*
X891001Y195284D02*
Y198284D01*
X889501Y207804D02*
X892501D01*
X891001Y206304D02*
Y209304D01*
X889501Y218824D02*
X892501D01*
X891001Y217324D02*
Y220324D01*
X889501Y229844D02*
X892501D01*
X891001Y228344D02*
Y231344D01*
X889501Y240864D02*
X892501D01*
X891001Y239364D02*
Y242364D01*
X889501Y251884D02*
X892501D01*
X891001Y250384D02*
Y253384D01*
X889501Y262904D02*
X892501D01*
X891001Y261404D02*
Y264404D01*
X889501Y273924D02*
X892501D01*
X891001Y272424D02*
Y275424D01*
X889501Y284944D02*
X892501D01*
X891001Y283444D02*
Y286444D01*
X889501Y295964D02*
X892501D01*
X891001Y294464D02*
Y297464D01*
X889501Y306984D02*
X892501D01*
X891001Y305484D02*
Y308484D01*
X889501Y318004D02*
X892501D01*
X891001Y316504D02*
Y319504D01*
X889501Y329024D02*
X892501D01*
X891001Y327524D02*
Y330524D01*
X889501Y340044D02*
X892501D01*
X891001Y338544D02*
Y341544D01*
X889501Y351064D02*
X892501D01*
X891001Y349564D02*
Y352564D01*
X889501Y362084D02*
X892501D01*
X891001Y360584D02*
Y363584D01*
X889501Y373104D02*
X892501D01*
X891001Y371604D02*
Y374604D01*
X889501Y384124D02*
X892501D01*
X891001Y382624D02*
Y385624D01*
X889501Y395144D02*
X892501D01*
X891001Y393644D02*
Y396644D01*
X889501Y406164D02*
X892501D01*
X891001Y404664D02*
Y407664D01*
X889501Y417184D02*
X892501D01*
X891001Y415684D02*
Y418684D01*
X889501Y428204D02*
X892501D01*
X891001Y426704D02*
Y429704D01*
X889501Y439224D02*
X892501D01*
X891001Y437724D02*
Y440724D01*
X889501Y450244D02*
X892501D01*
X891001Y448744D02*
Y451744D01*
X889501Y461264D02*
X892501D01*
X891001Y459764D02*
Y462764D01*
X889501Y472284D02*
X892501D01*
X891001Y470784D02*
Y473784D01*
X889501Y483304D02*
X892501D01*
X891001Y481804D02*
Y484804D01*
X889501Y494324D02*
X892501D01*
X891001Y492824D02*
Y495824D01*
X889501Y505344D02*
X892501D01*
X891001Y503844D02*
Y506844D01*
X889501Y516364D02*
X892501D01*
X891001Y514864D02*
Y517864D01*
X889501Y527384D02*
X892501D01*
X891001Y525884D02*
Y528884D01*
X889501Y538404D02*
X892501D01*
X891001Y536904D02*
Y539904D01*
X889501Y549424D02*
X892501D01*
X891001Y547924D02*
Y550924D01*
X889501Y560444D02*
X892501D01*
X891001Y558944D02*
Y561944D01*
X889501Y571464D02*
X892501D01*
X891001Y569964D02*
Y572964D01*
X889501Y582484D02*
X892501D01*
X891001Y580984D02*
Y583984D01*
X889501Y593504D02*
X892501D01*
X891001Y592004D02*
Y595004D01*
X889501Y604524D02*
X892501D01*
X891001Y603024D02*
Y606024D01*
X889501Y615544D02*
X892501D01*
X891001Y614044D02*
Y617044D01*
X889501Y626564D02*
X892501D01*
X891001Y625064D02*
Y628064D01*
X889501Y637584D02*
X892501D01*
X891001Y636084D02*
Y639084D01*
X889501Y648604D02*
X892501D01*
X891001Y647104D02*
Y650104D01*
X889501Y659624D02*
X892501D01*
X891001Y658124D02*
Y661124D01*
X889501Y670644D02*
X892501D01*
X891001Y669144D02*
Y672144D01*
X889501Y681664D02*
X892501D01*
X891001Y680164D02*
Y683164D01*
X889501Y692684D02*
X892501D01*
X891001Y691184D02*
Y694184D01*
X889501Y703704D02*
X892501D01*
X891001Y702204D02*
Y705203D01*
X889501Y714724D02*
X892501D01*
X891001Y713223D02*
Y716224D01*
X889501Y725743D02*
X892501D01*
X891001Y724243D02*
Y727243D01*
X889501Y736764D02*
X892501D01*
X891001Y735264D02*
Y738263D01*
X889501Y747784D02*
X892501D01*
X891001Y746283D02*
Y749284D01*
X889501Y758803D02*
X892501D01*
X891001Y757303D02*
Y760303D01*
X889501Y769824D02*
X892501D01*
X891001Y768324D02*
Y771323D01*
X889501Y780844D02*
X892501D01*
X891001Y779343D02*
Y782344D01*
X889501Y791863D02*
X892501D01*
X891001Y790363D02*
Y793363D01*
X889501Y802884D02*
X892501D01*
X891001Y801384D02*
Y804383D01*
X889501Y813904D02*
X892501D01*
X891001Y812403D02*
Y815404D01*
X889501Y824923D02*
X892501D01*
X891001Y823423D02*
Y826423D01*
X889501Y835944D02*
X892501D01*
X891001Y834444D02*
Y837443D01*
X889501Y846964D02*
X892501D01*
X891001Y845463D02*
Y848464D01*
X889501Y857983D02*
X892501D01*
X891001Y856484D02*
Y859483D01*
X889501Y869003D02*
X892501D01*
X891001Y867503D02*
Y870503D01*
X889501Y880023D02*
X892501D01*
X891001Y878523D02*
Y881523D01*
X762000Y695000D02*
X764000D01*
X763000Y694000D02*
Y696000D01*
X648000Y357000D02*
X650000D01*
X649000Y356000D02*
Y358000D01*
X607999Y381999D02*
X609999D01*
X608999Y380999D02*
Y382999D01*
X136000Y852000D02*
X138000D01*
X137000Y851000D02*
Y853000D01*
X217000Y850000D02*
X219000D01*
X218000Y849000D02*
Y851000D01*
X278000Y817000D02*
X280000D01*
X279000Y816000D02*
Y818000D01*
X212101Y344000D02*
X214101D01*
X213101Y343000D02*
Y345000D01*
X200000Y318000D02*
X202000D01*
X201000Y317000D02*
Y319000D01*
X39000Y258000D02*
X41000D01*
X40000Y257000D02*
Y259000D01*
X546539Y155000D02*
X548539D01*
X547539Y154000D02*
Y156000D01*
X154000Y831000D02*
X156000D01*
X155000Y830000D02*
Y832000D01*
X163893Y824808D02*
X165893D01*
X164893Y823808D02*
Y825808D01*
X193000Y832000D02*
X195000D01*
X194000Y831000D02*
Y833000D01*
X869000Y778000D02*
X871000D01*
X870000Y777000D02*
Y779000D01*
X180000Y335000D02*
X182000D01*
X181000Y334000D02*
Y336000D01*
X836000Y760000D02*
X838000D01*
X837000Y759000D02*
Y761000D01*
X792000Y817000D02*
X794000D01*
X793000Y816000D02*
Y818000D01*
X787600Y805000D02*
X789600D01*
X788600Y804000D02*
Y806000D01*
X847998Y813998D02*
X849998D01*
X848998Y812998D02*
Y814998D01*
X852998Y813998D02*
X854998D01*
X853998Y812998D02*
Y814998D01*
X471000Y598000D02*
X473000D01*
X472000Y597000D02*
Y599000D01*
X498000Y445000D02*
X500000D01*
X499000Y444000D02*
Y446000D01*
X410000Y833000D02*
X412000D01*
X411000Y832000D02*
Y834000D01*
X438000Y831000D02*
X440000D01*
X439000Y830000D02*
Y832000D01*
X608812Y425044D02*
X610812D01*
X609813Y424044D02*
Y426044D01*
X258000Y860000D02*
X260000D01*
X259000Y859000D02*
Y861000D01*
X69000Y272000D02*
X71000D01*
X70000Y271000D02*
Y273000D01*
X674623Y91377D02*
X676623D01*
X675623Y90377D02*
Y92377D01*
X72048Y654952D02*
X74048D01*
X73048Y653952D02*
Y655952D01*
X62000Y669000D02*
X64000D01*
X63000Y668000D02*
Y670000D01*
X88000Y655000D02*
X90000D01*
X89000Y654000D02*
Y656000D01*
X88000Y644000D02*
X90000D01*
X89000Y643000D02*
Y645000D01*
X82000Y660300D02*
X84000D01*
X83000Y659300D02*
Y661300D01*
X33800Y649000D02*
X35800D01*
X34800Y648000D02*
Y650000D01*
X212050Y254600D02*
X214050D01*
X213050Y253600D02*
Y255600D01*
X33800Y658000D02*
X35800D01*
X34800Y657000D02*
Y659000D01*
X62000Y731000D02*
X64000D01*
X63000Y730000D02*
Y732000D01*
X55000Y725000D02*
X57000D01*
X56000Y724000D02*
Y726000D01*
X79000Y734100D02*
X81000D01*
X80000Y733100D02*
Y735100D01*
X544000Y575000D02*
X546000D01*
X545000Y574000D02*
Y576000D01*
X724000Y694000D02*
X726000D01*
X725000Y693000D02*
Y695000D01*
X716000Y704000D02*
X718000D01*
X717000Y703000D02*
Y705000D01*
X728000Y704000D02*
X730000D01*
X729000Y703000D02*
Y705000D01*
X707000Y721000D02*
X709000D01*
X708000Y720000D02*
Y722000D01*
X704000Y730000D02*
X706000D01*
X705000Y729000D02*
Y731000D01*
X510000Y879000D02*
X512000D01*
X511000Y878000D02*
Y880000D01*
X500000D02*
X502000D01*
X501000Y879000D02*
Y881000D01*
X452700Y472200D02*
X454700D01*
X453700Y471200D02*
Y473200D01*
X98000Y392000D02*
X100000D01*
X99000Y391000D02*
Y393000D01*
X700000Y624000D02*
X702000D01*
X701000Y623000D02*
Y625000D01*
X821000Y567000D02*
X823000D01*
X822000Y566000D02*
Y568000D01*
X852000D02*
X854000D01*
X853000Y567000D02*
Y569000D01*
X863000Y845000D02*
X865000D01*
X864000Y844000D02*
Y846000D01*
X875000Y857000D02*
X877000D01*
X876000Y856000D02*
Y858000D01*
X863000Y857000D02*
X865000D01*
X864000Y856000D02*
Y858000D01*
X719000Y789000D02*
X721000D01*
X720000Y788000D02*
Y790000D01*
X694000Y811000D02*
X696000D01*
X695000Y810000D02*
Y812000D01*
X680000Y799000D02*
X682000D01*
X681000Y798000D02*
Y800000D01*
X249000Y713000D02*
X251000D01*
X250000Y712000D02*
Y714000D01*
X33000Y672000D02*
X35000D01*
X34000Y671000D02*
Y673000D01*
X304774Y423569D02*
X306774D01*
X305774Y422570D02*
Y424570D01*
X118000Y800000D02*
X120000D01*
X119000Y799000D02*
Y801000D01*
X90000Y751000D02*
X92000D01*
X91000Y750000D02*
Y752000D01*
X107000Y658000D02*
X109000D01*
X108000Y657000D02*
Y659000D01*
X54000Y817000D02*
X56000D01*
X55000Y816000D02*
Y818000D01*
X545000Y670000D02*
X547000D01*
X546000Y669000D02*
Y671000D01*
X757000Y655000D02*
X759000D01*
X758000Y654000D02*
Y656000D01*
X844000Y650000D02*
X846000D01*
X845000Y649000D02*
Y651000D01*
X834000Y650000D02*
X836000D01*
X835000Y649000D02*
Y651000D01*
X745000Y529000D02*
X747000D01*
X746000Y528000D02*
Y530000D01*
X799524Y393939D02*
X801524D01*
X800524Y392939D02*
Y394939D01*
X680000Y447000D02*
X682000D01*
X681000Y446000D02*
Y448000D01*
X711000Y425000D02*
X713000D01*
X712000Y424000D02*
Y426000D01*
X639000Y618000D02*
X641000D01*
X640000Y617000D02*
Y619000D01*
X662981Y747026D02*
X664981D01*
X663981Y746026D02*
Y748026D01*
X520000Y426000D02*
X522000D01*
X521000Y425000D02*
Y427000D01*
X433000Y255000D02*
X435000D01*
X434000Y254000D02*
Y256000D01*
X435000Y414000D02*
X437000D01*
X436000Y413000D02*
Y415000D01*
X472000Y434000D02*
X474000D01*
X473000Y433000D02*
Y435000D01*
X468000Y393000D02*
X470000D01*
X469000Y392000D02*
Y394000D01*
X125007Y344459D02*
X127007D01*
X126007Y343459D02*
Y345458D01*
X134000Y357000D02*
X136000D01*
X135000Y356000D02*
Y358000D01*
X834054Y198882D02*
X836054D01*
X835054Y197882D02*
Y199882D01*
X834000Y207000D02*
X836000D01*
X835000Y206000D02*
Y208000D01*
X834000Y215000D02*
X836000D01*
X835000Y214000D02*
Y216000D01*
X849000Y217000D02*
X851000D01*
X850000Y216000D02*
Y218000D01*
X560000Y484000D02*
X562000D01*
X561000Y483000D02*
Y485000D01*
X469000Y328000D02*
X471000D01*
X470000Y327000D02*
Y329000D01*
X405867Y604237D02*
X407867D01*
X406867Y603237D02*
Y605237D01*
X474000Y576000D02*
X476000D01*
X475000Y575000D02*
Y577000D01*
X570000Y613000D02*
X572000D01*
X571000Y612000D02*
Y614000D01*
X499000Y645000D02*
X501000D01*
X500000Y644000D02*
Y646000D01*
X486000Y697000D02*
X488000D01*
X487000Y696000D02*
Y698000D01*
X560000Y675000D02*
X562000D01*
X561000Y674000D02*
Y676000D01*
X635253Y548528D02*
X637253D01*
X636253Y547528D02*
Y549528D01*
X669000Y758000D02*
X671000D01*
X670000Y757000D02*
Y759000D01*
X728000Y771000D02*
X730000D01*
X729000Y770000D02*
Y772000D01*
X700000Y707000D02*
X702000D01*
X701000Y706000D02*
Y708000D01*
X700000Y698000D02*
X702000D01*
X701000Y697000D02*
Y699000D01*
X709000Y698000D02*
X711000D01*
X710000Y697000D02*
Y699000D01*
X709000Y707000D02*
X711000D01*
X710000Y706000D02*
Y708000D01*
X656000Y661000D02*
X658000D01*
X657000Y660000D02*
Y662000D01*
X669000Y661000D02*
X671000D01*
X670000Y660000D02*
Y662000D01*
X874000Y567000D02*
X876000D01*
X875000Y566000D02*
Y568000D01*
X790000Y459000D02*
X792000D01*
X791000Y458000D02*
Y460000D01*
X732000Y482000D02*
X734000D01*
X733000Y481000D02*
Y483000D01*
X724018Y482957D02*
X726018D01*
X725018Y481957D02*
Y483957D01*
X730000Y489000D02*
X732000D01*
X731000Y488000D02*
Y490000D01*
X506900Y317900D02*
X508900D01*
X507900Y316900D02*
Y318900D01*
X500858Y320534D02*
X502859D01*
X501858Y319534D02*
Y321534D01*
X344000Y443000D02*
X346000D01*
X345000Y442000D02*
Y444000D01*
X435000Y440000D02*
X437000D01*
X436000Y439000D02*
Y441000D01*
X432000Y397000D02*
X434000D01*
X433000Y396000D02*
Y398000D01*
X390000Y443000D02*
X392000D01*
X391000Y442000D02*
Y444000D01*
X386000Y417000D02*
X388000D01*
X387000Y416000D02*
Y418000D01*
X518000D02*
X520000D01*
X519000Y417000D02*
Y419000D01*
X531000Y402000D02*
X533000D01*
X532000Y401000D02*
Y403000D01*
X616000Y438000D02*
X618000D01*
X617000Y437000D02*
Y439000D01*
X670000Y474000D02*
X672000D01*
X671000Y473000D02*
Y475000D01*
X637000Y479000D02*
X639000D01*
X638000Y478000D02*
Y480000D01*
X707000Y492000D02*
X709000D01*
X708000Y491000D02*
Y493000D01*
X690000Y508000D02*
X692000D01*
X691000Y507000D02*
Y509000D01*
X707000Y499000D02*
X709000D01*
X708000Y498000D02*
Y500000D01*
X700000Y492000D02*
X702000D01*
X701000Y491000D02*
Y493000D01*
X776000Y568000D02*
X778000D01*
X777000Y567000D02*
Y569000D01*
X863000Y523000D02*
X865000D01*
X864000Y522000D02*
Y524000D01*
X820000Y493000D02*
X822000D01*
X821000Y492000D02*
Y494000D01*
X824000Y500000D02*
X826000D01*
X825000Y499000D02*
Y501000D01*
X820000Y508000D02*
X822000D01*
X821000Y507000D02*
Y509000D01*
X857000Y476000D02*
X859000D01*
X858000Y475000D02*
Y477000D01*
X844000Y135000D02*
X846000D01*
X845000Y134000D02*
Y136000D01*
X863000Y93000D02*
X865000D01*
X864000Y92000D02*
Y94000D01*
X587000Y271000D02*
X589000D01*
X588000Y270000D02*
Y272000D01*
X501000Y252000D02*
X503000D01*
X502000Y251000D02*
Y253000D01*
X505000Y215000D02*
X507000D01*
X506000Y214000D02*
Y216000D01*
X460000Y211000D02*
X462000D01*
X461000Y210000D02*
Y212000D01*
X396000D02*
X398000D01*
X397000Y211000D02*
Y213000D01*
X368000Y215000D02*
X370000D01*
X369000Y214000D02*
Y216000D01*
X189000Y223000D02*
X191000D01*
X190000Y222000D02*
Y224000D01*
X228000Y215000D02*
X230000D01*
X229000Y214000D02*
Y216000D01*
X260000Y257000D02*
X262000D01*
X261000Y256000D02*
Y258000D01*
X294000Y287000D02*
X296000D01*
X295000Y286000D02*
Y288000D01*
X339000Y259000D02*
X341000D01*
X340000Y258000D02*
Y260000D01*
X410000Y321000D02*
X412000D01*
X411000Y320000D02*
Y322000D01*
X378000Y314000D02*
X380000D01*
X379000Y313000D02*
Y315000D01*
X331000Y340000D02*
X333000D01*
X332000Y339000D02*
Y341000D01*
X260900Y423000D02*
X262900D01*
X261900Y422000D02*
Y424000D01*
X277000Y451000D02*
X279000D01*
X278000Y450000D02*
Y452000D01*
X308000Y555000D02*
X310000D01*
X309000Y554000D02*
Y556000D01*
X316000Y574000D02*
X318000D01*
X317000Y573000D02*
Y575000D01*
X284000Y577000D02*
X286000D01*
X285000Y576000D02*
Y578000D01*
X397000Y613000D02*
X399000D01*
X398000Y612000D02*
Y614000D01*
X227000Y552000D02*
X229000D01*
X228000Y551000D02*
Y553000D01*
X250000Y578000D02*
X252000D01*
X251000Y577000D02*
Y579000D01*
X247000Y549000D02*
X249000D01*
X248000Y548000D02*
Y550000D01*
X272000Y527000D02*
X274000D01*
X273000Y526000D02*
Y528000D01*
X153000Y445000D02*
X155000D01*
X154000Y444000D02*
Y446000D01*
X167000Y520000D02*
X169000D01*
X168000Y519000D02*
Y521000D01*
X118000Y514000D02*
X120000D01*
X119000Y513000D02*
Y515000D01*
X400969Y813069D02*
X402969D01*
X401969Y812069D02*
Y814069D01*
X396000Y817000D02*
X398000D01*
X397000Y816000D02*
Y818000D01*
X399486Y800486D02*
X401486D01*
X400486Y799486D02*
Y801486D01*
X399089Y807255D02*
X401089D01*
X400089Y806255D02*
Y808255D01*
X408000Y853000D02*
X410000D01*
X409000Y852000D02*
Y854000D01*
X413000Y877000D02*
X415000D01*
X414000Y876000D02*
Y878000D01*
X397000Y862000D02*
X399000D01*
X398000Y861000D02*
Y863000D01*
X761000Y605000D02*
X763000D01*
X762000Y604000D02*
Y606000D01*
X691000Y133000D02*
X693000D01*
X692000Y132000D02*
Y134000D01*
X707000Y89000D02*
X709000D01*
X708000Y88000D02*
Y90000D01*
X598000Y152000D02*
X600000D01*
X599000Y151000D02*
Y153000D01*
X527000Y126000D02*
X529000D01*
X528000Y125000D02*
Y127000D01*
X409000Y151000D02*
X411000D01*
X410000Y150000D02*
Y152000D01*
X368000Y139000D02*
X370000D01*
X369000Y138000D02*
Y140000D01*
X339000Y138000D02*
X341000D01*
X340000Y137000D02*
Y139000D01*
X266000Y136000D02*
X268000D01*
X267000Y135000D02*
Y137000D01*
X238000Y151000D02*
X240000D01*
X239000Y150000D02*
Y152000D01*
X178000Y146000D02*
X180000D01*
X179000Y145000D02*
Y147000D01*
X187000Y146000D02*
X189000D01*
X188000Y145000D02*
Y147000D01*
X202200Y138862D02*
X204200D01*
X203200Y137863D02*
Y139862D01*
X202200Y124000D02*
X204200D01*
X203200Y123000D02*
Y125000D01*
X443000Y862000D02*
X445000D01*
X444000Y861000D02*
Y863000D01*
X437000Y862000D02*
X439000D01*
X438000Y861000D02*
Y863000D01*
X437000Y869000D02*
X439000D01*
X438000Y868000D02*
Y870000D01*
X769000Y355000D02*
X771000D01*
X770000Y354000D02*
Y356000D01*
X779000Y355000D02*
X781000D01*
X780000Y354000D02*
Y356000D01*
X788100Y354500D02*
X790100D01*
X789100Y353500D02*
Y355500D01*
X809000Y345000D02*
X811000D01*
X810000Y344000D02*
Y346000D01*
X788500Y305000D02*
X790500D01*
X789500Y304000D02*
Y306000D01*
X788500Y295000D02*
X790500D01*
X789500Y294000D02*
Y296000D01*
X788500Y323893D02*
X790500D01*
X789500Y322893D02*
Y324893D01*
X779000Y295000D02*
X781000D01*
X780000Y294000D02*
Y296000D01*
X75000Y98000D02*
X77000D01*
X76000Y97000D02*
Y99000D01*
X274000Y862000D02*
X276000D01*
X275000Y861000D02*
Y863000D01*
X271000Y822000D02*
X273000D01*
X272000Y821000D02*
Y823000D01*
X279000Y802736D02*
X281000D01*
X280000Y801736D02*
Y803736D01*
X287000Y766000D02*
X289000D01*
X288000Y765000D02*
Y767000D01*
X273000Y743000D02*
X275000D01*
X274000Y742000D02*
Y744000D01*
X287000Y713000D02*
X289000D01*
X288000Y712000D02*
Y714000D01*
X281000Y685000D02*
X283000D01*
X282000Y684000D02*
Y686000D01*
X193000Y645000D02*
X195000D01*
X194000Y644000D02*
Y646000D01*
X33000Y587000D02*
X35000D01*
X34000Y586000D02*
Y588000D01*
X83750Y575000D02*
X85750D01*
X84750Y574000D02*
Y576000D01*
X48660Y695340D02*
X50660D01*
X49660Y694340D02*
Y696340D01*
X48000Y714000D02*
X50000D01*
X49000Y713000D02*
Y715000D01*
X60000Y807000D02*
X62000D01*
X61000Y806000D02*
Y808000D01*
X172000Y719000D02*
X174000D01*
X173000Y718000D02*
Y720000D01*
X154000Y748000D02*
X156000D01*
X155000Y747000D02*
Y749000D01*
X198000Y756000D02*
X200000D01*
X199000Y755000D02*
Y757000D01*
X724000Y467200D02*
X726000D01*
X725000Y466200D02*
Y468200D01*
X565000Y432000D02*
X567000D01*
X566000Y431000D02*
Y433000D01*
X563000Y589000D02*
X565000D01*
X564000Y588000D02*
Y590000D01*
X672000Y589000D02*
X674000D01*
X673000Y588000D02*
Y590000D01*
X636000Y589000D02*
X638000D01*
X637000Y588000D02*
Y590000D01*
X622000Y589000D02*
X624000D01*
X623000Y588000D02*
Y590000D01*
X613000Y589000D02*
X615000D01*
X614000Y588000D02*
Y590000D01*
X591000Y589000D02*
X593000D01*
X592000Y588000D02*
Y590000D01*
X576127Y589267D02*
X578127D01*
X577127Y588267D02*
Y590267D01*
X761000Y595000D02*
X763000D01*
X762000Y594000D02*
Y596000D01*
X792000Y628000D02*
X794000D01*
X793000Y627000D02*
Y629000D01*
X788000Y633000D02*
X790000D01*
X789000Y632000D02*
Y634000D01*
X815000Y772000D02*
X817000D01*
X816000Y771000D02*
Y773000D01*
X789000Y776000D02*
X791000D01*
X790000Y775000D02*
Y777000D01*
X792000Y790000D02*
X794000D01*
X793000Y789000D02*
Y791000D01*
X792000Y783000D02*
X794000D01*
X793000Y782000D02*
Y784000D01*
X786000Y790000D02*
X788000D01*
X787000Y789000D02*
Y791000D01*
X786000Y783000D02*
X788000D01*
X787000Y782000D02*
Y784000D01*
X815000Y799000D02*
X817000D01*
X816000Y798000D02*
Y800000D01*
X799000Y765000D02*
X801000D01*
X800000Y764000D02*
Y766000D01*
X749000Y772000D02*
X751000D01*
X750000Y771000D02*
Y773000D01*
X244000Y626000D02*
X246000D01*
X245000Y625000D02*
Y627000D01*
X245700Y453000D02*
X247700D01*
X246700Y452000D02*
Y454000D01*
X255000Y379000D02*
X257000D01*
X256000Y378000D02*
Y380000D01*
Y389000D02*
X258000D01*
X257000Y388000D02*
Y390000D01*
X488000Y556100D02*
X490000D01*
X489000Y555100D02*
Y557100D01*
X481000Y557000D02*
X483000D01*
X482000Y556000D02*
Y558000D01*
X81000Y795000D02*
X83000D01*
X82000Y794000D02*
Y796000D01*
X716000Y152000D02*
X718000D01*
X717000Y151000D02*
Y153000D01*
X542000Y139000D02*
X544000D01*
X543000Y138000D02*
Y140000D01*
X514000Y110822D02*
X516000D01*
X515000Y109822D02*
Y111822D01*
X410000Y116000D02*
X412000D01*
X411000Y115000D02*
Y117000D01*
X410000Y131000D02*
X412000D01*
X411000Y130000D02*
Y132000D01*
X351000Y133000D02*
X353000D01*
X352000Y132000D02*
Y134000D01*
X237000Y131000D02*
X239000D01*
X238000Y130000D02*
Y132000D01*
X245000Y131000D02*
X247000D01*
X246000Y130000D02*
Y132000D01*
X135000Y435000D02*
X137000D01*
X136000Y434000D02*
Y436000D01*
X675000Y712765D02*
X677000D01*
X676000Y711765D02*
Y713764D01*
X657000Y712000D02*
X659000D01*
X658000Y711000D02*
Y713000D01*
X706000Y663000D02*
X708000D01*
X707000Y662000D02*
Y664000D01*
X761627Y680373D02*
X763627D01*
X762627Y679373D02*
Y681373D01*
X763000Y722765D02*
X765000D01*
X764000Y721765D02*
Y723764D01*
X731000Y750000D02*
X733000D01*
X732000Y749000D02*
Y751000D01*
X679000Y746000D02*
X681000D01*
X680000Y745000D02*
Y747000D01*
X684000Y673000D02*
X686000D01*
X685000Y672000D02*
Y674000D01*
X640000Y757000D02*
X642000D01*
X641000Y756000D02*
Y758000D01*
X620000Y777000D02*
X622000D01*
X621000Y776000D02*
Y778000D01*
X547000Y682000D02*
X549000D01*
X548000Y681000D02*
Y683000D01*
X449000Y661000D02*
X451000D01*
X450000Y660000D02*
Y662000D01*
X345000Y479000D02*
X347000D01*
X346000Y478000D02*
Y480000D01*
X812000Y152000D02*
X814000D01*
X813000Y151000D02*
Y153000D01*
X494000Y210000D02*
X496000D01*
X495000Y209000D02*
Y211000D01*
X403000Y246000D02*
X405000D01*
X404000Y245000D02*
Y247000D01*
X352000Y221000D02*
X354000D01*
X353000Y220000D02*
Y222000D01*
X167000Y217000D02*
X169000D01*
X168000Y216000D02*
Y218000D01*
X238000Y265000D02*
X240000D01*
X239000Y264000D02*
Y266000D01*
X303000Y292900D02*
X305000D01*
X304000Y291900D02*
Y293900D01*
X264000Y293000D02*
X266000D01*
X265000Y292000D02*
Y294000D01*
X589000Y397000D02*
X591000D01*
X590000Y396000D02*
Y398000D01*
X386000Y324000D02*
X388000D01*
X387000Y323000D02*
Y325000D01*
X376000Y356000D02*
X378000D01*
X377000Y355000D02*
Y357000D01*
X410000Y301000D02*
X412000D01*
X411000Y300000D02*
Y302000D01*
X363199Y314000D02*
X365199D01*
X364199Y313000D02*
Y315000D01*
X460200Y359000D02*
X462200D01*
X461200Y358000D02*
Y360000D01*
X506500Y361681D02*
X508500D01*
X507500Y360681D02*
Y362681D01*
X544000Y249000D02*
X546000D01*
X545000Y248000D02*
Y250000D01*
X542000Y280000D02*
X544000D01*
X543000Y279000D02*
Y281000D01*
X613000Y287000D02*
X615000D01*
X614000Y286000D02*
Y288000D01*
X616000Y312000D02*
X618000D01*
X617000Y311000D02*
Y313000D01*
X726535Y345465D02*
X728535D01*
X727535Y344465D02*
Y346465D01*
X856000Y488000D02*
X858000D01*
X857000Y487000D02*
Y489000D01*
X600000Y490000D02*
X602000D01*
X601000Y489000D02*
Y491000D01*
X600000Y549000D02*
X602000D01*
X601000Y548000D02*
Y550000D01*
X504000Y604000D02*
X506000D01*
X505000Y603000D02*
Y605000D01*
X333000Y573000D02*
X335000D01*
X334000Y572000D02*
Y574000D01*
X296000Y566000D02*
X298000D01*
X297000Y565000D02*
Y567000D01*
X348000Y448000D02*
X350000D01*
X349000Y447000D02*
Y449000D01*
X344000Y423000D02*
X346000D01*
X345000Y422000D02*
Y424000D01*
X297000Y416000D02*
X299000D01*
X298000Y415000D02*
Y417000D01*
X259000Y460000D02*
X261000D01*
X260000Y459000D02*
Y461000D01*
X175000Y464000D02*
X177000D01*
X176000Y463000D02*
Y465000D01*
X159000Y447000D02*
X161000D01*
X160000Y446000D02*
Y448000D01*
X125200Y697899D02*
X127200D01*
X126200Y696899D02*
Y698899D01*
X62000Y687000D02*
X64000D01*
X63000Y686000D02*
Y688000D01*
X77000Y666000D02*
X79000D01*
X78000Y665000D02*
Y667000D01*
X158000Y592000D02*
X160000D01*
X159000Y591000D02*
Y593000D01*
X119000Y789000D02*
X121000D01*
X120000Y788000D02*
Y790000D01*
X143000Y786000D02*
X145000D01*
X144000Y785000D02*
Y787000D01*
X129000Y680000D02*
X131000D01*
X130000Y679000D02*
Y681000D01*
X247700Y723370D02*
X249700D01*
X248700Y722370D02*
Y724370D01*
X230000Y672000D02*
X232000D01*
X231000Y671000D02*
Y673000D01*
X362000Y671000D02*
X364000D01*
X363000Y670000D02*
Y672000D01*
X361000Y778000D02*
X363000D01*
X362000Y777000D02*
Y779000D01*
X375000Y778000D02*
X377000D01*
X376000Y777000D02*
Y779000D01*
X400669Y868750D02*
X402669D01*
X401669Y867750D02*
Y869750D01*
X397500Y791250D02*
X399500D01*
X398500Y790250D02*
Y792250D01*
X369000Y722000D02*
X371000D01*
X370000Y721000D02*
Y723000D01*
X444000Y720000D02*
X446000D01*
X445000Y719000D02*
Y721000D01*
X474000Y790000D02*
X476000D01*
X475000Y789000D02*
Y791000D01*
X464000Y730000D02*
X466000D01*
X465000Y729000D02*
Y731000D01*
X474000Y740000D02*
X476000D01*
X475000Y739000D02*
Y741000D01*
X452225Y750000D02*
X454225D01*
X453225Y749000D02*
Y751000D01*
X454000Y759000D02*
X456000D01*
X455000Y758000D02*
Y760000D01*
X484999Y749998D02*
X486999D01*
X485999Y748998D02*
Y750999D01*
X509000Y711000D02*
X511000D01*
X510000Y710000D02*
Y712000D01*
X504000Y790000D02*
X506000D01*
X505000Y789000D02*
Y791000D01*
X434000Y790000D02*
X436000D01*
X435000Y789000D02*
Y791000D01*
X819000Y355000D02*
X821000D01*
X820000Y354000D02*
Y356000D01*
X819000Y305000D02*
X821000D01*
X820000Y304000D02*
Y306000D01*
X759000Y305000D02*
X761000D01*
X760000Y304000D02*
Y306000D01*
X819000Y295000D02*
X821000D01*
X820000Y294000D02*
Y296000D01*
X759000Y295000D02*
X761000D01*
X760000Y294000D02*
Y296000D01*
X749000Y344000D02*
X751000D01*
X750000Y343000D02*
Y345000D01*
X742935Y386300D02*
X744935D01*
X743935Y385300D02*
Y387300D01*
X743000Y392000D02*
X745000D01*
X744000Y391000D02*
Y393000D01*
X824000Y395000D02*
X826000D01*
X825000Y394000D02*
Y396000D01*
X814000Y393000D02*
X816000D01*
X815000Y392000D02*
Y394000D01*
X748000Y356000D02*
X750000D01*
X749000Y355000D02*
Y357000D01*
X829000Y355000D02*
X831000D01*
X830000Y354000D02*
Y356000D01*
X759000Y315000D02*
X761000D01*
X760000Y314000D02*
Y316000D01*
X738998Y340999D02*
X740999D01*
X739998Y339999D02*
Y341999D01*
X819000Y315000D02*
X821000D01*
X820000Y314000D02*
Y316000D01*
X464000Y712000D02*
X466000D01*
X465000Y711000D02*
Y713000D01*
X474000Y770000D02*
X476000D01*
X475000Y769000D02*
Y771000D01*
X434000Y740000D02*
X436000D01*
X435000Y739000D02*
Y741000D01*
X477000Y807000D02*
X479000D01*
X478000Y806000D02*
Y808000D01*
X462000Y815000D02*
X464000D01*
X463000Y814000D02*
Y816000D01*
X467000Y818000D02*
X469000D01*
X468000Y817000D02*
Y819000D01*
X470000Y807000D02*
X472000D01*
X471000Y806000D02*
Y808000D01*
X462000Y807000D02*
X464000D01*
X463000Y806000D02*
Y808000D01*
X443000Y869000D02*
X445000D01*
X444000Y868000D02*
Y870000D01*
X509000Y820000D02*
X511000D01*
X510000Y819000D02*
Y821000D01*
X500000Y820000D02*
X502000D01*
X501000Y819000D02*
Y821000D01*
X509000Y808000D02*
X511000D01*
X510000Y807000D02*
Y809000D01*
X500000Y808000D02*
X502000D01*
X501000Y807000D02*
Y809000D01*
X509000Y814000D02*
X511000D01*
X510000Y813000D02*
Y815000D01*
X500000Y814000D02*
X502000D01*
X501000Y813000D02*
Y815000D01*
X464000Y790000D02*
X466000D01*
X465000Y789000D02*
Y791000D01*
X107070Y191930D02*
X109070D01*
X108070Y190930D02*
Y192930D01*
X114000Y213000D02*
X116000D01*
X115000Y212000D02*
Y214000D01*
X114000Y220000D02*
X116000D01*
X115000Y219000D02*
Y221000D01*
X54000Y568000D02*
X56000D01*
X55000Y567000D02*
Y569000D01*
X88000Y589250D02*
X90000D01*
X89000Y588250D02*
Y590250D01*
X46000Y725000D02*
X48000D01*
X47000Y724000D02*
Y726000D01*
X38000Y725000D02*
X40000D01*
X39000Y724000D02*
Y726000D01*
X55000Y731000D02*
X57000D01*
X56000Y730000D02*
Y732000D01*
X277000Y869000D02*
X279000D01*
X278000Y868000D02*
Y870000D01*
X201000Y674000D02*
X203000D01*
X202000Y673000D02*
Y675000D01*
X215000Y663000D02*
X217000D01*
X216000Y662000D02*
Y664000D01*
X232000Y726000D02*
X234000D01*
X233000Y725000D02*
Y727000D01*
X244000Y734000D02*
X246000D01*
X245000Y733000D02*
Y735000D01*
X243000Y742500D02*
X245000D01*
X244000Y741500D02*
Y743500D01*
X207000Y669000D02*
X209000D01*
X208000Y668000D02*
Y670000D01*
X223000Y657000D02*
X225000D01*
X224000Y656000D02*
Y658000D01*
X178000Y671000D02*
X180000D01*
X179000Y670000D02*
Y672000D01*
X287000Y670975D02*
X289000D01*
X288000Y669975D02*
Y671975D01*
X287000Y727475D02*
X289000D01*
X288000Y726475D02*
Y728475D01*
X278000Y790757D02*
X280000D01*
X279000Y789757D02*
Y791757D01*
X166500Y748500D02*
X168500D01*
X167500Y747500D02*
Y749500D01*
X84000Y232200D02*
X86000D01*
X85000Y231200D02*
Y233200D01*
X88000Y214000D02*
X90000D01*
X89000Y213000D02*
Y215000D01*
X86000Y268000D02*
X88000D01*
X87000Y267000D02*
Y269000D01*
X92000Y304000D02*
X94000D01*
X93000Y303000D02*
Y305000D01*
X92300Y313000D02*
X94300D01*
X93300Y312000D02*
Y314000D01*
X85000Y295000D02*
X87000D01*
X86000Y294000D02*
Y296000D01*
X93000Y349000D02*
X95000D01*
X94000Y348000D02*
Y350000D01*
X86000Y339000D02*
X88000D01*
X87000Y338000D02*
Y340000D01*
X98000Y479000D02*
X100000D01*
X99000Y478000D02*
Y480000D01*
X89000Y400000D02*
X91000D01*
X90000Y399000D02*
Y401000D01*
X641000Y505000D02*
X643000D01*
X642000Y504000D02*
Y506000D01*
X632000Y493000D02*
X634000D01*
X633000Y492000D02*
Y494000D01*
X796000Y596000D02*
X798000D01*
X797000Y595000D02*
Y597000D01*
X785000Y576000D02*
X787000D01*
X786000Y575000D02*
Y577000D01*
Y799000D02*
X788000D01*
X787000Y798000D02*
Y800000D01*
X792000Y811000D02*
X794000D01*
X793000Y810000D02*
Y812000D01*
X858000Y822000D02*
X860000D01*
X859000Y821000D02*
Y823000D01*
X865000Y822000D02*
X867000D01*
X866000Y821000D02*
Y823000D01*
X865000Y828000D02*
X867000D01*
X866000Y827000D02*
Y829000D01*
X101000Y324000D02*
X103000D01*
X102000Y323000D02*
Y325000D01*
X101000Y315000D02*
X103000D01*
X102000Y314000D02*
Y316000D01*
X106000Y296000D02*
X108000D01*
X107000Y295000D02*
Y297000D01*
X101000Y294000D02*
X103000D01*
X102000Y293000D02*
Y295000D01*
X101000Y299000D02*
X103000D01*
X102000Y298000D02*
Y300000D01*
X101000Y306000D02*
X103000D01*
X102000Y305000D02*
Y307000D01*
X30000Y512000D02*
X32000D01*
X31000Y511000D02*
Y513000D01*
X22000Y512000D02*
X24000D01*
X23000Y511000D02*
Y513000D01*
X30000Y519000D02*
X32000D01*
X31000Y518000D02*
Y520000D01*
X22000Y519000D02*
X24000D01*
X23000Y518000D02*
Y520000D01*
X30000Y525000D02*
X32000D01*
X31000Y524000D02*
Y526000D01*
X22000Y525000D02*
X24000D01*
X23000Y524000D02*
Y526000D01*
X30000Y531000D02*
X32000D01*
X31000Y530000D02*
Y532000D01*
X22000Y531000D02*
X24000D01*
X23000Y530000D02*
Y532000D01*
X849000Y226000D02*
X851000D01*
X850000Y225000D02*
Y227000D01*
X849000Y233000D02*
X851000D01*
X850000Y232000D02*
Y234000D01*
X437000Y544000D02*
X439000D01*
X438000Y543000D02*
Y545000D01*
X454980Y561848D02*
X456980D01*
X455980Y560848D02*
Y562848D01*
X443000Y556000D02*
X445000D01*
X444000Y555000D02*
Y557000D01*
X404000Y836000D02*
X406000D01*
X405000Y835000D02*
Y837000D01*
X399000Y843000D02*
X401000D01*
X400000Y842000D02*
Y844000D01*
X430000Y834000D02*
X432000D01*
X431000Y833000D02*
Y835000D01*
X404000Y830000D02*
X406000D01*
X405000Y829000D02*
Y831000D01*
X40000Y306000D02*
X42000D01*
X41000Y305000D02*
Y307000D01*
X39000Y280000D02*
X41000D01*
X40000Y279000D02*
Y281000D01*
X767000Y648000D02*
X769000D01*
X768000Y647000D02*
Y649000D01*
X767000Y688000D02*
X769000D01*
X768000Y687000D02*
Y689000D01*
X77000Y355000D02*
X79000D01*
X78000Y354000D02*
Y356000D01*
X845000Y631000D02*
X847000D01*
X846000Y630000D02*
Y632000D01*
X837000Y641000D02*
X839000D01*
X838000Y640000D02*
Y642000D01*
X232000Y112800D02*
X234000D01*
X233000Y111800D02*
Y113800D01*
X101000Y400000D02*
X103000D01*
X102000Y399000D02*
Y401000D01*
X92101Y376101D02*
X94101D01*
X93101Y375101D02*
Y377101D01*
X84000Y382000D02*
X86000D01*
X85000Y381000D02*
Y383000D01*
X106000Y405000D02*
X108000D01*
X107000Y404000D02*
Y406000D01*
X125000Y374995D02*
X127000D01*
X126000Y373995D02*
Y375995D01*
X70000Y540000D02*
X72000D01*
X71000Y539000D02*
Y541000D01*
X78000Y533000D02*
X80000D01*
X79000Y532000D02*
Y534000D01*
X279000Y810000D02*
X281000D01*
X280000Y809000D02*
Y811000D01*
X200200Y355465D02*
X202200D01*
X201200Y354465D02*
Y356465D01*
X201000Y630000D02*
X203000D01*
X202000Y629000D02*
Y631000D01*
X218000Y614000D02*
X220000D01*
X219000Y613000D02*
Y615000D01*
X210000Y619000D02*
X212000D01*
X211000Y618000D02*
Y620000D01*
X192000Y633000D02*
X194000D01*
X193000Y632000D02*
Y634000D01*
X200000Y596000D02*
X202000D01*
X201000Y595000D02*
Y597000D01*
X200000Y586000D02*
X202000D01*
X201000Y585000D02*
Y587000D01*
X258000Y472000D02*
X260000D01*
X259000Y471000D02*
Y473000D01*
X246000Y474000D02*
X248000D01*
X247000Y473000D02*
Y475000D01*
X251000Y466000D02*
X253000D01*
X252000Y465000D02*
Y467000D01*
X424400Y829675D02*
X426400D01*
X425400Y828675D02*
Y830675D01*
X630000Y623000D02*
X632000D01*
X631000Y622000D02*
Y624000D01*
X624000Y623000D02*
X626000D01*
X625000Y622000D02*
Y624000D01*
X666661Y732636D02*
X668661D01*
X667661Y731636D02*
Y733636D01*
X662701Y738080D02*
X664701D01*
X663701Y737079D02*
Y739080D01*
X217001Y99201D02*
X219001D01*
X218001Y98201D02*
Y100201D01*
X801000Y603000D02*
X803000D01*
X802000Y602000D02*
Y604000D01*
X745000Y645000D02*
X747000D01*
X746000Y644000D02*
Y646000D01*
X730000Y425000D02*
X732000D01*
X731000Y424000D02*
Y426000D01*
X718000Y407000D02*
X720000D01*
X719000Y406000D02*
Y408000D01*
X726000Y416000D02*
X728000D01*
X727000Y415000D02*
Y417000D01*
X720000Y398000D02*
X722000D01*
X721000Y397000D02*
Y399000D01*
X700000Y361000D02*
X702000D01*
X701000Y360000D02*
Y362000D01*
X713000Y382000D02*
X715000D01*
X714000Y381000D02*
Y383000D01*
X710000Y376000D02*
X712000D01*
X711000Y375000D02*
Y377000D01*
X706000Y369000D02*
X708000D01*
X707000Y368000D02*
Y370000D01*
X638204Y391799D02*
X640204D01*
X639204Y390799D02*
Y392799D01*
X631101Y392899D02*
X633101D01*
X632101Y391899D02*
Y393899D01*
X649000Y334000D02*
X651000D01*
X650000Y333000D02*
Y335000D01*
X658000Y358000D02*
X660000D01*
X659000Y357000D02*
Y359000D01*
X764000Y505000D02*
X766000D01*
X765000Y504000D02*
Y506000D01*
X796000Y443000D02*
X798000D01*
X797000Y442000D02*
Y444000D01*
X827600Y374500D02*
X829600D01*
X828600Y373500D02*
Y375500D01*
X819465Y345600D02*
X821465D01*
X820465Y344600D02*
Y346600D01*
X760002Y375402D02*
X762002D01*
X761002Y374403D02*
Y376402D01*
X740339Y617136D02*
X742339D01*
X741339Y616136D02*
Y618136D01*
X694900Y552604D02*
X696900D01*
X695900Y551604D02*
Y553604D01*
X732000Y645000D02*
X734000D01*
X733000Y644000D02*
Y646000D01*
X770200Y520989D02*
X772200D01*
X771200Y519990D02*
Y521990D01*
X822045Y528775D02*
X824044D01*
X823045Y527775D02*
Y529776D01*
X760000Y407000D02*
X762000D01*
X761000Y406000D02*
Y408000D01*
X819000Y375000D02*
X821000D01*
X820000Y374000D02*
Y376000D01*
X779800Y395000D02*
X781800D01*
X780800Y394000D02*
Y396000D01*
X788000Y395000D02*
X790000D01*
X789000Y394000D02*
Y396000D01*
X867101Y498899D02*
X869101D01*
X868101Y497899D02*
Y499899D01*
X839000Y424000D02*
X841000D01*
X840000Y423000D02*
Y425000D01*
X742465Y378900D02*
X744465D01*
X743465Y377900D02*
Y379900D01*
X769000Y375000D02*
X771000D01*
X770000Y374000D02*
Y376000D01*
X759000Y345000D02*
X761000D01*
X760000Y344000D02*
Y346000D01*
X741800Y349000D02*
X743800D01*
X742800Y348000D02*
Y350000D01*
X647000Y471000D02*
X649000D01*
X648000Y470000D02*
Y472000D01*
X645000Y461000D02*
X647000D01*
X646000Y460000D02*
Y462000D01*
X631520Y449892D02*
X633520D01*
X632520Y448892D02*
Y450892D01*
X641200Y453000D02*
X643200D01*
X642200Y452000D02*
Y454000D01*
X601000Y387000D02*
X603000D01*
X602000Y386000D02*
Y388000D01*
X711000Y431000D02*
X713000D01*
X712000Y430000D02*
Y432000D01*
X708000Y333000D02*
X710000D01*
X709000Y332000D02*
Y334000D01*
X682000Y437000D02*
X684000D01*
X683000Y436000D02*
Y438000D01*
X593000Y314000D02*
X595000D01*
X594000Y313000D02*
Y315000D01*
X575000Y307000D02*
X577000D01*
X576000Y306000D02*
Y308000D01*
X707000Y457000D02*
X709000D01*
X708000Y456000D02*
Y458000D01*
X691000Y470000D02*
X693000D01*
X692000Y469000D02*
Y471000D01*
X437804Y342804D02*
X439804D01*
X438804Y341804D02*
Y343804D01*
X428000Y353000D02*
X430000D01*
X429000Y352000D02*
Y354000D01*
X444000Y343000D02*
X446000D01*
X445000Y342000D02*
Y344000D01*
X443000Y359000D02*
X445000D01*
X444000Y358000D02*
Y360000D01*
X606449Y431449D02*
X608449D01*
X607449Y430449D02*
Y432449D01*
X595170Y444000D02*
X597170D01*
X596170Y443000D02*
Y445000D01*
X651000Y559000D02*
X653000D01*
X652000Y558000D02*
Y560000D01*
X821000Y650000D02*
X823000D01*
X822000Y649000D02*
Y651000D01*
X714300Y307400D02*
X716300D01*
X715300Y306400D02*
Y308400D01*
X107000Y424000D02*
X109000D01*
X108000Y423000D02*
Y425000D01*
X541000Y512000D02*
X543000D01*
X542000Y511000D02*
Y513000D01*
X670000Y549000D02*
X672000D01*
X671000Y548000D02*
Y550000D01*
X720865Y539990D02*
X722865D01*
X721865Y538989D02*
Y540989D01*
X551000Y535050D02*
X553000D01*
X552000Y534050D02*
Y536050D01*
X487000Y545000D02*
X489000D01*
X488000Y544000D02*
Y546000D01*
X720000Y294000D02*
X722000D01*
X721000Y293000D02*
Y295000D01*
X713000Y293000D02*
X715000D01*
X714000Y292000D02*
Y294000D01*
X757965Y509965D02*
X759965D01*
X758965Y508965D02*
Y510965D01*
X870000Y510000D02*
X872000D01*
X871000Y509000D02*
Y511000D01*
X751000Y458100D02*
X753000D01*
X752000Y457100D02*
Y459100D01*
X707000Y322000D02*
X709000D01*
X708000Y321000D02*
Y323000D01*
X742000Y360000D02*
X744000D01*
X743000Y359000D02*
Y361000D01*
X744566Y281636D02*
X746566D01*
X745566Y280636D02*
Y282636D01*
X453798Y549798D02*
X455798D01*
X454798Y548798D02*
Y550798D01*
X460300Y572700D02*
X462300D01*
X461300Y571700D02*
Y573700D01*
X453000Y570000D02*
X455000D01*
X454000Y569000D02*
Y571000D01*
X468000Y572000D02*
X470000D01*
X469000Y571000D02*
Y573000D01*
X448130Y538000D02*
X450130D01*
X449130Y537000D02*
Y539000D01*
X554000Y515000D02*
X556000D01*
X555000Y514000D02*
Y516000D01*
X554000Y506000D02*
X556000D01*
X555000Y505000D02*
Y507000D01*
X508000Y642000D02*
X510000D01*
X509000Y641000D02*
Y643000D01*
X462595Y520000D02*
X464595D01*
X463595Y519000D02*
Y521000D01*
X829000Y345000D02*
X831000D01*
X830000Y344000D02*
Y346000D01*
X769000Y285000D02*
X771000D01*
X770000Y284000D02*
Y286000D01*
X813750Y467000D02*
X815750D01*
X814750Y466000D02*
Y468000D01*
X752000Y222000D02*
X754000D01*
X753000Y221000D02*
Y223000D01*
X740000Y211000D02*
X742000D01*
X741000Y210000D02*
Y212000D01*
X712000Y217000D02*
X714000D01*
X713000Y216000D02*
Y218000D01*
X718000Y228000D02*
X720000D01*
X719000Y227000D02*
Y229000D01*
X496000Y329000D02*
X498000D01*
X497000Y328000D02*
Y330000D01*
X709000Y184000D02*
X711000D01*
X710000Y183000D02*
Y185000D01*
X703000Y238000D02*
X705000D01*
X704000Y237000D02*
Y239000D01*
X699000Y176000D02*
X701000D01*
X700000Y175000D02*
Y177000D01*
X697000Y246000D02*
X699000D01*
X698000Y245000D02*
Y247000D01*
X496000Y341000D02*
X498000D01*
X497000Y340000D02*
Y342000D01*
X381200Y131000D02*
X383200D01*
X382200Y130000D02*
Y132000D01*
X529000Y85200D02*
X531000D01*
X530000Y84200D02*
Y86200D01*
X549000Y91000D02*
X551000D01*
X550000Y90000D02*
Y92000D01*
X200000Y90000D02*
X202000D01*
X201000Y89000D02*
Y91000D01*
X196944Y73785D02*
X198944D01*
X197944Y72785D02*
Y74785D01*
X181000Y107000D02*
X183000D01*
X182000Y106000D02*
Y108000D01*
X217000Y91000D02*
X219000D01*
X218000Y90000D02*
Y92000D01*
X133000Y475800D02*
X135000D01*
X134000Y474800D02*
Y476800D01*
X90000Y440000D02*
X92000D01*
X91000Y439000D02*
Y441000D01*
X289000Y478000D02*
X291000D01*
X290000Y477000D02*
Y479000D01*
X226000Y374000D02*
X228000D01*
X227000Y373000D02*
Y375000D01*
X218000Y365000D02*
X220000D01*
X219000Y364000D02*
Y366000D01*
X211000Y448000D02*
X213000D01*
X212000Y447000D02*
Y449000D01*
X139595Y550595D02*
X141595D01*
X140595Y549595D02*
Y551595D01*
X86000Y136000D02*
X88000D01*
X87000Y135000D02*
Y137000D01*
X172000Y194000D02*
X174000D01*
X173000Y193000D02*
Y195000D01*
X155000Y306000D02*
X157000D01*
X156000Y305000D02*
Y307000D01*
X158000Y323000D02*
X160000D01*
X159000Y322000D02*
Y324000D01*
X249000Y436000D02*
X251000D01*
X250000Y435000D02*
Y437000D01*
X256000Y410000D02*
X258000D01*
X257000Y409000D02*
Y411000D01*
X266000Y397000D02*
X268000D01*
X267000Y396000D02*
Y398000D01*
X432800Y670000D02*
X434800D01*
X433800Y669000D02*
Y671000D01*
X434000Y770000D02*
X436000D01*
X435000Y769000D02*
Y771000D01*
X297000Y366000D02*
X299000D01*
X298000Y365000D02*
Y367000D01*
X320000Y342000D02*
X322000D01*
X321000Y341000D02*
Y343000D01*
X310000Y348000D02*
X312000D01*
X311000Y347000D02*
Y349000D01*
X212000Y269000D02*
X214000D01*
X213000Y268000D02*
Y270000D01*
X68065Y331565D02*
X70065D01*
X69065Y330565D02*
Y332565D01*
X84000Y246500D02*
X86000D01*
X85000Y245500D02*
Y247500D01*
X84000Y198000D02*
X86000D01*
X85000Y197000D02*
Y199000D01*
X66000Y165500D02*
X68000D01*
X67000Y164500D02*
Y166500D01*
X66000Y125000D02*
X68000D01*
X67000Y124000D02*
Y126000D01*
X77000Y376000D02*
X79000D01*
X78000Y375000D02*
Y377000D01*
X179000Y394000D02*
X181000D01*
X180000Y393000D02*
Y395000D01*
X66000Y289000D02*
X68000D01*
X67000Y288000D02*
Y290000D01*
X178000Y367600D02*
X180000D01*
X179000Y366600D02*
Y368600D01*
X210600Y388400D02*
X212600D01*
X211600Y387400D02*
Y389400D01*
X192000Y349000D02*
X194000D01*
X193000Y348000D02*
Y350000D01*
X157000Y275000D02*
X159000D01*
X158000Y274000D02*
Y276000D01*
X116000Y243000D02*
X118000D01*
X117000Y242000D02*
Y244000D01*
X98000Y489000D02*
X100000D01*
X99000Y488000D02*
Y490000D01*
X98000Y498000D02*
X100000D01*
X99000Y497000D02*
Y499000D01*
X98000Y516000D02*
X100000D01*
X99000Y515000D02*
Y517000D01*
X95000Y447000D02*
X97000D01*
X96000Y446000D02*
Y448000D01*
X160000Y413200D02*
X162000D01*
X161000Y412200D02*
Y414200D01*
X89000Y431000D02*
X91000D01*
X90000Y430000D02*
Y432000D01*
X93000Y528000D02*
X95000D01*
X94000Y527000D02*
Y529000D01*
X84000Y282000D02*
X86000D01*
X85000Y281000D02*
Y283000D01*
X187000Y400000D02*
X189000D01*
X188000Y399000D02*
Y401000D01*
X153000Y481000D02*
X155000D01*
X154000Y480000D02*
Y482000D01*
X194000Y382000D02*
X196000D01*
X195000Y381000D02*
Y383000D01*
X188000Y450000D02*
X190000D01*
X189000Y449000D02*
Y451000D01*
X203000Y376000D02*
X205000D01*
X204000Y375000D02*
Y377000D01*
X200000Y450000D02*
X202000D01*
X201000Y449000D02*
Y451000D01*
X231800Y742500D02*
X233800D01*
X232800Y741500D02*
Y743500D01*
X178000Y747700D02*
X180000D01*
X179000Y746700D02*
Y748700D01*
X252000Y696000D02*
X254000D01*
X253000Y695000D02*
Y697000D01*
X362499Y327601D02*
X364499D01*
X363499Y326601D02*
Y328601D01*
X374900Y245035D02*
X376900D01*
X375900Y244035D02*
Y246035D01*
X348000Y284930D02*
X350000D01*
X349000Y283930D02*
Y285930D01*
X357899Y305101D02*
X359899D01*
X358899Y304101D02*
Y306101D01*
X554000Y391000D02*
X556000D01*
X555000Y390000D02*
Y392000D01*
X559000Y397000D02*
X561000D01*
X560000Y396000D02*
Y398000D01*
Y417000D02*
X562000D01*
X561000Y416000D02*
Y418000D01*
X183000Y349000D02*
X185000D01*
X184000Y348000D02*
Y350000D01*
X281000Y696000D02*
X283000D01*
X282000Y695000D02*
Y697000D01*
X287000Y688000D02*
X289000D01*
X288000Y687000D02*
Y689000D01*
X164000Y770000D02*
X166000D01*
X165000Y769000D02*
Y771000D01*
X278000Y855000D02*
X280000D01*
X279000Y854000D02*
Y856000D01*
X349000Y307000D02*
X351000D01*
X350000Y306000D02*
Y308000D01*
X433230Y469400D02*
X435230D01*
X434230Y468400D02*
Y470400D01*
X408000Y508000D02*
X410000D01*
X409000Y507000D02*
Y509000D01*
X404000Y501000D02*
X406000D01*
X405000Y500000D02*
Y502000D01*
X377000Y441000D02*
X379000D01*
X378000Y440000D02*
Y442000D01*
X168000Y713000D02*
X170000D01*
X169000Y712000D02*
Y714000D01*
X170000Y696000D02*
X172000D01*
X171000Y695000D02*
Y697000D01*
X374000Y432000D02*
X376000D01*
X375000Y431000D02*
Y433000D01*
X339000Y288000D02*
X341000D01*
X340000Y287000D02*
Y289000D01*
X440000Y272000D02*
X442000D01*
X441000Y271000D02*
Y273000D01*
X435000Y276800D02*
X437000D01*
X436000Y275800D02*
Y277800D01*
X497000Y276000D02*
X499000D01*
X498000Y275000D02*
Y277000D01*
X388000Y246000D02*
X390000D01*
X389000Y245000D02*
Y247000D01*
X487136Y562864D02*
X489136D01*
X488136Y561864D02*
Y563864D01*
X590000Y433000D02*
X592000D01*
X591000Y432000D02*
Y434000D01*
X590000Y427000D02*
X592000D01*
X591000Y426000D02*
Y428000D01*
X560000Y571000D02*
X562000D01*
X561000Y570000D02*
Y572000D01*
X552000Y571000D02*
X554000D01*
X553000Y570000D02*
Y572000D01*
X451856Y525380D02*
X453856D01*
X452855Y524380D02*
Y526380D01*
X445855Y531380D02*
X447855D01*
X446856Y530380D02*
Y532380D01*
X401000Y557000D02*
X403000D01*
X402000Y556000D02*
Y558000D01*
X371000Y602000D02*
X373000D01*
X372000Y601000D02*
Y603000D01*
X392000Y557000D02*
X394000D01*
X393000Y556000D02*
Y558000D01*
X397399Y539200D02*
X399399D01*
X398399Y538200D02*
Y540200D01*
X405000Y545000D02*
X407000D01*
X406000Y544000D02*
Y546000D01*
X258000Y629000D02*
X260000D01*
X259000Y628000D02*
Y630000D01*
X252000Y685000D02*
X254000D01*
X253000Y684000D02*
Y686000D01*
X683000Y662000D02*
X685000D01*
X684000Y661000D02*
Y663000D01*
X691000Y750000D02*
X693000D01*
X692000Y749000D02*
Y751000D01*
X617000Y695000D02*
X619000D01*
X618000Y694000D02*
Y696000D01*
X602000Y687000D02*
X604000D01*
X603000Y686000D02*
Y688000D01*
X387000Y109000D02*
X389000D01*
X388000Y108000D02*
Y110000D01*
X588000Y108000D02*
X590000D01*
X589000Y107000D02*
Y109000D01*
X695000Y98000D02*
X697000D01*
X696000Y97000D02*
Y99000D01*
X672000Y119000D02*
X674000D01*
X673000Y118000D02*
Y120000D01*
X701000Y746000D02*
X703000D01*
X702000Y745000D02*
Y747000D01*
X534000Y716000D02*
X536000D01*
X535000Y715000D02*
Y717000D01*
X534359Y739641D02*
X536359D01*
X535359Y738641D02*
Y740641D01*
X131000Y706000D02*
X133000D01*
X132000Y705000D02*
Y707000D01*
X194000Y513000D02*
X196000D01*
X195000Y512000D02*
Y514000D01*
X200000Y523000D02*
X202000D01*
X201000Y522000D02*
Y524000D01*
X212601Y502601D02*
X214601D01*
X213601Y501601D02*
Y503601D01*
X206000Y490000D02*
X208000D01*
X207000Y489000D02*
Y491000D01*
X130000Y527000D02*
X132000D01*
X131000Y526000D02*
Y528000D01*
X143000Y510000D02*
X145000D01*
X144000Y509000D02*
Y511000D01*
X344000Y650000D02*
X346000D01*
X345000Y649000D02*
Y651000D01*
X385000Y750200D02*
X387000D01*
X386000Y749200D02*
Y751200D01*
X367000Y746000D02*
X369000D01*
X368000Y745000D02*
Y747000D01*
X741000Y749000D02*
X743000D01*
X742000Y748000D02*
Y750000D01*
X342000Y643000D02*
X344000D01*
X343000Y642000D02*
Y644000D01*
X368000Y690000D02*
X370000D01*
X369000Y689000D02*
Y691000D01*
X386000Y696000D02*
X388000D01*
X387000Y695000D02*
Y697000D01*
X696000Y661000D02*
X698000D01*
X697000Y660000D02*
Y662000D01*
X665000Y713000D02*
X667000D01*
X666000Y712000D02*
Y714000D01*
X624000Y670000D02*
X626000D01*
X625000Y669000D02*
Y671000D01*
X586200Y733000D02*
X588200D01*
X587200Y732000D02*
Y734000D01*
X623000Y683000D02*
X625000D01*
X624000Y682000D02*
Y684000D01*
X585000Y746000D02*
X587000D01*
X586000Y745000D02*
Y747000D01*
X847000Y524000D02*
X849000D01*
X848000Y523000D02*
Y525000D01*
X503200Y424000D02*
X505200D01*
X504200Y423000D02*
Y425000D01*
X503200Y441000D02*
X505200D01*
X504200Y440000D02*
Y442000D01*
X509200Y441000D02*
X511200D01*
X510200Y440000D02*
Y442000D01*
X509200Y424000D02*
X511200D01*
X510200Y423000D02*
Y425000D01*
X286000Y753350D02*
X288000D01*
X287000Y752350D02*
Y754350D01*
X286000Y745000D02*
X288000D01*
X287000Y744000D02*
Y746000D01*
X186000Y92000D02*
X188000D01*
X187000Y91000D02*
Y93000D01*
X444000Y730000D02*
X446000D01*
X445000Y729000D02*
Y731000D01*
X544000Y656000D02*
X546000D01*
X545000Y655000D02*
Y657000D01*
X454000Y720000D02*
X456000D01*
X455000Y719000D02*
Y721000D01*
X554000Y657000D02*
X556000D01*
X555000Y656000D02*
Y658000D01*
X484000Y720000D02*
X486000D01*
X485000Y719000D02*
Y721000D01*
X434000Y750000D02*
X436000D01*
X435000Y749000D02*
Y751000D01*
X348000Y532000D02*
X350000D01*
X349000Y531000D02*
Y533000D01*
X524000Y770000D02*
X526000D01*
X525000Y769000D02*
Y771000D01*
X524000Y790000D02*
X526000D01*
X525000Y789000D02*
Y791000D01*
X524000Y760000D02*
X526000D01*
X525000Y759000D02*
Y761000D01*
X524000Y720000D02*
X526000D01*
X525000Y719000D02*
Y721000D01*
X494000Y790000D02*
X496000D01*
X495000Y789000D02*
Y791000D01*
X494000Y730000D02*
X496000D01*
X495000Y729000D02*
Y731000D01*
X464000Y740000D02*
X466000D01*
X465000Y739000D02*
Y741000D01*
X434000Y780000D02*
X436000D01*
X435000Y779000D02*
Y781000D01*
M02*
