G04*
G04 #@! TF.GenerationSoftware,Altium Limited,Altium Designer,24.9.1 (31)*
G04*
G04 Layer_Color=255*
%FSLAX44Y44*%
%MOMM*%
G71*
G04*
G04 #@! TF.SameCoordinates,6A9D4D84-9140-4673-ADE8-75025B522ADB*
G04*
G04*
G04 #@! TF.FilePolarity,Positive*
G04*
G01*
G75*
%ADD22R,0.9500X1.2000*%
G04:AMPARAMS|DCode=23|XSize=1.64mm|YSize=0.59mm|CornerRadius=0.1475mm|HoleSize=0mm|Usage=FLASHONLY|Rotation=0.000|XOffset=0mm|YOffset=0mm|HoleType=Round|Shape=RoundedRectangle|*
%AMROUNDEDRECTD23*
21,1,1.6400,0.2950,0,0,0.0*
21,1,1.3450,0.5900,0,0,0.0*
1,1,0.2950,0.6725,-0.1475*
1,1,0.2950,-0.6725,-0.1475*
1,1,0.2950,-0.6725,0.1475*
1,1,0.2950,0.6725,0.1475*
%
%ADD23ROUNDEDRECTD23*%
G04:AMPARAMS|DCode=24|XSize=0.95mm|YSize=0.85mm|CornerRadius=0.2125mm|HoleSize=0mm|Usage=FLASHONLY|Rotation=270.000|XOffset=0mm|YOffset=0mm|HoleType=Round|Shape=RoundedRectangle|*
%AMROUNDEDRECTD24*
21,1,0.9500,0.4250,0,0,270.0*
21,1,0.5250,0.8500,0,0,270.0*
1,1,0.4250,-0.2125,-0.2625*
1,1,0.4250,-0.2125,0.2625*
1,1,0.4250,0.2125,0.2625*
1,1,0.4250,0.2125,-0.2625*
%
%ADD24ROUNDEDRECTD24*%
G04:AMPARAMS|DCode=33|XSize=0.95mm|YSize=0.85mm|CornerRadius=0.2125mm|HoleSize=0mm|Usage=FLASHONLY|Rotation=180.000|XOffset=0mm|YOffset=0mm|HoleType=Round|Shape=RoundedRectangle|*
%AMROUNDEDRECTD33*
21,1,0.9500,0.4250,0,0,180.0*
21,1,0.5250,0.8500,0,0,180.0*
1,1,0.4250,-0.2625,0.2125*
1,1,0.4250,0.2625,0.2125*
1,1,0.4250,0.2625,-0.2125*
1,1,0.4250,-0.2625,-0.2125*
%
%ADD33ROUNDEDRECTD33*%
G04:AMPARAMS|DCode=34|XSize=0.65mm|YSize=0.6mm|CornerRadius=0.15mm|HoleSize=0mm|Usage=FLASHONLY|Rotation=180.000|XOffset=0mm|YOffset=0mm|HoleType=Round|Shape=RoundedRectangle|*
%AMROUNDEDRECTD34*
21,1,0.6500,0.3000,0,0,180.0*
21,1,0.3500,0.6000,0,0,180.0*
1,1,0.3000,-0.1750,0.1500*
1,1,0.3000,0.1750,0.1500*
1,1,0.3000,0.1750,-0.1500*
1,1,0.3000,-0.1750,-0.1500*
%
%ADD34ROUNDEDRECTD34*%
G04:AMPARAMS|DCode=35|XSize=0.65mm|YSize=0.6mm|CornerRadius=0.15mm|HoleSize=0mm|Usage=FLASHONLY|Rotation=270.000|XOffset=0mm|YOffset=0mm|HoleType=Round|Shape=RoundedRectangle|*
%AMROUNDEDRECTD35*
21,1,0.6500,0.3000,0,0,270.0*
21,1,0.3500,0.6000,0,0,270.0*
1,1,0.3000,-0.1500,-0.1750*
1,1,0.3000,-0.1500,0.1750*
1,1,0.3000,0.1500,0.1750*
1,1,0.3000,0.1500,-0.1750*
%
%ADD35ROUNDEDRECTD35*%
G04:AMPARAMS|DCode=50|XSize=1.1mm|YSize=1.3mm|CornerRadius=0.25mm|HoleSize=0mm|Usage=FLASHONLY|Rotation=180.000|XOffset=0mm|YOffset=0mm|HoleType=Round|Shape=RoundedRectangle|*
%AMROUNDEDRECTD50*
21,1,1.1000,0.8000,0,0,180.0*
21,1,0.6000,1.3000,0,0,180.0*
1,1,0.5000,-0.3000,0.4000*
1,1,0.5000,0.3000,0.4000*
1,1,0.5000,0.3000,-0.4000*
1,1,0.5000,-0.3000,-0.4000*
%
%ADD50ROUNDEDRECTD50*%
G04:AMPARAMS|DCode=51|XSize=1.1mm|YSize=1mm|CornerRadius=0.25mm|HoleSize=0mm|Usage=FLASHONLY|Rotation=270.000|XOffset=0mm|YOffset=0mm|HoleType=Round|Shape=RoundedRectangle|*
%AMROUNDEDRECTD51*
21,1,1.1000,0.5000,0,0,270.0*
21,1,0.6000,1.0000,0,0,270.0*
1,1,0.5000,-0.2500,-0.3000*
1,1,0.5000,-0.2500,0.3000*
1,1,0.5000,0.2500,0.3000*
1,1,0.5000,0.2500,-0.3000*
%
%ADD51ROUNDEDRECTD51*%
%ADD103C,1.5240*%
%ADD105C,0.5000*%
%ADD119C,1.0000*%
%ADD124C,2.4500*%
%ADD125C,1.6000*%
%ADD126R,1.6000X1.6000*%
%ADD127R,1.6000X1.6000*%
%ADD128C,2.3000*%
%ADD129R,1.2580X1.2580*%
%ADD130C,1.2580*%
%ADD131C,1.1500*%
%ADD132C,1.6500*%
%ADD135R,1.6500X1.6500*%
%ADD136C,6.3500*%
G04:AMPARAMS|DCode=140|XSize=1.1mm|YSize=1mm|CornerRadius=0.25mm|HoleSize=0mm|Usage=FLASHONLY|Rotation=0.000|XOffset=0mm|YOffset=0mm|HoleType=Round|Shape=RoundedRectangle|*
%AMROUNDEDRECTD140*
21,1,1.1000,0.5000,0,0,0.0*
21,1,0.6000,1.0000,0,0,0.0*
1,1,0.5000,0.3000,-0.2500*
1,1,0.5000,-0.3000,-0.2500*
1,1,0.5000,-0.3000,0.2500*
1,1,0.5000,0.3000,0.2500*
%
%ADD140ROUNDEDRECTD140*%
%ADD141R,10.4500X8.1000*%
%ADD142R,1.0000X3.0000*%
%ADD143C,0.4900*%
G04:AMPARAMS|DCode=144|XSize=0.8mm|YSize=0.26mm|CornerRadius=0.065mm|HoleSize=0mm|Usage=FLASHONLY|Rotation=180.000|XOffset=0mm|YOffset=0mm|HoleType=Round|Shape=RoundedRectangle|*
%AMROUNDEDRECTD144*
21,1,0.8000,0.1300,0,0,180.0*
21,1,0.6700,0.2600,0,0,180.0*
1,1,0.1300,-0.3350,0.0650*
1,1,0.1300,0.3350,0.0650*
1,1,0.1300,0.3350,-0.0650*
1,1,0.1300,-0.3350,-0.0650*
%
%ADD144ROUNDEDRECTD144*%
G04:AMPARAMS|DCode=145|XSize=0.26mm|YSize=0.8mm|CornerRadius=0.065mm|HoleSize=0mm|Usage=FLASHONLY|Rotation=180.000|XOffset=0mm|YOffset=0mm|HoleType=Round|Shape=RoundedRectangle|*
%AMROUNDEDRECTD145*
21,1,0.2600,0.6700,0,0,180.0*
21,1,0.1300,0.8000,0,0,180.0*
1,1,0.1300,-0.0650,0.3350*
1,1,0.1300,0.0650,0.3350*
1,1,0.1300,0.0650,-0.3350*
1,1,0.1300,-0.0650,-0.3350*
%
%ADD145ROUNDEDRECTD145*%
%ADD146R,2.4500X2.4500*%
%ADD147R,0.8000X0.5000*%
G04:AMPARAMS|DCode=148|XSize=1.45mm|YSize=0.59mm|CornerRadius=0.0738mm|HoleSize=0mm|Usage=FLASHONLY|Rotation=90.000|XOffset=0mm|YOffset=0mm|HoleType=Round|Shape=RoundedRectangle|*
%AMROUNDEDRECTD148*
21,1,1.4500,0.4425,0,0,90.0*
21,1,1.3025,0.5900,0,0,90.0*
1,1,0.1475,0.2213,0.6513*
1,1,0.1475,0.2213,-0.6513*
1,1,0.1475,-0.2213,-0.6513*
1,1,0.1475,-0.2213,0.6513*
%
%ADD148ROUNDEDRECTD148*%
G04:AMPARAMS|DCode=149|XSize=1.64mm|YSize=0.59mm|CornerRadius=0.1475mm|HoleSize=0mm|Usage=FLASHONLY|Rotation=270.000|XOffset=0mm|YOffset=0mm|HoleType=Round|Shape=RoundedRectangle|*
%AMROUNDEDRECTD149*
21,1,1.6400,0.2950,0,0,270.0*
21,1,1.3450,0.5900,0,0,270.0*
1,1,0.2950,-0.1475,-0.6725*
1,1,0.2950,-0.1475,0.6725*
1,1,0.2950,0.1475,0.6725*
1,1,0.2950,0.1475,-0.6725*
%
%ADD149ROUNDEDRECTD149*%
G04:AMPARAMS|DCode=150|XSize=1.9539mm|YSize=0.5821mm|CornerRadius=0.1455mm|HoleSize=0mm|Usage=FLASHONLY|Rotation=180.000|XOffset=0mm|YOffset=0mm|HoleType=Round|Shape=RoundedRectangle|*
%AMROUNDEDRECTD150*
21,1,1.9539,0.2911,0,0,180.0*
21,1,1.6629,0.5821,0,0,180.0*
1,1,0.2911,-0.8314,0.1455*
1,1,0.2911,0.8314,0.1455*
1,1,0.2911,0.8314,-0.1455*
1,1,0.2911,-0.8314,-0.1455*
%
%ADD150ROUNDEDRECTD150*%
G04:AMPARAMS|DCode=151|XSize=1.9539mm|YSize=0.5821mm|CornerRadius=0.1455mm|HoleSize=0mm|Usage=FLASHONLY|Rotation=270.000|XOffset=0mm|YOffset=0mm|HoleType=Round|Shape=RoundedRectangle|*
%AMROUNDEDRECTD151*
21,1,1.9539,0.2911,0,0,270.0*
21,1,1.6629,0.5821,0,0,270.0*
1,1,0.2911,-0.1455,-0.8314*
1,1,0.2911,-0.1455,0.8314*
1,1,0.2911,0.1455,0.8314*
1,1,0.2911,0.1455,-0.8314*
%
%ADD151ROUNDEDRECTD151*%
G04:AMPARAMS|DCode=152|XSize=1.95mm|YSize=0.65mm|CornerRadius=0.1625mm|HoleSize=0mm|Usage=FLASHONLY|Rotation=270.000|XOffset=0mm|YOffset=0mm|HoleType=Round|Shape=RoundedRectangle|*
%AMROUNDEDRECTD152*
21,1,1.9500,0.3250,0,0,270.0*
21,1,1.6250,0.6500,0,0,270.0*
1,1,0.3250,-0.1625,-0.8125*
1,1,0.3250,-0.1625,0.8125*
1,1,0.3250,0.1625,0.8125*
1,1,0.3250,0.1625,-0.8125*
%
%ADD152ROUNDEDRECTD152*%
G04:AMPARAMS|DCode=153|XSize=1.6002mm|YSize=0.3556mm|CornerRadius=0.0889mm|HoleSize=0mm|Usage=FLASHONLY|Rotation=90.000|XOffset=0mm|YOffset=0mm|HoleType=Round|Shape=RoundedRectangle|*
%AMROUNDEDRECTD153*
21,1,1.6002,0.1778,0,0,90.0*
21,1,1.4224,0.3556,0,0,90.0*
1,1,0.1778,0.0889,0.7112*
1,1,0.1778,0.0889,-0.7112*
1,1,0.1778,-0.0889,-0.7112*
1,1,0.1778,-0.0889,0.7112*
%
%ADD153ROUNDEDRECTD153*%
G04:AMPARAMS|DCode=154|XSize=0.35mm|YSize=1.35mm|CornerRadius=0.0875mm|HoleSize=0mm|Usage=FLASHONLY|Rotation=0.000|XOffset=0mm|YOffset=0mm|HoleType=Round|Shape=RoundedRectangle|*
%AMROUNDEDRECTD154*
21,1,0.3500,1.1750,0,0,0.0*
21,1,0.1750,1.3500,0,0,0.0*
1,1,0.1750,0.0875,-0.5875*
1,1,0.1750,-0.0875,-0.5875*
1,1,0.1750,-0.0875,0.5875*
1,1,0.1750,0.0875,0.5875*
%
%ADD154ROUNDEDRECTD154*%
G04:AMPARAMS|DCode=155|XSize=1.35mm|YSize=0.35mm|CornerRadius=0.0875mm|HoleSize=0mm|Usage=FLASHONLY|Rotation=0.000|XOffset=0mm|YOffset=0mm|HoleType=Round|Shape=RoundedRectangle|*
%AMROUNDEDRECTD155*
21,1,1.3500,0.1750,0,0,0.0*
21,1,1.1750,0.3500,0,0,0.0*
1,1,0.1750,0.5875,-0.0875*
1,1,0.1750,-0.5875,-0.0875*
1,1,0.1750,-0.5875,0.0875*
1,1,0.1750,0.5875,0.0875*
%
%ADD155ROUNDEDRECTD155*%
%ADD156R,1.1000X1.3000*%
G04:AMPARAMS|DCode=157|XSize=1.1mm|YSize=1.3mm|CornerRadius=0.25mm|HoleSize=0mm|Usage=FLASHONLY|Rotation=270.000|XOffset=0mm|YOffset=0mm|HoleType=Round|Shape=RoundedRectangle|*
%AMROUNDEDRECTD157*
21,1,1.1000,0.8000,0,0,270.0*
21,1,0.6000,1.3000,0,0,270.0*
1,1,0.5000,-0.4000,-0.3000*
1,1,0.5000,-0.4000,0.3000*
1,1,0.5000,0.4000,0.3000*
1,1,0.5000,0.4000,-0.3000*
%
%ADD157ROUNDEDRECTD157*%
%ADD158R,3.0000X2.1000*%
%ADD159R,1.6000X0.8000*%
G04:AMPARAMS|DCode=160|XSize=1.32mm|YSize=0.6mm|CornerRadius=0.075mm|HoleSize=0mm|Usage=FLASHONLY|Rotation=270.000|XOffset=0mm|YOffset=0mm|HoleType=Round|Shape=RoundedRectangle|*
%AMROUNDEDRECTD160*
21,1,1.3200,0.4500,0,0,270.0*
21,1,1.1700,0.6000,0,0,270.0*
1,1,0.1500,-0.2250,-0.5850*
1,1,0.1500,-0.2250,0.5850*
1,1,0.1500,0.2250,0.5850*
1,1,0.1500,0.2250,-0.5850*
%
%ADD160ROUNDEDRECTD160*%
D22*
X278000Y438000D02*
D03*
Y460000D02*
D03*
X295500D02*
D03*
Y438000D02*
D03*
D23*
X171350Y566050D02*
D03*
Y553350D02*
D03*
Y540650D02*
D03*
Y527950D02*
D03*
X118650D02*
D03*
Y540650D02*
D03*
Y553350D02*
D03*
Y566050D02*
D03*
X118650Y469950D02*
D03*
Y482650D02*
D03*
Y495350D02*
D03*
Y508050D02*
D03*
X171350D02*
D03*
Y495350D02*
D03*
Y482650D02*
D03*
Y469950D02*
D03*
X66650Y680950D02*
D03*
Y693650D02*
D03*
Y706350D02*
D03*
Y719050D02*
D03*
X119350D02*
D03*
Y706350D02*
D03*
Y693650D02*
D03*
Y680950D02*
D03*
X298650Y727950D02*
D03*
Y740650D02*
D03*
Y753350D02*
D03*
Y766050D02*
D03*
X351350D02*
D03*
Y753350D02*
D03*
Y740650D02*
D03*
Y727950D02*
D03*
X184650Y677950D02*
D03*
Y690650D02*
D03*
Y703350D02*
D03*
Y716050D02*
D03*
X237350D02*
D03*
Y703350D02*
D03*
Y690650D02*
D03*
Y677950D02*
D03*
X298650Y670950D02*
D03*
Y683650D02*
D03*
Y696350D02*
D03*
Y709050D02*
D03*
X351350D02*
D03*
Y696350D02*
D03*
Y683650D02*
D03*
Y670950D02*
D03*
D24*
X127000Y584000D02*
D03*
X111500D02*
D03*
X603250Y519000D02*
D03*
X618750D02*
D03*
X687750Y462000D02*
D03*
X672250D02*
D03*
X814750Y460000D02*
D03*
X799250D02*
D03*
X443250Y670000D02*
D03*
X458750D02*
D03*
X80250Y736000D02*
D03*
X95750D02*
D03*
X141750Y779000D02*
D03*
X126250D02*
D03*
X141750Y751000D02*
D03*
X126250D02*
D03*
X141750Y765000D02*
D03*
X126250D02*
D03*
X93250Y801500D02*
D03*
X108750D02*
D03*
X451250Y205000D02*
D03*
X466750D02*
D03*
X451250Y191000D02*
D03*
X466750D02*
D03*
X161000Y584000D02*
D03*
X176500D02*
D03*
X162250Y454000D02*
D03*
X177750D02*
D03*
X112250D02*
D03*
X127750D02*
D03*
X666250Y704000D02*
D03*
X681750D02*
D03*
X666250Y690000D02*
D03*
X681750D02*
D03*
X228750Y230000D02*
D03*
X213250D02*
D03*
X225750Y139000D02*
D03*
X210250D02*
D03*
X228750Y246000D02*
D03*
X213250D02*
D03*
X225750Y124000D02*
D03*
X210250D02*
D03*
X403750Y222000D02*
D03*
X388250D02*
D03*
X403750Y131000D02*
D03*
X388250D02*
D03*
X403750Y236000D02*
D03*
X388250D02*
D03*
X403750Y117000D02*
D03*
X388250D02*
D03*
X551250Y280000D02*
D03*
X566750D02*
D03*
X274250Y127000D02*
D03*
X289750D02*
D03*
X317750D02*
D03*
X302250D02*
D03*
D33*
X76000Y344750D02*
D03*
Y329250D02*
D03*
X311000Y454750D02*
D03*
Y439250D02*
D03*
X262750Y437250D02*
D03*
Y452750D02*
D03*
X76000Y109250D02*
D03*
Y124750D02*
D03*
X76000Y406750D02*
D03*
Y391250D02*
D03*
X167000Y290750D02*
D03*
Y275250D02*
D03*
X76000Y180750D02*
D03*
Y165250D02*
D03*
Y213750D02*
D03*
Y198250D02*
D03*
X236000Y348750D02*
D03*
Y333250D02*
D03*
X76000Y312750D02*
D03*
Y297250D02*
D03*
X167000Y322750D02*
D03*
Y307250D02*
D03*
X76000Y231250D02*
D03*
Y246750D02*
D03*
Y264250D02*
D03*
Y279750D02*
D03*
X297000Y557750D02*
D03*
Y542250D02*
D03*
X662000Y524750D02*
D03*
Y509250D02*
D03*
X787000Y527750D02*
D03*
Y512250D02*
D03*
X222000Y333250D02*
D03*
Y348750D02*
D03*
X484000Y210250D02*
D03*
Y225750D02*
D03*
Y238250D02*
D03*
Y253750D02*
D03*
X738990Y722745D02*
D03*
Y738244D02*
D03*
X691000Y771750D02*
D03*
Y756250D02*
D03*
X698990Y651245D02*
D03*
Y635745D02*
D03*
X683990Y651245D02*
D03*
Y635745D02*
D03*
X842000Y122750D02*
D03*
Y107250D02*
D03*
X696000Y120750D02*
D03*
Y105250D02*
D03*
X682000D02*
D03*
Y120750D02*
D03*
X575000Y117500D02*
D03*
Y133000D02*
D03*
X589000D02*
D03*
Y117500D02*
D03*
X304000Y280750D02*
D03*
Y265250D02*
D03*
X265000Y281750D02*
D03*
Y266250D02*
D03*
X290000Y265250D02*
D03*
Y280750D02*
D03*
X46000Y571750D02*
D03*
Y556250D02*
D03*
X278000Y778750D02*
D03*
Y763250D02*
D03*
X262000Y778750D02*
D03*
Y763250D02*
D03*
X357000Y354750D02*
D03*
Y339250D02*
D03*
X388796Y349750D02*
D03*
Y334250D02*
D03*
D34*
X138250Y303000D02*
D03*
X127750D02*
D03*
X138250Y312000D02*
D03*
X127750D02*
D03*
X138250Y321000D02*
D03*
X127750D02*
D03*
X138250Y255000D02*
D03*
X127750D02*
D03*
X138250Y264000D02*
D03*
X127750D02*
D03*
X138250Y273000D02*
D03*
X127750D02*
D03*
X118250Y303000D02*
D03*
X107750D02*
D03*
X118250Y312000D02*
D03*
X107750D02*
D03*
X118250Y321000D02*
D03*
X107750D02*
D03*
X118250Y255000D02*
D03*
X107750D02*
D03*
X118250Y264000D02*
D03*
X107750D02*
D03*
X118250Y273000D02*
D03*
X107750D02*
D03*
X760500Y786000D02*
D03*
X750000D02*
D03*
Y777000D02*
D03*
X760500D02*
D03*
X604250Y416000D02*
D03*
X593750D02*
D03*
X612046Y484000D02*
D03*
X601546D02*
D03*
X328750Y428000D02*
D03*
X339250D02*
D03*
X624250Y416000D02*
D03*
X613750D02*
D03*
X632046Y484000D02*
D03*
X621546D02*
D03*
X308750Y428000D02*
D03*
X319250D02*
D03*
X328750Y540000D02*
D03*
X339250D02*
D03*
X328750Y549000D02*
D03*
X339250D02*
D03*
X515250Y610000D02*
D03*
X504750D02*
D03*
X612046Y537000D02*
D03*
X601546D02*
D03*
X604296Y403000D02*
D03*
X593796D02*
D03*
X328750Y419000D02*
D03*
X339250D02*
D03*
X328750Y455000D02*
D03*
X339250D02*
D03*
X328750Y479000D02*
D03*
X339250D02*
D03*
X612296Y474000D02*
D03*
X601796D02*
D03*
X308750Y540000D02*
D03*
X319250D02*
D03*
X308750Y549000D02*
D03*
X319250D02*
D03*
X504750Y619000D02*
D03*
X515250D02*
D03*
X632046Y537000D02*
D03*
X621546D02*
D03*
X624296Y403000D02*
D03*
X613796D02*
D03*
X308750Y419000D02*
D03*
X319250D02*
D03*
X339250Y446000D02*
D03*
X328750D02*
D03*
X339250Y470000D02*
D03*
X328750D02*
D03*
X632296Y474000D02*
D03*
X621796D02*
D03*
X287500Y423000D02*
D03*
X298000D02*
D03*
X266500D02*
D03*
X277000D02*
D03*
X261500Y573000D02*
D03*
X251000D02*
D03*
X726490Y679494D02*
D03*
X736990D02*
D03*
X726490Y688494D02*
D03*
X736990D02*
D03*
X721250Y144000D02*
D03*
X710750D02*
D03*
X827250D02*
D03*
X816750D02*
D03*
X531750Y146000D02*
D03*
X542250D02*
D03*
Y155000D02*
D03*
X531750D02*
D03*
X40000Y663000D02*
D03*
X50500D02*
D03*
Y672000D02*
D03*
X40000D02*
D03*
X84750Y569000D02*
D03*
X95250D02*
D03*
X134750Y679000D02*
D03*
X145250D02*
D03*
X145250Y688000D02*
D03*
X134750D02*
D03*
X40750Y681000D02*
D03*
X51250D02*
D03*
Y690000D02*
D03*
X40750D02*
D03*
X379250Y671000D02*
D03*
X368750D02*
D03*
X271750Y671000D02*
D03*
X282250D02*
D03*
X368750Y680000D02*
D03*
X379250D02*
D03*
X282250D02*
D03*
X271750D02*
D03*
X270750Y727000D02*
D03*
X281250D02*
D03*
X379250Y727000D02*
D03*
X368750D02*
D03*
X281250Y736000D02*
D03*
X270750D02*
D03*
X368750Y736000D02*
D03*
X379250D02*
D03*
X726740Y699494D02*
D03*
X737240D02*
D03*
X738750Y487000D02*
D03*
X749250D02*
D03*
Y478000D02*
D03*
X738750D02*
D03*
X864750Y491000D02*
D03*
X875250D02*
D03*
Y482000D02*
D03*
X864750D02*
D03*
X521750Y669797D02*
D03*
X532250D02*
D03*
X501750D02*
D03*
X512250D02*
D03*
X124750Y791000D02*
D03*
X135250D02*
D03*
Y800500D02*
D03*
X124750D02*
D03*
X150250Y448000D02*
D03*
X139750D02*
D03*
Y457000D02*
D03*
X150250D02*
D03*
X149250Y581000D02*
D03*
X138750D02*
D03*
X149250Y591000D02*
D03*
X138750D02*
D03*
X728750Y760000D02*
D03*
X739250D02*
D03*
X688250Y725000D02*
D03*
X677750D02*
D03*
X688250Y716000D02*
D03*
X677750D02*
D03*
X736750Y712000D02*
D03*
X747250D02*
D03*
X746490Y679494D02*
D03*
X756990D02*
D03*
X746490Y688494D02*
D03*
X756990D02*
D03*
X708250Y725000D02*
D03*
X697750D02*
D03*
X708250Y716000D02*
D03*
X697750D02*
D03*
D35*
X726990Y728995D02*
D03*
Y739494D02*
D03*
X285000Y551250D02*
D03*
Y540750D02*
D03*
X692990Y698995D02*
D03*
Y688494D02*
D03*
X400796Y340500D02*
D03*
Y351000D02*
D03*
X532796Y620250D02*
D03*
Y609750D02*
D03*
X563796Y620564D02*
D03*
Y610064D02*
D03*
X400796Y320750D02*
D03*
Y331250D02*
D03*
X532796Y640250D02*
D03*
Y629750D02*
D03*
X563796Y640564D02*
D03*
Y630064D02*
D03*
X407796Y620564D02*
D03*
Y610064D02*
D03*
X510000Y341750D02*
D03*
Y352250D02*
D03*
X458796Y341750D02*
D03*
Y352250D02*
D03*
X376796Y340750D02*
D03*
Y351250D02*
D03*
X407796Y640564D02*
D03*
Y630064D02*
D03*
X510000Y321750D02*
D03*
Y332250D02*
D03*
X467000Y352250D02*
D03*
Y341750D02*
D03*
X377000Y320750D02*
D03*
Y331250D02*
D03*
X233000Y541750D02*
D03*
Y552250D02*
D03*
X182000Y240250D02*
D03*
Y229750D02*
D03*
X188000Y129750D02*
D03*
Y140250D02*
D03*
X191000Y229750D02*
D03*
Y240250D02*
D03*
X179000Y140250D02*
D03*
Y129750D02*
D03*
X359000Y231000D02*
D03*
Y220500D02*
D03*
X361000Y122750D02*
D03*
Y133250D02*
D03*
X368000Y220500D02*
D03*
Y231000D02*
D03*
X370000Y133250D02*
D03*
Y122750D02*
D03*
X699000Y132750D02*
D03*
Y143250D02*
D03*
X839000Y133750D02*
D03*
Y144250D02*
D03*
X543000Y266250D02*
D03*
Y255750D02*
D03*
X534000Y255750D02*
D03*
Y266250D02*
D03*
X253000Y131250D02*
D03*
Y120750D02*
D03*
X244000Y275250D02*
D03*
Y264750D02*
D03*
X262000Y120750D02*
D03*
Y131250D02*
D03*
X253000Y264750D02*
D03*
Y275250D02*
D03*
X95000Y578750D02*
D03*
Y589250D02*
D03*
X180000Y653750D02*
D03*
Y664250D02*
D03*
X235000Y653750D02*
D03*
Y664250D02*
D03*
X189000Y664250D02*
D03*
Y653750D02*
D03*
X244000Y664250D02*
D03*
Y653750D02*
D03*
X285000Y571250D02*
D03*
Y560750D02*
D03*
X879000Y794000D02*
D03*
Y804500D02*
D03*
Y774000D02*
D03*
Y784500D02*
D03*
X467796Y858250D02*
D03*
Y847750D02*
D03*
X476796Y858250D02*
D03*
Y847750D02*
D03*
X485796Y858250D02*
D03*
Y847750D02*
D03*
X494796Y858250D02*
D03*
Y847750D02*
D03*
X522796Y858250D02*
D03*
Y847750D02*
D03*
X531796Y858250D02*
D03*
Y847750D02*
D03*
X540796Y858250D02*
D03*
Y847750D02*
D03*
X549796Y858250D02*
D03*
Y847750D02*
D03*
X467796Y878250D02*
D03*
Y867750D02*
D03*
X476796Y878250D02*
D03*
Y867750D02*
D03*
X485796Y878250D02*
D03*
Y867750D02*
D03*
X494796Y878250D02*
D03*
Y867750D02*
D03*
X522796Y878250D02*
D03*
Y867750D02*
D03*
X531796Y878250D02*
D03*
Y867750D02*
D03*
X540796Y878250D02*
D03*
Y867750D02*
D03*
X549796Y878250D02*
D03*
Y867750D02*
D03*
X487000Y199250D02*
D03*
Y188750D02*
D03*
X478000D02*
D03*
Y199250D02*
D03*
X703480Y750994D02*
D03*
Y761495D02*
D03*
Y770994D02*
D03*
Y781495D02*
D03*
X726990Y708995D02*
D03*
Y719494D02*
D03*
X717990Y728995D02*
D03*
Y739494D02*
D03*
X716990Y678995D02*
D03*
Y668494D02*
D03*
X692990Y678995D02*
D03*
Y668494D02*
D03*
X717990Y708995D02*
D03*
Y719494D02*
D03*
X716990Y698995D02*
D03*
Y688494D02*
D03*
D50*
X875000Y826750D02*
D03*
Y843250D02*
D03*
D51*
X715480Y780495D02*
D03*
Y763494D02*
D03*
X551796Y612814D02*
D03*
Y629814D02*
D03*
X455000Y852500D02*
D03*
Y869500D02*
D03*
X511000D02*
D03*
Y852500D02*
D03*
X704990Y687995D02*
D03*
Y670994D02*
D03*
D103*
X839965Y833036D02*
D03*
X807635D02*
D03*
Y865365D02*
D03*
X839965D02*
D03*
X846660Y849200D02*
D03*
X823800Y826340D02*
D03*
X800940Y849200D02*
D03*
X823800Y872060D02*
D03*
X105064Y833036D02*
D03*
X72736D02*
D03*
Y865365D02*
D03*
X105064D02*
D03*
X111760Y849200D02*
D03*
X88900Y826340D02*
D03*
X66040Y849200D02*
D03*
X88900Y872060D02*
D03*
X867065Y34636D02*
D03*
X834735D02*
D03*
Y66965D02*
D03*
X867065D02*
D03*
X873760Y50800D02*
D03*
X850900Y27940D02*
D03*
X828040Y50800D02*
D03*
X850900Y73660D02*
D03*
X66965Y34636D02*
D03*
X34636D02*
D03*
Y66965D02*
D03*
X66965D02*
D03*
X73660Y50800D02*
D03*
X50800Y27940D02*
D03*
X27940Y50800D02*
D03*
X50800Y73660D02*
D03*
D105*
X888022Y891004D02*
D03*
X877002Y891001D02*
D03*
X865982D02*
D03*
X854962D02*
D03*
X843942D02*
D03*
X832922D02*
D03*
X821902D02*
D03*
X810882D02*
D03*
X799862D02*
D03*
X788842D02*
D03*
X777822D02*
D03*
X766802D02*
D03*
X755782D02*
D03*
X744762D02*
D03*
X733742D02*
D03*
X722722D02*
D03*
X711702D02*
D03*
X700682D02*
D03*
X689662D02*
D03*
X678642D02*
D03*
X667622D02*
D03*
X656602D02*
D03*
X645582D02*
D03*
X634562D02*
D03*
X623542D02*
D03*
X612522D02*
D03*
X601502D02*
D03*
X590482D02*
D03*
X579462D02*
D03*
X568442D02*
D03*
X557422D02*
D03*
X546402D02*
D03*
X535382D02*
D03*
X524362D02*
D03*
X513342D02*
D03*
X502322D02*
D03*
X491302D02*
D03*
X480282D02*
D03*
X469262D02*
D03*
X458242D02*
D03*
X447222D02*
D03*
X436202D02*
D03*
X425182D02*
D03*
X414162D02*
D03*
X403142D02*
D03*
X392122D02*
D03*
X381102D02*
D03*
X370082D02*
D03*
X359062D02*
D03*
X348042D02*
D03*
X337022D02*
D03*
X326002D02*
D03*
X314982D02*
D03*
X303962D02*
D03*
X292942D02*
D03*
X281922D02*
D03*
X270902D02*
D03*
X259882D02*
D03*
X248862D02*
D03*
X237842D02*
D03*
X226822D02*
D03*
X215802D02*
D03*
X204782D02*
D03*
X193762D02*
D03*
X182742D02*
D03*
X171722D02*
D03*
X160702D02*
D03*
X149682D02*
D03*
X138662D02*
D03*
X127642D02*
D03*
X116622D02*
D03*
X105602D02*
D03*
X94582D02*
D03*
X83562D02*
D03*
X72542D02*
D03*
X61522D02*
D03*
X50502D02*
D03*
X39482D02*
D03*
X28462D02*
D03*
X17442D02*
D03*
X8999Y883919D02*
D03*
Y872899D02*
D03*
Y861879D02*
D03*
Y850859D02*
D03*
Y839839D02*
D03*
Y828819D02*
D03*
Y817799D02*
D03*
Y806779D02*
D03*
Y795759D02*
D03*
Y784739D02*
D03*
Y773719D02*
D03*
Y762699D02*
D03*
Y751679D02*
D03*
Y740659D02*
D03*
Y729639D02*
D03*
Y718619D02*
D03*
Y707599D02*
D03*
Y696579D02*
D03*
Y685559D02*
D03*
Y674539D02*
D03*
Y663519D02*
D03*
Y652499D02*
D03*
Y641479D02*
D03*
Y630459D02*
D03*
Y619439D02*
D03*
Y608419D02*
D03*
Y597399D02*
D03*
Y586379D02*
D03*
Y575359D02*
D03*
Y564339D02*
D03*
Y553319D02*
D03*
Y542299D02*
D03*
Y531279D02*
D03*
Y520259D02*
D03*
Y509239D02*
D03*
Y498219D02*
D03*
Y487199D02*
D03*
Y476179D02*
D03*
Y465159D02*
D03*
Y454139D02*
D03*
Y443119D02*
D03*
Y432099D02*
D03*
Y421079D02*
D03*
Y410059D02*
D03*
Y399039D02*
D03*
Y388019D02*
D03*
Y376999D02*
D03*
Y365979D02*
D03*
Y354959D02*
D03*
Y343939D02*
D03*
Y332919D02*
D03*
Y321899D02*
D03*
Y310879D02*
D03*
Y299859D02*
D03*
Y288839D02*
D03*
Y277819D02*
D03*
Y266800D02*
D03*
Y255779D02*
D03*
Y244760D02*
D03*
Y233739D02*
D03*
Y222719D02*
D03*
Y211700D02*
D03*
Y200679D02*
D03*
Y189660D02*
D03*
Y178640D02*
D03*
Y167619D02*
D03*
Y156600D02*
D03*
Y145580D02*
D03*
Y134559D02*
D03*
Y123540D02*
D03*
Y112520D02*
D03*
Y101500D02*
D03*
Y90480D02*
D03*
Y79460D02*
D03*
Y68440D02*
D03*
Y57420D02*
D03*
Y46400D02*
D03*
Y35380D02*
D03*
Y24360D02*
D03*
Y13340D02*
D03*
X19128Y8999D02*
D03*
X30148D02*
D03*
X41168D02*
D03*
X52188D02*
D03*
X63208D02*
D03*
X74228D02*
D03*
X85248D02*
D03*
X96268D02*
D03*
X107288D02*
D03*
X118308D02*
D03*
X129328D02*
D03*
X140348D02*
D03*
X151368D02*
D03*
X162388D02*
D03*
X173408D02*
D03*
X184428D02*
D03*
X195448D02*
D03*
X206468D02*
D03*
X217488D02*
D03*
X228508D02*
D03*
X239528D02*
D03*
X250548D02*
D03*
X261568D02*
D03*
X272588D02*
D03*
X283608D02*
D03*
X294628D02*
D03*
X305648D02*
D03*
X316668D02*
D03*
X327688D02*
D03*
X338708D02*
D03*
X349728D02*
D03*
X360748D02*
D03*
X371768D02*
D03*
X382788D02*
D03*
X393808D02*
D03*
X404828D02*
D03*
X415848D02*
D03*
X426868D02*
D03*
X437888D02*
D03*
X448908D02*
D03*
X459928D02*
D03*
X470948D02*
D03*
X481968D02*
D03*
X492988D02*
D03*
X504008D02*
D03*
X515028D02*
D03*
X526048D02*
D03*
X537068D02*
D03*
X548088D02*
D03*
X559108D02*
D03*
X570128D02*
D03*
X581148D02*
D03*
X592168D02*
D03*
X603188D02*
D03*
X614208D02*
D03*
X625228D02*
D03*
X636248D02*
D03*
X647268D02*
D03*
X658288D02*
D03*
X669308D02*
D03*
X680328D02*
D03*
X691348D02*
D03*
X702368D02*
D03*
X713388D02*
D03*
X724408D02*
D03*
X735428D02*
D03*
X746448D02*
D03*
X757468D02*
D03*
X768488D02*
D03*
X779508D02*
D03*
X790528D02*
D03*
X801548D02*
D03*
X812568D02*
D03*
X823588D02*
D03*
X834608D02*
D03*
X845628D02*
D03*
X856648D02*
D03*
X867668D02*
D03*
X878688D02*
D03*
X889695Y9522D02*
D03*
X891001Y20464D02*
D03*
Y31484D02*
D03*
Y42504D02*
D03*
Y53524D02*
D03*
Y64544D02*
D03*
Y75564D02*
D03*
Y86584D02*
D03*
Y97604D02*
D03*
Y108624D02*
D03*
Y119644D02*
D03*
Y130664D02*
D03*
Y141684D02*
D03*
Y152704D02*
D03*
Y163724D02*
D03*
Y174744D02*
D03*
Y185764D02*
D03*
Y196784D02*
D03*
Y207804D02*
D03*
Y218824D02*
D03*
Y229844D02*
D03*
Y240864D02*
D03*
Y251884D02*
D03*
Y262904D02*
D03*
Y273924D02*
D03*
Y284944D02*
D03*
Y295964D02*
D03*
Y306984D02*
D03*
Y318004D02*
D03*
Y329024D02*
D03*
Y340044D02*
D03*
Y351064D02*
D03*
Y362084D02*
D03*
Y373104D02*
D03*
Y384124D02*
D03*
Y395144D02*
D03*
Y406164D02*
D03*
Y417184D02*
D03*
Y428204D02*
D03*
Y439224D02*
D03*
Y450244D02*
D03*
Y461264D02*
D03*
Y472284D02*
D03*
Y483304D02*
D03*
Y494324D02*
D03*
Y505344D02*
D03*
Y516364D02*
D03*
Y527384D02*
D03*
Y538404D02*
D03*
Y549424D02*
D03*
Y560444D02*
D03*
Y571464D02*
D03*
Y582484D02*
D03*
Y593504D02*
D03*
Y604524D02*
D03*
Y615544D02*
D03*
Y626564D02*
D03*
Y637584D02*
D03*
Y648604D02*
D03*
Y659624D02*
D03*
Y670644D02*
D03*
Y681664D02*
D03*
Y692684D02*
D03*
Y703704D02*
D03*
Y714724D02*
D03*
Y725743D02*
D03*
Y736764D02*
D03*
Y747784D02*
D03*
Y758803D02*
D03*
Y769824D02*
D03*
Y780844D02*
D03*
Y791863D02*
D03*
Y802884D02*
D03*
Y813904D02*
D03*
Y824923D02*
D03*
Y835944D02*
D03*
Y846964D02*
D03*
Y857983D02*
D03*
Y869003D02*
D03*
Y880023D02*
D03*
D119*
X135000Y825000D02*
D03*
X142000Y33000D02*
D03*
X873000Y872000D02*
D03*
D124*
X110000Y50000D02*
D03*
D125*
X27400Y469900D02*
D03*
Y419100D02*
D03*
X52800Y368300D02*
D03*
Y317500D02*
D03*
Y469900D02*
D03*
Y419100D02*
D03*
X30000Y841000D02*
D03*
X27400Y317500D02*
D03*
Y342900D02*
D03*
Y368300D02*
D03*
X653000Y99000D02*
D03*
X872000Y191400D02*
D03*
Y166000D02*
D03*
Y140600D02*
D03*
Y300800D02*
D03*
Y275400D02*
D03*
Y250000D02*
D03*
Y409800D02*
D03*
Y384400D02*
D03*
Y359000D02*
D03*
X52800Y215900D02*
D03*
Y190500D02*
D03*
Y165100D02*
D03*
Y241300D02*
D03*
Y266700D02*
D03*
Y292100D02*
D03*
X27400Y139700D02*
D03*
Y165100D02*
D03*
Y190500D02*
D03*
Y266700D02*
D03*
Y241300D02*
D03*
Y215900D02*
D03*
Y114300D02*
D03*
D126*
Y495300D02*
D03*
Y444500D02*
D03*
X52800Y393700D02*
D03*
Y342900D02*
D03*
Y495300D02*
D03*
Y444500D02*
D03*
X30000Y866400D02*
D03*
X27400Y393700D02*
D03*
X872000Y440000D02*
D03*
Y115200D02*
D03*
Y224600D02*
D03*
Y333600D02*
D03*
X52800Y139700D02*
D03*
X27400Y292100D02*
D03*
X249000Y874000D02*
D03*
D127*
X627600Y99000D02*
D03*
X871000Y642000D02*
D03*
D128*
X685000Y50000D02*
D03*
X215000D02*
D03*
D129*
X650000Y60000D02*
D03*
D130*
Y40000D02*
D03*
X630000Y60000D02*
D03*
Y40000D02*
D03*
X610000Y60000D02*
D03*
Y40000D02*
D03*
X590000Y60000D02*
D03*
Y40000D02*
D03*
X570000Y60000D02*
D03*
Y40000D02*
D03*
X550000Y60000D02*
D03*
Y40000D02*
D03*
X530000Y60000D02*
D03*
Y40000D02*
D03*
X510000Y60000D02*
D03*
Y40000D02*
D03*
X490000Y60000D02*
D03*
Y40000D02*
D03*
X470000Y60000D02*
D03*
Y40000D02*
D03*
X450000Y60000D02*
D03*
Y40000D02*
D03*
X430000Y60000D02*
D03*
Y40000D02*
D03*
X410000Y60000D02*
D03*
Y40000D02*
D03*
X390000Y60000D02*
D03*
Y40000D02*
D03*
X370000Y60000D02*
D03*
Y40000D02*
D03*
X350000Y60000D02*
D03*
Y40000D02*
D03*
X330000Y60000D02*
D03*
Y40000D02*
D03*
X310000Y60000D02*
D03*
Y40000D02*
D03*
X290000Y60000D02*
D03*
Y40000D02*
D03*
X270000Y60000D02*
D03*
Y40000D02*
D03*
X250000Y60000D02*
D03*
Y40000D02*
D03*
D131*
X550000Y550000D02*
D03*
D132*
X750000D02*
D03*
X752200Y858700D02*
D03*
X726800Y833300D02*
D03*
Y858700D02*
D03*
X701400Y833300D02*
D03*
Y858700D02*
D03*
X676000Y833300D02*
D03*
Y858700D02*
D03*
X650600Y833300D02*
D03*
Y858700D02*
D03*
X625200Y833300D02*
D03*
Y858700D02*
D03*
X599800Y833300D02*
D03*
Y858700D02*
D03*
D135*
X752200Y833300D02*
D03*
D136*
X823800Y849200D02*
D03*
X88900D02*
D03*
X850900Y50800D02*
D03*
X50800D02*
D03*
D140*
X680500Y737000D02*
D03*
X697500D02*
D03*
X621296Y496000D02*
D03*
X604296D02*
D03*
X511500Y657796D02*
D03*
X528500D02*
D03*
D141*
X829000Y698500D02*
D03*
D142*
X854400Y793000D02*
D03*
X829000D02*
D03*
X803600D02*
D03*
D143*
X745000Y250000D02*
D03*
X755000D02*
D03*
X825000D02*
D03*
X835000D02*
D03*
X745000Y260000D02*
D03*
X835000D02*
D03*
X755000Y280000D02*
D03*
X765000D02*
D03*
X775000D02*
D03*
X785000D02*
D03*
X795000D02*
D03*
X805000D02*
D03*
X815000D02*
D03*
X825000D02*
D03*
X755000Y290000D02*
D03*
X765000D02*
D03*
X775000D02*
D03*
X785000D02*
D03*
X795000D02*
D03*
X805000D02*
D03*
X815000D02*
D03*
X825000D02*
D03*
X755000Y300000D02*
D03*
X765000D02*
D03*
X775000D02*
D03*
X785000D02*
D03*
X795000D02*
D03*
X805000D02*
D03*
X815000D02*
D03*
X825000D02*
D03*
X755000Y310000D02*
D03*
X765000D02*
D03*
X775000D02*
D03*
X785000D02*
D03*
X795000D02*
D03*
X805000D02*
D03*
X815000D02*
D03*
X825000D02*
D03*
X755000Y320000D02*
D03*
X765000D02*
D03*
X775000D02*
D03*
X785000D02*
D03*
X795000D02*
D03*
X805000D02*
D03*
X815000D02*
D03*
X825000D02*
D03*
X755000Y330000D02*
D03*
X765000D02*
D03*
X775000D02*
D03*
X785000D02*
D03*
X795000D02*
D03*
X805000D02*
D03*
X815000D02*
D03*
X825000D02*
D03*
X755000Y340000D02*
D03*
X765000D02*
D03*
X775000D02*
D03*
X785000D02*
D03*
X795000D02*
D03*
X805000D02*
D03*
X815000D02*
D03*
X825000D02*
D03*
X755000Y350000D02*
D03*
X765000D02*
D03*
X775000D02*
D03*
X785000D02*
D03*
X795000D02*
D03*
X805000D02*
D03*
X815000D02*
D03*
X825000D02*
D03*
X755000Y360000D02*
D03*
X765000D02*
D03*
X775000D02*
D03*
X785000D02*
D03*
X795000D02*
D03*
X805000D02*
D03*
X815000D02*
D03*
X825000D02*
D03*
X755000Y370000D02*
D03*
X765000D02*
D03*
X775000D02*
D03*
X785000D02*
D03*
X795000D02*
D03*
X805000D02*
D03*
X815000D02*
D03*
X825000D02*
D03*
X755000Y380000D02*
D03*
X765000D02*
D03*
X775000D02*
D03*
X785000D02*
D03*
X795000D02*
D03*
X805000D02*
D03*
X815000D02*
D03*
X825000D02*
D03*
X745000Y400000D02*
D03*
X835000D02*
D03*
X745000Y410000D02*
D03*
X755000D02*
D03*
X825000D02*
D03*
X835000D02*
D03*
X570000Y715000D02*
D03*
Y725000D02*
D03*
Y795000D02*
D03*
Y805000D02*
D03*
X560000Y715000D02*
D03*
Y805000D02*
D03*
X540000Y725000D02*
D03*
Y735000D02*
D03*
Y745000D02*
D03*
Y755000D02*
D03*
Y765000D02*
D03*
Y775000D02*
D03*
Y785000D02*
D03*
Y795000D02*
D03*
X530000Y725000D02*
D03*
Y735000D02*
D03*
Y745000D02*
D03*
Y755000D02*
D03*
Y765000D02*
D03*
Y775000D02*
D03*
Y785000D02*
D03*
Y795000D02*
D03*
X520000Y725000D02*
D03*
Y735000D02*
D03*
Y745000D02*
D03*
Y755000D02*
D03*
Y765000D02*
D03*
Y775000D02*
D03*
Y785000D02*
D03*
Y795000D02*
D03*
X510000Y725000D02*
D03*
Y735000D02*
D03*
Y745000D02*
D03*
Y755000D02*
D03*
Y765000D02*
D03*
Y775000D02*
D03*
Y785000D02*
D03*
Y795000D02*
D03*
X500000Y725000D02*
D03*
Y735000D02*
D03*
Y745000D02*
D03*
Y755000D02*
D03*
Y765000D02*
D03*
Y775000D02*
D03*
Y785000D02*
D03*
Y795000D02*
D03*
X490000Y725000D02*
D03*
Y735000D02*
D03*
Y745000D02*
D03*
Y755000D02*
D03*
Y765000D02*
D03*
Y775000D02*
D03*
Y785000D02*
D03*
Y795000D02*
D03*
X480000Y725000D02*
D03*
Y735000D02*
D03*
Y745000D02*
D03*
Y755000D02*
D03*
Y765000D02*
D03*
Y775000D02*
D03*
Y785000D02*
D03*
Y795000D02*
D03*
X470000Y725000D02*
D03*
Y735000D02*
D03*
Y745000D02*
D03*
Y755000D02*
D03*
Y765000D02*
D03*
Y775000D02*
D03*
Y785000D02*
D03*
Y795000D02*
D03*
X460000Y725000D02*
D03*
Y735000D02*
D03*
Y745000D02*
D03*
Y755000D02*
D03*
Y765000D02*
D03*
Y775000D02*
D03*
Y785000D02*
D03*
Y795000D02*
D03*
X450000Y725000D02*
D03*
Y735000D02*
D03*
Y745000D02*
D03*
Y755000D02*
D03*
Y765000D02*
D03*
Y775000D02*
D03*
Y785000D02*
D03*
Y795000D02*
D03*
X440000Y725000D02*
D03*
Y735000D02*
D03*
Y745000D02*
D03*
Y755000D02*
D03*
Y765000D02*
D03*
Y775000D02*
D03*
Y785000D02*
D03*
Y795000D02*
D03*
X420000Y715000D02*
D03*
Y805000D02*
D03*
X410000Y715000D02*
D03*
Y725000D02*
D03*
Y795000D02*
D03*
Y805000D02*
D03*
D144*
X719512Y512500D02*
D03*
Y507500D02*
D03*
Y502500D02*
D03*
Y497500D02*
D03*
Y492500D02*
D03*
Y487500D02*
D03*
X680488D02*
D03*
Y492500D02*
D03*
Y497500D02*
D03*
Y502500D02*
D03*
Y507500D02*
D03*
Y512500D02*
D03*
X844512D02*
D03*
Y507500D02*
D03*
Y502500D02*
D03*
Y497500D02*
D03*
Y492500D02*
D03*
Y487500D02*
D03*
X805488D02*
D03*
Y492500D02*
D03*
Y497500D02*
D03*
Y502500D02*
D03*
Y507500D02*
D03*
Y512500D02*
D03*
D145*
X712500Y480488D02*
D03*
Y519512D02*
D03*
X707500Y480488D02*
D03*
Y519512D02*
D03*
X702500Y480488D02*
D03*
Y519512D02*
D03*
X697500Y480488D02*
D03*
Y519512D02*
D03*
X687500Y480488D02*
D03*
Y519512D02*
D03*
X692500Y480488D02*
D03*
Y519512D02*
D03*
X837500Y480488D02*
D03*
Y519512D02*
D03*
X832500Y480488D02*
D03*
Y519512D02*
D03*
X827500Y480488D02*
D03*
Y519512D02*
D03*
X822500Y480488D02*
D03*
Y519512D02*
D03*
X812500Y480488D02*
D03*
Y519512D02*
D03*
X817500Y480488D02*
D03*
Y519512D02*
D03*
D146*
X700000Y500000D02*
D03*
X825000D02*
D03*
D147*
X90000Y789500D02*
D03*
Y781500D02*
D03*
Y773500D02*
D03*
Y765500D02*
D03*
Y757500D02*
D03*
X112000D02*
D03*
Y765500D02*
D03*
Y773500D02*
D03*
Y781500D02*
D03*
Y789500D02*
D03*
D148*
X468500Y222450D02*
D03*
X459000D02*
D03*
X449500D02*
D03*
Y245550D02*
D03*
X459000D02*
D03*
X468500D02*
D03*
D149*
X184950Y211350D02*
D03*
X197650D02*
D03*
X210350D02*
D03*
X223050D02*
D03*
Y158650D02*
D03*
X210350D02*
D03*
X197650D02*
D03*
X184950D02*
D03*
X362950Y203350D02*
D03*
X375650D02*
D03*
X388350D02*
D03*
X401050D02*
D03*
Y150650D02*
D03*
X388350D02*
D03*
X375650D02*
D03*
X362950D02*
D03*
D150*
X716495Y134050D02*
D03*
Y121350D02*
D03*
Y108650D02*
D03*
Y95950D02*
D03*
X821505D02*
D03*
Y108650D02*
D03*
Y121350D02*
D03*
Y134050D02*
D03*
D151*
X553950Y258505D02*
D03*
X566650D02*
D03*
X579350D02*
D03*
X592050D02*
D03*
Y153495D02*
D03*
X579350D02*
D03*
X566650D02*
D03*
X553950D02*
D03*
D152*
X251550Y245250D02*
D03*
X264250D02*
D03*
X276950D02*
D03*
X289650D02*
D03*
X302350D02*
D03*
X315050D02*
D03*
X327750D02*
D03*
X340450D02*
D03*
Y150750D02*
D03*
X327750D02*
D03*
X315050D02*
D03*
X302350D02*
D03*
X289650D02*
D03*
X276950D02*
D03*
X264250D02*
D03*
X251550D02*
D03*
D153*
X84225Y590457D02*
D03*
X77875D02*
D03*
X71525D02*
D03*
X65175D02*
D03*
X58825D02*
D03*
X52475D02*
D03*
X46125D02*
D03*
X39775D02*
D03*
Y643543D02*
D03*
X46125D02*
D03*
X52475D02*
D03*
X58825D02*
D03*
X65175D02*
D03*
X71525D02*
D03*
X77875D02*
D03*
X84225D02*
D03*
D154*
X382500Y373750D02*
D03*
X387500D02*
D03*
X392500D02*
D03*
X397500D02*
D03*
X402500D02*
D03*
X407500D02*
D03*
X412500D02*
D03*
X417500D02*
D03*
X422500D02*
D03*
X427500D02*
D03*
X432500D02*
D03*
X437500D02*
D03*
X442500D02*
D03*
X447500D02*
D03*
X452500D02*
D03*
X457500D02*
D03*
X462500D02*
D03*
X467500D02*
D03*
X472500D02*
D03*
X477500D02*
D03*
X482500D02*
D03*
X487500D02*
D03*
X492500D02*
D03*
X497500D02*
D03*
X502500D02*
D03*
X507500D02*
D03*
X512500D02*
D03*
X517500D02*
D03*
X522500D02*
D03*
X527500D02*
D03*
X532500D02*
D03*
X537500D02*
D03*
X542500D02*
D03*
X547500D02*
D03*
X552500D02*
D03*
X557500D02*
D03*
Y586250D02*
D03*
X552500D02*
D03*
X547500D02*
D03*
X542500D02*
D03*
X537500D02*
D03*
X532500D02*
D03*
X527500D02*
D03*
X522500D02*
D03*
X517500D02*
D03*
X512500D02*
D03*
X507500D02*
D03*
X502500D02*
D03*
X497500D02*
D03*
X492500D02*
D03*
X487500D02*
D03*
X482500D02*
D03*
X477500D02*
D03*
X472500D02*
D03*
X467500D02*
D03*
X462500D02*
D03*
X457500D02*
D03*
X452500D02*
D03*
X447500D02*
D03*
X442500D02*
D03*
X437500D02*
D03*
X432500D02*
D03*
X427500D02*
D03*
X422500D02*
D03*
X417500D02*
D03*
X412500D02*
D03*
X407500D02*
D03*
X402500D02*
D03*
X397500D02*
D03*
X392500D02*
D03*
X387500D02*
D03*
X382500D02*
D03*
D155*
X576250Y392500D02*
D03*
Y397500D02*
D03*
Y402500D02*
D03*
Y407500D02*
D03*
Y412500D02*
D03*
Y417500D02*
D03*
Y422500D02*
D03*
Y427500D02*
D03*
Y432500D02*
D03*
Y437500D02*
D03*
Y442500D02*
D03*
Y447500D02*
D03*
Y452500D02*
D03*
Y457500D02*
D03*
Y462500D02*
D03*
Y467500D02*
D03*
Y472500D02*
D03*
Y477500D02*
D03*
Y482500D02*
D03*
Y487500D02*
D03*
Y492500D02*
D03*
Y497500D02*
D03*
Y502500D02*
D03*
Y507500D02*
D03*
Y512500D02*
D03*
Y517500D02*
D03*
Y522500D02*
D03*
Y527500D02*
D03*
Y532500D02*
D03*
Y537500D02*
D03*
Y542500D02*
D03*
Y547500D02*
D03*
Y552500D02*
D03*
Y557500D02*
D03*
Y562500D02*
D03*
Y567500D02*
D03*
X363750D02*
D03*
Y562500D02*
D03*
Y557500D02*
D03*
Y552500D02*
D03*
Y547500D02*
D03*
Y542500D02*
D03*
Y537500D02*
D03*
Y532500D02*
D03*
Y527500D02*
D03*
Y522500D02*
D03*
Y517500D02*
D03*
Y512500D02*
D03*
Y507500D02*
D03*
Y502500D02*
D03*
Y497500D02*
D03*
Y492500D02*
D03*
Y487500D02*
D03*
Y482500D02*
D03*
Y477500D02*
D03*
Y472500D02*
D03*
Y467500D02*
D03*
Y462500D02*
D03*
Y457500D02*
D03*
Y452500D02*
D03*
Y447500D02*
D03*
Y442500D02*
D03*
Y437500D02*
D03*
Y432500D02*
D03*
Y427500D02*
D03*
Y422500D02*
D03*
Y417500D02*
D03*
Y412500D02*
D03*
Y407500D02*
D03*
Y402500D02*
D03*
Y397500D02*
D03*
Y392500D02*
D03*
D156*
X247204Y535500D02*
D03*
Y558500D02*
D03*
X265204D02*
D03*
Y535500D02*
D03*
D157*
X112750Y335000D02*
D03*
X129250D02*
D03*
X113000Y288000D02*
D03*
X129500D02*
D03*
X334046Y565000D02*
D03*
X317546D02*
D03*
X805250Y641000D02*
D03*
X788750D02*
D03*
D158*
X35500Y802750D02*
D03*
Y739250D02*
D03*
D159*
X64500Y777250D02*
D03*
Y764750D02*
D03*
D160*
X197000Y293000D02*
D03*
X206500Y313000D02*
D03*
X187500D02*
D03*
M02*
