G04*
G04 #@! TF.GenerationSoftware,Altium Limited,Altium Designer,24.9.1 (31)*
G04*
G04 Layer_Physical_Order=4*
G04 Layer_Color=15254943*
%FSLAX44Y44*%
%MOMM*%
G71*
G04*
G04 #@! TF.SameCoordinates,6A9D4D84-9140-4673-ADE8-75025B522ADB*
G04*
G04*
G04 #@! TF.FilePolarity,Positive*
G04*
G01*
G75*
%ADD13C,0.4000*%
%ADD16C,0.3000*%
%ADD56R,6.8000X6.4000*%
%ADD57R,6.5000X6.7000*%
%ADD103C,1.5240*%
%ADD105C,0.5000*%
%ADD107C,0.2800*%
%ADD108C,1.2000*%
%ADD124C,2.4500*%
%ADD125C,1.6000*%
%ADD126R,1.6000X1.6000*%
%ADD127R,1.6000X1.6000*%
%ADD128C,2.3000*%
%ADD130C,1.2580*%
%ADD131C,1.1500*%
%ADD132C,1.6500*%
%ADD136C,6.3500*%
%ADD137C,0.4000*%
%ADD139C,1.5000*%
G36*
X839669Y888146D02*
X841087Y886728D01*
X842939Y885961D01*
X844944D01*
X846797Y886728D01*
X848195Y888127D01*
X848400Y888161D01*
X850217Y888313D01*
X851522Y886929D01*
Y872583D01*
X849522Y871971D01*
X849461Y872032D01*
X847402Y869973D01*
X844573Y872802D01*
X846633Y874861D01*
X846138Y875355D01*
X841772Y878527D01*
X836963Y880978D01*
X831830Y882646D01*
X826499Y883490D01*
X821101D01*
X815770Y882646D01*
X810637Y880978D01*
X805828Y878527D01*
X801462Y875355D01*
X800967Y874861D01*
X803027Y872802D01*
X800199Y869973D01*
X797455Y872716D01*
X796422Y873144D01*
Y884806D01*
X798422Y886142D01*
X798859Y885961D01*
X800864D01*
X802717Y886728D01*
X804135Y888146D01*
X804289Y888520D01*
X806454D01*
X806609Y888146D01*
X808027Y886728D01*
X809879Y885961D01*
X811884D01*
X813737Y886728D01*
X815155Y888146D01*
X815310Y888520D01*
X817474D01*
X817629Y888146D01*
X819047Y886728D01*
X820899Y885961D01*
X822904D01*
X824757Y886728D01*
X826175Y888146D01*
X826329Y888520D01*
X828494D01*
X828649Y888146D01*
X830067Y886728D01*
X831919Y885961D01*
X833924D01*
X835777Y886728D01*
X837195Y888146D01*
X837349Y888520D01*
X839514D01*
X839669Y888146D01*
D02*
G37*
G36*
X101330D02*
X102747Y886728D01*
X104600Y885961D01*
X106605D01*
X108457Y886728D01*
X109875Y888146D01*
X110030Y888520D01*
X112195D01*
X112350Y888146D01*
X113767Y886728D01*
X115620Y885961D01*
X116622D01*
Y872583D01*
X114622Y871971D01*
X114561Y872032D01*
X112502Y869973D01*
X109673Y872802D01*
X111733Y874861D01*
X111238Y875355D01*
X106872Y878527D01*
X102063Y880978D01*
X96930Y882646D01*
X91599Y883490D01*
X86201D01*
X80870Y882646D01*
X75737Y880978D01*
X70928Y878527D01*
X66562Y875355D01*
X66068Y874861D01*
X68127Y872802D01*
X65298Y869973D01*
X62555Y872716D01*
X61522Y873144D01*
Y885961D01*
X62525D01*
X64377Y886728D01*
X65795Y888146D01*
X65950Y888520D01*
X68115D01*
X68270Y888146D01*
X69687Y886728D01*
X71540Y885961D01*
X73545D01*
X75397Y886728D01*
X76815Y888146D01*
X76970Y888520D01*
X79135D01*
X79290Y888146D01*
X80707Y886728D01*
X82560Y885961D01*
X84565D01*
X86417Y886728D01*
X87835Y888146D01*
X87990Y888520D01*
X90155D01*
X90310Y888146D01*
X91727Y886728D01*
X93580Y885961D01*
X95585D01*
X97437Y886728D01*
X98855Y888146D01*
X99010Y888520D01*
X101175D01*
X101330Y888146D01*
D02*
G37*
G36*
X452000Y879265D02*
Y870000D01*
X449000Y867000D01*
X406307D01*
X405669Y867954D01*
Y869546D01*
X405060Y871016D01*
X403935Y872141D01*
X402464Y872750D01*
X400873D01*
X399403Y872141D01*
X398278Y871016D01*
X397669Y869546D01*
Y867954D01*
X397031Y867000D01*
X370059D01*
Y871000D01*
X369826Y872170D01*
X369163Y873163D01*
X368171Y873826D01*
X367000Y874059D01*
X310000D01*
X308829Y873826D01*
X307837Y873163D01*
X307174Y872170D01*
X306941Y871000D01*
Y867000D01*
X282805D01*
X282000Y868204D01*
Y869796D01*
X281391Y871266D01*
X280266Y872391D01*
X278796Y873000D01*
X277204D01*
X275734Y872391D01*
X274609Y871266D01*
X274000Y869796D01*
Y868204D01*
X273195Y867000D01*
X242000D01*
Y881922D01*
X410603D01*
X411266Y879922D01*
X410609Y879266D01*
X410000Y877796D01*
Y876204D01*
X410609Y874734D01*
X411734Y873609D01*
X413204Y873000D01*
X414796D01*
X416266Y873609D01*
X417391Y874734D01*
X418000Y876204D01*
Y877796D01*
X417391Y879266D01*
X416734Y879922D01*
X417397Y881922D01*
X448936D01*
X452000Y879265D01*
D02*
G37*
G36*
X753733Y873941D02*
X758420Y869254D01*
X757193Y867653D01*
X756156Y868251D01*
X753549Y868950D01*
X750851D01*
X748244Y868251D01*
X745906Y866902D01*
X743998Y864994D01*
X742648Y862656D01*
X741950Y860049D01*
Y857351D01*
X742648Y854744D01*
X743998Y852406D01*
X745906Y850498D01*
X748244Y849148D01*
X750851Y848450D01*
X753549D01*
X756156Y849148D01*
X758494Y850498D01*
X760402Y852406D01*
X761751Y854744D01*
X761941Y855452D01*
X763941Y855189D01*
Y836812D01*
X761941Y836548D01*
X761751Y837256D01*
X760402Y839594D01*
X758494Y841502D01*
X756156Y842851D01*
X753549Y843550D01*
X750851D01*
X748244Y842851D01*
X745906Y841502D01*
X743998Y839594D01*
X742648Y837256D01*
X741950Y834649D01*
Y831951D01*
X742648Y829344D01*
X743998Y827006D01*
X745906Y825098D01*
X748244Y823748D01*
X750851Y823050D01*
X753549D01*
X756156Y823748D01*
X758494Y825098D01*
X760402Y827006D01*
X761751Y829344D01*
X761941Y830052D01*
X763941Y829789D01*
Y811000D01*
X764174Y809829D01*
X764837Y808837D01*
X766000Y807674D01*
Y807000D01*
X771941Y801059D01*
Y692544D01*
X771190Y692027D01*
X769941Y691525D01*
X768796Y692000D01*
X768252D01*
X766855Y693856D01*
X767000Y694204D01*
Y695796D01*
X766391Y697266D01*
X765266Y698391D01*
X763796Y699000D01*
X762204D01*
X760734Y698391D01*
X759609Y697266D01*
X759000Y695796D01*
Y694204D01*
X759609Y692734D01*
X760734Y691609D01*
X762204Y691000D01*
X762748D01*
X764145Y689145D01*
X764000Y688796D01*
Y687204D01*
X764453Y686111D01*
X763743Y684913D01*
X763173Y684373D01*
X761831D01*
X760361Y683764D01*
X759236Y682639D01*
X758627Y681169D01*
Y679577D01*
X759236Y678107D01*
X760361Y676982D01*
X761831Y676373D01*
X763423D01*
X764893Y676982D01*
X766018Y678107D01*
X766627Y679577D01*
Y681169D01*
X766174Y682262D01*
X766884Y683459D01*
X767454Y684000D01*
X768796D01*
X769941Y684474D01*
X771190Y683973D01*
X771941Y683456D01*
Y652544D01*
X771190Y652027D01*
X769941Y651525D01*
X768796Y652000D01*
X767204D01*
X765734Y651391D01*
X764609Y650266D01*
X764000Y648796D01*
Y647204D01*
X764609Y645734D01*
X765734Y644609D01*
X767204Y644000D01*
X768796D01*
X769941Y644474D01*
X771190Y643973D01*
X771941Y643456D01*
Y603000D01*
X771941Y603000D01*
X772174Y601829D01*
X772837Y600837D01*
X772837Y600837D01*
X841941Y531733D01*
Y529252D01*
X842000Y528956D01*
Y528655D01*
X842000Y528655D01*
Y519345D01*
X842000Y519345D01*
Y519044D01*
X841941Y518748D01*
Y472000D01*
Y429525D01*
X839941Y428000D01*
X839204D01*
X837734Y427391D01*
X836609Y426266D01*
X836000Y424796D01*
Y423204D01*
X836609Y421734D01*
X837734Y420609D01*
X839204Y420000D01*
X840796D01*
X841941Y419235D01*
X841941Y213000D01*
X842000Y212705D01*
Y196000D01*
X833344D01*
X828000Y201345D01*
Y340195D01*
X829204Y341000D01*
X830796D01*
X832266Y341609D01*
X833391Y342734D01*
X834000Y344204D01*
Y345796D01*
X833391Y347266D01*
X832266Y348391D01*
X830796Y349000D01*
X830303Y350000D01*
X830796Y351000D01*
X832266Y351609D01*
X833391Y352734D01*
X834000Y354204D01*
Y355796D01*
X833391Y357266D01*
X832266Y358391D01*
X830796Y359000D01*
X829204D01*
X828000Y359805D01*
Y370500D01*
X829396D01*
X830866Y371109D01*
X831991Y372234D01*
X832600Y373704D01*
Y375296D01*
X831991Y376766D01*
X830866Y377891D01*
X829396Y378500D01*
X828000D01*
Y392343D01*
X828391Y392734D01*
X829000Y394204D01*
Y395796D01*
X828391Y397266D01*
X828000Y397657D01*
Y497343D01*
X828391Y497734D01*
X829000Y499204D01*
Y500796D01*
X828391Y502266D01*
X828000Y502657D01*
Y523000D01*
X825807Y525193D01*
X826217Y525603D01*
X827189Y527059D01*
X827531Y528775D01*
X827189Y530492D01*
X826217Y531948D01*
X824761Y532920D01*
X823045Y533262D01*
X821328Y532920D01*
X819872Y531948D01*
X819462Y531538D01*
X762000Y589000D01*
X762796Y591000D01*
X764266Y591609D01*
X765391Y592734D01*
X766000Y594204D01*
Y595796D01*
X765391Y597266D01*
X764266Y598391D01*
X762796Y599000D01*
X761204D01*
X759734Y598391D01*
X758609Y597266D01*
X758000Y595796D01*
X756000Y595000D01*
X752000Y599000D01*
Y767323D01*
X753605Y768395D01*
X754710Y770049D01*
X755098Y772000D01*
X754710Y773951D01*
X753605Y775605D01*
X752000Y777210D01*
Y789000D01*
X737059Y803941D01*
Y836000D01*
X737059Y836000D01*
X737000Y836295D01*
Y840000D01*
X733000Y844000D01*
X729296D01*
X729000Y844059D01*
X729000Y844059D01*
X724000D01*
X723704Y844000D01*
X720000D01*
X713000Y851000D01*
Y865000D01*
X709000Y869000D01*
X635000D01*
X633000Y867000D01*
X631271Y867654D01*
X629365Y868755D01*
X626620Y869490D01*
X623779D01*
X621035Y868755D01*
X619094Y867634D01*
X621173Y865555D01*
X618345Y862727D01*
X616266Y864806D01*
X615145Y862865D01*
X614410Y860120D01*
Y857280D01*
X615145Y854535D01*
X616566Y852075D01*
X616641Y852000D01*
X615812Y850000D01*
X609188D01*
X608359Y852000D01*
X608434Y852075D01*
X609855Y854535D01*
X610590Y857280D01*
Y860120D01*
X609855Y862865D01*
X608734Y864806D01*
X606655Y862727D01*
X603827Y865555D01*
X605906Y867634D01*
X603965Y868755D01*
X601221Y869490D01*
X598380D01*
X595635Y868755D01*
X594809Y868278D01*
X592568Y869293D01*
X592522Y869522D01*
X596941Y873941D01*
X753733Y873941D01*
D02*
G37*
G36*
X881922Y827078D02*
Y800922D01*
X877000Y796000D01*
X821252Y796000D01*
X819915Y798000D01*
X820000Y798204D01*
Y799796D01*
X819391Y801266D01*
X818266Y802391D01*
X816796Y803000D01*
X815204D01*
X813734Y802391D01*
X812609Y801266D01*
X812000Y799796D01*
Y798204D01*
X812085Y798000D01*
X810748Y796000D01*
X787000D01*
X784059Y798941D01*
Y818059D01*
X786000Y820000D01*
X796000D01*
X803000Y813000D01*
X843000D01*
X860000Y830000D01*
X879000D01*
X881922Y827078D01*
D02*
G37*
G36*
X402911Y808425D02*
X402449Y805625D01*
X401347Y805700D01*
X401669Y808482D01*
X402911Y808425D01*
D02*
G37*
G36*
X40000Y845000D02*
Y813000D01*
X45000Y808000D01*
X55085D01*
X57000Y806204D01*
X57609Y804734D01*
X58734Y803609D01*
X60204Y803000D01*
X61796D01*
X63266Y803609D01*
X64391Y804734D01*
X65000Y806204D01*
Y807796D01*
X65136Y808000D01*
X135000Y808000D01*
X144000Y817000D01*
X207000D01*
X234000Y790000D01*
X274562D01*
X274761Y789001D01*
X275756Y787513D01*
X277244Y786518D01*
X279000Y786169D01*
X280756Y786518D01*
X282244Y787513D01*
X284731Y790000D01*
X306941D01*
Y789000D01*
X307174Y787830D01*
X307837Y786837D01*
X308829Y786174D01*
X310000Y785941D01*
X367000D01*
X368171Y786174D01*
X369163Y786837D01*
X369826Y787830D01*
X370059Y789000D01*
Y790000D01*
X393651D01*
X393790Y789299D01*
X394895Y787645D01*
X396549Y786540D01*
X398500Y786152D01*
X400451Y786540D01*
X402105Y787645D01*
X403210Y789299D01*
X403436Y790436D01*
X433000Y820000D01*
X440144Y827144D01*
X441266Y827609D01*
X442391Y828734D01*
X442855Y829856D01*
X453000Y840000D01*
X545000D01*
X570000Y815000D01*
X635000D01*
X640000Y820000D01*
Y835000D01*
X645000Y840000D01*
X705000D01*
X710000Y835000D01*
Y810000D01*
X700000Y800000D01*
X684915D01*
X684391Y801266D01*
X683266Y802391D01*
X681796Y803000D01*
X680204D01*
X678734Y802391D01*
X677609Y801266D01*
X677085Y800000D01*
X567000D01*
X540000Y827000D01*
X459000D01*
X407000Y775000D01*
X381252D01*
X379915Y777000D01*
X380000Y777204D01*
Y778796D01*
X379391Y780266D01*
X378266Y781391D01*
X376796Y782000D01*
X375204D01*
X373734Y781391D01*
X372609Y780266D01*
X372000Y778796D01*
Y777204D01*
X372085Y777000D01*
X370748Y775000D01*
X367252D01*
X365915Y777000D01*
X366000Y777204D01*
Y778796D01*
X365391Y780266D01*
X364266Y781391D01*
X362796Y782000D01*
X361204D01*
X359734Y781391D01*
X358609Y780266D01*
X358000Y778796D01*
Y777204D01*
X358085Y777000D01*
X356748Y775000D01*
X229000D01*
X199000Y805000D01*
X152000D01*
X125000Y778000D01*
X35000D01*
Y725796D01*
Y724204D01*
Y676136D01*
X34796Y676000D01*
X33204D01*
X31734Y675391D01*
X30609Y674266D01*
X30000Y672796D01*
Y671204D01*
X30609Y669734D01*
X31734Y668609D01*
X33204Y668000D01*
X34796D01*
X35000Y667863D01*
Y662000D01*
X34004D01*
X32534Y661391D01*
X31409Y660266D01*
X30800Y658796D01*
Y657204D01*
X31409Y655734D01*
X32534Y654609D01*
X32598Y654582D01*
Y652418D01*
X32534Y652391D01*
X31409Y651266D01*
X30800Y649796D01*
Y648204D01*
X31409Y646734D01*
X32238Y645906D01*
X32549Y644954D01*
X32584Y643424D01*
X28628Y639468D01*
X27655Y638012D01*
X27314Y636295D01*
X27314Y636295D01*
Y596130D01*
X27314Y596130D01*
X27655Y594413D01*
X28628Y592957D01*
X31464Y590121D01*
X30609Y589266D01*
X30000Y587796D01*
Y586204D01*
X30609Y584734D01*
X31734Y583609D01*
X33204Y583000D01*
X34414D01*
Y510414D01*
X32000Y508000D01*
X22000D01*
X18078Y511922D01*
Y843078D01*
X25000Y850000D01*
X35000D01*
X40000Y845000D01*
D02*
G37*
G36*
X734000Y836000D02*
Y794000D01*
X720000Y780000D01*
X623657D01*
X623266Y780391D01*
X621796Y781000D01*
X620204D01*
X618734Y780391D01*
X618343Y780000D01*
X550000D01*
X526000Y804000D01*
X485000Y804000D01*
X482000Y807000D01*
Y818000D01*
X483000D01*
X488000Y823000D01*
X536000Y823000D01*
X564000Y795000D01*
X710000D01*
X719000Y804000D01*
Y836000D01*
X724000Y841000D01*
X729000D01*
X734000Y836000D01*
D02*
G37*
G36*
X824000Y786000D02*
Y771000D01*
X823000Y770000D01*
X799000D01*
X798228Y769228D01*
X796756Y768244D01*
X795761Y766756D01*
X795412Y765000D01*
X795761Y763244D01*
X796756Y761756D01*
X798000Y760924D01*
Y627000D01*
X795000Y624000D01*
X788000D01*
X784059Y627941D01*
Y790059D01*
X786951Y792951D01*
X787000Y792941D01*
X787000Y792941D01*
X810748D01*
X811044Y793000D01*
X811345D01*
X811345Y793000D01*
X817000D01*
X824000Y786000D01*
D02*
G37*
G36*
X501000Y790000D02*
Y789204D01*
X501609Y787734D01*
X502000Y787343D01*
Y724000D01*
X486000Y708000D01*
X458000D01*
X448328Y717672D01*
X448391Y717734D01*
X449000Y719204D01*
Y720796D01*
X448391Y722266D01*
X447266Y723391D01*
X445796Y724000D01*
X444204D01*
X442734Y723391D01*
X442672Y723328D01*
X429500Y736500D01*
Y741500D01*
X432000Y744000D01*
X449000D01*
X451419Y746419D01*
X452430Y746000D01*
X454021D01*
X455491Y746609D01*
X456616Y747734D01*
X457225Y749204D01*
Y750796D01*
X456806Y751806D01*
X470000Y765000D01*
Y769000D01*
X465000Y774000D01*
X436000D01*
X431000Y779000D01*
Y785000D01*
X432672Y786672D01*
X432734Y786609D01*
X434204Y786000D01*
X435796D01*
X437266Y786609D01*
X438391Y787734D01*
X439000Y789204D01*
Y790796D01*
X438391Y792266D01*
X438328Y792328D01*
X443000Y797000D01*
X494000Y797000D01*
X501000Y790000D01*
D02*
G37*
G36*
X453742Y760555D02*
X453420Y757773D01*
X452178Y757830D01*
X452640Y760630D01*
X453742Y760555D01*
D02*
G37*
G36*
X362200Y731400D02*
Y728600D01*
X359400Y725800D01*
X356600Y730000D01*
X359400Y734200D01*
X362200Y731400D01*
D02*
G37*
G36*
X54180Y552200D02*
X52200Y547420D01*
X49400D01*
X47420Y552200D01*
X48820Y554760D01*
X52780D01*
X54180Y552200D01*
D02*
G37*
G36*
X440800Y545200D02*
X440400Y542400D01*
X439281Y542464D01*
X439561Y545250D01*
X440800Y545200D01*
D02*
G37*
G36*
X447872Y536445D02*
X446770Y536370D01*
X446308Y539170D01*
X447550Y539227D01*
X447872Y536445D01*
D02*
G37*
G36*
X778000Y872000D02*
X781000Y869000D01*
Y818059D01*
X781000Y818059D01*
X781000Y818059D01*
Y798941D01*
X781000Y798941D01*
X781000Y798941D01*
Y790059D01*
X781000Y790059D01*
X781000Y790059D01*
Y615000D01*
X795045Y600955D01*
X794734Y599391D01*
X793609Y598266D01*
X793000Y596796D01*
Y595204D01*
X793609Y593734D01*
X794734Y592609D01*
X796204Y592000D01*
X797796D01*
X799266Y592609D01*
X799914Y593257D01*
X802354Y593646D01*
X823144Y572855D01*
X822171Y571000D01*
X821204D01*
X819734Y570391D01*
X818609Y569266D01*
X818000Y567796D01*
Y566204D01*
X818609Y564734D01*
X819734Y563609D01*
X821204Y563000D01*
X822796D01*
X824266Y563609D01*
X825391Y564734D01*
X826000Y566204D01*
Y567172D01*
X827856Y568144D01*
X859000Y537000D01*
Y492805D01*
X857796Y492000D01*
X856204D01*
X854734Y491391D01*
X853609Y490266D01*
X853000Y488796D01*
Y487204D01*
X853609Y485734D01*
X854734Y484609D01*
X856204Y484000D01*
X857796D01*
X859000Y483195D01*
Y480136D01*
X858796Y480000D01*
X857204D01*
X855734Y479391D01*
X854609Y478266D01*
X854000Y476796D01*
Y475204D01*
X854609Y473734D01*
X855734Y472609D01*
X857204Y472000D01*
X858796D01*
X859000Y471863D01*
Y214000D01*
X856000Y211000D01*
X847000D01*
X845000Y213000D01*
X845000Y472000D01*
Y518748D01*
X847000Y520085D01*
X847204Y520000D01*
X848796D01*
X850266Y520609D01*
X851391Y521734D01*
X852000Y523204D01*
Y524796D01*
X851391Y526266D01*
X850266Y527391D01*
X848796Y528000D01*
X847204D01*
X847000Y527915D01*
X845000Y529252D01*
Y533000D01*
X775000Y603000D01*
Y803000D01*
X767000Y811000D01*
Y865000D01*
X755000Y877000D01*
X590000Y877000D01*
X585000Y872000D01*
X585000Y847000D01*
X591620Y840380D01*
X591166Y839925D01*
X589745Y837465D01*
X589010Y834721D01*
Y831880D01*
X589745Y829135D01*
X590978Y827000D01*
X590313Y825000D01*
X585000D01*
X570000Y840000D01*
Y875000D01*
X576922Y881922D01*
X768077D01*
X778000Y872000D01*
D02*
G37*
G36*
X145227Y511580D02*
X142445Y511258D01*
X142370Y512360D01*
X145170Y512822D01*
X145227Y511580D01*
D02*
G37*
G36*
X53600Y503239D02*
X48000D01*
X49400Y506069D01*
X52200D01*
X53600Y503239D01*
D02*
G37*
G36*
X403742Y499445D02*
X402640Y499370D01*
X402178Y502170D01*
X403420Y502227D01*
X403742Y499445D01*
D02*
G37*
G36*
X37349Y503270D02*
X35339Y499310D01*
X31410Y503239D01*
X35370Y505249D01*
X37349Y503270D01*
D02*
G37*
G36*
X38170Y496700D02*
Y493900D01*
X35339Y492500D01*
Y498100D01*
X38170Y496700D01*
D02*
G37*
G36*
X213250Y446439D02*
X213200Y445200D01*
X210400Y445600D01*
X210464Y446719D01*
X213250Y446439D01*
D02*
G37*
G36*
X38170Y445900D02*
Y443100D01*
X35339Y441700D01*
Y447300D01*
X38170Y445900D01*
D02*
G37*
G36*
X213200Y390800D02*
X213136Y389681D01*
X210350Y389961D01*
X210400Y391200D01*
X213200Y390800D01*
D02*
G37*
G36*
X62749Y385731D02*
X60770Y383751D01*
X56810Y385731D01*
X60770Y389690D01*
X62749Y385731D01*
D02*
G37*
G36*
X60800Y332131D02*
X58000D01*
X56600Y334930D01*
X60770D01*
X60800Y332131D01*
D02*
G37*
G36*
X72822Y273170D02*
X72359Y270370D01*
X71258Y270445D01*
X71580Y273227D01*
X72822Y273170D01*
D02*
G37*
G36*
X214425Y266397D02*
X211625Y266348D01*
X211618Y267554D01*
X214418Y267589D01*
X214425Y266397D01*
D02*
G37*
G36*
X41227Y259580D02*
X38445Y259258D01*
X38370Y260359D01*
X41170Y260822D01*
X41227Y259580D01*
D02*
G37*
G36*
X54200Y228624D02*
X51400D01*
X47200Y235587D01*
X58400D01*
X54200Y228624D01*
D02*
G37*
G36*
X38483Y221503D02*
X35032Y213501D01*
X29951Y223482D01*
X37160Y224140D01*
X38483Y221503D01*
D02*
G37*
G36*
X62754Y207926D02*
X60774Y205946D01*
X52880Y207900D01*
X60800Y215820D01*
X62754Y207926D01*
D02*
G37*
G36*
X866287Y185800D02*
X859324Y190000D01*
Y192800D01*
X866287Y197000D01*
Y185800D01*
D02*
G37*
G36*
Y160400D02*
X859324Y164600D01*
Y167400D01*
X866287Y171600D01*
Y160400D01*
D02*
G37*
G36*
X63569Y141100D02*
Y138300D01*
X60739Y136900D01*
Y142500D01*
X63569Y141100D01*
D02*
G37*
G36*
X866287Y135000D02*
X859324Y139200D01*
Y142000D01*
X866287Y146200D01*
Y135000D01*
D02*
G37*
G36*
X864061Y112400D02*
X861230Y113800D01*
Y116600D01*
X864061Y118000D01*
Y112400D01*
D02*
G37*
G36*
X37354Y106326D02*
X35374Y104346D01*
X27480Y106300D01*
X35400Y114220D01*
X37354Y106326D01*
D02*
G37*
G36*
X574403Y64492D02*
X565597D01*
X568600Y69906D01*
X571400D01*
X574403Y64492D01*
D02*
G37*
G36*
X554403D02*
X545597D01*
X548600Y69906D01*
X551400D01*
X554403Y64492D01*
D02*
G37*
G36*
X534403D02*
X525597D01*
X528600Y69906D01*
X531400D01*
X534403Y64492D01*
D02*
G37*
G36*
X291286Y66157D02*
X283870Y61409D01*
X282847Y67079D01*
X285273Y68612D01*
X291286Y66157D01*
D02*
G37*
G36*
X331286D02*
X323870Y61409D01*
X322847Y67079D01*
X325274Y68612D01*
X331286Y66157D01*
D02*
G37*
G36*
X271286D02*
X263870Y61409D01*
X262847Y67079D01*
X265273Y68612D01*
X271286Y66157D01*
D02*
G37*
G36*
X509937Y66290D02*
X503710Y60063D01*
X502005Y66015D01*
X503985Y67995D01*
X509937Y66290D01*
D02*
G37*
G36*
X349937D02*
X343710Y60063D01*
X342005Y66015D01*
X343985Y67995D01*
X349937Y66290D01*
D02*
G37*
G36*
X109878Y62249D02*
X97751Y50122D01*
X95208Y62813D01*
X97187Y64792D01*
X109878Y62249D01*
D02*
G37*
G36*
X569937Y46290D02*
X563710Y40063D01*
X562005Y46015D01*
X563985Y47995D01*
X569937Y46290D01*
D02*
G37*
G36*
X517995Y46015D02*
X516290Y40063D01*
X510063Y46290D01*
X516015Y47995D01*
X517995Y46015D01*
D02*
G37*
G36*
X329937Y46290D02*
X323710Y40063D01*
X322005Y46015D01*
X323985Y47995D01*
X329937Y46290D01*
D02*
G37*
G36*
X289937D02*
X283710Y40063D01*
X282005Y46015D01*
X283985Y47995D01*
X289937Y46290D01*
D02*
G37*
G36*
X269937D02*
X263710Y40063D01*
X262005Y46015D01*
X263985Y47995D01*
X269937Y46290D01*
D02*
G37*
%LPC*%
G36*
X728149Y868950D02*
X725451D01*
X722844Y868251D01*
X720506Y866902D01*
X718598Y864994D01*
X717249Y862656D01*
X716550Y860049D01*
Y857351D01*
X717249Y854744D01*
X718598Y852406D01*
X720506Y850498D01*
X722844Y849148D01*
X725451Y848450D01*
X728149D01*
X730756Y849148D01*
X733094Y850498D01*
X735002Y852406D01*
X736351Y854744D01*
X737050Y857351D01*
Y860049D01*
X736351Y862656D01*
X735002Y864994D01*
X733094Y866902D01*
X730756Y868251D01*
X728149Y868950D01*
D02*
G37*
G36*
X764796Y726765D02*
X763204D01*
X761734Y726155D01*
X760609Y725030D01*
X760000Y723560D01*
Y721969D01*
X760609Y720499D01*
X761734Y719373D01*
X763204Y718764D01*
X764796D01*
X766266Y719373D01*
X767391Y720499D01*
X768000Y721969D01*
Y723560D01*
X767391Y725030D01*
X766266Y726155D01*
X764796Y726765D01*
D02*
G37*
G36*
X758796Y659000D02*
X757204D01*
X755734Y658391D01*
X754609Y657266D01*
X754000Y655796D01*
Y654204D01*
X754609Y652734D01*
X755734Y651609D01*
X757204Y651000D01*
X758796D01*
X760266Y651609D01*
X761391Y652734D01*
X762000Y654204D01*
Y655796D01*
X761391Y657266D01*
X760266Y658391D01*
X758796Y659000D01*
D02*
G37*
G36*
X762796Y609000D02*
X761204D01*
X759734Y608391D01*
X758609Y607266D01*
X758000Y605796D01*
Y604204D01*
X758609Y602734D01*
X759734Y601609D01*
X761204Y601000D01*
X762796D01*
X764266Y601609D01*
X765391Y602734D01*
X766000Y604204D01*
Y605796D01*
X765391Y607266D01*
X764266Y608391D01*
X762796Y609000D01*
D02*
G37*
G36*
X786796Y580000D02*
X785204D01*
X783734Y579391D01*
X782609Y578266D01*
X782000Y576796D01*
Y575204D01*
X782609Y573734D01*
X783734Y572609D01*
X785204Y572000D01*
X786796D01*
X788266Y572609D01*
X789391Y573734D01*
X790000Y575204D01*
Y576796D01*
X789391Y578266D01*
X788266Y579391D01*
X786796Y580000D01*
D02*
G37*
G36*
X695796Y815000D02*
X694204D01*
X692734Y814391D01*
X691609Y813266D01*
X691000Y811796D01*
Y810204D01*
X691609Y808734D01*
X692734Y807609D01*
X694204Y807000D01*
X695796D01*
X697266Y807609D01*
X698391Y808734D01*
X699000Y810204D01*
Y811796D01*
X698391Y813266D01*
X697266Y814391D01*
X695796Y815000D01*
D02*
G37*
G36*
X119796Y804000D02*
X118204D01*
X116734Y803391D01*
X115609Y802266D01*
X115000Y800796D01*
Y799204D01*
X115609Y797734D01*
X116734Y796609D01*
X118204Y796000D01*
X119796D01*
X121266Y796609D01*
X122391Y797734D01*
X123000Y799204D01*
Y800796D01*
X122391Y802266D01*
X121266Y803391D01*
X119796Y804000D01*
D02*
G37*
G36*
X82796Y799000D02*
X81204D01*
X79734Y798391D01*
X78609Y797266D01*
X78000Y795796D01*
Y794204D01*
X78609Y792734D01*
X79734Y791609D01*
X81204Y791000D01*
X82796D01*
X84266Y791609D01*
X85391Y792734D01*
X86000Y794204D01*
Y795796D01*
X85391Y797266D01*
X84266Y798391D01*
X82796Y799000D01*
D02*
G37*
G36*
X120796Y793000D02*
X119204D01*
X117734Y792391D01*
X116609Y791266D01*
X116000Y789796D01*
Y788204D01*
X116609Y786734D01*
X117734Y785609D01*
X119204Y785000D01*
X120796D01*
X122266Y785609D01*
X123391Y786734D01*
X124000Y788204D01*
Y789796D01*
X123391Y791266D01*
X122266Y792391D01*
X120796Y793000D01*
D02*
G37*
G36*
X720796D02*
X719204D01*
X717734Y792391D01*
X716609Y791266D01*
X716000Y789796D01*
Y788204D01*
X716609Y786734D01*
X717734Y785609D01*
X719204Y785000D01*
X720796D01*
X722266Y785609D01*
X723391Y786734D01*
X724000Y788204D01*
Y789796D01*
X723391Y791266D01*
X722266Y792391D01*
X720796Y793000D01*
D02*
G37*
G36*
X475796Y794000D02*
X474204D01*
X472734Y793391D01*
X471609Y792266D01*
X471000Y790796D01*
Y789204D01*
X471609Y787734D01*
X472734Y786609D01*
X474204Y786000D01*
X475796D01*
X477266Y786609D01*
X478391Y787734D01*
X479000Y789204D01*
Y790796D01*
X478391Y792266D01*
X477266Y793391D01*
X475796Y794000D01*
D02*
G37*
G36*
X486795Y753998D02*
X485203D01*
X483733Y753390D01*
X482608Y752264D01*
X481999Y750794D01*
Y749203D01*
X482608Y747733D01*
X483733Y746608D01*
X485203Y745999D01*
X486795D01*
X488265Y746608D01*
X489390Y747733D01*
X489999Y749203D01*
Y750794D01*
X489390Y752264D01*
X488265Y753390D01*
X486795Y753998D01*
D02*
G37*
G36*
X475796Y744000D02*
X474204D01*
X472734Y743391D01*
X471609Y742266D01*
X471000Y740796D01*
Y739204D01*
X471609Y737734D01*
X472734Y736609D01*
X474204Y736000D01*
X475796D01*
X477266Y736609D01*
X478391Y737734D01*
X479000Y739204D01*
Y740796D01*
X478391Y742266D01*
X477266Y743391D01*
X475796Y744000D01*
D02*
G37*
G36*
X465796Y734000D02*
X464204D01*
X462734Y733391D01*
X461609Y732266D01*
X461000Y730796D01*
Y729204D01*
X461609Y727734D01*
X462734Y726609D01*
X464204Y726000D01*
X465796D01*
X467266Y726609D01*
X468391Y727734D01*
X469000Y729204D01*
Y730796D01*
X468391Y732266D01*
X467266Y733391D01*
X465796Y734000D01*
D02*
G37*
G36*
X445796Y734000D02*
X444204D01*
X442734Y733391D01*
X441609Y732266D01*
X441000Y730796D01*
Y729204D01*
X441609Y727734D01*
X442734Y726609D01*
X444204Y726000D01*
X445796D01*
X447266Y726609D01*
X448391Y727734D01*
X449000Y729204D01*
Y730796D01*
X448391Y732266D01*
X447266Y733391D01*
X445796Y734000D01*
D02*
G37*
G36*
X485796Y724000D02*
X484204D01*
X482734Y723391D01*
X481609Y722266D01*
X481000Y720796D01*
Y719204D01*
X481609Y717734D01*
X482734Y716609D01*
X484204Y716000D01*
X485796D01*
X487266Y716609D01*
X488391Y717734D01*
X489000Y719204D01*
Y720796D01*
X488391Y722266D01*
X487266Y723391D01*
X485796Y724000D01*
D02*
G37*
G36*
X455796D02*
X454204D01*
X452734Y723391D01*
X451609Y722266D01*
X451000Y720796D01*
Y719204D01*
X451609Y717734D01*
X452734Y716609D01*
X454204Y716000D01*
X455796D01*
X457266Y716609D01*
X458391Y717734D01*
X459000Y719204D01*
Y720796D01*
X458391Y722266D01*
X457266Y723391D01*
X455796Y724000D01*
D02*
G37*
%LPD*%
D13*
X726800Y795200D02*
Y833300D01*
Y795200D02*
X750000Y772000D01*
X391000Y802000D02*
Y811000D01*
X397000Y817000D01*
X391000Y802000D02*
X398500Y794500D01*
Y791250D02*
Y794500D01*
D16*
X279000Y790757D02*
X286000Y797757D01*
Y813000D01*
X279191Y816809D02*
X282191D01*
X286000Y813000D01*
X279000Y817000D02*
X279191Y816809D01*
X800000Y765000D02*
X832000D01*
X837000Y760000D01*
X90000Y389000D02*
X101000Y378000D01*
X94000Y360635D02*
X101000Y367635D01*
Y378000D01*
X94000Y349000D02*
Y360635D01*
X90000Y389000D02*
Y400000D01*
D56*
X860700Y39000D02*
D03*
D57*
X39500Y40500D02*
D03*
D103*
X839965Y833036D02*
D03*
X807635D02*
D03*
Y865365D02*
D03*
X839965D02*
D03*
X846660Y849200D02*
D03*
X823800Y826340D02*
D03*
X800940Y849200D02*
D03*
X823800Y872060D02*
D03*
X105064Y833036D02*
D03*
X72736D02*
D03*
Y865365D02*
D03*
X105064D02*
D03*
X111760Y849200D02*
D03*
X88900Y826340D02*
D03*
X66040Y849200D02*
D03*
X88900Y872060D02*
D03*
X867065Y34636D02*
D03*
X834735D02*
D03*
Y66965D02*
D03*
X867065D02*
D03*
X873760Y50800D02*
D03*
X850900Y27940D02*
D03*
X828040Y50800D02*
D03*
X850900Y73660D02*
D03*
X66965Y34636D02*
D03*
X34636D02*
D03*
Y66965D02*
D03*
X66965D02*
D03*
X73660Y50800D02*
D03*
X50800Y27940D02*
D03*
X27940Y50800D02*
D03*
X50800Y73660D02*
D03*
D105*
X888022Y891004D02*
D03*
X877002Y891001D02*
D03*
X865982D02*
D03*
X854962D02*
D03*
X843942D02*
D03*
X832922D02*
D03*
X821902D02*
D03*
X810882D02*
D03*
X799862D02*
D03*
X788842D02*
D03*
X777822D02*
D03*
X766802D02*
D03*
X755782D02*
D03*
X744762D02*
D03*
X733742D02*
D03*
X722722D02*
D03*
X711702D02*
D03*
X700682D02*
D03*
X689662D02*
D03*
X678642D02*
D03*
X667622D02*
D03*
X656602D02*
D03*
X645582D02*
D03*
X634562D02*
D03*
X623542D02*
D03*
X612522D02*
D03*
X601502D02*
D03*
X590482D02*
D03*
X579462D02*
D03*
X568442D02*
D03*
X557422D02*
D03*
X546402D02*
D03*
X535382D02*
D03*
X524362D02*
D03*
X513342D02*
D03*
X502322D02*
D03*
X491302D02*
D03*
X480282D02*
D03*
X469262D02*
D03*
X458242D02*
D03*
X447222D02*
D03*
X436202D02*
D03*
X425182D02*
D03*
X414162D02*
D03*
X403142D02*
D03*
X392122D02*
D03*
X381102D02*
D03*
X370082D02*
D03*
X359062D02*
D03*
X348042D02*
D03*
X337022D02*
D03*
X326002D02*
D03*
X314982D02*
D03*
X303962D02*
D03*
X292942D02*
D03*
X281922D02*
D03*
X270902D02*
D03*
X259882D02*
D03*
X248862D02*
D03*
X237842D02*
D03*
X226822D02*
D03*
X215802D02*
D03*
X204782D02*
D03*
X193762D02*
D03*
X182742D02*
D03*
X171722D02*
D03*
X160702D02*
D03*
X149682D02*
D03*
X138662D02*
D03*
X127642D02*
D03*
X116622D02*
D03*
X105602D02*
D03*
X94582D02*
D03*
X83562D02*
D03*
X72542D02*
D03*
X61522D02*
D03*
X50502D02*
D03*
X39482D02*
D03*
X28462D02*
D03*
X17442D02*
D03*
X8999Y883919D02*
D03*
Y872899D02*
D03*
Y861879D02*
D03*
Y850859D02*
D03*
Y839839D02*
D03*
Y828819D02*
D03*
Y817799D02*
D03*
Y806779D02*
D03*
Y795759D02*
D03*
Y784739D02*
D03*
Y773719D02*
D03*
Y762699D02*
D03*
Y751679D02*
D03*
Y740659D02*
D03*
Y729639D02*
D03*
Y718619D02*
D03*
Y707599D02*
D03*
Y696579D02*
D03*
Y685559D02*
D03*
Y674539D02*
D03*
Y663519D02*
D03*
Y652499D02*
D03*
Y641479D02*
D03*
Y630459D02*
D03*
Y619439D02*
D03*
Y608419D02*
D03*
Y597399D02*
D03*
Y586379D02*
D03*
Y575359D02*
D03*
Y564339D02*
D03*
Y553319D02*
D03*
Y542299D02*
D03*
Y531279D02*
D03*
Y520259D02*
D03*
Y509239D02*
D03*
Y498219D02*
D03*
Y487199D02*
D03*
Y476179D02*
D03*
Y465159D02*
D03*
Y454139D02*
D03*
Y443119D02*
D03*
Y432099D02*
D03*
Y421079D02*
D03*
Y410059D02*
D03*
Y399039D02*
D03*
Y388019D02*
D03*
Y376999D02*
D03*
Y365979D02*
D03*
Y354959D02*
D03*
Y343939D02*
D03*
Y332919D02*
D03*
Y321899D02*
D03*
Y310879D02*
D03*
Y299859D02*
D03*
Y288839D02*
D03*
Y277819D02*
D03*
Y266800D02*
D03*
Y255779D02*
D03*
Y244760D02*
D03*
Y233739D02*
D03*
Y222719D02*
D03*
Y211700D02*
D03*
Y200679D02*
D03*
Y189660D02*
D03*
Y178640D02*
D03*
Y167619D02*
D03*
Y156600D02*
D03*
Y145580D02*
D03*
Y134559D02*
D03*
Y123540D02*
D03*
Y112520D02*
D03*
Y101500D02*
D03*
Y90480D02*
D03*
Y79460D02*
D03*
Y68440D02*
D03*
Y57420D02*
D03*
Y46400D02*
D03*
Y35380D02*
D03*
Y24360D02*
D03*
Y13340D02*
D03*
X19128Y8999D02*
D03*
X30148D02*
D03*
X41168D02*
D03*
X52188D02*
D03*
X63208D02*
D03*
X74228D02*
D03*
X85248D02*
D03*
X96268D02*
D03*
X107288D02*
D03*
X118308D02*
D03*
X129328D02*
D03*
X140348D02*
D03*
X151368D02*
D03*
X162388D02*
D03*
X173408D02*
D03*
X184428D02*
D03*
X195448D02*
D03*
X206468D02*
D03*
X217488D02*
D03*
X228508D02*
D03*
X239528D02*
D03*
X250548D02*
D03*
X261568D02*
D03*
X272588D02*
D03*
X283608D02*
D03*
X294628D02*
D03*
X305648D02*
D03*
X316668D02*
D03*
X327688D02*
D03*
X338708D02*
D03*
X349728D02*
D03*
X360748D02*
D03*
X371768D02*
D03*
X382788D02*
D03*
X393808D02*
D03*
X404828D02*
D03*
X415848D02*
D03*
X426868D02*
D03*
X437888D02*
D03*
X448908D02*
D03*
X459928D02*
D03*
X470948D02*
D03*
X481968D02*
D03*
X492988D02*
D03*
X504008D02*
D03*
X515028D02*
D03*
X526048D02*
D03*
X537068D02*
D03*
X548088D02*
D03*
X559108D02*
D03*
X570128D02*
D03*
X581148D02*
D03*
X592168D02*
D03*
X603188D02*
D03*
X614208D02*
D03*
X625228D02*
D03*
X636248D02*
D03*
X647268D02*
D03*
X658288D02*
D03*
X669308D02*
D03*
X680328D02*
D03*
X691348D02*
D03*
X702368D02*
D03*
X713388D02*
D03*
X724408D02*
D03*
X735428D02*
D03*
X746448D02*
D03*
X757468D02*
D03*
X768488D02*
D03*
X779508D02*
D03*
X790528D02*
D03*
X801548D02*
D03*
X812568D02*
D03*
X823588D02*
D03*
X834608D02*
D03*
X845628D02*
D03*
X856648D02*
D03*
X867668D02*
D03*
X878688D02*
D03*
X889695Y9522D02*
D03*
X891001Y20464D02*
D03*
Y31484D02*
D03*
Y42504D02*
D03*
Y53524D02*
D03*
Y64544D02*
D03*
Y75564D02*
D03*
Y86584D02*
D03*
Y97604D02*
D03*
Y108624D02*
D03*
Y119644D02*
D03*
Y130664D02*
D03*
Y141684D02*
D03*
Y152704D02*
D03*
Y163724D02*
D03*
Y174744D02*
D03*
Y185764D02*
D03*
Y196784D02*
D03*
Y207804D02*
D03*
Y218824D02*
D03*
Y229844D02*
D03*
Y240864D02*
D03*
Y251884D02*
D03*
Y262904D02*
D03*
Y273924D02*
D03*
Y284944D02*
D03*
Y295964D02*
D03*
Y306984D02*
D03*
Y318004D02*
D03*
Y329024D02*
D03*
Y340044D02*
D03*
Y351064D02*
D03*
Y362084D02*
D03*
Y373104D02*
D03*
Y384124D02*
D03*
Y395144D02*
D03*
Y406164D02*
D03*
Y417184D02*
D03*
Y428204D02*
D03*
Y439224D02*
D03*
Y450244D02*
D03*
Y461264D02*
D03*
Y472284D02*
D03*
Y483304D02*
D03*
Y494324D02*
D03*
Y505344D02*
D03*
Y516364D02*
D03*
Y527384D02*
D03*
Y538404D02*
D03*
Y549424D02*
D03*
Y560444D02*
D03*
Y571464D02*
D03*
Y582484D02*
D03*
Y593504D02*
D03*
Y604524D02*
D03*
Y615544D02*
D03*
Y626564D02*
D03*
Y637584D02*
D03*
Y648604D02*
D03*
Y659624D02*
D03*
Y670644D02*
D03*
Y681664D02*
D03*
Y692684D02*
D03*
Y703704D02*
D03*
Y714724D02*
D03*
Y725743D02*
D03*
Y736764D02*
D03*
Y747784D02*
D03*
Y758803D02*
D03*
Y769824D02*
D03*
Y780844D02*
D03*
Y791863D02*
D03*
Y802884D02*
D03*
Y813904D02*
D03*
Y824923D02*
D03*
Y835944D02*
D03*
Y846964D02*
D03*
Y857983D02*
D03*
Y869003D02*
D03*
Y880023D02*
D03*
D107*
X654370Y344700D02*
X654432D01*
X690600Y307493D02*
Y308532D01*
X627201Y371869D02*
X654370Y344700D01*
X654432D02*
X690600Y308532D01*
X627201Y371869D02*
Y419899D01*
X265000Y816000D02*
Y847000D01*
X272800Y854800D01*
X265000Y816000D02*
X271000Y810000D01*
X280000D01*
X272800Y854800D02*
X278800D01*
X279000Y855000D01*
X39770Y258230D02*
Y261608D01*
X39400Y261978D02*
X39770Y261608D01*
Y258230D02*
X40000Y258000D01*
X36808Y104892D02*
X55108D01*
X110000Y50000D01*
X27400Y114300D02*
X36808Y104892D01*
X155000Y831000D02*
X156000Y832000D01*
X194000D01*
X45100Y179100D02*
X102170D01*
X27400Y165100D02*
X30972D01*
X34949Y169077D01*
X35077D01*
X45100Y179100D01*
X30972Y241300D02*
X34503Y244831D01*
X27400Y241300D02*
X30972D01*
X34503Y244831D02*
X35522D01*
X43392Y252700D01*
X42300Y227300D02*
X53000D01*
X27400Y215900D02*
X30900D01*
X42300Y227300D01*
X53000D02*
X94370D01*
X52800Y227500D02*
Y241300D01*
Y227500D02*
X53000Y227300D01*
X417000Y815000D02*
Y835000D01*
X400140Y843000D02*
X409000D01*
X417000Y835000D01*
X409000Y807000D02*
X417000Y815000D01*
X52800Y215900D02*
X62700Y206000D01*
X120868D01*
X164168Y249300D01*
X342705D01*
X405000Y311595D01*
Y352000D01*
X408000Y355000D01*
X429786Y376786D01*
X440000D01*
X500000D01*
X528989D01*
X540202Y388000D01*
X549202Y397000D01*
X560000D01*
X347000Y237000D02*
X411000Y301000D01*
X179798Y237000D02*
X347000D01*
X82498Y139700D02*
X179798Y237000D01*
X52800Y139700D02*
X82498D01*
X46978Y279000D02*
X59000D01*
X39400Y271422D02*
X46978Y279000D01*
X39400Y261978D02*
Y271422D01*
X443675Y359000D02*
X444000D01*
X440675Y362000D02*
X443675Y359000D01*
X426000Y362000D02*
X440675D01*
X422000Y358000D02*
X426000Y362000D01*
X422000Y320393D02*
Y358000D01*
X345607Y244000D02*
X422000Y320393D01*
X167070Y244000D02*
X345607D01*
X102170Y179100D02*
X167070Y244000D01*
X525086Y381086D02*
X561000Y417000D01*
X425086Y381086D02*
X525086D01*
X399200Y355200D02*
X425086Y381086D01*
X399200Y318725D02*
Y355200D01*
X351475Y271000D02*
X399200Y318725D01*
X242000Y271000D02*
X351475D01*
X238200Y274800D02*
X242000Y271000D01*
X165600Y274800D02*
X238200D01*
X160900Y270100D02*
X165600Y274800D01*
X137170Y270100D02*
X160900D01*
X94370Y227300D02*
X137170Y270100D01*
X555000Y391000D02*
X562202D01*
X566800Y395598D01*
Y419402D01*
X563402Y422800D02*
X566800Y419402D01*
X534800Y422800D02*
X563402D01*
X500000Y388000D02*
X534800Y422800D01*
X440000Y388000D02*
X500000D01*
X424000D02*
X440000D01*
X393400Y357400D02*
X424000Y388000D01*
X393400Y355000D02*
Y357400D01*
Y321127D02*
Y355000D01*
X349273Y277000D02*
X393400Y321127D01*
X246000Y277000D02*
X349273D01*
X242400Y280600D02*
X246000Y277000D01*
X160000Y280600D02*
X242400D01*
X139468D02*
X160000D01*
X118868Y260000D02*
X139468Y280600D01*
X100168Y241300D02*
X118868Y260000D01*
X73608Y241300D02*
X100168D01*
X62208Y252700D02*
X73608Y241300D01*
X43392Y252700D02*
X62208D01*
X70000Y272000D02*
X70230Y271770D01*
X73048Y654952D02*
X79000Y649000D01*
X93000D01*
X63325Y669000D02*
X66325Y672000D01*
X63000Y669000D02*
X63325D01*
X66325Y672000D02*
X138000D01*
X93000Y649000D02*
X103000Y639000D01*
X83000Y660300D02*
X90700D01*
X109000Y642000D01*
X37100Y634100D02*
X45000Y642000D01*
Y676000D01*
X31800Y636295D02*
X39700Y644195D01*
Y678450D01*
X37100Y600799D02*
Y634100D01*
X31800Y596130D02*
Y636295D01*
X37100Y600799D02*
X45000Y592899D01*
X213025Y254625D02*
Y268975D01*
X213000Y269000D02*
X213025Y268975D01*
Y254625D02*
X213050Y254600D01*
X39700Y678450D02*
X57802Y696552D01*
X45000Y676000D02*
X75000Y706000D01*
X38900Y506800D02*
Y589030D01*
X45000Y556600D02*
Y592899D01*
X27400Y495300D02*
X38900Y506800D01*
X45000Y556600D02*
X50800Y550800D01*
X31800Y596130D02*
X38900Y589030D01*
X76640Y723900D02*
X109201D01*
X152800Y729200D02*
X169000Y713000D01*
X75000Y722260D02*
X76640Y723900D01*
X75000Y706000D02*
Y722260D01*
X74445Y729200D02*
X152800D01*
X57802Y712557D02*
X74445Y729200D01*
X57802Y696552D02*
Y712557D01*
X114101Y719000D02*
X148000D01*
X171000Y696000D01*
X109201Y723900D02*
X114101Y719000D01*
X375000Y385280D02*
X377720Y388000D01*
X411030Y421309D02*
Y501827D01*
X377720Y388000D02*
X379000Y389280D01*
X411030Y421309D01*
X350000Y360280D02*
X375000Y385280D01*
X298000Y366000D02*
X315000Y383000D01*
Y441000D02*
X346000Y472000D01*
X315000Y383000D02*
Y441000D01*
X321000Y358000D02*
Y439000D01*
X346000Y464000D01*
X311000Y348000D02*
X321000Y358000D01*
X327000Y437000D02*
X346000Y456000D01*
X321000Y342000D02*
X327000Y348000D01*
Y437000D01*
X500000Y318351D02*
X501858Y320209D01*
Y320534D01*
X814750Y467000D02*
Y520481D01*
X794400Y178600D02*
X857800Y115200D01*
X267000Y397000D02*
Y470360D01*
X406175Y807025D02*
X406200Y807000D01*
X409000D01*
X400089Y807255D02*
X400319Y807025D01*
X406175D01*
X206337Y142000D02*
X320739D01*
X203200Y138862D02*
X206337Y142000D01*
X320739D02*
X372298Y90442D01*
X203200Y124000D02*
X322839D01*
X799700Y186300D02*
X845400Y140600D01*
X805000Y198000D02*
Y370505D01*
Y198000D02*
X837000Y166000D01*
X794400Y178600D02*
Y360600D01*
X765235Y330635D02*
X789100Y354500D01*
X791300Y363700D02*
X794400Y360600D01*
X799700Y186300D02*
Y366300D01*
X795202Y380302D02*
X805000Y370505D01*
X797000Y369000D02*
X799700Y366300D01*
X795000Y388000D02*
X815000Y368000D01*
Y208000D02*
X831600Y191400D01*
X815000Y208000D02*
Y368000D01*
X715300Y307400D02*
X738535Y330635D01*
X765235D01*
X753460Y338000D02*
X755100Y339640D01*
X743323Y338000D02*
X753460D01*
X740323Y340999D02*
X743323Y338000D01*
X755100Y339640D02*
Y347030D01*
X739998Y340999D02*
X740323D01*
X764940Y363700D02*
X791300D01*
X759640Y369000D02*
X797000D01*
X763300Y351940D02*
Y362060D01*
X764940Y363700D01*
X761360Y350000D02*
X763300Y351940D01*
X758070Y350000D02*
X761360D01*
X758000Y357000D02*
Y367360D01*
X759640Y369000D01*
X742000Y623405D02*
X746239Y619166D01*
X742000Y610868D02*
X746239Y615107D01*
X742000Y602000D02*
Y610868D01*
Y623405D02*
Y642070D01*
Y602000D02*
X769000Y575000D01*
Y534000D02*
Y575000D01*
X746239Y615107D02*
Y619166D01*
X742000Y658000D02*
Y749000D01*
X741100Y642970D02*
Y647030D01*
Y642970D02*
X742000Y642070D01*
Y647930D02*
Y658000D01*
X741100Y647030D02*
X742000Y647930D01*
X64200Y269800D02*
Y273800D01*
X59000Y279000D02*
X64200Y273800D01*
X262970Y297900D02*
X330100D01*
X340000Y288000D01*
X238500Y706500D02*
X242700Y702300D01*
Y628625D02*
X245000Y626325D01*
X242700Y628625D02*
Y702300D01*
X248000Y631798D02*
X340598Y539200D01*
X248000Y631798D02*
Y707000D01*
X243800Y711200D02*
X248000Y707000D01*
X245000Y626000D02*
Y626325D01*
X238500Y706500D02*
Y720500D01*
X233000Y726000D02*
X238500Y720500D01*
X243800Y711200D02*
Y726200D01*
X232800Y737200D02*
X243800Y726200D01*
X193000Y633000D02*
X193230Y632770D01*
Y631275D02*
X199805Y624700D01*
X193230Y631275D02*
Y632770D01*
X244000Y408000D02*
X251700Y400300D01*
X244000Y408000D02*
Y437495D01*
X246700Y440195D01*
Y453000D01*
X251700Y386805D02*
Y400300D01*
Y386805D02*
X256000Y382505D01*
Y379000D02*
Y382505D01*
X257000Y389000D02*
Y402505D01*
X250000Y409505D02*
X257000Y402505D01*
X250000Y409505D02*
Y436000D01*
X71000Y263000D02*
X100000D01*
X64200Y269800D02*
X71000Y263000D01*
X131000Y294000D02*
X259070D01*
X100000Y263000D02*
X131000Y294000D01*
X259070D02*
X262970Y297900D01*
X493936Y561036D02*
Y571000D01*
X489000Y556100D02*
X493936Y561036D01*
X482000Y557000D02*
X482230Y556770D01*
X486200Y550800D02*
X537860D01*
X482230Y554770D02*
Y556770D01*
Y554770D02*
X486200Y550800D01*
X700000Y176000D02*
Y176240D01*
X698000Y178240D02*
Y246000D01*
Y178240D02*
X700000Y176240D01*
X546202Y103000D02*
X570000Y79202D01*
X410200Y103000D02*
X546202D01*
X382200Y131000D02*
X410200Y103000D01*
X346000Y472000D02*
X379000Y505000D01*
X411800Y537800D01*
Y571000D01*
X857800Y115200D02*
X872000D01*
X429000Y312000D02*
Y353000D01*
X418000Y301000D02*
X429000Y312000D01*
X411000Y301000D02*
X418000D01*
X377415Y324415D02*
X387600Y334600D01*
X374614Y324415D02*
X377415D01*
X364199Y314000D02*
X374614Y324415D01*
X711084Y322084D02*
X737500Y348500D01*
Y411368D01*
X708084Y322084D02*
X711084D01*
X708000Y322000D02*
X708084Y322084D01*
X346000Y456000D02*
X379000Y489000D01*
X390770Y500770D01*
X404770D01*
X379000Y497000D02*
X390000Y508000D01*
X346000Y464000D02*
X379000Y497000D01*
X390000Y508000D02*
X409000D01*
X252000Y445000D02*
Y466000D01*
X257000Y410000D02*
Y440000D01*
X252000Y445000D02*
X257000Y440000D01*
X138000Y672000D02*
X171400Y638600D01*
X126200Y697899D02*
X177200Y646899D01*
X78000Y666000D02*
X135000D01*
X165600Y635400D01*
X103000Y617000D02*
Y639000D01*
X109000Y620000D02*
Y642000D01*
X103000Y617000D02*
X195000Y525000D01*
X454770Y759230D02*
X455000Y759000D01*
X756300Y355300D02*
X758000Y357000D01*
X755875Y355300D02*
X756300D01*
X749575Y349000D02*
X755875Y355300D01*
X742800Y349000D02*
X749575D01*
X755100Y347030D02*
X758070Y350000D01*
X743000Y360000D02*
Y369000D01*
X754303Y380302D02*
X795202D01*
X743000Y369000D02*
X754303Y380302D01*
X752565Y388000D02*
X795000D01*
X370800Y761800D02*
X447400D01*
X449970Y759230D01*
X454770D01*
X202000Y630000D02*
Y674000D01*
X211000Y619000D02*
X216000Y624000D01*
Y663000D01*
X232800Y737200D02*
Y742500D01*
X259000Y629000D02*
Y720000D01*
X245000Y734000D02*
X259000Y720000D01*
X244000Y742500D02*
X277100Y709400D01*
Y664698D02*
Y709400D01*
X204195Y624700D02*
X208000Y628505D01*
X199805Y624700D02*
X204195D01*
X208000Y628505D02*
Y669000D01*
X224000Y619000D02*
Y657000D01*
X93300Y327098D02*
X100000Y333798D01*
X93300Y313000D02*
Y327098D01*
X88000Y301000D02*
X93000Y296000D01*
X88000Y301000D02*
Y330000D01*
X93000Y281798D02*
Y296000D01*
X82200Y298800D02*
Y333562D01*
Y298800D02*
X86000Y295000D01*
X100000Y333798D02*
Y334000D01*
X133600Y367600D01*
X87000Y370000D02*
X93101Y376101D01*
X87000Y339000D02*
Y370000D01*
X719000Y496988D02*
X730000Y507988D01*
X719000Y469750D02*
Y496988D01*
Y417070D02*
Y469750D01*
Y417070D02*
X725900Y410170D01*
X733465Y511452D02*
Y518000D01*
X730000Y507988D02*
X733465Y511452D01*
X712900Y454970D02*
Y469750D01*
X727665Y512665D02*
Y518000D01*
X712900Y469750D02*
Y497900D01*
X727665Y512665D01*
X747100Y429170D02*
Y521100D01*
X763000Y537000D02*
Y569250D01*
X747100Y521100D02*
X763000Y537000D01*
Y513930D02*
Y528000D01*
X769000Y534000D01*
X697000Y635250D02*
X763000Y569250D01*
Y513930D02*
X769900Y507030D01*
X70230Y271770D02*
X82973D01*
X93000Y281798D01*
X76400Y290600D02*
X85000Y282000D01*
X76400Y290600D02*
Y331159D01*
X70600Y292600D02*
Y315822D01*
X67000Y289000D02*
X70600Y292600D01*
X100000Y342000D02*
X114000Y356000D01*
X108000Y423675D02*
X114000Y417675D01*
Y356000D02*
Y417675D01*
X126000Y467800D02*
X128200Y470000D01*
X126000Y374995D02*
Y467800D01*
X358000Y749000D02*
X370800Y761800D01*
X358000Y730000D02*
Y749000D01*
X133600Y367600D02*
X160000D01*
X88000Y330000D02*
X100000Y342000D01*
X831600Y191400D02*
X872000D01*
X837000Y166000D02*
X872000D01*
X845400Y140600D02*
X872000D01*
X743465Y378900D02*
X752565Y388000D01*
X438200Y543800D02*
X451532D01*
X438000Y544000D02*
X438200Y543800D01*
X451532D02*
X459000Y536332D01*
X456028Y561800D02*
X459200D01*
X455980Y561848D02*
X456028Y561800D01*
X459200D02*
X476400Y544600D01*
X444000Y556000D02*
X456797D01*
X470600Y542197D01*
X45992Y430500D02*
X57522D01*
X39600Y444500D02*
X41400Y442700D01*
Y435092D02*
Y442700D01*
Y435092D02*
X45992Y430500D01*
X27400Y444500D02*
X39600D01*
X57522Y430500D02*
X72200Y415822D01*
X78000Y355000D02*
Y376000D01*
X50800Y497300D02*
Y550800D01*
Y497300D02*
X52800Y495300D01*
X65200Y542402D02*
X79193Y556395D01*
X65200Y486892D02*
Y542402D01*
X62208Y483900D02*
X65200Y486892D01*
X43392Y483900D02*
X62208D01*
X41400Y485892D02*
Y493500D01*
X39600Y495300D02*
X41400Y493500D01*
X27400Y495300D02*
X39600D01*
X41400Y485892D02*
X43392Y483900D01*
X219000Y365000D02*
Y449202D01*
X180285Y487917D02*
X219000Y449202D01*
X180285Y487917D02*
Y519108D01*
X142998Y556395D02*
X180285Y519108D01*
X79193Y556395D02*
X142998D01*
X59400Y327022D02*
X70600Y315822D01*
X59400Y327022D02*
Y336300D01*
X52800Y342900D02*
X59400Y336300D01*
X72200Y343562D02*
Y415822D01*
Y343562D02*
X82200Y333562D01*
X63760Y380740D02*
Y382740D01*
X52800Y393700D02*
X63760Y382740D01*
Y380740D02*
X66400Y378100D01*
Y341159D02*
Y378100D01*
Y341159D02*
X76400Y331159D01*
X297200Y112800D02*
X350000Y60000D01*
X233000Y112800D02*
X297200D01*
X85000Y382000D02*
Y427798D01*
X75800Y436997D02*
Y529475D01*
X79000Y532675D01*
X71000Y540000D02*
X90202D01*
X79000Y532675D02*
Y533000D01*
X201000Y523000D02*
Y528000D01*
X109000Y620000D02*
X201000Y528000D01*
X195000Y513000D02*
Y525000D01*
X207000Y490200D02*
Y540202D01*
X165600Y581602D02*
X207000Y540202D01*
X165600Y581602D02*
Y635400D01*
X171400Y588243D02*
X213601Y546042D01*
X171400Y588243D02*
Y638600D01*
X213601Y502601D02*
Y546042D01*
X173000Y138000D02*
Y194000D01*
X154000Y119000D02*
X173000Y138000D01*
X104000Y119000D02*
X154000D01*
X87000Y136000D02*
X104000Y119000D01*
X196494Y360171D02*
X201200Y355465D01*
X196494Y360171D02*
Y361506D01*
X165900Y392100D02*
X196494Y361506D01*
X165900Y392100D02*
Y452102D01*
X219000Y614000D02*
X224000Y619000D01*
X177200Y609800D02*
X201000Y586000D01*
X183000Y614000D02*
X201000Y596000D01*
X183000Y614000D02*
Y655000D01*
X177200Y609800D02*
Y646899D01*
X259000Y472000D02*
X265360D01*
X267000Y470360D01*
X252800Y479800D02*
X287875D01*
X247000Y474000D02*
X252800Y479800D01*
X373800Y730000D02*
X433800Y670000D01*
X428430Y408445D02*
Y484834D01*
X407985Y388000D02*
X428430Y408445D01*
X160000Y458002D02*
X165900Y452102D01*
X81600Y515600D02*
X94000Y528000D01*
X684800Y305090D02*
X741000Y248890D01*
X546210Y540850D02*
X564000D01*
X93200Y500402D02*
X104800Y512002D01*
X659405Y577000D02*
X689601Y546804D01*
X711625Y529750D02*
X718875Y537000D01*
X733465Y518000D02*
Y537000D01*
Y544794D01*
X277100Y664698D02*
X369798Y572000D01*
X690600Y307493D02*
X753000Y245093D01*
X402000Y571000D02*
Y593000D01*
X391000Y604000D02*
X402000Y593000D01*
X345000Y650000D02*
X391000Y604000D01*
X377770Y440770D02*
X378000Y441000D01*
X411800Y571000D02*
Y604000D01*
X375568Y440770D02*
X377770D01*
X338400Y302195D02*
Y403602D01*
X445000Y309500D02*
Y343000D01*
X104800Y512002D02*
Y525402D01*
X340598Y539200D02*
X346000D01*
X400759Y96242D02*
X527161D01*
X346000Y539200D02*
X379000D01*
X547693Y460700D02*
X564000D01*
X289675Y478000D02*
X290000D01*
X379000Y539200D02*
X398399D01*
X186085Y502912D02*
Y521510D01*
X470600Y537793D02*
X547693Y460700D01*
X287875Y479800D02*
X289675Y478000D01*
X186085Y502912D02*
X227000Y461998D01*
Y374000D02*
Y461998D01*
X560310Y49690D02*
X570000Y40000D01*
X545420Y454770D02*
X564000D01*
X464800Y535390D02*
X545420Y454770D01*
X709000Y342393D02*
X731700Y365093D01*
X128200Y470000D02*
X134000Y475800D01*
X644504Y604000D02*
X695900Y552604D01*
X550095Y466500D02*
X564000D01*
X379000Y562798D02*
X396798Y545000D01*
X476400Y540195D02*
X550095Y466500D01*
X369798Y572000D02*
X379000Y562798D01*
X160000Y466205D02*
X188000Y438205D01*
X156205Y470000D02*
X160000Y466205D01*
X128205Y498000D02*
X156205Y470000D01*
X493936Y571000D02*
Y604000D01*
X99000Y498000D02*
X128205D01*
X493936Y604000D02*
Y650466D01*
X506000Y332000D02*
X639523D01*
X565000Y577000D02*
X659405D01*
X387600Y367616D02*
X407985Y388000D01*
X597000Y448970D02*
X613030D01*
X387600Y355000D02*
Y367616D01*
X503598Y326200D02*
X637121D01*
X543018Y448970D02*
X564000D01*
X387600Y334600D02*
Y355000D01*
X99000Y489000D02*
X129002D01*
X459000Y532988D02*
X543018Y448970D01*
X422630Y410848D02*
Y495154D01*
X500000Y328770D02*
X501027D01*
X399782Y388000D02*
X422630Y410848D01*
X428430Y484834D02*
X463595Y520000D01*
X497230Y328770D02*
X500000D01*
X718875Y537000D02*
X721865Y539990D01*
X597000Y443170D02*
X602922Y437249D01*
X707870Y525995D02*
X711625Y529750D01*
X670000Y525995D02*
X707870D01*
X195000Y382000D02*
Y444000D01*
X597000Y525995D02*
X670000D01*
X488136Y562864D02*
Y571000D01*
X148002Y470000D02*
X160000Y458002D01*
X564000Y525995D02*
X597000D01*
X488136Y571000D02*
Y604000D01*
X129002Y489000D02*
X148002Y470000D01*
X557000Y525995D02*
X564000D01*
X488136Y604000D02*
Y648064D01*
X555995Y525995D02*
X557000D01*
X542000Y512000D02*
X555995Y525995D01*
X597000Y559150D02*
X651850D01*
X564000D02*
X597000D01*
Y454770D02*
X620712D01*
X375000Y363218D02*
X399782Y388000D01*
X363499Y351717D02*
X375000Y363218D01*
X368000Y746000D02*
X378000Y756000D01*
X437000Y604000D02*
X469000Y572000D01*
X404770Y500770D02*
X405000Y501000D01*
X564000Y466500D02*
X597000D01*
X108000Y423675D02*
Y424000D01*
X597000Y540850D02*
X662850D01*
X338400Y403602D02*
X375568Y440770D01*
X346000Y403000D02*
X375000Y432000D01*
X344200Y401200D02*
X346000Y403000D01*
X160000Y367600D02*
X179000D01*
X727665Y518000D02*
Y529750D01*
X344200Y304598D02*
Y401200D01*
X727665Y529750D02*
Y537000D01*
X547000Y604000D02*
X644504D01*
X597000Y460700D02*
X628642D01*
X564000Y540850D02*
X597000D01*
X369000Y690000D02*
X380800Y701800D01*
X597000Y466500D02*
X645570D01*
X559000Y577000D02*
X565000D01*
X358000Y663199D02*
X411800Y609399D01*
X375000Y371420D02*
X391580Y388000D01*
X435800Y605200D02*
X437000Y604000D01*
X204000Y376000D02*
Y446675D01*
X416830Y413250D02*
Y499425D01*
X143770Y510230D02*
Y514230D01*
X697000Y658000D02*
Y661000D01*
X509000Y642000D02*
X547000Y604000D01*
X553000Y571000D02*
X559000Y577000D01*
X411800Y604000D02*
Y609399D01*
X493262Y90442D02*
X519690Y64014D01*
X357699Y354119D02*
X375000Y371420D01*
X769900Y443768D02*
Y507030D01*
X485359Y84642D02*
X510000Y60000D01*
X597000Y571000D02*
X657202D01*
X391580Y388000D02*
X416830Y413250D01*
X131000Y527000D02*
X143770Y514230D01*
X697000Y635250D02*
Y658000D01*
X200347Y79585D02*
X200532Y79400D01*
X252506D01*
X270000Y61906D01*
Y60000D02*
Y61906D01*
X250104Y73600D02*
X259690Y64014D01*
Y50310D02*
Y64014D01*
Y50310D02*
X270000Y40000D01*
X708126Y545789D02*
X724267D01*
X279690Y50310D02*
Y64014D01*
X726670Y551589D02*
X733465Y544794D01*
X187000Y92000D02*
X199415Y79585D01*
X495748Y535050D02*
X552000D01*
X703340Y541004D02*
X708126Y545789D01*
X491598Y539200D02*
X495748Y535050D01*
X687199Y541004D02*
X703340D01*
X485598Y539200D02*
X491598D01*
X93200Y450125D02*
Y500402D01*
X414800Y505598D02*
Y507527D01*
X411030Y501827D02*
X414800Y505598D01*
X597100Y384970D02*
X643170Y338900D01*
X260906Y91000D02*
X290000Y61906D01*
X689601Y546804D02*
X700938D01*
X602922Y437249D02*
X609851D01*
X50800Y550800D02*
X62195Y562195D01*
X753000Y222000D02*
Y245093D01*
X81600Y439400D02*
Y515600D01*
Y439400D02*
X90000Y431000D01*
X87400Y504400D02*
X99000Y516000D01*
X87400Y443925D02*
Y504400D01*
Y443925D02*
X91000Y440325D01*
X319690Y50310D02*
X330000Y40000D01*
X597100Y421100D02*
X607449Y431449D01*
X338400Y302195D02*
X340000Y300595D01*
X322839Y124000D02*
X362198Y84642D01*
X441000Y305500D02*
X445000Y309500D01*
X510000Y40000D02*
X519690Y49690D01*
X93200Y450125D02*
X96000Y447325D01*
X388000Y109000D02*
X400759Y96242D01*
X62195Y562195D02*
X145400D01*
X90202Y540000D02*
X104800Y525402D01*
X145400Y562195D02*
X186085Y521510D01*
X527161Y96242D02*
X539690Y83713D01*
Y56606D02*
Y83713D01*
Y56606D02*
X546606Y49690D01*
X560310D01*
X201000Y449675D02*
Y450000D01*
X570000Y40000D02*
Y40000D01*
X201000Y449675D02*
X204000Y446675D01*
X570000Y60000D02*
Y79202D01*
X709000Y333000D02*
Y342393D01*
X396798Y545000D02*
X406000D01*
X182000Y107000D02*
X284906D01*
X704000Y190000D02*
Y238000D01*
X284906Y107000D02*
X330000Y61906D01*
X704000Y190000D02*
X710000Y184000D01*
X330000Y60000D02*
Y61906D01*
X358000Y730000D02*
X373800D01*
X597100Y384970D02*
Y421100D01*
X218000Y91000D02*
X260906D01*
X188000Y400000D02*
Y438205D01*
X643170Y338900D02*
X652030D01*
X290000Y60000D02*
Y61906D01*
X652030Y338900D02*
X684800Y306130D01*
X205800Y85200D02*
X258504D01*
X684800Y305090D02*
Y306130D01*
X258504Y85200D02*
X279690Y64014D01*
X388402Y756000D02*
X493936Y650466D01*
X705723Y551589D02*
X726670D01*
X199415Y79585D02*
X200347D01*
X700938Y546804D02*
X705723Y551589D01*
X378000Y756000D02*
X388402D01*
X713000Y217000D02*
Y250320D01*
X613030Y448970D02*
X701000Y361000D01*
X637121Y326200D02*
X713000Y250320D01*
X501027Y328770D02*
X503598Y326200D01*
X132000Y706000D02*
X183000Y655000D01*
X459000Y532988D02*
Y536332D01*
X482200Y542598D02*
Y547002D01*
X542060Y545000D02*
X546210Y540850D01*
X461602Y567600D02*
X482200Y547002D01*
X488000Y545000D02*
X542060D01*
X456725Y567600D02*
X461602D01*
X609851Y437249D02*
X627201Y419899D01*
X189000Y450000D02*
X195000Y444000D01*
X766312Y281636D02*
X769675Y285000D01*
X745566Y281636D02*
X766312D01*
X386000Y750200D02*
X488136Y648064D01*
X631008Y444992D02*
X707000Y369000D01*
X719000Y228000D02*
Y252523D01*
X630491Y444992D02*
X631008D01*
X639523Y332000D02*
X719000Y252523D01*
X537860Y550800D02*
X546210Y559150D01*
X620712Y454770D02*
X630491Y444992D01*
X75800Y436997D02*
X85000Y427798D01*
X363499Y327601D02*
Y351717D01*
X198129Y73600D02*
X250104D01*
X91000Y440000D02*
Y440325D01*
X662850Y540850D02*
X671000Y549000D01*
X476400Y540195D02*
Y544600D01*
X357699Y325199D02*
Y354119D01*
X669706Y417294D02*
X711000Y376000D01*
X669706Y417294D02*
Y418564D01*
X637300Y450970D02*
X669706Y418564D01*
X218001Y99201D02*
X284503D01*
X637300Y450970D02*
Y452042D01*
X340000Y288554D02*
Y300595D01*
X284503Y99201D02*
X319690Y64014D01*
X628642Y460700D02*
X637300Y452042D01*
X344200Y304598D02*
X349000Y299798D01*
X319690Y50310D02*
Y64014D01*
X724267Y545789D02*
X727665Y542392D01*
X349000Y284930D02*
Y299798D01*
X357699Y325199D02*
X358899Y323999D01*
X519690Y49690D02*
Y64014D01*
X96000Y447000D02*
Y447325D01*
X707100Y404970D02*
Y449170D01*
X731700Y413770D02*
X747100Y429170D01*
X702200Y343795D02*
X725900Y367495D01*
X389402Y701800D02*
X435800Y655402D01*
X737500Y411368D02*
X769900Y443768D01*
X372298Y90442D02*
X493262D01*
X645970Y466100D02*
X647830D01*
X719800Y369598D02*
Y392270D01*
X702200Y312298D02*
X720268Y294230D01*
X814750Y520481D02*
X823045Y528775D01*
X678100Y417900D02*
Y435830D01*
X436000Y339675D02*
X438804Y342479D01*
X696400Y309895D02*
Y346198D01*
X165000Y761700D02*
Y770000D01*
X362198Y84642D02*
X485359D01*
X441000Y272000D02*
Y305500D01*
X470600Y537793D02*
Y542197D01*
X657202Y571000D02*
X687199Y541004D01*
X720446Y294230D02*
X720749Y293927D01*
X420600Y503195D02*
Y505124D01*
X358899Y305101D02*
Y323999D01*
X731700Y365093D02*
Y413770D01*
X725900Y367495D02*
Y410170D01*
X380800Y701800D02*
X389402D01*
X645570Y466500D02*
X645970Y466100D01*
X279690Y50310D02*
X290000Y40000D01*
X707100Y404970D02*
X719800Y392270D01*
X358000Y663199D02*
Y730000D01*
X702200Y312298D02*
Y343795D01*
X435800Y605200D02*
Y655402D01*
X647830Y466100D02*
X678100Y435830D01*
X436000Y276800D02*
Y339675D01*
X696400Y346198D02*
X719800Y369598D01*
X165000Y761700D02*
X179000Y747700D01*
X678100Y417900D02*
X714000Y382000D01*
X438804Y342479D02*
Y342804D01*
X720268Y294230D02*
X720446D01*
X696400Y309895D02*
X713648Y292648D01*
X720749Y293749D02*
Y293927D01*
X416830Y499425D02*
X420600Y503195D01*
X143770Y510230D02*
X144000Y510000D01*
X498000Y316350D02*
X500000Y318351D01*
X498000Y276000D02*
Y316350D01*
X482200Y542598D02*
X485598Y539200D01*
X454325Y570000D02*
X456725Y567600D01*
X454000Y570000D02*
X454325D01*
X154000Y481000D02*
Y537190D01*
X140595Y550595D02*
X154000Y537190D01*
X769675Y285000D02*
X770000D01*
X500000Y338000D02*
X506000Y332000D01*
X497000Y341000D02*
X500000Y338000D01*
X497000Y329000D02*
X497230Y328770D01*
X651850Y559150D02*
X652000Y559000D01*
X546210Y559150D02*
X564000D01*
X596170Y444000D02*
X597000Y443170D01*
X707100Y449170D02*
X712900Y454970D01*
X727665Y537000D02*
Y542392D01*
X564000Y571000D02*
X597000D01*
X561000D02*
X564000D01*
X741000Y211000D02*
Y248890D01*
X420600Y505124D02*
X446856Y531380D01*
X448900Y537770D02*
X449130Y538000D01*
X445044Y537770D02*
X448900D01*
X414800Y507527D02*
X445044Y537770D01*
X350000Y307000D02*
Y360280D01*
X211800Y447800D02*
X212000Y448000D01*
X211800Y388600D02*
Y447800D01*
X211600Y388400D02*
X211800Y388600D01*
X422630Y495154D02*
X452855Y525380D01*
X393000Y557000D02*
Y571000D01*
Y593000D01*
X382000Y604000D02*
X393000Y593000D01*
X343000Y643000D02*
X382000Y604000D01*
X402000Y557000D02*
Y571000D01*
X387000Y647000D02*
Y696000D01*
Y647000D02*
X430000Y604000D01*
X461300Y572700D01*
X197944Y73785D02*
X198129Y73600D01*
X201000Y90000D02*
X205800Y85200D01*
X530000Y85200D02*
X530000Y85200D01*
X530000Y60000D02*
Y85200D01*
X550000Y60000D02*
Y91000D01*
X564000Y448970D02*
X597000D01*
X564000Y454770D02*
X597000D01*
X464800Y535390D02*
Y539795D01*
X454798Y549798D02*
X464800Y539795D01*
X564000Y460700D02*
X597000D01*
D108*
X891000Y888000D02*
G03*
X888000Y891000I-3000J0D01*
G01*
Y9000D02*
G03*
X891000Y12000I0J3000D01*
G01*
X12000Y891000D02*
G03*
X9000Y888000I0J-3000D01*
G01*
Y12000D02*
G03*
X12000Y9000I3000J0D01*
G01*
X9000Y12000D02*
Y888000D01*
X891000Y12000D02*
Y888000D01*
X12000Y891000D02*
X888000D01*
X12000Y9000D02*
X888000D01*
D124*
X110000Y50000D02*
D03*
D125*
X27400Y469900D02*
D03*
Y419100D02*
D03*
X52800Y368300D02*
D03*
Y317500D02*
D03*
Y469900D02*
D03*
Y419100D02*
D03*
X30000Y841000D02*
D03*
X27400Y317500D02*
D03*
Y342900D02*
D03*
Y368300D02*
D03*
X653000Y99000D02*
D03*
X872000Y191400D02*
D03*
Y166000D02*
D03*
Y140600D02*
D03*
Y300800D02*
D03*
Y275400D02*
D03*
Y250000D02*
D03*
Y409800D02*
D03*
Y384400D02*
D03*
Y359000D02*
D03*
X52800Y215900D02*
D03*
Y190500D02*
D03*
Y165100D02*
D03*
Y241300D02*
D03*
Y266700D02*
D03*
Y292100D02*
D03*
X27400Y139700D02*
D03*
Y165100D02*
D03*
Y190500D02*
D03*
Y266700D02*
D03*
Y241300D02*
D03*
Y215900D02*
D03*
Y114300D02*
D03*
D126*
Y495300D02*
D03*
Y444500D02*
D03*
X52800Y393700D02*
D03*
Y342900D02*
D03*
Y495300D02*
D03*
Y444500D02*
D03*
X30000Y866400D02*
D03*
X27400Y393700D02*
D03*
X872000Y440000D02*
D03*
Y115200D02*
D03*
Y224600D02*
D03*
Y333600D02*
D03*
X52800Y139700D02*
D03*
X27400Y292100D02*
D03*
X249000Y874000D02*
D03*
D127*
X627600Y99000D02*
D03*
X871000Y642000D02*
D03*
D128*
X685000Y50000D02*
D03*
X215000D02*
D03*
D130*
X650000Y60000D02*
D03*
Y40000D02*
D03*
X630000Y60000D02*
D03*
Y40000D02*
D03*
X610000Y60000D02*
D03*
Y40000D02*
D03*
X590000Y60000D02*
D03*
Y40000D02*
D03*
X570000Y60000D02*
D03*
Y40000D02*
D03*
X550000Y60000D02*
D03*
Y40000D02*
D03*
X530000Y60000D02*
D03*
Y40000D02*
D03*
X510000Y60000D02*
D03*
Y40000D02*
D03*
X490000Y60000D02*
D03*
Y40000D02*
D03*
X470000Y60000D02*
D03*
Y40000D02*
D03*
X450000Y60000D02*
D03*
Y40000D02*
D03*
X430000Y60000D02*
D03*
Y40000D02*
D03*
X410000Y60000D02*
D03*
Y40000D02*
D03*
X390000Y60000D02*
D03*
Y40000D02*
D03*
X370000Y60000D02*
D03*
Y40000D02*
D03*
X350000Y60000D02*
D03*
Y40000D02*
D03*
X330000Y60000D02*
D03*
Y40000D02*
D03*
X310000Y60000D02*
D03*
Y40000D02*
D03*
X290000Y60000D02*
D03*
Y40000D02*
D03*
X270000Y60000D02*
D03*
Y40000D02*
D03*
X250000Y60000D02*
D03*
Y40000D02*
D03*
D131*
X550000Y550000D02*
D03*
D132*
X750000D02*
D03*
X752200Y833300D02*
D03*
Y858700D02*
D03*
X726800Y833300D02*
D03*
Y858700D02*
D03*
X701400Y833300D02*
D03*
Y858700D02*
D03*
X676000Y833300D02*
D03*
Y858700D02*
D03*
X650600Y833300D02*
D03*
Y858700D02*
D03*
X625200Y833300D02*
D03*
Y858700D02*
D03*
X599800Y833300D02*
D03*
Y858700D02*
D03*
D136*
X823800Y849200D02*
D03*
X88900D02*
D03*
X850900Y50800D02*
D03*
X50800D02*
D03*
D137*
X763000Y695000D02*
D03*
X649000Y357000D02*
D03*
X608999Y381999D02*
D03*
X137000Y852000D02*
D03*
X218000Y850000D02*
D03*
X279000Y817000D02*
D03*
X213101Y344000D02*
D03*
X201000Y318000D02*
D03*
X40000Y258000D02*
D03*
X547539Y155000D02*
D03*
X155000Y831000D02*
D03*
X164893Y824808D02*
D03*
X194000Y832000D02*
D03*
X870000Y778000D02*
D03*
X181000Y335000D02*
D03*
X837000Y760000D02*
D03*
X793000Y817000D02*
D03*
X788600Y805000D02*
D03*
X848998Y813998D02*
D03*
X853998D02*
D03*
X472000Y598000D02*
D03*
X499000Y445000D02*
D03*
X411000Y833000D02*
D03*
X439000Y831000D02*
D03*
X609813Y425044D02*
D03*
X259000Y860000D02*
D03*
X70000Y272000D02*
D03*
X675623Y91377D02*
D03*
X73048Y654952D02*
D03*
X63000Y669000D02*
D03*
X89000Y655000D02*
D03*
Y644000D02*
D03*
X83000Y660300D02*
D03*
X34800Y649000D02*
D03*
X213050Y254600D02*
D03*
X34800Y658000D02*
D03*
X63000Y731000D02*
D03*
X56000Y725000D02*
D03*
X80000Y734100D02*
D03*
X545000Y575000D02*
D03*
X725000Y694000D02*
D03*
X717000Y704000D02*
D03*
X729000D02*
D03*
X708000Y721000D02*
D03*
X705000Y730000D02*
D03*
X511000Y879000D02*
D03*
X501000Y880000D02*
D03*
X453700Y472200D02*
D03*
X99000Y392000D02*
D03*
X701000Y624000D02*
D03*
X822000Y567000D02*
D03*
X853000Y568000D02*
D03*
X864000Y845000D02*
D03*
X876000Y857000D02*
D03*
X864000D02*
D03*
X720000Y789000D02*
D03*
X695000Y811000D02*
D03*
X681000Y799000D02*
D03*
X250000Y713000D02*
D03*
X34000Y672000D02*
D03*
X305774Y423569D02*
D03*
X119000Y800000D02*
D03*
X91000Y751000D02*
D03*
X108000Y658000D02*
D03*
X55000Y817000D02*
D03*
X546000Y670000D02*
D03*
X758000Y655000D02*
D03*
X845000Y650000D02*
D03*
X835000D02*
D03*
X746000Y529000D02*
D03*
X800524Y393939D02*
D03*
X681000Y447000D02*
D03*
X712000Y425000D02*
D03*
X640000Y618000D02*
D03*
X663981Y747026D02*
D03*
X521000Y426000D02*
D03*
X434000Y255000D02*
D03*
X436000Y414000D02*
D03*
X473000Y434000D02*
D03*
X469000Y393000D02*
D03*
X126007Y344459D02*
D03*
X135000Y357000D02*
D03*
X835054Y198882D02*
D03*
X835000Y207000D02*
D03*
Y215000D02*
D03*
X850000Y217000D02*
D03*
X561000Y484000D02*
D03*
X470000Y328000D02*
D03*
X406867Y604237D02*
D03*
X475000Y576000D02*
D03*
X571000Y613000D02*
D03*
X500000Y645000D02*
D03*
X487000Y697000D02*
D03*
X561000Y675000D02*
D03*
X636253Y548528D02*
D03*
X670000Y758000D02*
D03*
X729000Y771000D02*
D03*
X701000Y707000D02*
D03*
Y698000D02*
D03*
X710000D02*
D03*
Y707000D02*
D03*
X657000Y661000D02*
D03*
X670000D02*
D03*
X875000Y567000D02*
D03*
X791000Y459000D02*
D03*
X733000Y482000D02*
D03*
X725018Y482957D02*
D03*
X731000Y489000D02*
D03*
X507900Y317900D02*
D03*
X501858Y320534D02*
D03*
X345000Y443000D02*
D03*
X436000Y440000D02*
D03*
X433000Y397000D02*
D03*
X391000Y443000D02*
D03*
X387000Y417000D02*
D03*
X519000Y418000D02*
D03*
X532000Y402000D02*
D03*
X617000Y438000D02*
D03*
X671000Y474000D02*
D03*
X638000Y479000D02*
D03*
X708000Y492000D02*
D03*
X691000Y508000D02*
D03*
X708000Y499000D02*
D03*
X701000Y492000D02*
D03*
X777000Y568000D02*
D03*
X864000Y523000D02*
D03*
X821000Y493000D02*
D03*
X825000Y500000D02*
D03*
X821000Y508000D02*
D03*
X858000Y476000D02*
D03*
X845000Y135000D02*
D03*
X864000Y93000D02*
D03*
X588000Y271000D02*
D03*
X502000Y252000D02*
D03*
X506000Y215000D02*
D03*
X461000Y211000D02*
D03*
X397000Y212000D02*
D03*
X369000Y215000D02*
D03*
X190000Y223000D02*
D03*
X229000Y215000D02*
D03*
X261000Y257000D02*
D03*
X295000Y287000D02*
D03*
X340000Y259000D02*
D03*
X411000Y321000D02*
D03*
X379000Y314000D02*
D03*
X332000Y340000D02*
D03*
X261900Y423000D02*
D03*
X278000Y451000D02*
D03*
X309000Y555000D02*
D03*
X317000Y574000D02*
D03*
X285000Y577000D02*
D03*
X398000Y613000D02*
D03*
X228000Y552000D02*
D03*
X251000Y578000D02*
D03*
X248000Y549000D02*
D03*
X273000Y527000D02*
D03*
X154000Y445000D02*
D03*
X168000Y520000D02*
D03*
X119000Y514000D02*
D03*
X401969Y813069D02*
D03*
X397000Y817000D02*
D03*
X400486Y800486D02*
D03*
X400089Y807255D02*
D03*
X409000Y853000D02*
D03*
X414000Y877000D02*
D03*
X398000Y862000D02*
D03*
X762000Y605000D02*
D03*
X692000Y133000D02*
D03*
X708000Y89000D02*
D03*
X599000Y152000D02*
D03*
X528000Y126000D02*
D03*
X410000Y151000D02*
D03*
X369000Y139000D02*
D03*
X340000Y138000D02*
D03*
X267000Y136000D02*
D03*
X239000Y151000D02*
D03*
X179000Y146000D02*
D03*
X188000D02*
D03*
X203200Y138862D02*
D03*
Y124000D02*
D03*
X444000Y862000D02*
D03*
X438000D02*
D03*
Y869000D02*
D03*
X770000Y355000D02*
D03*
X780000D02*
D03*
X789100Y354500D02*
D03*
X810000Y345000D02*
D03*
X789500Y305000D02*
D03*
Y295000D02*
D03*
Y323893D02*
D03*
X780000Y295000D02*
D03*
X76000Y98000D02*
D03*
X275000Y862000D02*
D03*
X272000Y822000D02*
D03*
X280000Y802736D02*
D03*
X288000Y766000D02*
D03*
X274000Y743000D02*
D03*
X288000Y713000D02*
D03*
X282000Y685000D02*
D03*
X194000Y645000D02*
D03*
X34000Y587000D02*
D03*
X84750Y575000D02*
D03*
X49660Y695340D02*
D03*
X49000Y714000D02*
D03*
X61000Y807000D02*
D03*
X173000Y719000D02*
D03*
X155000Y748000D02*
D03*
X199000Y756000D02*
D03*
X725000Y467200D02*
D03*
X566000Y432000D02*
D03*
X564000Y589000D02*
D03*
X673000D02*
D03*
X637000D02*
D03*
X623000D02*
D03*
X614000D02*
D03*
X592000D02*
D03*
X577127Y589267D02*
D03*
X762000Y595000D02*
D03*
X793000Y628000D02*
D03*
X789000Y633000D02*
D03*
X816000Y772000D02*
D03*
X790000Y776000D02*
D03*
X793000Y790000D02*
D03*
Y783000D02*
D03*
X787000Y790000D02*
D03*
Y783000D02*
D03*
X816000Y799000D02*
D03*
X800000Y765000D02*
D03*
X750000Y772000D02*
D03*
X245000Y626000D02*
D03*
X246700Y453000D02*
D03*
X256000Y379000D02*
D03*
X257000Y389000D02*
D03*
X489000Y556100D02*
D03*
X482000Y557000D02*
D03*
X82000Y795000D02*
D03*
X717000Y152000D02*
D03*
X543000Y139000D02*
D03*
X515000Y110822D02*
D03*
X411000Y116000D02*
D03*
Y131000D02*
D03*
X352000Y133000D02*
D03*
X238000Y131000D02*
D03*
X246000D02*
D03*
X136000Y435000D02*
D03*
X676000Y712765D02*
D03*
X658000Y712000D02*
D03*
X707000Y663000D02*
D03*
X762627Y680373D02*
D03*
X764000Y722765D02*
D03*
X732000Y750000D02*
D03*
X680000Y746000D02*
D03*
X685000Y673000D02*
D03*
X641000Y757000D02*
D03*
X621000Y777000D02*
D03*
X548000Y682000D02*
D03*
X450000Y661000D02*
D03*
X346000Y479000D02*
D03*
X813000Y152000D02*
D03*
X495000Y210000D02*
D03*
X404000Y246000D02*
D03*
X353000Y221000D02*
D03*
X168000Y217000D02*
D03*
X239000Y265000D02*
D03*
X304000Y292900D02*
D03*
X265000Y293000D02*
D03*
X590000Y397000D02*
D03*
X387000Y324000D02*
D03*
X377000Y356000D02*
D03*
X411000Y301000D02*
D03*
X364199Y314000D02*
D03*
X461200Y359000D02*
D03*
X507500Y361681D02*
D03*
X545000Y249000D02*
D03*
X543000Y280000D02*
D03*
X614000Y287000D02*
D03*
X617000Y312000D02*
D03*
X727535Y345465D02*
D03*
X857000Y488000D02*
D03*
X601000Y490000D02*
D03*
Y549000D02*
D03*
X505000Y604000D02*
D03*
X334000Y573000D02*
D03*
X297000Y566000D02*
D03*
X349000Y448000D02*
D03*
X345000Y423000D02*
D03*
X298000Y416000D02*
D03*
X260000Y460000D02*
D03*
X176000Y464000D02*
D03*
X160000Y447000D02*
D03*
X126200Y697899D02*
D03*
X63000Y687000D02*
D03*
X78000Y666000D02*
D03*
X159000Y592000D02*
D03*
X120000Y789000D02*
D03*
X144000Y786000D02*
D03*
X130000Y680000D02*
D03*
X248700Y723370D02*
D03*
X231000Y672000D02*
D03*
X363000Y671000D02*
D03*
X362000Y778000D02*
D03*
X376000D02*
D03*
X401669Y868750D02*
D03*
X398500Y791250D02*
D03*
X370000Y722000D02*
D03*
X445000Y720000D02*
D03*
X475000Y790000D02*
D03*
X465000Y730000D02*
D03*
X475000Y740000D02*
D03*
X453225Y750000D02*
D03*
X455000Y759000D02*
D03*
X485999Y749998D02*
D03*
X510000Y711000D02*
D03*
X505000Y790000D02*
D03*
X435000D02*
D03*
X820000Y355000D02*
D03*
Y305000D02*
D03*
X760000D02*
D03*
X820000Y295000D02*
D03*
X760000D02*
D03*
X750000Y344000D02*
D03*
X743935Y386300D02*
D03*
X744000Y392000D02*
D03*
X825000Y395000D02*
D03*
X815000Y393000D02*
D03*
X749000Y356000D02*
D03*
X830000Y355000D02*
D03*
X760000Y315000D02*
D03*
X739998Y340999D02*
D03*
X820000Y315000D02*
D03*
X465000Y712000D02*
D03*
X475000Y770000D02*
D03*
X435000Y740000D02*
D03*
X478000Y807000D02*
D03*
X463000Y815000D02*
D03*
X468000Y818000D02*
D03*
X471000Y807000D02*
D03*
X463000D02*
D03*
X444000Y869000D02*
D03*
X510000Y820000D02*
D03*
X501000D02*
D03*
X510000Y808000D02*
D03*
X501000D02*
D03*
X510000Y814000D02*
D03*
X501000D02*
D03*
X465000Y790000D02*
D03*
X108070Y191930D02*
D03*
X115000Y213000D02*
D03*
Y220000D02*
D03*
X55000Y568000D02*
D03*
X89000Y589250D02*
D03*
X47000Y725000D02*
D03*
X39000D02*
D03*
X56000Y731000D02*
D03*
X278000Y869000D02*
D03*
X202000Y674000D02*
D03*
X216000Y663000D02*
D03*
X233000Y726000D02*
D03*
X245000Y734000D02*
D03*
X244000Y742500D02*
D03*
X208000Y669000D02*
D03*
X224000Y657000D02*
D03*
X179000Y671000D02*
D03*
X288000Y670975D02*
D03*
Y727475D02*
D03*
X279000Y790757D02*
D03*
X167500Y748500D02*
D03*
X85000Y232200D02*
D03*
X89000Y214000D02*
D03*
X87000Y268000D02*
D03*
X93000Y304000D02*
D03*
X93300Y313000D02*
D03*
X86000Y295000D02*
D03*
X94000Y349000D02*
D03*
X87000Y339000D02*
D03*
X99000Y479000D02*
D03*
X90000Y400000D02*
D03*
X642000Y505000D02*
D03*
X633000Y493000D02*
D03*
X797000Y596000D02*
D03*
X786000Y576000D02*
D03*
X787000Y799000D02*
D03*
X793000Y811000D02*
D03*
X859000Y822000D02*
D03*
X866000D02*
D03*
Y828000D02*
D03*
X102000Y324000D02*
D03*
Y315000D02*
D03*
X107000Y296000D02*
D03*
X102000Y294000D02*
D03*
Y299000D02*
D03*
Y306000D02*
D03*
X31000Y512000D02*
D03*
X23000D02*
D03*
X31000Y519000D02*
D03*
X23000D02*
D03*
X31000Y525000D02*
D03*
X23000D02*
D03*
X31000Y531000D02*
D03*
X23000D02*
D03*
X850000Y226000D02*
D03*
Y233000D02*
D03*
X438000Y544000D02*
D03*
X455980Y561848D02*
D03*
X444000Y556000D02*
D03*
X405000Y836000D02*
D03*
X400000Y843000D02*
D03*
X431000Y834000D02*
D03*
X405000Y830000D02*
D03*
X41000Y306000D02*
D03*
X40000Y280000D02*
D03*
X768000Y648000D02*
D03*
Y688000D02*
D03*
X78000Y355000D02*
D03*
X846000Y631000D02*
D03*
X838000Y641000D02*
D03*
X233000Y112800D02*
D03*
X102000Y400000D02*
D03*
X93101Y376101D02*
D03*
X85000Y382000D02*
D03*
X107000Y405000D02*
D03*
X126000Y374995D02*
D03*
X71000Y540000D02*
D03*
X79000Y533000D02*
D03*
X280000Y810000D02*
D03*
X201200Y355465D02*
D03*
X202000Y630000D02*
D03*
X219000Y614000D02*
D03*
X211000Y619000D02*
D03*
X193000Y633000D02*
D03*
X201000Y596000D02*
D03*
Y586000D02*
D03*
X259000Y472000D02*
D03*
X247000Y474000D02*
D03*
X252000Y466000D02*
D03*
X425400Y829675D02*
D03*
X631000Y623000D02*
D03*
X625000D02*
D03*
X667661Y732636D02*
D03*
X663701Y738080D02*
D03*
X218001Y99201D02*
D03*
X802000Y603000D02*
D03*
X746000Y645000D02*
D03*
X731000Y425000D02*
D03*
X719000Y407000D02*
D03*
X727000Y416000D02*
D03*
X721000Y398000D02*
D03*
X701000Y361000D02*
D03*
X714000Y382000D02*
D03*
X711000Y376000D02*
D03*
X707000Y369000D02*
D03*
X639204Y391799D02*
D03*
X632101Y392899D02*
D03*
X650000Y334000D02*
D03*
X659000Y358000D02*
D03*
X765000Y505000D02*
D03*
X797000Y443000D02*
D03*
X828600Y374500D02*
D03*
X820465Y345600D02*
D03*
X761002Y375402D02*
D03*
X741339Y617136D02*
D03*
X695900Y552604D02*
D03*
X733000Y645000D02*
D03*
X771200Y520989D02*
D03*
X823045Y528775D02*
D03*
X761000Y407000D02*
D03*
X820000Y375000D02*
D03*
X780800Y395000D02*
D03*
X789000D02*
D03*
X868101Y498899D02*
D03*
X840000Y424000D02*
D03*
X743465Y378900D02*
D03*
X770000Y375000D02*
D03*
X760000Y345000D02*
D03*
X742800Y349000D02*
D03*
X648000Y471000D02*
D03*
X646000Y461000D02*
D03*
X632520Y449892D02*
D03*
X642200Y453000D02*
D03*
X602000Y387000D02*
D03*
X712000Y431000D02*
D03*
X709000Y333000D02*
D03*
X683000Y437000D02*
D03*
X594000Y314000D02*
D03*
X576000Y307000D02*
D03*
X708000Y457000D02*
D03*
X692000Y470000D02*
D03*
X438804Y342804D02*
D03*
X429000Y353000D02*
D03*
X445000Y343000D02*
D03*
X444000Y359000D02*
D03*
X607449Y431449D02*
D03*
X596170Y444000D02*
D03*
X652000Y559000D02*
D03*
X822000Y650000D02*
D03*
X715300Y307400D02*
D03*
X108000Y424000D02*
D03*
X542000Y512000D02*
D03*
X671000Y549000D02*
D03*
X721865Y539990D02*
D03*
X552000Y535050D02*
D03*
X488000Y545000D02*
D03*
X721000Y294000D02*
D03*
X714000Y293000D02*
D03*
X758965Y509965D02*
D03*
X871000Y510000D02*
D03*
X752000Y458100D02*
D03*
X708000Y322000D02*
D03*
X743000Y360000D02*
D03*
X745566Y281636D02*
D03*
X454798Y549798D02*
D03*
X461300Y572700D02*
D03*
X454000Y570000D02*
D03*
X469000Y572000D02*
D03*
X449130Y538000D02*
D03*
X555000Y515000D02*
D03*
Y506000D02*
D03*
X509000Y642000D02*
D03*
X463595Y520000D02*
D03*
X830000Y345000D02*
D03*
X770000Y285000D02*
D03*
X814750Y467000D02*
D03*
X753000Y222000D02*
D03*
X741000Y211000D02*
D03*
X713000Y217000D02*
D03*
X719000Y228000D02*
D03*
X497000Y329000D02*
D03*
X710000Y184000D02*
D03*
X704000Y238000D02*
D03*
X700000Y176000D02*
D03*
X698000Y246000D02*
D03*
X497000Y341000D02*
D03*
X382200Y131000D02*
D03*
X530000Y85200D02*
D03*
X550000Y91000D02*
D03*
X201000Y90000D02*
D03*
X197944Y73785D02*
D03*
X182000Y107000D02*
D03*
X218000Y91000D02*
D03*
X134000Y475800D02*
D03*
X91000Y440000D02*
D03*
X290000Y478000D02*
D03*
X227000Y374000D02*
D03*
X219000Y365000D02*
D03*
X212000Y448000D02*
D03*
X140595Y550595D02*
D03*
X87000Y136000D02*
D03*
X173000Y194000D02*
D03*
X156000Y306000D02*
D03*
X159000Y323000D02*
D03*
X250000Y436000D02*
D03*
X257000Y410000D02*
D03*
X267000Y397000D02*
D03*
X433800Y670000D02*
D03*
X435000Y770000D02*
D03*
X298000Y366000D02*
D03*
X321000Y342000D02*
D03*
X311000Y348000D02*
D03*
X213000Y269000D02*
D03*
X69065Y331565D02*
D03*
X85000Y246500D02*
D03*
Y198000D02*
D03*
X67000Y165500D02*
D03*
X67000Y125000D02*
D03*
X78000Y376000D02*
D03*
X180000Y394000D02*
D03*
X67000Y289000D02*
D03*
X179000Y367600D02*
D03*
X211600Y388400D02*
D03*
X193000Y349000D02*
D03*
X158000Y275000D02*
D03*
X117000Y243000D02*
D03*
X99000Y489000D02*
D03*
Y498000D02*
D03*
Y516000D02*
D03*
X96000Y447000D02*
D03*
X161000Y413200D02*
D03*
X90000Y431000D02*
D03*
X94000Y528000D02*
D03*
X85000Y282000D02*
D03*
X188000Y400000D02*
D03*
X154000Y481000D02*
D03*
X195000Y382000D02*
D03*
X189000Y450000D02*
D03*
X204000Y376000D02*
D03*
X201000Y450000D02*
D03*
X232800Y742500D02*
D03*
X179000Y747700D02*
D03*
X253000Y696000D02*
D03*
X363499Y327601D02*
D03*
X375900Y245035D02*
D03*
X349000Y284930D02*
D03*
X358899Y305101D02*
D03*
X555000Y391000D02*
D03*
X560000Y397000D02*
D03*
X561000Y417000D02*
D03*
X184000Y349000D02*
D03*
X282000Y696000D02*
D03*
X288000Y688000D02*
D03*
X165000Y770000D02*
D03*
X279000Y855000D02*
D03*
X350000Y307000D02*
D03*
X434230Y469400D02*
D03*
X409000Y508000D02*
D03*
X405000Y501000D02*
D03*
X378000Y441000D02*
D03*
X169000Y713000D02*
D03*
X171000Y696000D02*
D03*
X375000Y432000D02*
D03*
X340000Y288000D02*
D03*
X441000Y272000D02*
D03*
X436000Y276800D02*
D03*
X498000Y276000D02*
D03*
X389000Y246000D02*
D03*
X488136Y562864D02*
D03*
X591000Y433000D02*
D03*
Y427000D02*
D03*
X561000Y571000D02*
D03*
X553000D02*
D03*
X452855Y525380D02*
D03*
X446856Y531380D02*
D03*
X402000Y557000D02*
D03*
X372000Y602000D02*
D03*
X393000Y557000D02*
D03*
X398399Y539200D02*
D03*
X406000Y545000D02*
D03*
X259000Y629000D02*
D03*
X253000Y685000D02*
D03*
X684000Y662000D02*
D03*
X692000Y750000D02*
D03*
X618000Y695000D02*
D03*
X603000Y687000D02*
D03*
X388000Y109000D02*
D03*
X589000Y108000D02*
D03*
X696000Y98000D02*
D03*
X673000Y119000D02*
D03*
X702000Y746000D02*
D03*
X535000Y716000D02*
D03*
X535359Y739641D02*
D03*
X132000Y706000D02*
D03*
X195000Y513000D02*
D03*
X201000Y523000D02*
D03*
X213601Y502601D02*
D03*
X207000Y490000D02*
D03*
X131000Y527000D02*
D03*
X144000Y510000D02*
D03*
X345000Y650000D02*
D03*
X386000Y750200D02*
D03*
X368000Y746000D02*
D03*
X742000Y749000D02*
D03*
X343000Y643000D02*
D03*
X369000Y690000D02*
D03*
X387000Y696000D02*
D03*
X697000Y661000D02*
D03*
X666000Y713000D02*
D03*
X625000Y670000D02*
D03*
X587200Y733000D02*
D03*
X624000Y683000D02*
D03*
X586000Y746000D02*
D03*
X848000Y524000D02*
D03*
X504200Y424000D02*
D03*
Y441000D02*
D03*
X510200D02*
D03*
Y424000D02*
D03*
X287000Y753350D02*
D03*
Y745000D02*
D03*
X187000Y92000D02*
D03*
X445000Y730000D02*
D03*
X545000Y656000D02*
D03*
X455000Y720000D02*
D03*
X555000Y657000D02*
D03*
X485000Y720000D02*
D03*
X435000Y750000D02*
D03*
X349000Y532000D02*
D03*
X525000Y770000D02*
D03*
Y790000D02*
D03*
Y760000D02*
D03*
Y720000D02*
D03*
X495000Y790000D02*
D03*
Y730000D02*
D03*
X465000Y740000D02*
D03*
X435000Y780000D02*
D03*
D139*
X585000Y836000D02*
X587413Y833587D01*
X599513D02*
X599800Y833300D01*
X587413Y833587D02*
X599513D01*
X599800Y833300D02*
X625200D01*
M02*
